G75*
%MOIN*%
%OFA0B0*%
%FSLAX24Y24*%
%IPPOS*%
%LPD*%
%AMOC8*
5,1,8,0,0,1.08239X$1,22.5*
%
%ADD10R,0.0300X0.0580*%
%ADD11R,0.0580X0.0300*%
%ADD12R,0.0513X0.0474*%
%ADD13R,0.0474X0.0513*%
%ADD14C,0.0680*%
%ADD15R,0.0710X0.0867*%
%ADD16R,0.0390X0.0430*%
%ADD17R,0.0500X0.0330*%
%ADD18R,0.0315X0.0197*%
%ADD19R,0.0157X0.0630*%
%ADD20R,0.0395X0.0395*%
%ADD21R,0.0595X0.0595*%
%ADD22C,0.0595*%
%ADD23C,0.3623*%
%ADD24C,0.0600*%
%ADD25C,0.0476*%
D10*
X036276Y032939D03*
X036591Y032939D03*
X036906Y032939D03*
X037221Y032939D03*
X037536Y032939D03*
X037851Y032939D03*
X038166Y032939D03*
X038481Y032939D03*
X038481Y036319D03*
X038166Y036319D03*
X037851Y036319D03*
X037536Y036319D03*
X037221Y036319D03*
X036906Y036319D03*
X036591Y036319D03*
X036276Y036319D03*
D11*
X035689Y035731D03*
X035689Y035416D03*
X035689Y035101D03*
X035689Y034786D03*
X035689Y034471D03*
X035689Y034156D03*
X035689Y033841D03*
X035689Y033526D03*
X039069Y033526D03*
X039069Y033841D03*
X039069Y034156D03*
X039069Y034471D03*
X039069Y034786D03*
X039069Y035101D03*
X039069Y035416D03*
X039069Y035731D03*
D12*
X039129Y037669D03*
X039129Y038338D03*
X037588Y037629D03*
X036919Y037629D03*
X036129Y039794D03*
X036129Y040463D03*
G36*
X049655Y049767D02*
X049294Y050128D01*
X049629Y050463D01*
X049990Y050102D01*
X049655Y049767D01*
G37*
G36*
X050128Y049294D02*
X049767Y049655D01*
X050102Y049990D01*
X050463Y049629D01*
X050128Y049294D01*
G37*
G36*
X050878Y050044D02*
X050517Y050405D01*
X050852Y050740D01*
X051213Y050379D01*
X050878Y050044D01*
G37*
G36*
X050405Y050517D02*
X050044Y050878D01*
X050379Y051213D01*
X050740Y050852D01*
X050405Y050517D01*
G37*
G36*
X051129Y051963D02*
X051490Y051602D01*
X051155Y051267D01*
X050794Y051628D01*
X051129Y051963D01*
G37*
G36*
X051602Y051490D02*
X051963Y051129D01*
X051628Y050794D01*
X051267Y051155D01*
X051602Y051490D01*
G37*
G36*
X050463Y019628D02*
X050102Y019267D01*
X049767Y019602D01*
X050128Y019963D01*
X050463Y019628D01*
G37*
G36*
X051213Y018878D02*
X050852Y018517D01*
X050517Y018852D01*
X050878Y019213D01*
X051213Y018878D01*
G37*
G36*
X051963Y018128D02*
X051602Y017767D01*
X051267Y018102D01*
X051628Y018463D01*
X051963Y018128D01*
G37*
G36*
X051490Y017655D02*
X051129Y017294D01*
X050794Y017629D01*
X051155Y017990D01*
X051490Y017655D01*
G37*
G36*
X050740Y018405D02*
X050379Y018044D01*
X050044Y018379D01*
X050405Y018740D01*
X050740Y018405D01*
G37*
G36*
X049990Y019155D02*
X049629Y018794D01*
X049294Y019129D01*
X049655Y019490D01*
X049990Y019155D01*
G37*
G36*
X019628Y018794D02*
X019267Y019155D01*
X019602Y019490D01*
X019963Y019129D01*
X019628Y018794D01*
G37*
G36*
X018878Y018044D02*
X018517Y018405D01*
X018852Y018740D01*
X019213Y018379D01*
X018878Y018044D01*
G37*
G36*
X018128Y017294D02*
X017767Y017655D01*
X018102Y017990D01*
X018463Y017629D01*
X018128Y017294D01*
G37*
G36*
X017655Y017767D02*
X017294Y018128D01*
X017629Y018463D01*
X017990Y018102D01*
X017655Y017767D01*
G37*
G36*
X018405Y018517D02*
X018044Y018878D01*
X018379Y019213D01*
X018740Y018852D01*
X018405Y018517D01*
G37*
G36*
X019155Y019267D02*
X018794Y019628D01*
X019129Y019963D01*
X019490Y019602D01*
X019155Y019267D01*
G37*
G36*
X019490Y049655D02*
X019129Y049294D01*
X018794Y049629D01*
X019155Y049990D01*
X019490Y049655D01*
G37*
G36*
X019963Y050128D02*
X019602Y049767D01*
X019267Y050102D01*
X019628Y050463D01*
X019963Y050128D01*
G37*
G36*
X019213Y050878D02*
X018852Y050517D01*
X018517Y050852D01*
X018878Y051213D01*
X019213Y050878D01*
G37*
G36*
X018740Y050405D02*
X018379Y050044D01*
X018044Y050379D01*
X018405Y050740D01*
X018740Y050405D01*
G37*
G36*
X017294Y051129D02*
X017655Y051490D01*
X017990Y051155D01*
X017629Y050794D01*
X017294Y051129D01*
G37*
G36*
X017767Y051602D02*
X018128Y051963D01*
X018463Y051628D01*
X018102Y051267D01*
X017767Y051602D01*
G37*
D13*
X035129Y040463D03*
X035129Y039794D03*
X038629Y039794D03*
X038629Y040463D03*
X039629Y040463D03*
X039629Y039794D03*
X041294Y041629D03*
X041963Y041629D03*
D14*
X042179Y036379D02*
X041579Y036379D01*
X041579Y035379D02*
X042179Y035379D01*
X042179Y034379D02*
X041579Y034379D01*
X041579Y033379D02*
X042179Y033379D01*
X042179Y032379D02*
X041579Y032379D01*
X041579Y031379D02*
X042179Y031379D01*
X048770Y021195D02*
X049195Y020770D01*
X048487Y020063D02*
X048063Y020487D01*
X028929Y035629D02*
X028329Y035629D01*
X028329Y036629D02*
X028929Y036629D01*
X028929Y037629D02*
X028329Y037629D01*
X028329Y038629D02*
X028929Y038629D01*
X028929Y040629D02*
X028329Y040629D01*
X028329Y041629D02*
X028929Y041629D01*
X021195Y048770D02*
X020770Y049195D01*
X020063Y048487D02*
X020487Y048063D01*
X020487Y021195D02*
X020063Y020770D01*
X020770Y020063D02*
X021195Y020487D01*
X048770Y048063D02*
X049195Y048487D01*
X048487Y049195D02*
X048063Y048770D01*
D15*
X041629Y039692D03*
X041629Y037566D03*
D16*
G36*
X047622Y047373D02*
X047897Y047098D01*
X047594Y046795D01*
X047319Y047070D01*
X047622Y047373D01*
G37*
G36*
X047084Y047911D02*
X047359Y047636D01*
X047056Y047333D01*
X046781Y047608D01*
X047084Y047911D01*
G37*
G36*
X047919Y048208D02*
X048194Y047933D01*
X047891Y047630D01*
X047616Y047905D01*
X047919Y048208D01*
G37*
G36*
X021884Y047622D02*
X022159Y047897D01*
X022462Y047594D01*
X022187Y047319D01*
X021884Y047622D01*
G37*
G36*
X021347Y047084D02*
X021622Y047359D01*
X021925Y047056D01*
X021650Y046781D01*
X021347Y047084D01*
G37*
G36*
X021050Y047919D02*
X021325Y048194D01*
X021628Y047891D01*
X021353Y047616D01*
X021050Y047919D01*
G37*
G36*
X021636Y021884D02*
X021361Y022159D01*
X021664Y022462D01*
X021939Y022187D01*
X021636Y021884D01*
G37*
G36*
X022173Y021347D02*
X021898Y021622D01*
X022201Y021925D01*
X022476Y021650D01*
X022173Y021347D01*
G37*
G36*
X021339Y021050D02*
X021064Y021325D01*
X021367Y021628D01*
X021642Y021353D01*
X021339Y021050D01*
G37*
G36*
X047373Y021636D02*
X047098Y021361D01*
X046795Y021664D01*
X047070Y021939D01*
X047373Y021636D01*
G37*
G36*
X047911Y022173D02*
X047636Y021898D01*
X047333Y022201D01*
X047608Y022476D01*
X047911Y022173D01*
G37*
G36*
X048208Y021339D02*
X047933Y021064D01*
X047630Y021367D01*
X047905Y021642D01*
X048208Y021339D01*
G37*
D17*
X037749Y039879D03*
X037749Y040629D03*
X036879Y040629D03*
X036879Y040254D03*
X036879Y039879D03*
D18*
X037288Y031292D03*
X037879Y031292D03*
X038469Y031292D03*
X038469Y030465D03*
X037879Y030465D03*
X037288Y030465D03*
D19*
X037288Y030879D03*
X037879Y030879D03*
X038469Y030879D03*
D20*
X041334Y040879D03*
X041924Y040879D03*
D21*
X034629Y041629D03*
D22*
X035629Y041629D03*
X036629Y041629D03*
X037629Y041629D03*
X038629Y041629D03*
X039629Y041629D03*
X033129Y034629D03*
X033129Y033629D03*
X033129Y032629D03*
X033129Y031629D03*
X033129Y030629D03*
X033129Y029629D03*
X033129Y028629D03*
X033129Y027629D03*
D23*
X014879Y014879D03*
X014879Y054379D03*
X054379Y054379D03*
X054379Y014879D03*
D24*
X033389Y036629D02*
X032869Y036629D01*
X032869Y037629D02*
X033389Y037629D01*
X033389Y038629D02*
X032869Y038629D01*
X032869Y039629D02*
X033389Y039629D01*
X033389Y040629D02*
X032869Y040629D01*
X030389Y040629D02*
X029869Y040629D01*
X029869Y039629D02*
X030389Y039629D01*
X030389Y038629D02*
X029869Y038629D01*
X029869Y037629D02*
X030389Y037629D01*
X030389Y036629D02*
X029869Y036629D01*
D25*
X035379Y036629D03*
X036879Y035129D03*
X037379Y034629D03*
X038379Y034754D03*
X038379Y033879D03*
X036379Y033629D03*
X039754Y035379D03*
X040629Y037504D03*
X040629Y040379D03*
X040504Y042754D03*
X042379Y042254D03*
X033129Y042254D03*
X027129Y026629D03*
M02*
