G75*
%MOIN*%
%OFA0B0*%
%FSLAX24Y24*%
%IPPOS*%
%LPD*%
%AMOC8*
5,1,8,0,0,1.08239X$1,22.5*
%
%ADD10C,0.0600*%
%ADD11R,0.0515X0.0515*%
%ADD12C,0.0515*%
%ADD13C,0.3543*%
%ADD14C,0.0520*%
%ADD15C,0.0396*%
%ADD16C,0.0100*%
%ADD17C,0.0160*%
D10*
X020063Y020770D02*
X020487Y021195D01*
X021195Y020487D02*
X020770Y020063D01*
X028329Y035629D02*
X028929Y035629D01*
X028929Y036629D02*
X028329Y036629D01*
X028329Y037629D02*
X028929Y037629D01*
X028929Y038629D02*
X028329Y038629D01*
X028329Y040629D02*
X028929Y040629D01*
X028929Y041629D02*
X028329Y041629D01*
X021195Y048770D02*
X020770Y049195D01*
X020063Y048487D02*
X020487Y048063D01*
X041579Y036379D02*
X042179Y036379D01*
X042179Y035379D02*
X041579Y035379D01*
X041579Y034379D02*
X042179Y034379D01*
X042179Y033379D02*
X041579Y033379D01*
X041579Y032379D02*
X042179Y032379D01*
X042179Y031379D02*
X041579Y031379D01*
X048770Y021195D02*
X049195Y020770D01*
X048487Y020063D02*
X048063Y020487D01*
X048770Y048063D02*
X049195Y048487D01*
X048487Y049195D02*
X048063Y048770D01*
D11*
X034629Y041629D03*
D12*
X035629Y041629D03*
X036629Y041629D03*
X037629Y041629D03*
X038629Y041629D03*
X039629Y041629D03*
X033129Y034629D03*
X033129Y033629D03*
X033129Y032629D03*
X033129Y031629D03*
X033129Y030629D03*
X033129Y029629D03*
X033129Y028629D03*
X033129Y027629D03*
D13*
X014879Y014879D03*
X014879Y054379D03*
X054379Y054379D03*
X054379Y014879D03*
D14*
X033389Y036629D02*
X032869Y036629D01*
X032869Y037629D02*
X033389Y037629D01*
X033389Y038629D02*
X032869Y038629D01*
X032869Y039629D02*
X033389Y039629D01*
X033389Y040629D02*
X032869Y040629D01*
X030389Y040629D02*
X029869Y040629D01*
X029869Y039629D02*
X030389Y039629D01*
X030389Y038629D02*
X029869Y038629D01*
X029869Y037629D02*
X030389Y037629D01*
X030389Y036629D02*
X029869Y036629D01*
D15*
X035379Y036629D03*
X036879Y035129D03*
X037379Y034629D03*
X038379Y034754D03*
X038379Y033879D03*
X036379Y033629D03*
X039754Y035379D03*
X040629Y037504D03*
X040629Y040379D03*
X040504Y042754D03*
X042379Y042254D03*
X033129Y042254D03*
X027129Y026629D03*
D16*
X013154Y013797D02*
X013439Y013439D01*
X013797Y013154D01*
X014209Y012956D01*
X014654Y012854D01*
X015112Y012853D01*
X015558Y012955D01*
X015970Y013152D01*
X016328Y013437D01*
X016614Y013794D01*
X016813Y014206D01*
X016915Y014651D01*
X016929Y014880D01*
X016929Y014968D01*
X016929Y014969D01*
X016929Y014969D01*
X016963Y015051D01*
X016997Y015134D01*
X016998Y015134D01*
X016998Y015135D01*
X017061Y015197D01*
X027874Y026010D01*
X028039Y026079D01*
X041218Y026079D01*
X041384Y026010D01*
X052197Y015197D01*
X052260Y015135D01*
X052260Y015134D01*
X052260Y015134D01*
X052294Y015051D01*
X052329Y014969D01*
X052329Y014969D01*
X052329Y014968D01*
X052329Y014880D01*
X052342Y014651D01*
X052445Y014206D01*
X052644Y013794D01*
X052930Y013437D01*
X053288Y013152D01*
X053700Y012955D01*
X054146Y012853D01*
X054603Y012854D01*
X055049Y012956D01*
X055461Y013154D01*
X055818Y013439D01*
X056103Y013797D01*
X056302Y014209D01*
X056404Y014654D01*
X056404Y015112D01*
X056303Y015558D01*
X056105Y015970D01*
X055821Y016328D01*
X055464Y016614D01*
X055052Y016813D01*
X055052Y016813D01*
X054606Y016915D01*
X054378Y016929D01*
X054289Y016929D01*
X054289Y016929D01*
X054288Y016929D01*
X054206Y016963D01*
X054124Y016997D01*
X050397Y016997D01*
X050495Y016899D02*
X054679Y016899D01*
X054629Y016781D02*
X054128Y016781D01*
X053645Y016652D01*
X053211Y016401D01*
X052857Y016047D01*
X052606Y015613D01*
X052476Y015129D01*
X052476Y014628D01*
X052606Y014145D01*
X052857Y013711D01*
X053211Y013357D01*
X053645Y013106D01*
X054128Y012976D01*
X054629Y012976D01*
X055113Y013106D01*
X055547Y013357D01*
X055901Y013711D01*
X056152Y014145D01*
X056281Y014628D01*
X056281Y015129D01*
X056152Y015613D01*
X055901Y016047D01*
X055547Y016401D01*
X055113Y016652D01*
X054629Y016781D01*
X054926Y016702D02*
X055281Y016702D01*
X055197Y016603D02*
X055476Y016603D01*
X055367Y016505D02*
X055599Y016505D01*
X055538Y016406D02*
X055723Y016406D01*
X055640Y016308D02*
X055837Y016308D01*
X055915Y016209D02*
X055739Y016209D01*
X055837Y016111D02*
X055993Y016111D01*
X055921Y016012D02*
X056071Y016012D01*
X056132Y015914D02*
X055978Y015914D01*
X056035Y015815D02*
X056179Y015815D01*
X056227Y015717D02*
X056092Y015717D01*
X056149Y015618D02*
X056274Y015618D01*
X056312Y015520D02*
X056177Y015520D01*
X056203Y015421D02*
X056334Y015421D01*
X056356Y015323D02*
X056229Y015323D01*
X056256Y015224D02*
X056379Y015224D01*
X056401Y015126D02*
X056281Y015126D01*
X056281Y015027D02*
X056404Y015027D01*
X056404Y014929D02*
X056281Y014929D01*
X056281Y014830D02*
X056404Y014830D01*
X056404Y014732D02*
X056281Y014732D01*
X056281Y014633D02*
X056399Y014633D01*
X056377Y014535D02*
X056256Y014535D01*
X056230Y014436D02*
X056354Y014436D01*
X056331Y014338D02*
X056203Y014338D01*
X056177Y014239D02*
X056309Y014239D01*
X056269Y014141D02*
X056149Y014141D01*
X056092Y014042D02*
X056222Y014042D01*
X056174Y013944D02*
X056036Y013944D01*
X055979Y013845D02*
X056127Y013845D01*
X056064Y013747D02*
X055922Y013747D01*
X055985Y013648D02*
X055839Y013648D01*
X055906Y013550D02*
X055740Y013550D01*
X055828Y013451D02*
X055642Y013451D01*
X055710Y013353D02*
X055540Y013353D01*
X055586Y013254D02*
X055370Y013254D01*
X055463Y013156D02*
X055199Y013156D01*
X055260Y013057D02*
X054931Y013057D01*
X055055Y012959D02*
X053691Y012959D01*
X053827Y013057D02*
X053486Y013057D01*
X053559Y013156D02*
X053284Y013156D01*
X053388Y013254D02*
X053160Y013254D01*
X053217Y013353D02*
X053036Y013353D01*
X053116Y013451D02*
X052918Y013451D01*
X052840Y013550D02*
X053018Y013550D01*
X052919Y013648D02*
X052761Y013648D01*
X052836Y013747D02*
X052682Y013747D01*
X052619Y013845D02*
X052779Y013845D01*
X052722Y013944D02*
X052572Y013944D01*
X052524Y014042D02*
X052665Y014042D01*
X052608Y014141D02*
X052476Y014141D01*
X052437Y014239D02*
X052581Y014239D01*
X052554Y014338D02*
X052414Y014338D01*
X052392Y014436D02*
X052528Y014436D01*
X052502Y014535D02*
X052369Y014535D01*
X052346Y014633D02*
X052476Y014633D01*
X052476Y014732D02*
X052337Y014732D01*
X052332Y014830D02*
X052476Y014830D01*
X052476Y014929D02*
X052329Y014929D01*
X052304Y015027D02*
X052476Y015027D01*
X052476Y015126D02*
X052264Y015126D01*
X052170Y015224D02*
X052502Y015224D01*
X052528Y015323D02*
X052071Y015323D01*
X051973Y015421D02*
X052555Y015421D01*
X052581Y015520D02*
X051874Y015520D01*
X051776Y015618D02*
X052609Y015618D01*
X052666Y015717D02*
X051677Y015717D01*
X051579Y015815D02*
X052723Y015815D01*
X052780Y015914D02*
X051480Y015914D01*
X051382Y016012D02*
X052837Y016012D01*
X052920Y016111D02*
X051283Y016111D01*
X051185Y016209D02*
X053019Y016209D01*
X053117Y016308D02*
X051086Y016308D01*
X050988Y016406D02*
X053220Y016406D01*
X053390Y016505D02*
X050889Y016505D01*
X050791Y016603D02*
X053561Y016603D01*
X053832Y016702D02*
X050692Y016702D01*
X050594Y016800D02*
X055078Y016800D01*
X054124Y016998D02*
X054124Y016997D01*
X054123Y016998D02*
X054124Y016998D01*
X054123Y016998D02*
X054061Y017061D01*
X043247Y027874D01*
X043179Y028039D01*
X043179Y041218D01*
X043247Y041384D01*
X054061Y052197D01*
X054123Y052260D01*
X054124Y052260D01*
X054124Y052260D01*
X054206Y052294D01*
X054288Y052329D01*
X054289Y052329D01*
X054289Y052329D01*
X054378Y052329D01*
X054606Y052342D01*
X055052Y052445D01*
X055464Y052644D01*
X055821Y052930D01*
X056105Y053288D01*
X056303Y053700D01*
X056404Y054146D01*
X056404Y054603D01*
X056302Y055049D01*
X056103Y055461D01*
X055818Y055818D01*
X055461Y056103D01*
X055049Y056302D01*
X054603Y056404D01*
X054146Y056404D01*
X053700Y056303D01*
X053288Y056105D01*
X052930Y055821D01*
X052644Y055464D01*
X052445Y055052D01*
X052342Y054606D01*
X052329Y054378D01*
X052329Y054289D01*
X052329Y054289D01*
X052329Y054288D01*
X052294Y054206D01*
X052260Y054124D01*
X052260Y054124D01*
X052260Y054123D01*
X052197Y054061D01*
X041384Y043247D01*
X041218Y043179D01*
X028039Y043179D01*
X027874Y043247D01*
X017061Y054061D01*
X016998Y054123D01*
X016998Y054124D01*
X016997Y054124D01*
X016963Y054206D01*
X016929Y054288D01*
X016929Y054289D01*
X016929Y054289D01*
X016929Y054378D01*
X016915Y054606D01*
X016813Y055052D01*
X016614Y055464D01*
X016328Y055821D01*
X015970Y056105D01*
X015558Y056303D01*
X015112Y056404D01*
X014654Y056404D01*
X014209Y056302D01*
X013797Y056103D01*
X013439Y055818D01*
X013154Y055461D01*
X012956Y055049D01*
X012854Y054603D01*
X012853Y054146D01*
X012955Y053700D01*
X013152Y053288D01*
X013437Y052930D01*
X013794Y052644D01*
X014206Y052445D01*
X014651Y052342D01*
X014880Y052329D01*
X014968Y052329D01*
X014969Y052329D01*
X014969Y052329D01*
X015051Y052294D01*
X015134Y052260D01*
X015134Y052260D01*
X015135Y052260D01*
X015197Y052197D01*
X026010Y041384D01*
X026079Y041218D01*
X026079Y028039D01*
X026010Y027874D01*
X015197Y017061D01*
X015135Y016998D01*
X015134Y016998D01*
X015134Y016997D01*
X015051Y016963D01*
X014969Y016929D01*
X014969Y016929D01*
X014968Y016929D01*
X014880Y016929D01*
X014651Y016915D01*
X014206Y016813D01*
X013794Y016614D01*
X013437Y016328D01*
X013152Y015970D01*
X012955Y015558D01*
X012853Y015112D01*
X012854Y014654D01*
X012956Y014209D01*
X013154Y013797D01*
X013131Y013845D02*
X013279Y013845D01*
X013336Y013747D02*
X013194Y013747D01*
X013273Y013648D02*
X013419Y013648D01*
X013357Y013711D02*
X013711Y013357D01*
X014145Y013106D01*
X014628Y012976D01*
X015129Y012976D01*
X015613Y013106D01*
X016047Y013357D01*
X016401Y013711D01*
X016652Y014145D01*
X016781Y014628D01*
X016781Y015129D01*
X016652Y015613D01*
X016401Y016047D01*
X016047Y016401D01*
X015613Y016652D01*
X015129Y016781D01*
X014628Y016781D01*
X014145Y016652D01*
X013711Y016401D01*
X013357Y016047D01*
X013106Y015613D01*
X012976Y015129D01*
X012976Y014628D01*
X013106Y014145D01*
X013357Y013711D01*
X013351Y013550D02*
X013518Y013550D01*
X013430Y013451D02*
X013616Y013451D01*
X013548Y013353D02*
X013717Y013353D01*
X013671Y013254D02*
X013888Y013254D01*
X013795Y013156D02*
X014059Y013156D01*
X013998Y013057D02*
X014327Y013057D01*
X014202Y012959D02*
X015566Y012959D01*
X015431Y013057D02*
X015772Y013057D01*
X015699Y013156D02*
X015974Y013156D01*
X015870Y013254D02*
X016098Y013254D01*
X016040Y013353D02*
X016222Y013353D01*
X016142Y013451D02*
X016339Y013451D01*
X016418Y013550D02*
X016240Y013550D01*
X016339Y013648D02*
X016497Y013648D01*
X016422Y013747D02*
X016576Y013747D01*
X016638Y013845D02*
X016479Y013845D01*
X016536Y013944D02*
X016686Y013944D01*
X016734Y014042D02*
X016592Y014042D01*
X016649Y014141D02*
X016781Y014141D01*
X016820Y014239D02*
X016677Y014239D01*
X016703Y014338D02*
X016843Y014338D01*
X016866Y014436D02*
X016730Y014436D01*
X016756Y014535D02*
X016889Y014535D01*
X016911Y014633D02*
X016781Y014633D01*
X016781Y014732D02*
X016920Y014732D01*
X016926Y014830D02*
X016781Y014830D01*
X016781Y014929D02*
X016929Y014929D01*
X016953Y015027D02*
X016781Y015027D01*
X016781Y015126D02*
X016994Y015126D01*
X017088Y015224D02*
X016756Y015224D01*
X016729Y015323D02*
X017186Y015323D01*
X017285Y015421D02*
X016703Y015421D01*
X016677Y015520D02*
X017383Y015520D01*
X017482Y015618D02*
X016649Y015618D01*
X016592Y015717D02*
X017580Y015717D01*
X017679Y015815D02*
X016535Y015815D01*
X016478Y015914D02*
X017777Y015914D01*
X017876Y016012D02*
X016421Y016012D01*
X016337Y016111D02*
X017974Y016111D01*
X018073Y016209D02*
X016239Y016209D01*
X016140Y016308D02*
X018171Y016308D01*
X018270Y016406D02*
X016038Y016406D01*
X015867Y016505D02*
X018368Y016505D01*
X018467Y016603D02*
X015697Y016603D01*
X015426Y016702D02*
X018565Y016702D01*
X018664Y016800D02*
X014180Y016800D01*
X014332Y016702D02*
X013976Y016702D01*
X014061Y016603D02*
X013781Y016603D01*
X013890Y016505D02*
X013658Y016505D01*
X013720Y016406D02*
X013535Y016406D01*
X013617Y016308D02*
X013421Y016308D01*
X013343Y016209D02*
X013519Y016209D01*
X013420Y016111D02*
X013264Y016111D01*
X013337Y016012D02*
X013186Y016012D01*
X013126Y015914D02*
X013280Y015914D01*
X013223Y015815D02*
X013078Y015815D01*
X013031Y015717D02*
X013166Y015717D01*
X013109Y015618D02*
X012984Y015618D01*
X012946Y015520D02*
X013081Y015520D01*
X013055Y015421D02*
X012924Y015421D01*
X012901Y015323D02*
X013028Y015323D01*
X013002Y015224D02*
X012879Y015224D01*
X012856Y015126D02*
X012976Y015126D01*
X012976Y015027D02*
X012853Y015027D01*
X012853Y014929D02*
X012976Y014929D01*
X012976Y014830D02*
X012854Y014830D01*
X012854Y014732D02*
X012976Y014732D01*
X012976Y014633D02*
X012859Y014633D01*
X012881Y014535D02*
X013002Y014535D01*
X013028Y014436D02*
X012904Y014436D01*
X012926Y014338D02*
X013054Y014338D01*
X013081Y014239D02*
X012949Y014239D01*
X012988Y014141D02*
X013108Y014141D01*
X013165Y014042D02*
X013036Y014042D01*
X013083Y013944D02*
X013222Y013944D01*
X014626Y012860D02*
X015142Y012860D01*
X014579Y016899D02*
X018762Y016899D01*
X018861Y016997D02*
X015134Y016997D01*
X015232Y017096D02*
X018959Y017096D01*
X019058Y017194D02*
X015331Y017194D01*
X015429Y017293D02*
X019156Y017293D01*
X019255Y017391D02*
X015528Y017391D01*
X015626Y017490D02*
X019353Y017490D01*
X019452Y017588D02*
X015725Y017588D01*
X015823Y017687D02*
X019550Y017687D01*
X019649Y017785D02*
X015922Y017785D01*
X016020Y017884D02*
X019747Y017884D01*
X019846Y017982D02*
X016119Y017982D01*
X016217Y018081D02*
X019944Y018081D01*
X020043Y018179D02*
X016316Y018179D01*
X016414Y018278D02*
X020141Y018278D01*
X020240Y018376D02*
X016513Y018376D01*
X016611Y018475D02*
X020338Y018475D01*
X020437Y018573D02*
X016710Y018573D01*
X016808Y018672D02*
X020535Y018672D01*
X020634Y018770D02*
X016907Y018770D01*
X017005Y018869D02*
X020732Y018869D01*
X020831Y018967D02*
X017104Y018967D01*
X017202Y019066D02*
X020929Y019066D01*
X021028Y019164D02*
X017301Y019164D01*
X017399Y019263D02*
X021126Y019263D01*
X021225Y019361D02*
X017498Y019361D01*
X017596Y019460D02*
X021323Y019460D01*
X021422Y019558D02*
X017695Y019558D01*
X017793Y019657D02*
X020626Y019657D01*
X020685Y019632D02*
X020856Y019632D01*
X021014Y019698D01*
X021560Y020243D01*
X021625Y020402D01*
X021625Y020573D01*
X021560Y020731D01*
X021438Y020853D01*
X021280Y020918D01*
X021216Y020918D01*
X026818Y026520D01*
X026850Y026443D01*
X026943Y026350D01*
X027063Y026300D01*
X027194Y026300D01*
X027315Y026350D01*
X027383Y026418D01*
X036966Y026418D01*
X037090Y026542D01*
X038590Y028042D01*
X038590Y033625D01*
X038658Y033693D01*
X038708Y033813D01*
X038708Y033944D01*
X038658Y034065D01*
X038565Y034158D01*
X038444Y034208D01*
X038313Y034208D01*
X038193Y034158D01*
X038100Y034065D01*
X038050Y033944D01*
X038050Y033813D01*
X038100Y033693D01*
X038168Y033625D01*
X038168Y028216D01*
X036792Y026840D01*
X027383Y026840D01*
X027315Y026908D01*
X027194Y026958D01*
X027063Y026958D01*
X026943Y026908D01*
X026850Y026815D01*
X026840Y026790D01*
X026840Y027042D01*
X028716Y028918D01*
X028840Y029042D01*
X028840Y035198D01*
X029014Y035198D01*
X029173Y035264D01*
X029294Y035385D01*
X029360Y035543D01*
X029360Y035714D01*
X029294Y035873D01*
X029173Y035994D01*
X029014Y036060D01*
X028246Y036060D01*
X027840Y036466D01*
X027840Y041792D01*
X028091Y042043D01*
X028151Y042043D01*
X028093Y042014D01*
X028036Y041972D01*
X027986Y041922D01*
X027944Y041865D01*
X027912Y041802D01*
X027890Y041734D01*
X027881Y041679D01*
X028579Y041679D01*
X028579Y041579D01*
X028679Y041579D01*
X028679Y041679D01*
X029377Y041679D01*
X029368Y041734D01*
X029346Y041802D01*
X029314Y041865D01*
X029272Y041922D01*
X029222Y041972D01*
X029165Y042014D01*
X029107Y042043D01*
X032875Y042043D01*
X032918Y042000D01*
X032918Y041020D01*
X032791Y041020D01*
X032648Y040960D01*
X032538Y040850D01*
X032478Y040707D01*
X032478Y040551D01*
X032538Y040408D01*
X032648Y040298D01*
X032791Y040238D01*
X033440Y040238D01*
X033222Y040020D01*
X032791Y040020D01*
X032648Y039960D01*
X032538Y039850D01*
X032478Y039707D01*
X032478Y039551D01*
X032538Y039408D01*
X032648Y039298D01*
X032791Y039238D01*
X033440Y039238D01*
X033222Y039020D01*
X032791Y039020D01*
X032648Y038960D01*
X032538Y038850D01*
X032478Y038707D01*
X032478Y038551D01*
X032538Y038408D01*
X032648Y038298D01*
X032791Y038238D01*
X033467Y038238D01*
X033610Y038298D01*
X033720Y038408D01*
X033780Y038551D01*
X033780Y038707D01*
X033720Y038850D01*
X033684Y038886D01*
X035716Y040918D01*
X035840Y041042D01*
X035840Y041296D01*
X035849Y041300D01*
X035958Y041409D01*
X036017Y041552D01*
X036017Y041706D01*
X035958Y041849D01*
X035849Y041958D01*
X035706Y042017D01*
X035552Y042017D01*
X035409Y041958D01*
X035300Y041849D01*
X035241Y041706D01*
X035241Y041552D01*
X035300Y041409D01*
X035409Y041300D01*
X035418Y041296D01*
X035418Y041216D01*
X033780Y039578D01*
X033780Y039707D01*
X033720Y039850D01*
X033684Y039886D01*
X034716Y040918D01*
X034840Y041042D01*
X034840Y041241D01*
X034940Y041241D01*
X035017Y041317D01*
X035017Y041940D01*
X034940Y042017D01*
X034317Y042017D01*
X034241Y041940D01*
X034241Y041317D01*
X034317Y041241D01*
X034418Y041241D01*
X034418Y041216D01*
X033780Y040578D01*
X033780Y040707D01*
X033720Y040850D01*
X033610Y040960D01*
X033467Y041020D01*
X033340Y041020D01*
X033340Y042000D01*
X033408Y042068D01*
X033458Y042188D01*
X033458Y042319D01*
X033408Y042440D01*
X033315Y042533D01*
X033194Y042583D01*
X033063Y042583D01*
X032943Y042533D01*
X032875Y042465D01*
X027917Y042465D01*
X027793Y042341D01*
X027504Y042052D01*
X021216Y048340D01*
X021280Y048340D01*
X021438Y048405D01*
X021560Y048526D01*
X021625Y048685D01*
X021625Y048856D01*
X021560Y049014D01*
X021014Y049560D01*
X020856Y049625D01*
X020685Y049625D01*
X020526Y049560D01*
X020405Y049438D01*
X020340Y049280D01*
X020340Y049109D01*
X020405Y048951D01*
X020772Y048584D01*
X020772Y048388D01*
X020307Y048853D01*
X020149Y048918D01*
X019977Y048918D01*
X019819Y048853D01*
X019698Y048731D01*
X019632Y048573D01*
X019632Y048402D01*
X019698Y048243D01*
X020243Y047698D01*
X020402Y047632D01*
X020573Y047632D01*
X020731Y047698D01*
X020853Y047819D01*
X020918Y047977D01*
X020918Y048042D01*
X027418Y041542D01*
X027418Y036292D01*
X027927Y035783D01*
X027898Y035714D01*
X027898Y035543D01*
X027964Y035385D01*
X028085Y035264D01*
X028243Y035198D01*
X028418Y035198D01*
X028418Y029216D01*
X026418Y027216D01*
X026418Y026716D01*
X020918Y021216D01*
X020918Y021280D01*
X020853Y021438D01*
X020731Y021560D01*
X020573Y021625D01*
X020402Y021625D01*
X020243Y021560D01*
X019698Y021014D01*
X019632Y020856D01*
X019632Y020685D01*
X019698Y020526D01*
X019819Y020405D01*
X019977Y020340D01*
X020149Y020340D01*
X020307Y020405D01*
X020772Y020870D01*
X020772Y020674D01*
X020405Y020307D01*
X020340Y020149D01*
X018286Y020149D01*
X018384Y020248D02*
X020381Y020248D01*
X020340Y020149D02*
X020340Y019977D01*
X020405Y019819D01*
X020526Y019698D01*
X020685Y019632D01*
X020915Y019657D02*
X021520Y019657D01*
X021619Y019755D02*
X021072Y019755D01*
X021170Y019854D02*
X021717Y019854D01*
X021816Y019952D02*
X021269Y019952D01*
X021367Y020051D02*
X021914Y020051D01*
X022013Y020149D02*
X021466Y020149D01*
X021561Y020248D02*
X022111Y020248D01*
X022210Y020346D02*
X021602Y020346D01*
X021625Y020445D02*
X022308Y020445D01*
X022407Y020543D02*
X021625Y020543D01*
X021597Y020642D02*
X022505Y020642D01*
X022604Y020740D02*
X021551Y020740D01*
X021452Y020839D02*
X022702Y020839D01*
X022801Y020937D02*
X021235Y020937D01*
X021334Y021036D02*
X022899Y021036D01*
X022998Y021134D02*
X021432Y021134D01*
X021531Y021233D02*
X023096Y021233D01*
X023195Y021331D02*
X021629Y021331D01*
X021728Y021430D02*
X023293Y021430D01*
X023392Y021528D02*
X021826Y021528D01*
X021925Y021627D02*
X023490Y021627D01*
X023589Y021725D02*
X022023Y021725D01*
X022122Y021824D02*
X023687Y021824D01*
X023786Y021922D02*
X022220Y021922D01*
X022319Y022021D02*
X023884Y022021D01*
X023983Y022119D02*
X022417Y022119D01*
X022516Y022218D02*
X024081Y022218D01*
X024180Y022316D02*
X022614Y022316D01*
X022713Y022415D02*
X024278Y022415D01*
X024377Y022513D02*
X022811Y022513D01*
X022910Y022612D02*
X024475Y022612D01*
X024574Y022710D02*
X023008Y022710D01*
X023107Y022809D02*
X024672Y022809D01*
X024771Y022907D02*
X023205Y022907D01*
X023304Y023006D02*
X024869Y023006D01*
X024968Y023104D02*
X023402Y023104D01*
X023501Y023203D02*
X025066Y023203D01*
X025165Y023301D02*
X023599Y023301D01*
X023698Y023400D02*
X025263Y023400D01*
X025362Y023498D02*
X023796Y023498D01*
X023895Y023597D02*
X025460Y023597D01*
X025559Y023695D02*
X023993Y023695D01*
X024092Y023794D02*
X025657Y023794D01*
X025756Y023892D02*
X024190Y023892D01*
X024289Y023991D02*
X025854Y023991D01*
X025953Y024089D02*
X024387Y024089D01*
X024486Y024188D02*
X026051Y024188D01*
X026150Y024286D02*
X024584Y024286D01*
X024683Y024385D02*
X026248Y024385D01*
X026347Y024483D02*
X024781Y024483D01*
X024880Y024582D02*
X026445Y024582D01*
X026544Y024680D02*
X024978Y024680D01*
X025077Y024779D02*
X026642Y024779D01*
X026741Y024877D02*
X025175Y024877D01*
X025274Y024976D02*
X026839Y024976D01*
X026938Y025074D02*
X025372Y025074D01*
X025471Y025173D02*
X027036Y025173D01*
X027135Y025271D02*
X025569Y025271D01*
X025668Y025370D02*
X027233Y025370D01*
X027332Y025468D02*
X025766Y025468D01*
X025865Y025567D02*
X027430Y025567D01*
X027529Y025665D02*
X025963Y025665D01*
X026062Y025764D02*
X027627Y025764D01*
X027726Y025862D02*
X026160Y025862D01*
X026259Y025961D02*
X027824Y025961D01*
X027992Y026059D02*
X026357Y026059D01*
X026456Y026158D02*
X042802Y026158D01*
X042792Y026168D02*
X048042Y020918D01*
X047977Y020918D01*
X047819Y020853D01*
X047698Y020731D01*
X047632Y020573D01*
X047632Y020402D01*
X047698Y020243D01*
X048243Y019698D01*
X048402Y019632D01*
X048573Y019632D01*
X048731Y019698D01*
X048853Y019819D01*
X048918Y019977D01*
X048918Y020149D01*
X048853Y020307D01*
X048388Y020772D01*
X048584Y020772D01*
X048951Y020405D01*
X049109Y020340D01*
X049280Y020340D01*
X049438Y020405D01*
X049560Y020526D01*
X049625Y020685D01*
X049625Y020856D01*
X049560Y021014D01*
X049014Y021560D01*
X048856Y021625D01*
X048685Y021625D01*
X048526Y021560D01*
X048405Y021438D01*
X048340Y021280D01*
X048340Y021216D01*
X043090Y026466D01*
X043090Y035466D01*
X042482Y036073D01*
X042544Y036135D01*
X042610Y036293D01*
X042610Y036464D01*
X042544Y036623D01*
X042482Y036684D01*
X042716Y036918D01*
X042840Y037042D01*
X042840Y042091D01*
X042739Y042191D01*
X048394Y047846D01*
X048405Y047819D01*
X048526Y047698D01*
X048685Y047632D01*
X048856Y047632D01*
X049014Y047698D01*
X049560Y048243D01*
X049625Y048402D01*
X049625Y048573D01*
X049560Y048731D01*
X049438Y048853D01*
X049280Y048918D01*
X049109Y048918D01*
X048951Y048853D01*
X048584Y048486D01*
X048438Y048486D01*
X042508Y042556D01*
X042444Y042583D01*
X042313Y042583D01*
X042193Y042533D01*
X042100Y042440D01*
X042050Y042319D01*
X042050Y042188D01*
X042100Y042068D01*
X042193Y041975D01*
X042313Y041925D01*
X042410Y041925D01*
X042418Y041917D01*
X042418Y037216D01*
X042012Y036810D01*
X041493Y036810D01*
X041335Y036744D01*
X041214Y036623D01*
X041148Y036464D01*
X041148Y036293D01*
X041214Y036135D01*
X041335Y036014D01*
X041493Y035948D01*
X042012Y035948D01*
X042150Y035810D01*
X041493Y035810D01*
X041335Y035744D01*
X041214Y035623D01*
X041148Y035464D01*
X041148Y035293D01*
X041214Y035135D01*
X041335Y035014D01*
X041493Y034948D01*
X042264Y034948D01*
X042423Y035014D01*
X042544Y035135D01*
X042610Y035293D01*
X042610Y035350D01*
X042668Y035292D01*
X042668Y026292D01*
X042792Y026168D01*
X042703Y026256D02*
X026554Y026256D01*
X026653Y026355D02*
X026938Y026355D01*
X026846Y026453D02*
X026751Y026453D01*
X026840Y026847D02*
X026882Y026847D01*
X026840Y026946D02*
X027035Y026946D01*
X027223Y026946D02*
X036898Y026946D01*
X036996Y027044D02*
X026842Y027044D01*
X026941Y027143D02*
X037095Y027143D01*
X037193Y027241D02*
X033208Y027241D01*
X033206Y027241D02*
X033349Y027300D01*
X033458Y027409D01*
X033517Y027552D01*
X033517Y027706D01*
X033458Y027849D01*
X033349Y027958D01*
X033206Y028017D01*
X033052Y028017D01*
X032909Y027958D01*
X032800Y027849D01*
X032741Y027706D01*
X032741Y027552D01*
X032800Y027409D01*
X032909Y027300D01*
X033052Y027241D01*
X033206Y027241D01*
X033050Y027241D02*
X027039Y027241D01*
X027138Y027340D02*
X032869Y027340D01*
X032788Y027438D02*
X027236Y027438D01*
X027335Y027537D02*
X032747Y027537D01*
X032741Y027635D02*
X027433Y027635D01*
X027532Y027734D02*
X032752Y027734D01*
X032793Y027832D02*
X027630Y027832D01*
X027729Y027931D02*
X032882Y027931D01*
X032972Y028251D02*
X033033Y028231D01*
X033097Y028221D01*
X033100Y028221D01*
X033100Y028600D01*
X033158Y028600D01*
X033158Y028658D01*
X033536Y028658D01*
X033536Y028661D01*
X033526Y028724D01*
X033506Y028785D01*
X033477Y028842D01*
X033440Y028894D01*
X033394Y028940D01*
X033342Y028977D01*
X033285Y029006D01*
X033224Y029026D01*
X033161Y029036D01*
X033158Y029036D01*
X033158Y028658D01*
X033100Y028658D01*
X033100Y029036D01*
X033097Y029036D01*
X033033Y029026D01*
X032972Y029006D01*
X032915Y028977D01*
X032863Y028940D01*
X032818Y028894D01*
X032780Y028842D01*
X032751Y028785D01*
X032731Y028724D01*
X032721Y028661D01*
X032721Y028658D01*
X033100Y028658D01*
X033100Y028600D01*
X032721Y028600D01*
X032721Y028597D01*
X032731Y028533D01*
X032751Y028472D01*
X032780Y028415D01*
X032818Y028363D01*
X032863Y028318D01*
X032915Y028280D01*
X032972Y028251D01*
X033065Y028226D02*
X028024Y028226D01*
X027926Y028128D02*
X038080Y028128D01*
X038168Y028226D02*
X033192Y028226D01*
X033161Y028221D02*
X033224Y028231D01*
X033285Y028251D01*
X033342Y028280D01*
X033394Y028318D01*
X033440Y028363D01*
X033477Y028415D01*
X033506Y028472D01*
X033526Y028533D01*
X033536Y028597D01*
X033536Y028600D01*
X033158Y028600D01*
X033158Y028221D01*
X033161Y028221D01*
X033158Y028226D02*
X033100Y028226D01*
X033100Y028325D02*
X033158Y028325D01*
X033158Y028423D02*
X033100Y028423D01*
X033100Y028522D02*
X033158Y028522D01*
X033158Y028620D02*
X038168Y028620D01*
X038168Y028522D02*
X033522Y028522D01*
X033481Y028423D02*
X038168Y028423D01*
X038168Y028325D02*
X033401Y028325D01*
X033376Y027931D02*
X037883Y027931D01*
X037981Y028029D02*
X027827Y028029D01*
X028123Y028325D02*
X032857Y028325D01*
X032776Y028423D02*
X028221Y028423D01*
X028320Y028522D02*
X032735Y028522D01*
X032731Y028719D02*
X028517Y028719D01*
X028615Y028817D02*
X032768Y028817D01*
X032840Y028916D02*
X028714Y028916D01*
X028812Y029014D02*
X032997Y029014D01*
X033100Y029014D02*
X033158Y029014D01*
X033158Y028916D02*
X033100Y028916D01*
X033100Y028817D02*
X033158Y028817D01*
X033158Y028719D02*
X033100Y028719D01*
X033100Y028620D02*
X028418Y028620D01*
X028118Y028916D02*
X026079Y028916D01*
X026079Y029014D02*
X028216Y029014D01*
X028315Y029113D02*
X026079Y029113D01*
X026079Y029211D02*
X028413Y029211D01*
X028418Y029310D02*
X026079Y029310D01*
X026079Y029408D02*
X028418Y029408D01*
X028418Y029507D02*
X026079Y029507D01*
X026079Y029605D02*
X028418Y029605D01*
X028418Y029704D02*
X026079Y029704D01*
X026079Y029802D02*
X028418Y029802D01*
X028418Y029901D02*
X026079Y029901D01*
X026079Y029999D02*
X028418Y029999D01*
X028418Y030098D02*
X026079Y030098D01*
X026079Y030196D02*
X028418Y030196D01*
X028418Y030295D02*
X026079Y030295D01*
X026079Y030393D02*
X028418Y030393D01*
X028418Y030492D02*
X026079Y030492D01*
X026079Y030590D02*
X028418Y030590D01*
X028418Y030689D02*
X026079Y030689D01*
X026079Y030787D02*
X028418Y030787D01*
X028418Y030886D02*
X026079Y030886D01*
X026079Y030984D02*
X028418Y030984D01*
X028418Y031083D02*
X026079Y031083D01*
X026079Y031181D02*
X028418Y031181D01*
X028418Y031280D02*
X026079Y031280D01*
X026079Y031378D02*
X028418Y031378D01*
X028418Y031477D02*
X026079Y031477D01*
X026079Y031575D02*
X028418Y031575D01*
X028418Y031674D02*
X026079Y031674D01*
X026079Y031772D02*
X028418Y031772D01*
X028418Y031871D02*
X026079Y031871D01*
X026079Y031969D02*
X028418Y031969D01*
X028418Y032068D02*
X026079Y032068D01*
X026079Y032166D02*
X028418Y032166D01*
X028418Y032265D02*
X026079Y032265D01*
X026079Y032363D02*
X028418Y032363D01*
X028418Y032462D02*
X026079Y032462D01*
X026079Y032560D02*
X028418Y032560D01*
X028418Y032659D02*
X026079Y032659D01*
X026079Y032757D02*
X028418Y032757D01*
X028418Y032856D02*
X026079Y032856D01*
X026079Y032954D02*
X028418Y032954D01*
X028418Y033053D02*
X026079Y033053D01*
X026079Y033151D02*
X028418Y033151D01*
X028418Y033250D02*
X026079Y033250D01*
X026079Y033348D02*
X028418Y033348D01*
X028418Y033447D02*
X026079Y033447D01*
X026079Y033545D02*
X028418Y033545D01*
X028418Y033644D02*
X026079Y033644D01*
X026079Y033742D02*
X028418Y033742D01*
X028418Y033841D02*
X026079Y033841D01*
X026079Y033939D02*
X028418Y033939D01*
X028418Y034038D02*
X026079Y034038D01*
X026079Y034136D02*
X028418Y034136D01*
X028418Y034235D02*
X026079Y034235D01*
X026079Y034333D02*
X028418Y034333D01*
X028418Y034432D02*
X026079Y034432D01*
X026079Y034530D02*
X028418Y034530D01*
X028418Y034629D02*
X026079Y034629D01*
X026079Y034727D02*
X028418Y034727D01*
X028418Y034826D02*
X026079Y034826D01*
X026079Y034924D02*
X028418Y034924D01*
X028418Y035023D02*
X026079Y035023D01*
X026079Y035121D02*
X028418Y035121D01*
X028191Y035220D02*
X026079Y035220D01*
X026079Y035318D02*
X028030Y035318D01*
X027950Y035417D02*
X026079Y035417D01*
X026079Y035515D02*
X027910Y035515D01*
X027898Y035614D02*
X026079Y035614D01*
X026079Y035712D02*
X027898Y035712D01*
X027899Y035811D02*
X026079Y035811D01*
X026079Y035909D02*
X027800Y035909D01*
X027702Y036008D02*
X026079Y036008D01*
X026079Y036106D02*
X027603Y036106D01*
X027505Y036205D02*
X026079Y036205D01*
X026079Y036303D02*
X027418Y036303D01*
X027418Y036402D02*
X026079Y036402D01*
X026079Y036500D02*
X027418Y036500D01*
X027418Y036599D02*
X026079Y036599D01*
X026079Y036697D02*
X027418Y036697D01*
X027418Y036796D02*
X026079Y036796D01*
X026079Y036894D02*
X027418Y036894D01*
X027418Y036993D02*
X026079Y036993D01*
X026079Y037091D02*
X027418Y037091D01*
X027418Y037190D02*
X026079Y037190D01*
X026079Y037288D02*
X027418Y037288D01*
X027418Y037387D02*
X026079Y037387D01*
X026079Y037485D02*
X027418Y037485D01*
X027418Y037584D02*
X026079Y037584D01*
X026079Y037682D02*
X027418Y037682D01*
X027418Y037781D02*
X026079Y037781D01*
X026079Y037879D02*
X027418Y037879D01*
X027418Y037978D02*
X026079Y037978D01*
X026079Y038076D02*
X027418Y038076D01*
X027418Y038175D02*
X026079Y038175D01*
X026079Y038273D02*
X027418Y038273D01*
X027418Y038372D02*
X026079Y038372D01*
X026079Y038470D02*
X027418Y038470D01*
X027418Y038569D02*
X026079Y038569D01*
X026079Y038667D02*
X027418Y038667D01*
X027418Y038766D02*
X026079Y038766D01*
X026079Y038864D02*
X027418Y038864D01*
X027418Y038963D02*
X026079Y038963D01*
X026079Y039061D02*
X027418Y039061D01*
X027418Y039160D02*
X026079Y039160D01*
X026079Y039258D02*
X027418Y039258D01*
X027418Y039357D02*
X026079Y039357D01*
X026079Y039455D02*
X027418Y039455D01*
X027418Y039554D02*
X026079Y039554D01*
X026079Y039652D02*
X027418Y039652D01*
X027418Y039751D02*
X026079Y039751D01*
X026079Y039849D02*
X027418Y039849D01*
X027418Y039948D02*
X026079Y039948D01*
X026079Y040046D02*
X027418Y040046D01*
X027418Y040145D02*
X026079Y040145D01*
X026079Y040243D02*
X027418Y040243D01*
X027418Y040342D02*
X026079Y040342D01*
X026079Y040440D02*
X027418Y040440D01*
X027418Y040539D02*
X026079Y040539D01*
X026079Y040637D02*
X027418Y040637D01*
X027418Y040736D02*
X026079Y040736D01*
X026079Y040834D02*
X027418Y040834D01*
X027418Y040933D02*
X026079Y040933D01*
X026079Y041031D02*
X027418Y041031D01*
X027418Y041130D02*
X026079Y041130D01*
X026075Y041228D02*
X027418Y041228D01*
X027418Y041327D02*
X026034Y041327D01*
X025969Y041425D02*
X027418Y041425D01*
X027418Y041524D02*
X025870Y041524D01*
X025772Y041622D02*
X027337Y041622D01*
X027239Y041721D02*
X025673Y041721D01*
X025575Y041819D02*
X027140Y041819D01*
X027042Y041918D02*
X025476Y041918D01*
X025378Y042016D02*
X026943Y042016D01*
X026845Y042115D02*
X025279Y042115D01*
X025181Y042213D02*
X026746Y042213D01*
X026648Y042312D02*
X025082Y042312D01*
X024984Y042410D02*
X026549Y042410D01*
X026451Y042509D02*
X024885Y042509D01*
X024787Y042607D02*
X026352Y042607D01*
X026254Y042706D02*
X024688Y042706D01*
X024590Y042804D02*
X026155Y042804D01*
X026057Y042903D02*
X024491Y042903D01*
X024393Y043001D02*
X025958Y043001D01*
X025860Y043100D02*
X024294Y043100D01*
X024196Y043198D02*
X025761Y043198D01*
X025663Y043297D02*
X024097Y043297D01*
X023999Y043395D02*
X025564Y043395D01*
X025466Y043494D02*
X023900Y043494D01*
X023802Y043592D02*
X025367Y043592D01*
X025269Y043691D02*
X023703Y043691D01*
X023605Y043789D02*
X025170Y043789D01*
X025072Y043888D02*
X023506Y043888D01*
X023408Y043986D02*
X024973Y043986D01*
X024875Y044085D02*
X023309Y044085D01*
X023211Y044183D02*
X024776Y044183D01*
X024678Y044282D02*
X023112Y044282D01*
X023014Y044380D02*
X024579Y044380D01*
X024481Y044479D02*
X022915Y044479D01*
X022817Y044577D02*
X024382Y044577D01*
X024284Y044676D02*
X022718Y044676D01*
X022620Y044774D02*
X024185Y044774D01*
X024087Y044873D02*
X022521Y044873D01*
X022423Y044971D02*
X023988Y044971D01*
X023890Y045070D02*
X022324Y045070D01*
X022226Y045168D02*
X023791Y045168D01*
X023693Y045267D02*
X022127Y045267D01*
X022029Y045365D02*
X023594Y045365D01*
X023496Y045464D02*
X021930Y045464D01*
X021832Y045562D02*
X023397Y045562D01*
X023299Y045661D02*
X021733Y045661D01*
X021635Y045759D02*
X023200Y045759D01*
X023102Y045858D02*
X021536Y045858D01*
X021438Y045956D02*
X023003Y045956D01*
X022905Y046055D02*
X021339Y046055D01*
X021241Y046153D02*
X022806Y046153D01*
X022708Y046252D02*
X021142Y046252D01*
X021044Y046350D02*
X022609Y046350D01*
X022511Y046449D02*
X020945Y046449D01*
X020847Y046547D02*
X022412Y046547D01*
X022314Y046646D02*
X020748Y046646D01*
X020650Y046744D02*
X022215Y046744D01*
X022117Y046843D02*
X020551Y046843D01*
X020453Y046941D02*
X022018Y046941D01*
X021920Y047040D02*
X020354Y047040D01*
X020256Y047138D02*
X021821Y047138D01*
X021723Y047237D02*
X020157Y047237D01*
X020059Y047335D02*
X021624Y047335D01*
X021526Y047434D02*
X019960Y047434D01*
X019862Y047532D02*
X021427Y047532D01*
X021329Y047631D02*
X019763Y047631D01*
X019665Y047729D02*
X020212Y047729D01*
X020114Y047828D02*
X019566Y047828D01*
X019468Y047926D02*
X020015Y047926D01*
X019917Y048025D02*
X019369Y048025D01*
X019271Y048123D02*
X019818Y048123D01*
X019720Y048222D02*
X019172Y048222D01*
X019074Y048320D02*
X019666Y048320D01*
X019632Y048419D02*
X018975Y048419D01*
X018877Y048517D02*
X019632Y048517D01*
X019650Y048616D02*
X018778Y048616D01*
X018680Y048714D02*
X019691Y048714D01*
X019779Y048813D02*
X018581Y048813D01*
X018483Y048911D02*
X019961Y048911D01*
X020165Y048911D02*
X020444Y048911D01*
X020381Y049010D02*
X018384Y049010D01*
X018286Y049108D02*
X020340Y049108D01*
X020340Y049207D02*
X018187Y049207D01*
X018089Y049305D02*
X020350Y049305D01*
X020391Y049404D02*
X017990Y049404D01*
X017892Y049502D02*
X020469Y049502D01*
X020626Y049601D02*
X017793Y049601D01*
X017695Y049699D02*
X021422Y049699D01*
X021520Y049601D02*
X020915Y049601D01*
X021072Y049502D02*
X021619Y049502D01*
X021717Y049404D02*
X021170Y049404D01*
X021269Y049305D02*
X021816Y049305D01*
X021914Y049207D02*
X021367Y049207D01*
X021466Y049108D02*
X022013Y049108D01*
X022111Y049010D02*
X021561Y049010D01*
X021602Y048911D02*
X022210Y048911D01*
X022308Y048813D02*
X021625Y048813D01*
X021625Y048714D02*
X022407Y048714D01*
X022505Y048616D02*
X021597Y048616D01*
X021551Y048517D02*
X022604Y048517D01*
X022702Y048419D02*
X021452Y048419D01*
X021334Y048222D02*
X022899Y048222D01*
X022801Y048320D02*
X021235Y048320D01*
X021432Y048123D02*
X022998Y048123D01*
X023096Y048025D02*
X021531Y048025D01*
X021629Y047926D02*
X023195Y047926D01*
X023293Y047828D02*
X021728Y047828D01*
X021826Y047729D02*
X023392Y047729D01*
X023490Y047631D02*
X021925Y047631D01*
X022023Y047532D02*
X023589Y047532D01*
X023687Y047434D02*
X022122Y047434D01*
X022220Y047335D02*
X023786Y047335D01*
X023884Y047237D02*
X022319Y047237D01*
X022417Y047138D02*
X023983Y047138D01*
X024081Y047040D02*
X022516Y047040D01*
X022614Y046941D02*
X024180Y046941D01*
X024278Y046843D02*
X022713Y046843D01*
X022811Y046744D02*
X024377Y046744D01*
X024475Y046646D02*
X022910Y046646D01*
X023008Y046547D02*
X024574Y046547D01*
X024672Y046449D02*
X023107Y046449D01*
X023205Y046350D02*
X024771Y046350D01*
X024869Y046252D02*
X023304Y046252D01*
X023402Y046153D02*
X024968Y046153D01*
X025066Y046055D02*
X023501Y046055D01*
X023599Y045956D02*
X025165Y045956D01*
X025263Y045858D02*
X023698Y045858D01*
X023796Y045759D02*
X025362Y045759D01*
X025460Y045661D02*
X023895Y045661D01*
X023993Y045562D02*
X025559Y045562D01*
X025657Y045464D02*
X024092Y045464D01*
X024190Y045365D02*
X025756Y045365D01*
X025854Y045267D02*
X024289Y045267D01*
X024387Y045168D02*
X025953Y045168D01*
X026051Y045070D02*
X024486Y045070D01*
X024584Y044971D02*
X026150Y044971D01*
X026248Y044873D02*
X024683Y044873D01*
X024781Y044774D02*
X026347Y044774D01*
X026445Y044676D02*
X024880Y044676D01*
X024978Y044577D02*
X026544Y044577D01*
X026642Y044479D02*
X025077Y044479D01*
X025175Y044380D02*
X026741Y044380D01*
X026839Y044282D02*
X025274Y044282D01*
X025372Y044183D02*
X026938Y044183D01*
X027036Y044085D02*
X025471Y044085D01*
X025569Y043986D02*
X027135Y043986D01*
X027233Y043888D02*
X025668Y043888D01*
X025766Y043789D02*
X027332Y043789D01*
X027430Y043691D02*
X025865Y043691D01*
X025963Y043592D02*
X027529Y043592D01*
X027627Y043494D02*
X026062Y043494D01*
X026160Y043395D02*
X027726Y043395D01*
X027824Y043297D02*
X026259Y043297D01*
X026357Y043198D02*
X027992Y043198D01*
X027862Y042410D02*
X027145Y042410D01*
X027244Y042312D02*
X027764Y042312D01*
X027665Y042213D02*
X027342Y042213D01*
X027441Y042115D02*
X027567Y042115D01*
X027867Y041819D02*
X027921Y041819D01*
X027888Y041721D02*
X027840Y041721D01*
X027840Y041622D02*
X028579Y041622D01*
X028579Y041579D02*
X027881Y041579D01*
X027890Y041523D01*
X027912Y041456D01*
X027944Y041393D01*
X027986Y041336D01*
X028036Y041286D01*
X028093Y041244D01*
X028156Y041212D01*
X028223Y041190D01*
X028293Y041179D01*
X028579Y041179D01*
X028579Y041579D01*
X028579Y041524D02*
X028679Y041524D01*
X028679Y041579D02*
X028679Y041179D01*
X028964Y041179D01*
X029034Y041190D01*
X029102Y041212D01*
X029165Y041244D01*
X029222Y041286D01*
X029272Y041336D01*
X029314Y041393D01*
X029346Y041456D01*
X029368Y041523D01*
X029377Y041579D01*
X028679Y041579D01*
X028679Y041622D02*
X032918Y041622D01*
X032918Y041524D02*
X029368Y041524D01*
X029330Y041425D02*
X032918Y041425D01*
X032918Y041327D02*
X029263Y041327D01*
X029134Y041228D02*
X032918Y041228D01*
X032918Y041130D02*
X027840Y041130D01*
X027840Y041228D02*
X028124Y041228D01*
X027994Y041327D02*
X027840Y041327D01*
X027840Y041425D02*
X027927Y041425D01*
X027890Y041524D02*
X027840Y041524D01*
X027966Y041918D02*
X027983Y041918D01*
X028064Y042016D02*
X028098Y042016D01*
X028579Y041425D02*
X028679Y041425D01*
X028679Y041327D02*
X028579Y041327D01*
X028579Y041228D02*
X028679Y041228D01*
X029014Y041060D02*
X028243Y041060D01*
X028085Y040994D01*
X027964Y040873D01*
X027898Y040714D01*
X027898Y040543D01*
X027964Y040385D01*
X028085Y040264D01*
X028243Y040198D01*
X029014Y040198D01*
X029173Y040264D01*
X029294Y040385D01*
X029308Y040418D01*
X029533Y040418D01*
X029538Y040408D01*
X029648Y040298D01*
X029791Y040238D01*
X030467Y040238D01*
X030610Y040298D01*
X030720Y040408D01*
X030780Y040551D01*
X030780Y040707D01*
X030720Y040850D01*
X030610Y040960D01*
X030467Y041020D01*
X029791Y041020D01*
X029648Y040960D01*
X029538Y040850D01*
X029533Y040840D01*
X029308Y040840D01*
X029294Y040873D01*
X029173Y040994D01*
X029014Y041060D01*
X029083Y041031D02*
X032918Y041031D01*
X032620Y040933D02*
X030637Y040933D01*
X030727Y040834D02*
X032531Y040834D01*
X032490Y040736D02*
X030767Y040736D01*
X030780Y040637D02*
X032478Y040637D01*
X032483Y040539D02*
X030774Y040539D01*
X030734Y040440D02*
X032524Y040440D01*
X032603Y040342D02*
X030654Y040342D01*
X030479Y040243D02*
X032778Y040243D01*
X032635Y039948D02*
X030622Y039948D01*
X030610Y039960D02*
X030467Y040020D01*
X029791Y040020D01*
X029648Y039960D01*
X029538Y039850D01*
X029478Y039707D01*
X029478Y039551D01*
X029538Y039408D01*
X029648Y039298D01*
X029791Y039238D01*
X030467Y039238D01*
X030610Y039298D01*
X030720Y039408D01*
X030780Y039551D01*
X030780Y039707D01*
X030720Y039850D01*
X030610Y039960D01*
X030720Y039849D02*
X032537Y039849D01*
X032496Y039751D02*
X030761Y039751D01*
X030780Y039652D02*
X032478Y039652D01*
X032478Y039554D02*
X030780Y039554D01*
X030740Y039455D02*
X032518Y039455D01*
X032588Y039357D02*
X030669Y039357D01*
X030515Y039258D02*
X032742Y039258D01*
X032654Y038963D02*
X030603Y038963D01*
X030610Y038960D02*
X030467Y039020D01*
X029791Y039020D01*
X029648Y038960D01*
X029538Y038850D01*
X029478Y038707D01*
X029478Y038551D01*
X029538Y038408D01*
X029648Y038298D01*
X029791Y038238D01*
X030467Y038238D01*
X030610Y038298D01*
X030720Y038408D01*
X030780Y038551D01*
X030780Y038707D01*
X030720Y038850D01*
X030610Y038960D01*
X030706Y038864D02*
X032552Y038864D01*
X032503Y038766D02*
X030755Y038766D01*
X030780Y038667D02*
X032478Y038667D01*
X032478Y038569D02*
X030780Y038569D01*
X030746Y038470D02*
X032512Y038470D01*
X032573Y038372D02*
X030684Y038372D01*
X030552Y038273D02*
X032706Y038273D01*
X032791Y038020D02*
X032648Y037960D01*
X032538Y037850D01*
X032478Y037707D01*
X032478Y037551D01*
X032538Y037408D01*
X032648Y037298D01*
X032791Y037238D01*
X033467Y037238D01*
X033610Y037298D01*
X033720Y037408D01*
X033730Y037432D01*
X037542Y041244D01*
X037552Y041241D01*
X037706Y041241D01*
X037849Y041300D01*
X037958Y041409D01*
X038017Y041552D01*
X038017Y041706D01*
X037958Y041849D01*
X037849Y041958D01*
X037706Y042017D01*
X037552Y042017D01*
X037409Y041958D01*
X037300Y041849D01*
X037241Y041706D01*
X037241Y041552D01*
X037244Y041542D01*
X033636Y037934D01*
X033610Y037960D01*
X033467Y038020D01*
X032791Y038020D01*
X032690Y037978D02*
X030567Y037978D01*
X030610Y037960D02*
X030467Y038020D01*
X029791Y038020D01*
X029648Y037960D01*
X029538Y037850D01*
X029478Y037707D01*
X029478Y037551D01*
X029538Y037408D01*
X029648Y037298D01*
X029791Y037238D01*
X030467Y037238D01*
X030610Y037298D01*
X030720Y037408D01*
X030780Y037551D01*
X030780Y037707D01*
X030720Y037850D01*
X030610Y037960D01*
X030691Y037879D02*
X032567Y037879D01*
X032509Y037781D02*
X030749Y037781D01*
X030780Y037682D02*
X032478Y037682D01*
X032478Y037584D02*
X030780Y037584D01*
X030752Y037485D02*
X032505Y037485D01*
X032558Y037387D02*
X030699Y037387D01*
X030588Y037288D02*
X032670Y037288D01*
X032791Y037020D02*
X032648Y036960D01*
X032538Y036850D01*
X032478Y036707D01*
X032478Y036551D01*
X032538Y036408D01*
X032648Y036298D01*
X032791Y036238D01*
X033467Y036238D01*
X033610Y036298D01*
X033720Y036408D01*
X033730Y036432D01*
X038542Y041244D01*
X038552Y041241D01*
X038706Y041241D01*
X038849Y041300D01*
X038958Y041409D01*
X039017Y041552D01*
X039017Y041706D01*
X038958Y041849D01*
X038849Y041958D01*
X038706Y042017D01*
X038552Y042017D01*
X038409Y041958D01*
X038300Y041849D01*
X038241Y041706D01*
X038241Y041552D01*
X038244Y041542D01*
X033636Y036934D01*
X033610Y036960D01*
X033467Y037020D01*
X032791Y037020D01*
X032727Y036993D02*
X030531Y036993D01*
X030467Y037020D02*
X030610Y036960D01*
X030720Y036850D01*
X030780Y036707D01*
X030780Y036551D01*
X030720Y036408D01*
X030610Y036298D01*
X030467Y036238D01*
X029791Y036238D01*
X029648Y036298D01*
X029538Y036408D01*
X029478Y036551D01*
X029478Y036707D01*
X029538Y036850D01*
X029648Y036960D01*
X029791Y037020D01*
X030467Y037020D01*
X030676Y036894D02*
X032582Y036894D01*
X032515Y036796D02*
X030743Y036796D01*
X030780Y036697D02*
X032478Y036697D01*
X032478Y036599D02*
X030780Y036599D01*
X030758Y036500D02*
X032499Y036500D01*
X032543Y036402D02*
X030714Y036402D01*
X030616Y036303D02*
X032642Y036303D01*
X033616Y036303D02*
X036168Y036303D01*
X036168Y036205D02*
X029031Y036205D01*
X029014Y036198D02*
X029173Y036264D01*
X029294Y036385D01*
X029360Y036543D01*
X029360Y036714D01*
X029294Y036873D01*
X029173Y036994D01*
X029014Y037060D01*
X028243Y037060D01*
X028085Y036994D01*
X027964Y036873D01*
X027898Y036714D01*
X027898Y036543D01*
X027964Y036385D01*
X028085Y036264D01*
X028243Y036198D01*
X029014Y036198D01*
X029212Y036303D02*
X029642Y036303D01*
X029543Y036402D02*
X029301Y036402D01*
X029342Y036500D02*
X029499Y036500D01*
X029478Y036599D02*
X029360Y036599D01*
X029360Y036697D02*
X029478Y036697D01*
X029515Y036796D02*
X029326Y036796D01*
X029272Y036894D02*
X029582Y036894D01*
X029727Y036993D02*
X029174Y036993D01*
X029014Y037198D02*
X029173Y037264D01*
X029294Y037385D01*
X029360Y037543D01*
X029360Y037714D01*
X029294Y037873D01*
X029173Y037994D01*
X029014Y038060D01*
X028243Y038060D01*
X028085Y037994D01*
X027964Y037873D01*
X027898Y037714D01*
X027898Y037543D01*
X027964Y037385D01*
X028085Y037264D01*
X028243Y037198D01*
X029014Y037198D01*
X029197Y037288D02*
X029670Y037288D01*
X029558Y037387D02*
X029295Y037387D01*
X029336Y037485D02*
X029505Y037485D01*
X029478Y037584D02*
X029360Y037584D01*
X029360Y037682D02*
X029478Y037682D01*
X029509Y037781D02*
X029332Y037781D01*
X029287Y037879D02*
X029567Y037879D01*
X029690Y037978D02*
X029189Y037978D01*
X029102Y038212D02*
X029034Y038190D01*
X028964Y038179D01*
X028679Y038179D01*
X028679Y038579D01*
X028679Y038679D01*
X028579Y038679D01*
X028579Y039079D01*
X028293Y039079D01*
X028223Y039068D01*
X028156Y039046D01*
X028093Y039014D01*
X028036Y038972D01*
X027986Y038922D01*
X027944Y038865D01*
X027912Y038802D01*
X027890Y038734D01*
X027881Y038679D01*
X028579Y038679D01*
X028579Y038579D01*
X028679Y038579D01*
X029377Y038579D01*
X029368Y038523D01*
X029346Y038456D01*
X029314Y038393D01*
X029272Y038336D01*
X029222Y038286D01*
X029165Y038244D01*
X029102Y038212D01*
X029205Y038273D02*
X029706Y038273D01*
X029573Y038372D02*
X029298Y038372D01*
X029350Y038470D02*
X029512Y038470D01*
X029478Y038569D02*
X029375Y038569D01*
X029377Y038679D02*
X029368Y038734D01*
X029346Y038802D01*
X029314Y038865D01*
X029272Y038922D01*
X029222Y038972D01*
X029165Y039014D01*
X029102Y039046D01*
X029034Y039068D01*
X028964Y039079D01*
X028679Y039079D01*
X028679Y038679D01*
X029377Y038679D01*
X029357Y038766D02*
X029503Y038766D01*
X029478Y038667D02*
X028679Y038667D01*
X028679Y038569D02*
X028579Y038569D01*
X028579Y038579D02*
X028579Y038179D01*
X028293Y038179D01*
X028223Y038190D01*
X028156Y038212D01*
X028093Y038244D01*
X028036Y038286D01*
X027986Y038336D01*
X027944Y038393D01*
X027912Y038456D01*
X027890Y038523D01*
X027881Y038579D01*
X028579Y038579D01*
X028579Y038667D02*
X027840Y038667D01*
X027840Y038569D02*
X027883Y038569D01*
X027907Y038470D02*
X027840Y038470D01*
X027840Y038372D02*
X027959Y038372D01*
X028053Y038273D02*
X027840Y038273D01*
X027840Y038175D02*
X033877Y038175D01*
X033975Y038273D02*
X033552Y038273D01*
X033684Y038372D02*
X034074Y038372D01*
X034172Y038470D02*
X033746Y038470D01*
X033780Y038569D02*
X034271Y038569D01*
X034369Y038667D02*
X033780Y038667D01*
X033755Y038766D02*
X034468Y038766D01*
X034566Y038864D02*
X033706Y038864D01*
X033761Y038963D02*
X034665Y038963D01*
X034763Y039061D02*
X033859Y039061D01*
X033958Y039160D02*
X034862Y039160D01*
X034960Y039258D02*
X034056Y039258D01*
X034155Y039357D02*
X035059Y039357D01*
X035157Y039455D02*
X034253Y039455D01*
X034352Y039554D02*
X035256Y039554D01*
X035354Y039652D02*
X034450Y039652D01*
X034549Y039751D02*
X035453Y039751D01*
X035551Y039849D02*
X034647Y039849D01*
X034746Y039948D02*
X035650Y039948D01*
X035748Y040046D02*
X034844Y040046D01*
X034943Y040145D02*
X035847Y040145D01*
X035945Y040243D02*
X035041Y040243D01*
X035140Y040342D02*
X036044Y040342D01*
X036142Y040440D02*
X035238Y040440D01*
X035337Y040539D02*
X036241Y040539D01*
X036339Y040637D02*
X035435Y040637D01*
X035534Y040736D02*
X036438Y040736D01*
X036536Y040834D02*
X035632Y040834D01*
X035731Y040933D02*
X036635Y040933D01*
X036733Y041031D02*
X035829Y041031D01*
X035840Y041130D02*
X036832Y041130D01*
X036785Y041251D02*
X036842Y041280D01*
X036894Y041318D01*
X036940Y041363D01*
X036977Y041415D01*
X037006Y041472D01*
X037026Y041533D01*
X037036Y041597D01*
X037036Y041600D01*
X036658Y041600D01*
X036658Y041658D01*
X037036Y041658D01*
X037036Y041661D01*
X037026Y041724D01*
X037006Y041785D01*
X036977Y041842D01*
X036940Y041894D01*
X036894Y041940D01*
X036842Y041977D01*
X036785Y042006D01*
X036724Y042026D01*
X036661Y042036D01*
X036658Y042036D01*
X036658Y041658D01*
X036600Y041658D01*
X036600Y042036D01*
X036597Y042036D01*
X036533Y042026D01*
X036472Y042006D01*
X036415Y041977D01*
X036363Y041940D01*
X036318Y041894D01*
X036280Y041842D01*
X036251Y041785D01*
X036231Y041724D01*
X036221Y041661D01*
X036221Y041658D01*
X036600Y041658D01*
X036600Y041600D01*
X036658Y041600D01*
X036658Y041221D01*
X036661Y041221D01*
X036724Y041231D01*
X036785Y041251D01*
X036705Y041228D02*
X036930Y041228D01*
X036903Y041327D02*
X037029Y041327D01*
X036982Y041425D02*
X037127Y041425D01*
X037226Y041524D02*
X037023Y041524D01*
X037027Y041721D02*
X037247Y041721D01*
X037241Y041622D02*
X036658Y041622D01*
X036600Y041622D02*
X036017Y041622D01*
X036006Y041524D02*
X036234Y041524D01*
X036231Y041533D02*
X036251Y041472D01*
X036280Y041415D01*
X036318Y041363D01*
X036363Y041318D01*
X036415Y041280D01*
X036472Y041251D01*
X036533Y041231D01*
X036597Y041221D01*
X036600Y041221D01*
X036600Y041600D01*
X036221Y041600D01*
X036221Y041597D01*
X036231Y041533D01*
X036275Y041425D02*
X035965Y041425D01*
X035876Y041327D02*
X036355Y041327D01*
X036553Y041228D02*
X035840Y041228D01*
X035418Y041228D02*
X034840Y041228D01*
X034840Y041130D02*
X035332Y041130D01*
X035233Y041031D02*
X034829Y041031D01*
X034731Y040933D02*
X035135Y040933D01*
X035036Y040834D02*
X034632Y040834D01*
X034534Y040736D02*
X034938Y040736D01*
X034839Y040637D02*
X034435Y040637D01*
X034337Y040539D02*
X034741Y040539D01*
X034642Y040440D02*
X034238Y040440D01*
X034140Y040342D02*
X034544Y040342D01*
X034445Y040243D02*
X034041Y040243D01*
X033943Y040145D02*
X034347Y040145D01*
X034248Y040046D02*
X033844Y040046D01*
X033746Y039948D02*
X034150Y039948D01*
X034051Y039849D02*
X033720Y039849D01*
X033761Y039751D02*
X033953Y039751D01*
X033854Y039652D02*
X033780Y039652D01*
X033362Y039160D02*
X027840Y039160D01*
X027840Y039258D02*
X029742Y039258D01*
X029588Y039357D02*
X027840Y039357D01*
X027840Y039455D02*
X029518Y039455D01*
X029478Y039554D02*
X027840Y039554D01*
X027840Y039652D02*
X029478Y039652D01*
X029496Y039751D02*
X027840Y039751D01*
X027840Y039849D02*
X029537Y039849D01*
X029635Y039948D02*
X027840Y039948D01*
X027840Y040046D02*
X033248Y040046D01*
X033347Y040145D02*
X027840Y040145D01*
X027840Y040243D02*
X028134Y040243D01*
X028007Y040342D02*
X027840Y040342D01*
X027840Y040440D02*
X027941Y040440D01*
X027900Y040539D02*
X027840Y040539D01*
X027840Y040637D02*
X027898Y040637D01*
X027907Y040736D02*
X027840Y040736D01*
X027840Y040834D02*
X027948Y040834D01*
X028024Y040933D02*
X027840Y040933D01*
X027840Y041031D02*
X028175Y041031D01*
X029234Y040933D02*
X029620Y040933D01*
X029603Y040342D02*
X029251Y040342D01*
X029124Y040243D02*
X029778Y040243D01*
X029654Y038963D02*
X029231Y038963D01*
X029314Y038864D02*
X029552Y038864D01*
X029054Y039061D02*
X033263Y039061D01*
X034473Y038175D02*
X034877Y038175D01*
X034975Y038273D02*
X034571Y038273D01*
X034670Y038372D02*
X035074Y038372D01*
X035172Y038470D02*
X034768Y038470D01*
X034867Y038569D02*
X035271Y038569D01*
X035369Y038667D02*
X034965Y038667D01*
X035064Y038766D02*
X035468Y038766D01*
X035566Y038864D02*
X035162Y038864D01*
X035261Y038963D02*
X035665Y038963D01*
X035763Y039061D02*
X035359Y039061D01*
X035458Y039160D02*
X035862Y039160D01*
X035960Y039258D02*
X035556Y039258D01*
X035655Y039357D02*
X036059Y039357D01*
X036157Y039455D02*
X035753Y039455D01*
X035852Y039554D02*
X036256Y039554D01*
X036354Y039652D02*
X035950Y039652D01*
X036049Y039751D02*
X036453Y039751D01*
X036551Y039849D02*
X036147Y039849D01*
X036246Y039948D02*
X036650Y039948D01*
X036748Y040046D02*
X036344Y040046D01*
X036443Y040145D02*
X036847Y040145D01*
X036945Y040243D02*
X036541Y040243D01*
X036640Y040342D02*
X037044Y040342D01*
X037142Y040440D02*
X036738Y040440D01*
X036837Y040539D02*
X037241Y040539D01*
X037339Y040637D02*
X036935Y040637D01*
X037034Y040736D02*
X037438Y040736D01*
X037536Y040834D02*
X037132Y040834D01*
X037231Y040933D02*
X037635Y040933D01*
X037733Y041031D02*
X037329Y041031D01*
X037428Y041130D02*
X037832Y041130D01*
X037930Y041228D02*
X037526Y041228D01*
X037876Y041327D02*
X038029Y041327D01*
X037965Y041425D02*
X038127Y041425D01*
X038226Y041524D02*
X038006Y041524D01*
X038017Y041622D02*
X038241Y041622D01*
X038247Y041721D02*
X038011Y041721D01*
X037970Y041819D02*
X038288Y041819D01*
X038369Y041918D02*
X037889Y041918D01*
X037708Y042016D02*
X038550Y042016D01*
X038708Y042016D02*
X039550Y042016D01*
X039552Y042017D02*
X039409Y041958D01*
X039300Y041849D01*
X039241Y041706D01*
X039241Y041552D01*
X039244Y041542D01*
X036168Y038466D01*
X036168Y033883D01*
X036100Y033815D01*
X036050Y033694D01*
X036050Y033563D01*
X036100Y033443D01*
X036193Y033350D01*
X036313Y033300D01*
X036444Y033300D01*
X036543Y033341D01*
X034042Y030840D01*
X033462Y030840D01*
X033458Y030849D01*
X033349Y030958D01*
X033206Y031017D01*
X033052Y031017D01*
X032909Y030958D01*
X032800Y030849D01*
X032741Y030706D01*
X032741Y030552D01*
X032800Y030409D01*
X032909Y030300D01*
X033052Y030241D01*
X033206Y030241D01*
X033349Y030300D01*
X033458Y030409D01*
X033462Y030418D01*
X034120Y030418D01*
X033542Y029840D01*
X033462Y029840D01*
X033458Y029849D01*
X033349Y029958D01*
X033206Y030017D01*
X033052Y030017D01*
X032909Y029958D01*
X032800Y029849D01*
X032741Y029706D01*
X032741Y029552D01*
X032800Y029409D01*
X032909Y029300D01*
X033052Y029241D01*
X033206Y029241D01*
X033349Y029300D01*
X033458Y029409D01*
X033462Y029418D01*
X033716Y029418D01*
X037466Y033168D01*
X037590Y033292D01*
X037590Y034375D01*
X037658Y034443D01*
X037708Y034563D01*
X037708Y034694D01*
X037658Y034815D01*
X037565Y034908D01*
X037444Y034958D01*
X037313Y034958D01*
X037193Y034908D01*
X037100Y034815D01*
X037090Y034790D01*
X037090Y034875D01*
X037158Y034943D01*
X037208Y035063D01*
X037208Y035194D01*
X037158Y035315D01*
X037065Y035408D01*
X036944Y035458D01*
X036813Y035458D01*
X036693Y035408D01*
X036600Y035315D01*
X036590Y035290D01*
X036590Y038292D01*
X039542Y041244D01*
X039552Y041241D01*
X039706Y041241D01*
X039849Y041300D01*
X039958Y041409D01*
X040017Y041552D01*
X040017Y041706D01*
X039958Y041849D01*
X039849Y041958D01*
X039706Y042017D01*
X039552Y042017D01*
X039708Y042016D02*
X040293Y042016D01*
X040293Y041918D02*
X039889Y041918D01*
X039970Y041819D02*
X040293Y041819D01*
X040293Y041721D02*
X040011Y041721D01*
X040017Y041622D02*
X040293Y041622D01*
X040293Y041591D02*
X038292Y039590D01*
X038168Y039466D01*
X038168Y035008D01*
X038100Y034940D01*
X038050Y034819D01*
X038050Y034688D01*
X038100Y034568D01*
X038193Y034475D01*
X038313Y034425D01*
X038444Y034425D01*
X038565Y034475D01*
X038658Y034568D01*
X038708Y034688D01*
X038708Y034819D01*
X038658Y034940D01*
X038590Y035008D01*
X038590Y039292D01*
X040715Y041417D01*
X040715Y042500D01*
X040783Y042568D01*
X040833Y042688D01*
X040833Y042819D01*
X040783Y042940D01*
X040690Y043033D01*
X040569Y043083D01*
X040438Y043083D01*
X040318Y043033D01*
X040225Y042940D01*
X040175Y042819D01*
X040175Y042688D01*
X040225Y042568D01*
X040293Y042500D01*
X040293Y041591D01*
X040226Y041524D02*
X040006Y041524D01*
X039965Y041425D02*
X040127Y041425D01*
X040029Y041327D02*
X039876Y041327D01*
X039930Y041228D02*
X039526Y041228D01*
X039428Y041130D02*
X039832Y041130D01*
X039733Y041031D02*
X039329Y041031D01*
X039231Y040933D02*
X039635Y040933D01*
X039536Y040834D02*
X039132Y040834D01*
X039034Y040736D02*
X039438Y040736D01*
X039339Y040637D02*
X038935Y040637D01*
X038837Y040539D02*
X039241Y040539D01*
X039142Y040440D02*
X038738Y040440D01*
X038640Y040342D02*
X039044Y040342D01*
X038945Y040243D02*
X038541Y040243D01*
X038443Y040145D02*
X038847Y040145D01*
X038748Y040046D02*
X038344Y040046D01*
X038246Y039948D02*
X038650Y039948D01*
X038551Y039849D02*
X038147Y039849D01*
X038049Y039751D02*
X038453Y039751D01*
X038354Y039652D02*
X037950Y039652D01*
X037852Y039554D02*
X038256Y039554D01*
X038292Y039590D02*
X038292Y039590D01*
X038168Y039455D02*
X037753Y039455D01*
X037655Y039357D02*
X038168Y039357D01*
X038168Y039258D02*
X037556Y039258D01*
X037458Y039160D02*
X038168Y039160D01*
X038168Y039061D02*
X037359Y039061D01*
X037261Y038963D02*
X038168Y038963D01*
X038168Y038864D02*
X037162Y038864D01*
X037064Y038766D02*
X038168Y038766D01*
X038168Y038667D02*
X036965Y038667D01*
X036867Y038569D02*
X038168Y038569D01*
X038168Y038470D02*
X036768Y038470D01*
X036670Y038372D02*
X038168Y038372D01*
X038168Y038273D02*
X036590Y038273D01*
X036590Y038175D02*
X038168Y038175D01*
X038168Y038076D02*
X036590Y038076D01*
X036590Y037978D02*
X038168Y037978D01*
X038168Y037879D02*
X036590Y037879D01*
X036590Y037781D02*
X038168Y037781D01*
X038168Y037682D02*
X036590Y037682D01*
X036590Y037584D02*
X038168Y037584D01*
X038168Y037485D02*
X036590Y037485D01*
X036590Y037387D02*
X038168Y037387D01*
X038168Y037288D02*
X036590Y037288D01*
X036590Y037190D02*
X038168Y037190D01*
X038168Y037091D02*
X036590Y037091D01*
X036590Y036993D02*
X038168Y036993D01*
X038168Y036894D02*
X036590Y036894D01*
X036590Y036796D02*
X038168Y036796D01*
X038168Y036697D02*
X036590Y036697D01*
X036590Y036599D02*
X038168Y036599D01*
X038168Y036500D02*
X036590Y036500D01*
X036590Y036402D02*
X038168Y036402D01*
X038168Y036303D02*
X036590Y036303D01*
X036590Y036205D02*
X038168Y036205D01*
X038168Y036106D02*
X036590Y036106D01*
X036590Y036008D02*
X038168Y036008D01*
X038168Y035909D02*
X036590Y035909D01*
X036590Y035811D02*
X038168Y035811D01*
X038168Y035712D02*
X036590Y035712D01*
X036590Y035614D02*
X038168Y035614D01*
X038168Y035515D02*
X036590Y035515D01*
X036590Y035417D02*
X036715Y035417D01*
X036603Y035318D02*
X036590Y035318D01*
X036168Y035318D02*
X029227Y035318D01*
X029307Y035417D02*
X036168Y035417D01*
X036168Y035515D02*
X029348Y035515D01*
X029360Y035614D02*
X036168Y035614D01*
X036168Y035712D02*
X029360Y035712D01*
X029320Y035811D02*
X036168Y035811D01*
X036168Y035909D02*
X029257Y035909D01*
X029139Y036008D02*
X036168Y036008D01*
X036168Y036106D02*
X028199Y036106D01*
X028227Y036205D02*
X028101Y036205D01*
X028045Y036303D02*
X028002Y036303D01*
X027957Y036402D02*
X027904Y036402D01*
X027916Y036500D02*
X027840Y036500D01*
X027840Y036599D02*
X027898Y036599D01*
X027898Y036697D02*
X027840Y036697D01*
X027840Y036796D02*
X027932Y036796D01*
X027985Y036894D02*
X027840Y036894D01*
X027840Y036993D02*
X028084Y036993D01*
X027840Y037091D02*
X033793Y037091D01*
X033695Y036993D02*
X033531Y036993D01*
X033588Y037288D02*
X033990Y037288D01*
X033892Y037190D02*
X027840Y037190D01*
X027840Y037288D02*
X028060Y037288D01*
X027963Y037387D02*
X027840Y037387D01*
X027840Y037485D02*
X027922Y037485D01*
X027898Y037584D02*
X027840Y037584D01*
X027840Y037682D02*
X027898Y037682D01*
X027926Y037781D02*
X027840Y037781D01*
X027840Y037879D02*
X027970Y037879D01*
X028069Y037978D02*
X027840Y037978D01*
X027840Y038076D02*
X033778Y038076D01*
X033680Y037978D02*
X033567Y037978D01*
X033882Y037584D02*
X034286Y037584D01*
X034384Y037682D02*
X033980Y037682D01*
X034079Y037781D02*
X034483Y037781D01*
X034581Y037879D02*
X034177Y037879D01*
X034276Y037978D02*
X034680Y037978D01*
X034778Y038076D02*
X034374Y038076D01*
X034187Y037485D02*
X033783Y037485D01*
X033699Y037387D02*
X034089Y037387D01*
X034389Y037091D02*
X036168Y037091D01*
X036168Y036993D02*
X034291Y036993D01*
X034192Y036894D02*
X036168Y036894D01*
X036168Y036796D02*
X034094Y036796D01*
X033995Y036697D02*
X036168Y036697D01*
X036168Y036599D02*
X033897Y036599D01*
X033798Y036500D02*
X036168Y036500D01*
X036168Y036402D02*
X033714Y036402D01*
X034488Y037190D02*
X036168Y037190D01*
X036168Y037288D02*
X034586Y037288D01*
X034685Y037387D02*
X036168Y037387D01*
X036168Y037485D02*
X034783Y037485D01*
X034882Y037584D02*
X036168Y037584D01*
X036168Y037682D02*
X034980Y037682D01*
X035079Y037781D02*
X036168Y037781D01*
X036168Y037879D02*
X035177Y037879D01*
X035276Y037978D02*
X036168Y037978D01*
X036168Y038076D02*
X035374Y038076D01*
X035473Y038175D02*
X036168Y038175D01*
X036168Y038273D02*
X035571Y038273D01*
X035670Y038372D02*
X036168Y038372D01*
X036172Y038470D02*
X035768Y038470D01*
X035867Y038569D02*
X036271Y038569D01*
X036369Y038667D02*
X035965Y038667D01*
X036064Y038766D02*
X036468Y038766D01*
X036566Y038864D02*
X036162Y038864D01*
X036261Y038963D02*
X036665Y038963D01*
X036763Y039061D02*
X036359Y039061D01*
X036458Y039160D02*
X036862Y039160D01*
X036960Y039258D02*
X036556Y039258D01*
X036655Y039357D02*
X037059Y039357D01*
X037157Y039455D02*
X036753Y039455D01*
X036852Y039554D02*
X037256Y039554D01*
X037354Y039652D02*
X036950Y039652D01*
X037049Y039751D02*
X037453Y039751D01*
X037551Y039849D02*
X037147Y039849D01*
X037246Y039948D02*
X037650Y039948D01*
X037748Y040046D02*
X037344Y040046D01*
X037443Y040145D02*
X037847Y040145D01*
X037945Y040243D02*
X037541Y040243D01*
X037640Y040342D02*
X038044Y040342D01*
X038142Y040440D02*
X037738Y040440D01*
X037837Y040539D02*
X038241Y040539D01*
X038339Y040637D02*
X037935Y040637D01*
X038034Y040736D02*
X038438Y040736D01*
X038536Y040834D02*
X038132Y040834D01*
X038231Y040933D02*
X038635Y040933D01*
X038733Y041031D02*
X038329Y041031D01*
X038428Y041130D02*
X038832Y041130D01*
X038930Y041228D02*
X038526Y041228D01*
X038876Y041327D02*
X039029Y041327D01*
X038965Y041425D02*
X039127Y041425D01*
X039226Y041524D02*
X039006Y041524D01*
X039017Y041622D02*
X039241Y041622D01*
X039247Y041721D02*
X039011Y041721D01*
X038970Y041819D02*
X039288Y041819D01*
X039369Y041918D02*
X038889Y041918D01*
X037550Y042016D02*
X036755Y042016D01*
X036658Y042016D02*
X036600Y042016D01*
X036503Y042016D02*
X035708Y042016D01*
X035550Y042016D02*
X034941Y042016D01*
X035017Y041918D02*
X035369Y041918D01*
X035288Y041819D02*
X035017Y041819D01*
X035017Y041721D02*
X035247Y041721D01*
X035241Y041622D02*
X035017Y041622D01*
X035017Y041524D02*
X035252Y041524D01*
X035293Y041425D02*
X035017Y041425D01*
X035017Y041327D02*
X035382Y041327D01*
X036011Y041721D02*
X036231Y041721D01*
X036269Y041819D02*
X035970Y041819D01*
X035889Y041918D02*
X036342Y041918D01*
X036600Y041918D02*
X036658Y041918D01*
X036658Y041819D02*
X036600Y041819D01*
X036600Y041721D02*
X036658Y041721D01*
X036658Y041524D02*
X036600Y041524D01*
X036600Y041425D02*
X036658Y041425D01*
X036658Y041327D02*
X036600Y041327D01*
X036600Y041228D02*
X036658Y041228D01*
X036989Y041819D02*
X037288Y041819D01*
X037369Y041918D02*
X036916Y041918D01*
X039049Y039751D02*
X040418Y039751D01*
X040418Y039849D02*
X039147Y039849D01*
X039246Y039948D02*
X040418Y039948D01*
X040418Y040046D02*
X039344Y040046D01*
X039443Y040145D02*
X040398Y040145D01*
X040418Y040125D02*
X040418Y037758D01*
X040350Y037690D01*
X040300Y037569D01*
X040300Y037438D01*
X040350Y037318D01*
X040443Y037225D01*
X040563Y037175D01*
X040694Y037175D01*
X040815Y037225D01*
X040908Y037318D01*
X040958Y037438D01*
X040958Y037569D01*
X040908Y037690D01*
X040840Y037758D01*
X040840Y040125D01*
X040908Y040193D01*
X040958Y040313D01*
X040958Y040444D01*
X040908Y040565D01*
X040815Y040658D01*
X040694Y040708D01*
X040563Y040708D01*
X040443Y040658D01*
X040350Y040565D01*
X040300Y040444D01*
X040300Y040313D01*
X040350Y040193D01*
X040418Y040125D01*
X040329Y040243D02*
X039541Y040243D01*
X039640Y040342D02*
X040300Y040342D01*
X040300Y040440D02*
X039738Y040440D01*
X039837Y040539D02*
X040339Y040539D01*
X040422Y040637D02*
X039935Y040637D01*
X040034Y040736D02*
X042418Y040736D01*
X042418Y040834D02*
X040132Y040834D01*
X040231Y040933D02*
X042418Y040933D01*
X042418Y041031D02*
X040329Y041031D01*
X040428Y041130D02*
X042418Y041130D01*
X042418Y041228D02*
X040526Y041228D01*
X040625Y041327D02*
X042418Y041327D01*
X042418Y041425D02*
X040715Y041425D01*
X040715Y041524D02*
X042418Y041524D01*
X042418Y041622D02*
X040715Y041622D01*
X040715Y041721D02*
X042418Y041721D01*
X042418Y041819D02*
X040715Y041819D01*
X040715Y041918D02*
X042417Y041918D01*
X042151Y042016D02*
X040715Y042016D01*
X040715Y042115D02*
X042080Y042115D01*
X042050Y042213D02*
X040715Y042213D01*
X040715Y042312D02*
X042050Y042312D01*
X042088Y042410D02*
X040715Y042410D01*
X040724Y042509D02*
X042169Y042509D01*
X042559Y042607D02*
X040799Y042607D01*
X040833Y042706D02*
X042658Y042706D01*
X042756Y042804D02*
X040833Y042804D01*
X040798Y042903D02*
X042855Y042903D01*
X042953Y043001D02*
X040721Y043001D01*
X040286Y043001D02*
X026554Y043001D01*
X026653Y042903D02*
X040210Y042903D01*
X040175Y042804D02*
X026751Y042804D01*
X026850Y042706D02*
X040175Y042706D01*
X040209Y042607D02*
X026948Y042607D01*
X027047Y042509D02*
X032919Y042509D01*
X033339Y042509D02*
X040284Y042509D01*
X040293Y042410D02*
X033420Y042410D01*
X033458Y042312D02*
X040293Y042312D01*
X040293Y042213D02*
X033458Y042213D01*
X033427Y042115D02*
X040293Y042115D01*
X041265Y043198D02*
X043150Y043198D01*
X043052Y043100D02*
X026456Y043100D01*
X029159Y042016D02*
X032901Y042016D01*
X032918Y041918D02*
X029275Y041918D01*
X029337Y041819D02*
X032918Y041819D01*
X032918Y041721D02*
X029370Y041721D01*
X028679Y039061D02*
X028579Y039061D01*
X028579Y038963D02*
X028679Y038963D01*
X028679Y038864D02*
X028579Y038864D01*
X028579Y038766D02*
X028679Y038766D01*
X028679Y038470D02*
X028579Y038470D01*
X028579Y038372D02*
X028679Y038372D01*
X028679Y038273D02*
X028579Y038273D01*
X027900Y038766D02*
X027840Y038766D01*
X027840Y038864D02*
X027944Y038864D01*
X028026Y038963D02*
X027840Y038963D01*
X027840Y039061D02*
X028204Y039061D01*
X029067Y035220D02*
X036168Y035220D01*
X036168Y035121D02*
X028840Y035121D01*
X028840Y035023D02*
X036168Y035023D01*
X036168Y034924D02*
X033382Y034924D01*
X033349Y034958D02*
X033206Y035017D01*
X033052Y035017D01*
X032909Y034958D01*
X032800Y034849D01*
X032741Y034706D01*
X032741Y034552D01*
X032800Y034409D01*
X032909Y034300D01*
X033052Y034241D01*
X033206Y034241D01*
X033349Y034300D01*
X033458Y034409D01*
X033517Y034552D01*
X033517Y034706D01*
X033458Y034849D01*
X033349Y034958D01*
X033467Y034826D02*
X036168Y034826D01*
X036168Y034727D02*
X033508Y034727D01*
X033517Y034629D02*
X036168Y034629D01*
X036168Y034530D02*
X033508Y034530D01*
X033467Y034432D02*
X036168Y034432D01*
X036168Y034333D02*
X033382Y034333D01*
X033206Y034017D02*
X033349Y033958D01*
X033458Y033849D01*
X033517Y033706D01*
X033517Y033552D01*
X033458Y033409D01*
X033349Y033300D01*
X033206Y033241D01*
X033052Y033241D01*
X032909Y033300D01*
X032800Y033409D01*
X032741Y033552D01*
X032741Y033706D01*
X032800Y033849D01*
X032909Y033958D01*
X033052Y034017D01*
X033206Y034017D01*
X033367Y033939D02*
X036168Y033939D01*
X036168Y034038D02*
X028840Y034038D01*
X028840Y034136D02*
X036168Y034136D01*
X036168Y034235D02*
X028840Y034235D01*
X028840Y034333D02*
X032875Y034333D01*
X032790Y034432D02*
X028840Y034432D01*
X028840Y034530D02*
X032749Y034530D01*
X032741Y034629D02*
X028840Y034629D01*
X028840Y034727D02*
X032749Y034727D01*
X032790Y034826D02*
X028840Y034826D01*
X028840Y034924D02*
X032875Y034924D01*
X032890Y033939D02*
X028840Y033939D01*
X028840Y033841D02*
X032796Y033841D01*
X032756Y033742D02*
X028840Y033742D01*
X028840Y033644D02*
X032741Y033644D01*
X032743Y033545D02*
X028840Y033545D01*
X028840Y033447D02*
X032784Y033447D01*
X032860Y033348D02*
X028840Y033348D01*
X028840Y033250D02*
X033029Y033250D01*
X033228Y033250D02*
X036452Y033250D01*
X036353Y033151D02*
X028840Y033151D01*
X028840Y033053D02*
X036255Y033053D01*
X036156Y032954D02*
X033352Y032954D01*
X033349Y032958D02*
X033206Y033017D01*
X033052Y033017D01*
X032909Y032958D01*
X032800Y032849D01*
X032741Y032706D01*
X032741Y032552D01*
X032800Y032409D01*
X032909Y032300D01*
X033052Y032241D01*
X033206Y032241D01*
X033349Y032300D01*
X033458Y032409D01*
X033517Y032552D01*
X033517Y032706D01*
X033458Y032849D01*
X033349Y032958D01*
X033451Y032856D02*
X036058Y032856D01*
X035959Y032757D02*
X033496Y032757D01*
X033517Y032659D02*
X035861Y032659D01*
X035762Y032560D02*
X033517Y032560D01*
X033480Y032462D02*
X035664Y032462D01*
X035565Y032363D02*
X033412Y032363D01*
X033264Y032265D02*
X035467Y032265D01*
X035368Y032166D02*
X028840Y032166D01*
X028840Y032068D02*
X035270Y032068D01*
X035171Y031969D02*
X033321Y031969D01*
X033349Y031958D02*
X033206Y032017D01*
X033052Y032017D01*
X032909Y031958D01*
X032800Y031849D01*
X032741Y031706D01*
X032741Y031552D01*
X032800Y031409D01*
X032909Y031300D01*
X033052Y031241D01*
X033206Y031241D01*
X033349Y031300D01*
X033458Y031409D01*
X033517Y031552D01*
X033517Y031706D01*
X033458Y031849D01*
X033349Y031958D01*
X033436Y031871D02*
X035073Y031871D01*
X034974Y031772D02*
X033490Y031772D01*
X033517Y031674D02*
X034876Y031674D01*
X034777Y031575D02*
X033517Y031575D01*
X033486Y031477D02*
X034679Y031477D01*
X034580Y031378D02*
X033427Y031378D01*
X033301Y031280D02*
X034482Y031280D01*
X034383Y031181D02*
X028840Y031181D01*
X028840Y031083D02*
X034285Y031083D01*
X034186Y030984D02*
X033285Y030984D01*
X033421Y030886D02*
X034088Y030886D01*
X034095Y030393D02*
X033442Y030393D01*
X033337Y030295D02*
X033997Y030295D01*
X033898Y030196D02*
X028840Y030196D01*
X028840Y030098D02*
X033800Y030098D01*
X033701Y029999D02*
X033249Y029999D01*
X033406Y029901D02*
X033603Y029901D01*
X033903Y029605D02*
X038168Y029605D01*
X038168Y029507D02*
X033805Y029507D01*
X034002Y029704D02*
X038168Y029704D01*
X038168Y029802D02*
X034100Y029802D01*
X034199Y029901D02*
X038168Y029901D01*
X038168Y029999D02*
X034297Y029999D01*
X034396Y030098D02*
X038168Y030098D01*
X038168Y030196D02*
X034494Y030196D01*
X034593Y030295D02*
X038168Y030295D01*
X038168Y030393D02*
X034691Y030393D01*
X034790Y030492D02*
X038168Y030492D01*
X038168Y030590D02*
X034888Y030590D01*
X034987Y030689D02*
X038168Y030689D01*
X038168Y030787D02*
X035085Y030787D01*
X035184Y030886D02*
X038168Y030886D01*
X038168Y030984D02*
X035282Y030984D01*
X035381Y031083D02*
X038168Y031083D01*
X038168Y031181D02*
X035479Y031181D01*
X035578Y031280D02*
X038168Y031280D01*
X038168Y031378D02*
X035676Y031378D01*
X035775Y031477D02*
X038168Y031477D01*
X038168Y031575D02*
X035873Y031575D01*
X035972Y031674D02*
X038168Y031674D01*
X038168Y031772D02*
X036070Y031772D01*
X036169Y031871D02*
X038168Y031871D01*
X038168Y031969D02*
X036267Y031969D01*
X036366Y032068D02*
X038168Y032068D01*
X038168Y032166D02*
X036464Y032166D01*
X036563Y032265D02*
X038168Y032265D01*
X038168Y032363D02*
X036661Y032363D01*
X036760Y032462D02*
X038168Y032462D01*
X038168Y032560D02*
X036858Y032560D01*
X036957Y032659D02*
X038168Y032659D01*
X038168Y032757D02*
X037055Y032757D01*
X037154Y032856D02*
X038168Y032856D01*
X038168Y032954D02*
X037252Y032954D01*
X037351Y033053D02*
X038168Y033053D01*
X038168Y033151D02*
X037449Y033151D01*
X037548Y033250D02*
X038168Y033250D01*
X038168Y033348D02*
X037590Y033348D01*
X037590Y033447D02*
X038168Y033447D01*
X038168Y033545D02*
X037590Y033545D01*
X037590Y033644D02*
X038149Y033644D01*
X038079Y033742D02*
X037590Y033742D01*
X037590Y033841D02*
X038050Y033841D01*
X038050Y033939D02*
X037590Y033939D01*
X037590Y034038D02*
X038089Y034038D01*
X038171Y034136D02*
X037590Y034136D01*
X037590Y034235D02*
X039543Y034235D01*
X039543Y034333D02*
X037590Y034333D01*
X037647Y034432D02*
X038297Y034432D01*
X038461Y034432D02*
X039543Y034432D01*
X039543Y034530D02*
X038620Y034530D01*
X038683Y034629D02*
X039543Y034629D01*
X039543Y034727D02*
X038708Y034727D01*
X038705Y034826D02*
X039543Y034826D01*
X039543Y034924D02*
X038664Y034924D01*
X038590Y035023D02*
X039543Y035023D01*
X039543Y035121D02*
X038590Y035121D01*
X038590Y035220D02*
X039464Y035220D01*
X039475Y035193D02*
X039543Y035125D01*
X039543Y032894D01*
X039533Y032822D01*
X039543Y032809D01*
X039543Y032792D01*
X039594Y032740D01*
X039918Y032309D01*
X039918Y032292D01*
X039969Y032240D01*
X040013Y032183D01*
X040029Y032180D01*
X040042Y032168D01*
X040114Y032168D01*
X040185Y032158D01*
X040199Y032168D01*
X041200Y032168D01*
X041214Y032135D01*
X041335Y032014D01*
X041493Y031948D01*
X042264Y031948D01*
X042423Y032014D01*
X042544Y032135D01*
X042610Y032293D01*
X042610Y032464D01*
X042544Y032623D01*
X042423Y032744D01*
X042264Y032810D01*
X041493Y032810D01*
X041335Y032744D01*
X041214Y032623D01*
X041200Y032590D01*
X040234Y032590D01*
X039965Y032949D01*
X039965Y035125D01*
X040033Y035193D01*
X040083Y035313D01*
X040083Y035444D01*
X040033Y035565D01*
X039940Y035658D01*
X039819Y035708D01*
X039688Y035708D01*
X039568Y035658D01*
X039475Y035565D01*
X039425Y035444D01*
X039425Y035313D01*
X039475Y035193D01*
X039425Y035318D02*
X038590Y035318D01*
X038590Y035417D02*
X039425Y035417D01*
X039454Y035515D02*
X038590Y035515D01*
X038590Y035614D02*
X039524Y035614D01*
X039984Y035614D02*
X041210Y035614D01*
X041169Y035515D02*
X040053Y035515D01*
X040083Y035417D02*
X041148Y035417D01*
X041148Y035318D02*
X040083Y035318D01*
X040044Y035220D02*
X041178Y035220D01*
X041227Y035121D02*
X039965Y035121D01*
X039965Y035023D02*
X041326Y035023D01*
X041493Y034810D02*
X041335Y034744D01*
X041214Y034623D01*
X041148Y034464D01*
X041148Y034293D01*
X041214Y034135D01*
X041335Y034014D01*
X041493Y033948D01*
X042264Y033948D01*
X042423Y034014D01*
X042544Y034135D01*
X042610Y034293D01*
X042610Y034464D01*
X042544Y034623D01*
X042423Y034744D01*
X042264Y034810D01*
X041493Y034810D01*
X041318Y034727D02*
X039965Y034727D01*
X039965Y034629D02*
X041220Y034629D01*
X041175Y034530D02*
X039965Y034530D01*
X039965Y034432D02*
X041148Y034432D01*
X041148Y034333D02*
X039965Y034333D01*
X039965Y034235D02*
X041172Y034235D01*
X041213Y034136D02*
X039965Y034136D01*
X039965Y034038D02*
X041311Y034038D01*
X041493Y033810D02*
X041335Y033744D01*
X041214Y033623D01*
X041148Y033464D01*
X041148Y033293D01*
X041214Y033135D01*
X041335Y033014D01*
X041493Y032948D01*
X042264Y032948D01*
X042423Y033014D01*
X042544Y033135D01*
X042610Y033293D01*
X042610Y033464D01*
X042544Y033623D01*
X042423Y033744D01*
X042264Y033810D01*
X041493Y033810D01*
X041333Y033742D02*
X039965Y033742D01*
X039965Y033644D02*
X041235Y033644D01*
X041182Y033545D02*
X039965Y033545D01*
X039965Y033447D02*
X041148Y033447D01*
X041148Y033348D02*
X039965Y033348D01*
X039965Y033250D02*
X041166Y033250D01*
X041207Y033151D02*
X039965Y033151D01*
X039965Y033053D02*
X041296Y033053D01*
X041478Y032954D02*
X039965Y032954D01*
X040034Y032856D02*
X042668Y032856D01*
X042668Y032954D02*
X042279Y032954D01*
X042462Y033053D02*
X042668Y033053D01*
X042668Y033151D02*
X042551Y033151D01*
X042592Y033250D02*
X042668Y033250D01*
X042668Y033348D02*
X042610Y033348D01*
X042610Y033447D02*
X042668Y033447D01*
X042668Y033545D02*
X042576Y033545D01*
X042523Y033644D02*
X042668Y033644D01*
X042668Y033742D02*
X042424Y033742D01*
X042668Y033841D02*
X039965Y033841D01*
X039965Y033939D02*
X042668Y033939D01*
X042668Y034038D02*
X042447Y034038D01*
X042545Y034136D02*
X042668Y034136D01*
X042668Y034235D02*
X042585Y034235D01*
X042610Y034333D02*
X042668Y034333D01*
X042668Y034432D02*
X042610Y034432D01*
X042582Y034530D02*
X042668Y034530D01*
X042668Y034629D02*
X042538Y034629D01*
X042439Y034727D02*
X042668Y034727D01*
X042668Y034826D02*
X039965Y034826D01*
X039965Y034924D02*
X042668Y034924D01*
X042668Y035023D02*
X042432Y035023D01*
X042530Y035121D02*
X042668Y035121D01*
X042668Y035220D02*
X042579Y035220D01*
X042610Y035318D02*
X042641Y035318D01*
X042942Y035614D02*
X043179Y035614D01*
X043179Y035712D02*
X042843Y035712D01*
X042745Y035811D02*
X043179Y035811D01*
X043179Y035909D02*
X042646Y035909D01*
X042548Y036008D02*
X043179Y036008D01*
X043179Y036106D02*
X042515Y036106D01*
X042573Y036205D02*
X043179Y036205D01*
X043179Y036303D02*
X042610Y036303D01*
X042610Y036402D02*
X043179Y036402D01*
X043179Y036500D02*
X042595Y036500D01*
X042554Y036599D02*
X043179Y036599D01*
X043179Y036697D02*
X042495Y036697D01*
X042594Y036796D02*
X043179Y036796D01*
X043179Y036894D02*
X042692Y036894D01*
X042791Y036993D02*
X043179Y036993D01*
X043179Y037091D02*
X042840Y037091D01*
X042840Y037190D02*
X043179Y037190D01*
X043179Y037288D02*
X042840Y037288D01*
X042840Y037387D02*
X043179Y037387D01*
X043179Y037485D02*
X042840Y037485D01*
X042840Y037584D02*
X043179Y037584D01*
X043179Y037682D02*
X042840Y037682D01*
X042840Y037781D02*
X043179Y037781D01*
X043179Y037879D02*
X042840Y037879D01*
X042840Y037978D02*
X043179Y037978D01*
X043179Y038076D02*
X042840Y038076D01*
X042840Y038175D02*
X043179Y038175D01*
X043179Y038273D02*
X042840Y038273D01*
X042840Y038372D02*
X043179Y038372D01*
X043179Y038470D02*
X042840Y038470D01*
X042840Y038569D02*
X043179Y038569D01*
X043179Y038667D02*
X042840Y038667D01*
X042840Y038766D02*
X043179Y038766D01*
X043179Y038864D02*
X042840Y038864D01*
X042840Y038963D02*
X043179Y038963D01*
X043179Y039061D02*
X042840Y039061D01*
X042840Y039160D02*
X043179Y039160D01*
X043179Y039258D02*
X042840Y039258D01*
X042840Y039357D02*
X043179Y039357D01*
X043179Y039455D02*
X042840Y039455D01*
X042840Y039554D02*
X043179Y039554D01*
X043179Y039652D02*
X042840Y039652D01*
X042840Y039751D02*
X043179Y039751D01*
X043179Y039849D02*
X042840Y039849D01*
X042840Y039948D02*
X043179Y039948D01*
X043179Y040046D02*
X042840Y040046D01*
X042840Y040145D02*
X043179Y040145D01*
X043179Y040243D02*
X042840Y040243D01*
X042840Y040342D02*
X043179Y040342D01*
X043179Y040440D02*
X042840Y040440D01*
X042840Y040539D02*
X043179Y040539D01*
X043179Y040637D02*
X042840Y040637D01*
X042840Y040736D02*
X043179Y040736D01*
X043179Y040834D02*
X042840Y040834D01*
X042840Y040933D02*
X043179Y040933D01*
X043179Y041031D02*
X042840Y041031D01*
X042840Y041130D02*
X043179Y041130D01*
X043183Y041228D02*
X042840Y041228D01*
X042840Y041327D02*
X043224Y041327D01*
X043289Y041425D02*
X042840Y041425D01*
X042840Y041524D02*
X043387Y041524D01*
X043486Y041622D02*
X042840Y041622D01*
X042840Y041721D02*
X043584Y041721D01*
X043683Y041819D02*
X042840Y041819D01*
X042840Y041918D02*
X043781Y041918D01*
X043880Y042016D02*
X042840Y042016D01*
X042816Y042115D02*
X043978Y042115D01*
X044077Y042213D02*
X042761Y042213D01*
X042860Y042312D02*
X044175Y042312D01*
X044274Y042410D02*
X042958Y042410D01*
X043057Y042509D02*
X044372Y042509D01*
X044471Y042607D02*
X043155Y042607D01*
X043254Y042706D02*
X044569Y042706D01*
X044668Y042804D02*
X043352Y042804D01*
X043451Y042903D02*
X044766Y042903D01*
X044865Y043001D02*
X043549Y043001D01*
X043648Y043100D02*
X044963Y043100D01*
X045062Y043198D02*
X043746Y043198D01*
X043845Y043297D02*
X045160Y043297D01*
X045259Y043395D02*
X043943Y043395D01*
X044042Y043494D02*
X045357Y043494D01*
X045456Y043592D02*
X044140Y043592D01*
X044239Y043691D02*
X045554Y043691D01*
X045653Y043789D02*
X044337Y043789D01*
X044436Y043888D02*
X045751Y043888D01*
X045850Y043986D02*
X044534Y043986D01*
X044633Y044085D02*
X045948Y044085D01*
X046047Y044183D02*
X044731Y044183D01*
X044830Y044282D02*
X046145Y044282D01*
X046244Y044380D02*
X044928Y044380D01*
X045027Y044479D02*
X046342Y044479D01*
X046441Y044577D02*
X045125Y044577D01*
X045224Y044676D02*
X046539Y044676D01*
X046638Y044774D02*
X045322Y044774D01*
X045421Y044873D02*
X046736Y044873D01*
X046835Y044971D02*
X045519Y044971D01*
X045618Y045070D02*
X046933Y045070D01*
X047032Y045168D02*
X045716Y045168D01*
X045815Y045267D02*
X047130Y045267D01*
X047229Y045365D02*
X045913Y045365D01*
X046012Y045464D02*
X047327Y045464D01*
X047426Y045562D02*
X046110Y045562D01*
X046209Y045661D02*
X047524Y045661D01*
X047623Y045759D02*
X046307Y045759D01*
X046406Y045858D02*
X047721Y045858D01*
X047820Y045956D02*
X046504Y045956D01*
X046603Y046055D02*
X047918Y046055D01*
X048017Y046153D02*
X046701Y046153D01*
X046800Y046252D02*
X048115Y046252D01*
X048214Y046350D02*
X046898Y046350D01*
X046997Y046449D02*
X048312Y046449D01*
X048411Y046547D02*
X047095Y046547D01*
X047194Y046646D02*
X048509Y046646D01*
X048608Y046744D02*
X047292Y046744D01*
X047391Y046843D02*
X048706Y046843D01*
X048805Y046941D02*
X047489Y046941D01*
X047588Y047040D02*
X048903Y047040D01*
X049002Y047138D02*
X047686Y047138D01*
X047785Y047237D02*
X049100Y047237D01*
X049199Y047335D02*
X047883Y047335D01*
X047982Y047434D02*
X049297Y047434D01*
X049396Y047532D02*
X048080Y047532D01*
X048179Y047631D02*
X049494Y047631D01*
X049593Y047729D02*
X049046Y047729D01*
X049144Y047828D02*
X049691Y047828D01*
X049790Y047926D02*
X049243Y047926D01*
X049341Y048025D02*
X049888Y048025D01*
X049987Y048123D02*
X049440Y048123D01*
X049538Y048222D02*
X050085Y048222D01*
X050184Y048320D02*
X049592Y048320D01*
X049625Y048419D02*
X050282Y048419D01*
X050381Y048517D02*
X049625Y048517D01*
X049607Y048616D02*
X050479Y048616D01*
X050578Y048714D02*
X049567Y048714D01*
X049478Y048813D02*
X050676Y048813D01*
X050775Y048911D02*
X049296Y048911D01*
X049093Y048911D02*
X048813Y048911D01*
X048853Y048951D02*
X048918Y049109D01*
X048918Y049280D01*
X048853Y049438D01*
X048731Y049560D01*
X048573Y049625D01*
X048402Y049625D01*
X048243Y049560D01*
X047698Y049014D01*
X047632Y048856D01*
X047632Y048685D01*
X047698Y048526D01*
X047819Y048405D01*
X047977Y048340D01*
X048149Y048340D01*
X048307Y048405D01*
X048853Y048951D01*
X048877Y049010D02*
X050873Y049010D01*
X050972Y049108D02*
X048918Y049108D01*
X048918Y049207D02*
X051070Y049207D01*
X051169Y049305D02*
X048908Y049305D01*
X048867Y049404D02*
X051267Y049404D01*
X051366Y049502D02*
X048789Y049502D01*
X048632Y049601D02*
X051464Y049601D01*
X051563Y049699D02*
X047836Y049699D01*
X047737Y049601D02*
X048343Y049601D01*
X048186Y049502D02*
X047639Y049502D01*
X047540Y049404D02*
X048088Y049404D01*
X047989Y049305D02*
X047442Y049305D01*
X047343Y049207D02*
X047891Y049207D01*
X047792Y049108D02*
X047245Y049108D01*
X047146Y049010D02*
X047696Y049010D01*
X047655Y048911D02*
X047048Y048911D01*
X046949Y048813D02*
X047632Y048813D01*
X047632Y048714D02*
X046851Y048714D01*
X046752Y048616D02*
X047661Y048616D01*
X047707Y048517D02*
X046654Y048517D01*
X046555Y048419D02*
X047805Y048419D01*
X048075Y048123D02*
X046260Y048123D01*
X046161Y048025D02*
X047977Y048025D01*
X047878Y047926D02*
X046063Y047926D01*
X045964Y047828D02*
X047780Y047828D01*
X047681Y047729D02*
X045866Y047729D01*
X045767Y047631D02*
X047583Y047631D01*
X047484Y047532D02*
X045669Y047532D01*
X045570Y047434D02*
X047386Y047434D01*
X047287Y047335D02*
X045472Y047335D01*
X045373Y047237D02*
X047189Y047237D01*
X047090Y047138D02*
X045275Y047138D01*
X045176Y047040D02*
X046992Y047040D01*
X046893Y046941D02*
X045078Y046941D01*
X044979Y046843D02*
X046795Y046843D01*
X046696Y046744D02*
X044881Y046744D01*
X044782Y046646D02*
X046598Y046646D01*
X046499Y046547D02*
X044684Y046547D01*
X044585Y046449D02*
X046401Y046449D01*
X046302Y046350D02*
X044487Y046350D01*
X044388Y046252D02*
X046204Y046252D01*
X046105Y046153D02*
X044290Y046153D01*
X044191Y046055D02*
X046007Y046055D01*
X045908Y045956D02*
X044093Y045956D01*
X043994Y045858D02*
X045810Y045858D01*
X045711Y045759D02*
X043896Y045759D01*
X043797Y045661D02*
X045613Y045661D01*
X045514Y045562D02*
X043699Y045562D01*
X043600Y045464D02*
X045416Y045464D01*
X045317Y045365D02*
X043502Y045365D01*
X043403Y045267D02*
X045219Y045267D01*
X045120Y045168D02*
X043305Y045168D01*
X043206Y045070D02*
X045022Y045070D01*
X044923Y044971D02*
X043108Y044971D01*
X043009Y044873D02*
X044825Y044873D01*
X044726Y044774D02*
X042911Y044774D01*
X042812Y044676D02*
X044628Y044676D01*
X044529Y044577D02*
X042714Y044577D01*
X042615Y044479D02*
X044431Y044479D01*
X044332Y044380D02*
X042517Y044380D01*
X042418Y044282D02*
X044234Y044282D01*
X044135Y044183D02*
X042320Y044183D01*
X042221Y044085D02*
X044037Y044085D01*
X043938Y043986D02*
X042123Y043986D01*
X042024Y043888D02*
X043840Y043888D01*
X043741Y043789D02*
X041926Y043789D01*
X041827Y043691D02*
X043643Y043691D01*
X043544Y043592D02*
X041729Y043592D01*
X041630Y043494D02*
X043446Y043494D01*
X043347Y043395D02*
X041532Y043395D01*
X041433Y043297D02*
X043249Y043297D01*
X042418Y040637D02*
X040835Y040637D01*
X040918Y040539D02*
X042418Y040539D01*
X042418Y040440D02*
X040958Y040440D01*
X040958Y040342D02*
X042418Y040342D01*
X042418Y040243D02*
X040929Y040243D01*
X040860Y040145D02*
X042418Y040145D01*
X042418Y040046D02*
X040840Y040046D01*
X040840Y039948D02*
X042418Y039948D01*
X042418Y039849D02*
X040840Y039849D01*
X040840Y039751D02*
X042418Y039751D01*
X042418Y039652D02*
X040840Y039652D01*
X040840Y039554D02*
X042418Y039554D01*
X042418Y039455D02*
X040840Y039455D01*
X040840Y039357D02*
X042418Y039357D01*
X042418Y039258D02*
X040840Y039258D01*
X040840Y039160D02*
X042418Y039160D01*
X042418Y039061D02*
X040840Y039061D01*
X040840Y038963D02*
X042418Y038963D01*
X042418Y038864D02*
X040840Y038864D01*
X040840Y038766D02*
X042418Y038766D01*
X042418Y038667D02*
X040840Y038667D01*
X040840Y038569D02*
X042418Y038569D01*
X042418Y038470D02*
X040840Y038470D01*
X040840Y038372D02*
X042418Y038372D01*
X042418Y038273D02*
X040840Y038273D01*
X040840Y038175D02*
X042418Y038175D01*
X042418Y038076D02*
X040840Y038076D01*
X040840Y037978D02*
X042418Y037978D01*
X042418Y037879D02*
X040840Y037879D01*
X040840Y037781D02*
X042418Y037781D01*
X042418Y037682D02*
X040911Y037682D01*
X040952Y037584D02*
X042418Y037584D01*
X042418Y037485D02*
X040958Y037485D01*
X040936Y037387D02*
X042418Y037387D01*
X042418Y037288D02*
X040878Y037288D01*
X040730Y037190D02*
X042392Y037190D01*
X042293Y037091D02*
X038590Y037091D01*
X038590Y036993D02*
X042195Y036993D01*
X042096Y036894D02*
X038590Y036894D01*
X038590Y036796D02*
X041460Y036796D01*
X041288Y036697D02*
X038590Y036697D01*
X038590Y036599D02*
X041204Y036599D01*
X041163Y036500D02*
X038590Y036500D01*
X038590Y036402D02*
X041148Y036402D01*
X041148Y036303D02*
X038590Y036303D01*
X038590Y036205D02*
X041185Y036205D01*
X041242Y036106D02*
X038590Y036106D01*
X038590Y036008D02*
X041349Y036008D01*
X041303Y035712D02*
X038590Y035712D01*
X038590Y035811D02*
X042149Y035811D01*
X042050Y035909D02*
X038590Y035909D01*
X038168Y035417D02*
X037043Y035417D01*
X037154Y035318D02*
X038168Y035318D01*
X038168Y035220D02*
X037197Y035220D01*
X037208Y035121D02*
X038168Y035121D01*
X038168Y035023D02*
X037191Y035023D01*
X037233Y034924D02*
X037139Y034924D01*
X037111Y034826D02*
X037090Y034826D01*
X037525Y034924D02*
X038094Y034924D01*
X038053Y034826D02*
X037647Y034826D01*
X037694Y034727D02*
X038050Y034727D01*
X038075Y034629D02*
X037708Y034629D01*
X037694Y034530D02*
X038137Y034530D01*
X038586Y034136D02*
X039543Y034136D01*
X039543Y034038D02*
X038669Y034038D01*
X038708Y033939D02*
X039543Y033939D01*
X039543Y033841D02*
X038708Y033841D01*
X038678Y033742D02*
X039543Y033742D01*
X039543Y033644D02*
X038609Y033644D01*
X038590Y033545D02*
X039543Y033545D01*
X039543Y033447D02*
X038590Y033447D01*
X038590Y033348D02*
X039543Y033348D01*
X039543Y033250D02*
X038590Y033250D01*
X038590Y033151D02*
X039543Y033151D01*
X039543Y033053D02*
X038590Y033053D01*
X038590Y032954D02*
X039543Y032954D01*
X039538Y032856D02*
X038590Y032856D01*
X038590Y032757D02*
X039577Y032757D01*
X039655Y032659D02*
X038590Y032659D01*
X038590Y032560D02*
X039729Y032560D01*
X039803Y032462D02*
X038590Y032462D01*
X038590Y032363D02*
X039877Y032363D01*
X039945Y032265D02*
X038590Y032265D01*
X038590Y032166D02*
X040126Y032166D01*
X040197Y032166D02*
X041201Y032166D01*
X041281Y032068D02*
X038590Y032068D01*
X038590Y031969D02*
X041442Y031969D01*
X041473Y031818D02*
X041406Y031796D01*
X041343Y031764D01*
X041286Y031722D01*
X041236Y031672D01*
X041194Y031615D01*
X041162Y031552D01*
X041140Y031484D01*
X041131Y031429D01*
X041829Y031429D01*
X041829Y031829D01*
X041543Y031829D01*
X041473Y031818D01*
X041360Y031772D02*
X038590Y031772D01*
X038590Y031674D02*
X041237Y031674D01*
X041174Y031575D02*
X038590Y031575D01*
X038590Y031477D02*
X041139Y031477D01*
X041131Y031329D02*
X041140Y031273D01*
X041162Y031206D01*
X041194Y031143D01*
X041236Y031086D01*
X041286Y031036D01*
X041343Y030994D01*
X041406Y030962D01*
X041473Y030940D01*
X041543Y030929D01*
X041829Y030929D01*
X041829Y031329D01*
X041929Y031329D01*
X041929Y031429D01*
X041829Y031429D01*
X041829Y031329D01*
X041131Y031329D01*
X041139Y031280D02*
X038590Y031280D01*
X038590Y031378D02*
X041829Y031378D01*
X041829Y031280D02*
X041929Y031280D01*
X041929Y031329D02*
X041929Y030929D01*
X042214Y030929D01*
X042284Y030940D01*
X042352Y030962D01*
X042415Y030994D01*
X042472Y031036D01*
X042522Y031086D01*
X042564Y031143D01*
X042596Y031206D01*
X042618Y031273D01*
X042627Y031329D01*
X041929Y031329D01*
X041929Y031378D02*
X042668Y031378D01*
X042627Y031429D02*
X042618Y031484D01*
X042596Y031552D01*
X042564Y031615D01*
X042522Y031672D01*
X042472Y031722D01*
X042415Y031764D01*
X042352Y031796D01*
X042284Y031818D01*
X042214Y031829D01*
X041929Y031829D01*
X041929Y031429D01*
X042627Y031429D01*
X042619Y031477D02*
X042668Y031477D01*
X042668Y031575D02*
X042584Y031575D01*
X042520Y031674D02*
X042668Y031674D01*
X042668Y031772D02*
X042398Y031772D01*
X042316Y031969D02*
X042668Y031969D01*
X042668Y031871D02*
X038590Y031871D01*
X038590Y031181D02*
X041174Y031181D01*
X041238Y031083D02*
X038590Y031083D01*
X038590Y030984D02*
X041362Y030984D01*
X041829Y030984D02*
X041929Y030984D01*
X041929Y031083D02*
X041829Y031083D01*
X041829Y031181D02*
X041929Y031181D01*
X041929Y031477D02*
X041829Y031477D01*
X041829Y031575D02*
X041929Y031575D01*
X041929Y031674D02*
X041829Y031674D01*
X041829Y031772D02*
X041929Y031772D01*
X042477Y032068D02*
X042668Y032068D01*
X042668Y032166D02*
X042557Y032166D01*
X042598Y032265D02*
X042668Y032265D01*
X042668Y032363D02*
X042610Y032363D01*
X042610Y032462D02*
X042668Y032462D01*
X042668Y032560D02*
X042570Y032560D01*
X042508Y032659D02*
X042668Y032659D01*
X042668Y032757D02*
X042391Y032757D01*
X043090Y032757D02*
X043179Y032757D01*
X043179Y032659D02*
X043090Y032659D01*
X043090Y032560D02*
X043179Y032560D01*
X043179Y032462D02*
X043090Y032462D01*
X043090Y032363D02*
X043179Y032363D01*
X043179Y032265D02*
X043090Y032265D01*
X043090Y032166D02*
X043179Y032166D01*
X043179Y032068D02*
X043090Y032068D01*
X043090Y031969D02*
X043179Y031969D01*
X043179Y031871D02*
X043090Y031871D01*
X043090Y031772D02*
X043179Y031772D01*
X043179Y031674D02*
X043090Y031674D01*
X043090Y031575D02*
X043179Y031575D01*
X043179Y031477D02*
X043090Y031477D01*
X043090Y031378D02*
X043179Y031378D01*
X043179Y031280D02*
X043090Y031280D01*
X043090Y031181D02*
X043179Y031181D01*
X043179Y031083D02*
X043090Y031083D01*
X043090Y030984D02*
X043179Y030984D01*
X043179Y030886D02*
X043090Y030886D01*
X043090Y030787D02*
X043179Y030787D01*
X043179Y030689D02*
X043090Y030689D01*
X043090Y030590D02*
X043179Y030590D01*
X043179Y030492D02*
X043090Y030492D01*
X043090Y030393D02*
X043179Y030393D01*
X043179Y030295D02*
X043090Y030295D01*
X043090Y030196D02*
X043179Y030196D01*
X043179Y030098D02*
X043090Y030098D01*
X043090Y029999D02*
X043179Y029999D01*
X043179Y029901D02*
X043090Y029901D01*
X043090Y029802D02*
X043179Y029802D01*
X043179Y029704D02*
X043090Y029704D01*
X043090Y029605D02*
X043179Y029605D01*
X043179Y029507D02*
X043090Y029507D01*
X043090Y029408D02*
X043179Y029408D01*
X043179Y029310D02*
X043090Y029310D01*
X043090Y029211D02*
X043179Y029211D01*
X043179Y029113D02*
X043090Y029113D01*
X043090Y029014D02*
X043179Y029014D01*
X043179Y028916D02*
X043090Y028916D01*
X043090Y028817D02*
X043179Y028817D01*
X043179Y028719D02*
X043090Y028719D01*
X043090Y028620D02*
X043179Y028620D01*
X043179Y028522D02*
X043090Y028522D01*
X043090Y028423D02*
X043179Y028423D01*
X043179Y028325D02*
X043090Y028325D01*
X043090Y028226D02*
X043179Y028226D01*
X043179Y028128D02*
X043090Y028128D01*
X043090Y028029D02*
X043183Y028029D01*
X043224Y027931D02*
X043090Y027931D01*
X043090Y027832D02*
X043289Y027832D01*
X043387Y027734D02*
X043090Y027734D01*
X043090Y027635D02*
X043486Y027635D01*
X043584Y027537D02*
X043090Y027537D01*
X043090Y027438D02*
X043683Y027438D01*
X043781Y027340D02*
X043090Y027340D01*
X043090Y027241D02*
X043880Y027241D01*
X043978Y027143D02*
X043090Y027143D01*
X043090Y027044D02*
X044077Y027044D01*
X044175Y026946D02*
X043090Y026946D01*
X043090Y026847D02*
X044274Y026847D01*
X044372Y026749D02*
X043090Y026749D01*
X043090Y026650D02*
X044471Y026650D01*
X044569Y026552D02*
X043090Y026552D01*
X043102Y026453D02*
X044668Y026453D01*
X044766Y026355D02*
X043201Y026355D01*
X043299Y026256D02*
X044865Y026256D01*
X044963Y026158D02*
X043398Y026158D01*
X043496Y026059D02*
X045062Y026059D01*
X045160Y025961D02*
X043595Y025961D01*
X043693Y025862D02*
X045259Y025862D01*
X045357Y025764D02*
X043792Y025764D01*
X043890Y025665D02*
X045456Y025665D01*
X045554Y025567D02*
X043989Y025567D01*
X044087Y025468D02*
X045653Y025468D01*
X045751Y025370D02*
X044186Y025370D01*
X044284Y025271D02*
X045850Y025271D01*
X045948Y025173D02*
X044383Y025173D01*
X044481Y025074D02*
X046047Y025074D01*
X046145Y024976D02*
X044580Y024976D01*
X044678Y024877D02*
X046244Y024877D01*
X046342Y024779D02*
X044777Y024779D01*
X044875Y024680D02*
X046441Y024680D01*
X046539Y024582D02*
X044974Y024582D01*
X045072Y024483D02*
X046638Y024483D01*
X046736Y024385D02*
X045171Y024385D01*
X045269Y024286D02*
X046835Y024286D01*
X046933Y024188D02*
X045368Y024188D01*
X045466Y024089D02*
X047032Y024089D01*
X047130Y023991D02*
X045565Y023991D01*
X045663Y023892D02*
X047229Y023892D01*
X047327Y023794D02*
X045762Y023794D01*
X045860Y023695D02*
X047426Y023695D01*
X047524Y023597D02*
X045959Y023597D01*
X046057Y023498D02*
X047623Y023498D01*
X047721Y023400D02*
X046156Y023400D01*
X046254Y023301D02*
X047820Y023301D01*
X047918Y023203D02*
X046353Y023203D01*
X046451Y023104D02*
X048017Y023104D01*
X048115Y023006D02*
X046550Y023006D01*
X046648Y022907D02*
X048214Y022907D01*
X048312Y022809D02*
X046747Y022809D01*
X046845Y022710D02*
X048411Y022710D01*
X048509Y022612D02*
X046944Y022612D01*
X047042Y022513D02*
X048608Y022513D01*
X048706Y022415D02*
X047141Y022415D01*
X047239Y022316D02*
X048805Y022316D01*
X048903Y022218D02*
X047338Y022218D01*
X047436Y022119D02*
X049002Y022119D01*
X049100Y022021D02*
X047535Y022021D01*
X047633Y021922D02*
X049199Y021922D01*
X049297Y021824D02*
X047732Y021824D01*
X047830Y021725D02*
X049396Y021725D01*
X049494Y021627D02*
X047929Y021627D01*
X048027Y021528D02*
X048495Y021528D01*
X048402Y021430D02*
X048126Y021430D01*
X048224Y021331D02*
X048361Y021331D01*
X048340Y021233D02*
X048323Y021233D01*
X048022Y020937D02*
X046457Y020937D01*
X046555Y020839D02*
X047805Y020839D01*
X047707Y020740D02*
X046654Y020740D01*
X046752Y020642D02*
X047661Y020642D01*
X047632Y020543D02*
X046851Y020543D01*
X046949Y020445D02*
X047632Y020445D01*
X047655Y020346D02*
X047048Y020346D01*
X047146Y020248D02*
X047696Y020248D01*
X047792Y020149D02*
X047245Y020149D01*
X047343Y020051D02*
X047891Y020051D01*
X047989Y019952D02*
X047442Y019952D01*
X047540Y019854D02*
X048088Y019854D01*
X048186Y019755D02*
X047639Y019755D01*
X047737Y019657D02*
X048343Y019657D01*
X048632Y019657D02*
X051464Y019657D01*
X051366Y019755D02*
X048789Y019755D01*
X048867Y019854D02*
X051267Y019854D01*
X051169Y019952D02*
X048908Y019952D01*
X048918Y020051D02*
X051070Y020051D01*
X050972Y020149D02*
X048918Y020149D01*
X048877Y020248D02*
X050873Y020248D01*
X050775Y020346D02*
X049296Y020346D01*
X049093Y020346D02*
X048813Y020346D01*
X048715Y020445D02*
X048911Y020445D01*
X048812Y020543D02*
X048616Y020543D01*
X048518Y020642D02*
X048714Y020642D01*
X048615Y020740D02*
X048419Y020740D01*
X047924Y021036D02*
X046358Y021036D01*
X046260Y021134D02*
X047825Y021134D01*
X047727Y021233D02*
X046161Y021233D01*
X046063Y021331D02*
X047628Y021331D01*
X047530Y021430D02*
X045964Y021430D01*
X045866Y021528D02*
X047431Y021528D01*
X047333Y021627D02*
X045767Y021627D01*
X045669Y021725D02*
X047234Y021725D01*
X047136Y021824D02*
X045570Y021824D01*
X045472Y021922D02*
X047037Y021922D01*
X046939Y022021D02*
X045373Y022021D01*
X045275Y022119D02*
X046840Y022119D01*
X046742Y022218D02*
X045176Y022218D01*
X045078Y022316D02*
X046643Y022316D01*
X046545Y022415D02*
X044979Y022415D01*
X044881Y022513D02*
X046446Y022513D01*
X046348Y022612D02*
X044782Y022612D01*
X044684Y022710D02*
X046249Y022710D01*
X046151Y022809D02*
X044585Y022809D01*
X044487Y022907D02*
X046052Y022907D01*
X045954Y023006D02*
X044388Y023006D01*
X044290Y023104D02*
X045855Y023104D01*
X045757Y023203D02*
X044191Y023203D01*
X044093Y023301D02*
X045658Y023301D01*
X045560Y023400D02*
X043994Y023400D01*
X043896Y023498D02*
X045461Y023498D01*
X045363Y023597D02*
X043797Y023597D01*
X043699Y023695D02*
X045264Y023695D01*
X045166Y023794D02*
X043600Y023794D01*
X043502Y023892D02*
X045067Y023892D01*
X044969Y023991D02*
X043403Y023991D01*
X043305Y024089D02*
X044870Y024089D01*
X044772Y024188D02*
X043206Y024188D01*
X043108Y024286D02*
X044673Y024286D01*
X044575Y024385D02*
X043009Y024385D01*
X042911Y024483D02*
X044476Y024483D01*
X044378Y024582D02*
X042812Y024582D01*
X042714Y024680D02*
X044279Y024680D01*
X044181Y024779D02*
X042615Y024779D01*
X042517Y024877D02*
X044082Y024877D01*
X043984Y024976D02*
X042418Y024976D01*
X042320Y025074D02*
X043885Y025074D01*
X043787Y025173D02*
X042221Y025173D01*
X042123Y025271D02*
X043688Y025271D01*
X043590Y025370D02*
X042024Y025370D01*
X041926Y025468D02*
X043491Y025468D01*
X043393Y025567D02*
X041827Y025567D01*
X041729Y025665D02*
X043294Y025665D01*
X043196Y025764D02*
X041630Y025764D01*
X041532Y025862D02*
X043097Y025862D01*
X042999Y025961D02*
X041433Y025961D01*
X041265Y026059D02*
X042900Y026059D01*
X042668Y026355D02*
X027320Y026355D01*
X027375Y026847D02*
X036799Y026847D01*
X037100Y026552D02*
X042668Y026552D01*
X042668Y026650D02*
X037198Y026650D01*
X037297Y026749D02*
X042668Y026749D01*
X042668Y026847D02*
X037395Y026847D01*
X037494Y026946D02*
X042668Y026946D01*
X042668Y027044D02*
X037592Y027044D01*
X037691Y027143D02*
X042668Y027143D01*
X042668Y027241D02*
X037789Y027241D01*
X037888Y027340D02*
X042668Y027340D01*
X042668Y027438D02*
X037986Y027438D01*
X038085Y027537D02*
X042668Y027537D01*
X042668Y027635D02*
X038183Y027635D01*
X038282Y027734D02*
X042668Y027734D01*
X042668Y027832D02*
X038380Y027832D01*
X038479Y027931D02*
X042668Y027931D01*
X042668Y028029D02*
X038577Y028029D01*
X038590Y028128D02*
X042668Y028128D01*
X042668Y028226D02*
X038590Y028226D01*
X038590Y028325D02*
X042668Y028325D01*
X042668Y028423D02*
X038590Y028423D01*
X038590Y028522D02*
X042668Y028522D01*
X042668Y028620D02*
X038590Y028620D01*
X038590Y028719D02*
X042668Y028719D01*
X042668Y028817D02*
X038590Y028817D01*
X038590Y028916D02*
X042668Y028916D01*
X042668Y029014D02*
X038590Y029014D01*
X038590Y029113D02*
X042668Y029113D01*
X042668Y029211D02*
X038590Y029211D01*
X038590Y029310D02*
X042668Y029310D01*
X042668Y029408D02*
X038590Y029408D01*
X038590Y029507D02*
X042668Y029507D01*
X042668Y029605D02*
X038590Y029605D01*
X038590Y029704D02*
X042668Y029704D01*
X042668Y029802D02*
X038590Y029802D01*
X038590Y029901D02*
X042668Y029901D01*
X042668Y029999D02*
X038590Y029999D01*
X038590Y030098D02*
X042668Y030098D01*
X042668Y030196D02*
X038590Y030196D01*
X038590Y030295D02*
X042668Y030295D01*
X042668Y030393D02*
X038590Y030393D01*
X038590Y030492D02*
X042668Y030492D01*
X042668Y030590D02*
X038590Y030590D01*
X038590Y030689D02*
X042668Y030689D01*
X042668Y030787D02*
X038590Y030787D01*
X038590Y030886D02*
X042668Y030886D01*
X042668Y030984D02*
X042396Y030984D01*
X042519Y031083D02*
X042668Y031083D01*
X042668Y031181D02*
X042583Y031181D01*
X042619Y031280D02*
X042668Y031280D01*
X043090Y032856D02*
X043179Y032856D01*
X043179Y032954D02*
X043090Y032954D01*
X043090Y033053D02*
X043179Y033053D01*
X043179Y033151D02*
X043090Y033151D01*
X043090Y033250D02*
X043179Y033250D01*
X043179Y033348D02*
X043090Y033348D01*
X043090Y033447D02*
X043179Y033447D01*
X043179Y033545D02*
X043090Y033545D01*
X043090Y033644D02*
X043179Y033644D01*
X043179Y033742D02*
X043090Y033742D01*
X043090Y033841D02*
X043179Y033841D01*
X043179Y033939D02*
X043090Y033939D01*
X043090Y034038D02*
X043179Y034038D01*
X043179Y034136D02*
X043090Y034136D01*
X043090Y034235D02*
X043179Y034235D01*
X043179Y034333D02*
X043090Y034333D01*
X043090Y034432D02*
X043179Y034432D01*
X043179Y034530D02*
X043090Y034530D01*
X043090Y034629D02*
X043179Y034629D01*
X043179Y034727D02*
X043090Y034727D01*
X043090Y034826D02*
X043179Y034826D01*
X043179Y034924D02*
X043090Y034924D01*
X043090Y035023D02*
X043179Y035023D01*
X043179Y035121D02*
X043090Y035121D01*
X043090Y035220D02*
X043179Y035220D01*
X043179Y035318D02*
X043090Y035318D01*
X043090Y035417D02*
X043179Y035417D01*
X043179Y035515D02*
X043040Y035515D01*
X040528Y037190D02*
X038590Y037190D01*
X038590Y037288D02*
X040379Y037288D01*
X040321Y037387D02*
X038590Y037387D01*
X038590Y037485D02*
X040300Y037485D01*
X040306Y037584D02*
X038590Y037584D01*
X038590Y037682D02*
X040347Y037682D01*
X040418Y037781D02*
X038590Y037781D01*
X038590Y037879D02*
X040418Y037879D01*
X040418Y037978D02*
X038590Y037978D01*
X038590Y038076D02*
X040418Y038076D01*
X040418Y038175D02*
X038590Y038175D01*
X038590Y038273D02*
X040418Y038273D01*
X040418Y038372D02*
X038590Y038372D01*
X038590Y038470D02*
X040418Y038470D01*
X040418Y038569D02*
X038590Y038569D01*
X038590Y038667D02*
X040418Y038667D01*
X040418Y038766D02*
X038590Y038766D01*
X038590Y038864D02*
X040418Y038864D01*
X040418Y038963D02*
X038590Y038963D01*
X038590Y039061D02*
X040418Y039061D01*
X040418Y039160D02*
X038590Y039160D01*
X038590Y039258D02*
X040418Y039258D01*
X040418Y039357D02*
X038655Y039357D01*
X038753Y039455D02*
X040418Y039455D01*
X040418Y039554D02*
X038852Y039554D01*
X038950Y039652D02*
X040418Y039652D01*
X034418Y041228D02*
X033340Y041228D01*
X033340Y041130D02*
X034332Y041130D01*
X034233Y041031D02*
X033340Y041031D01*
X033340Y041327D02*
X034241Y041327D01*
X034241Y041425D02*
X033340Y041425D01*
X033340Y041524D02*
X034241Y041524D01*
X034241Y041622D02*
X033340Y041622D01*
X033340Y041721D02*
X034241Y041721D01*
X034241Y041819D02*
X033340Y041819D01*
X033340Y041918D02*
X034241Y041918D01*
X034317Y042016D02*
X033356Y042016D01*
X033637Y040933D02*
X034135Y040933D01*
X034036Y040834D02*
X033727Y040834D01*
X033767Y040736D02*
X033938Y040736D01*
X033839Y040637D02*
X033780Y040637D01*
X033461Y033841D02*
X036126Y033841D01*
X036070Y033742D02*
X033502Y033742D01*
X033517Y033644D02*
X036050Y033644D01*
X036057Y033545D02*
X033514Y033545D01*
X033474Y033447D02*
X036098Y033447D01*
X036197Y033348D02*
X033397Y033348D01*
X032905Y032954D02*
X028840Y032954D01*
X028840Y032856D02*
X032807Y032856D01*
X032762Y032757D02*
X028840Y032757D01*
X028840Y032659D02*
X032741Y032659D01*
X032741Y032560D02*
X028840Y032560D01*
X028840Y032462D02*
X032778Y032462D01*
X032845Y032363D02*
X028840Y032363D01*
X028840Y032265D02*
X032993Y032265D01*
X032936Y031969D02*
X028840Y031969D01*
X028840Y031871D02*
X032822Y031871D01*
X032768Y031772D02*
X028840Y031772D01*
X028840Y031674D02*
X032741Y031674D01*
X032741Y031575D02*
X028840Y031575D01*
X028840Y031477D02*
X032772Y031477D01*
X032830Y031378D02*
X028840Y031378D01*
X028840Y031280D02*
X032957Y031280D01*
X032973Y030984D02*
X028840Y030984D01*
X028840Y030886D02*
X032837Y030886D01*
X032774Y030787D02*
X028840Y030787D01*
X028840Y030689D02*
X032741Y030689D01*
X032741Y030590D02*
X028840Y030590D01*
X028840Y030492D02*
X032765Y030492D01*
X032815Y030393D02*
X028840Y030393D01*
X028840Y030295D02*
X032921Y030295D01*
X033009Y029999D02*
X028840Y029999D01*
X028840Y029901D02*
X032852Y029901D01*
X032781Y029802D02*
X028840Y029802D01*
X028840Y029704D02*
X032741Y029704D01*
X032741Y029605D02*
X028840Y029605D01*
X028840Y029507D02*
X032759Y029507D01*
X032800Y029408D02*
X028840Y029408D01*
X028840Y029310D02*
X032899Y029310D01*
X033359Y029310D02*
X038168Y029310D01*
X038168Y029408D02*
X033457Y029408D01*
X033261Y029014D02*
X038168Y029014D01*
X038168Y028916D02*
X033418Y028916D01*
X033490Y028817D02*
X038168Y028817D01*
X038168Y028719D02*
X033527Y028719D01*
X033465Y027832D02*
X037784Y027832D01*
X037686Y027734D02*
X033506Y027734D01*
X033517Y027635D02*
X037587Y027635D01*
X037489Y027537D02*
X033511Y027537D01*
X033470Y027438D02*
X037390Y027438D01*
X037292Y027340D02*
X033389Y027340D01*
X037001Y026453D02*
X042668Y026453D01*
X038168Y029113D02*
X028840Y029113D01*
X028840Y029211D02*
X038168Y029211D01*
X040182Y032659D02*
X041250Y032659D01*
X041367Y032757D02*
X040108Y032757D01*
X049046Y021528D02*
X049593Y021528D01*
X049691Y021430D02*
X049144Y021430D01*
X049243Y021331D02*
X049790Y021331D01*
X049888Y021233D02*
X049341Y021233D01*
X049440Y021134D02*
X049987Y021134D01*
X050085Y021036D02*
X049538Y021036D01*
X049592Y020937D02*
X050184Y020937D01*
X050282Y020839D02*
X049625Y020839D01*
X049625Y020740D02*
X050381Y020740D01*
X050479Y020642D02*
X049607Y020642D01*
X049567Y020543D02*
X050578Y020543D01*
X050676Y020445D02*
X049478Y020445D01*
X048230Y019164D02*
X051957Y019164D01*
X052055Y019066D02*
X048328Y019066D01*
X048427Y018967D02*
X052154Y018967D01*
X052252Y018869D02*
X048525Y018869D01*
X048624Y018770D02*
X052351Y018770D01*
X052449Y018672D02*
X048722Y018672D01*
X048821Y018573D02*
X052548Y018573D01*
X052646Y018475D02*
X048919Y018475D01*
X049018Y018376D02*
X052745Y018376D01*
X052843Y018278D02*
X049116Y018278D01*
X049215Y018179D02*
X052942Y018179D01*
X053040Y018081D02*
X049313Y018081D01*
X049412Y017982D02*
X053139Y017982D01*
X053237Y017884D02*
X049510Y017884D01*
X049609Y017785D02*
X053336Y017785D01*
X053434Y017687D02*
X049707Y017687D01*
X049806Y017588D02*
X053533Y017588D01*
X053631Y017490D02*
X049904Y017490D01*
X050003Y017391D02*
X053730Y017391D01*
X053828Y017293D02*
X050101Y017293D01*
X050200Y017194D02*
X053927Y017194D01*
X054025Y017096D02*
X050298Y017096D01*
X051858Y019263D02*
X048131Y019263D01*
X048033Y019361D02*
X051760Y019361D01*
X051661Y019460D02*
X047934Y019460D01*
X047836Y019558D02*
X051563Y019558D01*
X054115Y012860D02*
X054632Y012860D01*
X028019Y028817D02*
X026079Y028817D01*
X026079Y028719D02*
X027921Y028719D01*
X027822Y028620D02*
X026079Y028620D01*
X026079Y028522D02*
X027724Y028522D01*
X027625Y028423D02*
X026079Y028423D01*
X026079Y028325D02*
X027527Y028325D01*
X027428Y028226D02*
X026079Y028226D01*
X026079Y028128D02*
X027330Y028128D01*
X027231Y028029D02*
X026075Y028029D01*
X026034Y027931D02*
X027133Y027931D01*
X027034Y027832D02*
X025969Y027832D01*
X025870Y027734D02*
X026936Y027734D01*
X026837Y027635D02*
X025772Y027635D01*
X025673Y027537D02*
X026739Y027537D01*
X026640Y027438D02*
X025575Y027438D01*
X025476Y027340D02*
X026542Y027340D01*
X026443Y027241D02*
X025378Y027241D01*
X025279Y027143D02*
X026418Y027143D01*
X026418Y027044D02*
X025181Y027044D01*
X025082Y026946D02*
X026418Y026946D01*
X026418Y026847D02*
X024984Y026847D01*
X024885Y026749D02*
X026418Y026749D01*
X026352Y026650D02*
X024787Y026650D01*
X024688Y026552D02*
X026254Y026552D01*
X026155Y026453D02*
X024590Y026453D01*
X024491Y026355D02*
X026057Y026355D01*
X025958Y026256D02*
X024393Y026256D01*
X024294Y026158D02*
X025860Y026158D01*
X025761Y026059D02*
X024196Y026059D01*
X024097Y025961D02*
X025663Y025961D01*
X025564Y025862D02*
X023999Y025862D01*
X023900Y025764D02*
X025466Y025764D01*
X025367Y025665D02*
X023802Y025665D01*
X023703Y025567D02*
X025269Y025567D01*
X025170Y025468D02*
X023605Y025468D01*
X023506Y025370D02*
X025072Y025370D01*
X024973Y025271D02*
X023408Y025271D01*
X023309Y025173D02*
X024875Y025173D01*
X024776Y025074D02*
X023211Y025074D01*
X023112Y024976D02*
X024678Y024976D01*
X024579Y024877D02*
X023014Y024877D01*
X022915Y024779D02*
X024481Y024779D01*
X024382Y024680D02*
X022817Y024680D01*
X022718Y024582D02*
X024284Y024582D01*
X024185Y024483D02*
X022620Y024483D01*
X022521Y024385D02*
X024087Y024385D01*
X023988Y024286D02*
X022423Y024286D01*
X022324Y024188D02*
X023890Y024188D01*
X023791Y024089D02*
X022226Y024089D01*
X022127Y023991D02*
X023693Y023991D01*
X023594Y023892D02*
X022029Y023892D01*
X021930Y023794D02*
X023496Y023794D01*
X023397Y023695D02*
X021832Y023695D01*
X021733Y023597D02*
X023299Y023597D01*
X023200Y023498D02*
X021635Y023498D01*
X021536Y023400D02*
X023102Y023400D01*
X023003Y023301D02*
X021438Y023301D01*
X021339Y023203D02*
X022905Y023203D01*
X022806Y023104D02*
X021241Y023104D01*
X021142Y023006D02*
X022708Y023006D01*
X022609Y022907D02*
X021044Y022907D01*
X020945Y022809D02*
X022511Y022809D01*
X022412Y022710D02*
X020847Y022710D01*
X020748Y022612D02*
X022314Y022612D01*
X022215Y022513D02*
X020650Y022513D01*
X020551Y022415D02*
X022117Y022415D01*
X022018Y022316D02*
X020453Y022316D01*
X020354Y022218D02*
X021920Y022218D01*
X021821Y022119D02*
X020256Y022119D01*
X020157Y022021D02*
X021723Y022021D01*
X021624Y021922D02*
X020059Y021922D01*
X019960Y021824D02*
X021526Y021824D01*
X021427Y021725D02*
X019862Y021725D01*
X019763Y021627D02*
X021329Y021627D01*
X021230Y021528D02*
X020763Y021528D01*
X020856Y021430D02*
X021132Y021430D01*
X021033Y021331D02*
X020897Y021331D01*
X020918Y021233D02*
X020935Y021233D01*
X020772Y020839D02*
X020741Y020839D01*
X020772Y020740D02*
X020642Y020740D01*
X020544Y020642D02*
X020740Y020642D01*
X020641Y020543D02*
X020445Y020543D01*
X020347Y020445D02*
X020543Y020445D01*
X020444Y020346D02*
X020165Y020346D01*
X019961Y020346D02*
X018483Y020346D01*
X018581Y020445D02*
X019779Y020445D01*
X019691Y020543D02*
X018680Y020543D01*
X018778Y020642D02*
X019650Y020642D01*
X019632Y020740D02*
X018877Y020740D01*
X018975Y020839D02*
X019632Y020839D01*
X019666Y020937D02*
X019074Y020937D01*
X019172Y021036D02*
X019720Y021036D01*
X019818Y021134D02*
X019271Y021134D01*
X019369Y021233D02*
X019917Y021233D01*
X020015Y021331D02*
X019468Y021331D01*
X019566Y021430D02*
X020114Y021430D01*
X020212Y021528D02*
X019665Y021528D01*
X020340Y020051D02*
X018187Y020051D01*
X018089Y019952D02*
X020350Y019952D01*
X020391Y019854D02*
X017990Y019854D01*
X017892Y019755D02*
X020469Y019755D01*
X020763Y047729D02*
X021230Y047729D01*
X021132Y047828D02*
X020856Y047828D01*
X020897Y047926D02*
X021033Y047926D01*
X020935Y048025D02*
X020918Y048025D01*
X020772Y048419D02*
X020741Y048419D01*
X020772Y048517D02*
X020642Y048517D01*
X020544Y048616D02*
X020740Y048616D01*
X020641Y048714D02*
X020445Y048714D01*
X020347Y048813D02*
X020543Y048813D01*
X021323Y049798D02*
X017596Y049798D01*
X017498Y049896D02*
X021225Y049896D01*
X021126Y049995D02*
X017399Y049995D01*
X017301Y050093D02*
X021028Y050093D01*
X020929Y050192D02*
X017202Y050192D01*
X017104Y050290D02*
X020831Y050290D01*
X020732Y050389D02*
X017005Y050389D01*
X016907Y050487D02*
X020634Y050487D01*
X020535Y050586D02*
X016808Y050586D01*
X016710Y050684D02*
X020437Y050684D01*
X020338Y050783D02*
X016611Y050783D01*
X016513Y050881D02*
X020240Y050881D01*
X020141Y050980D02*
X016414Y050980D01*
X016316Y051078D02*
X020043Y051078D01*
X019944Y051177D02*
X016217Y051177D01*
X016119Y051275D02*
X019846Y051275D01*
X019747Y051374D02*
X016020Y051374D01*
X015922Y051472D02*
X019649Y051472D01*
X019550Y051571D02*
X015823Y051571D01*
X015725Y051669D02*
X019452Y051669D01*
X019353Y051768D02*
X015626Y051768D01*
X015528Y051866D02*
X019255Y051866D01*
X019156Y051965D02*
X015429Y051965D01*
X015331Y052063D02*
X019058Y052063D01*
X018959Y052162D02*
X015232Y052162D01*
X015134Y052260D02*
X018861Y052260D01*
X018762Y052359D02*
X014579Y052359D01*
X014628Y052476D02*
X015129Y052476D01*
X015613Y052606D01*
X016047Y052857D01*
X016401Y053211D01*
X016652Y053645D01*
X016781Y054128D01*
X016781Y054629D01*
X016652Y055113D01*
X016401Y055547D01*
X016047Y055901D01*
X015613Y056152D01*
X015129Y056281D01*
X014628Y056281D01*
X014145Y056152D01*
X013711Y055901D01*
X013357Y055547D01*
X013106Y055113D01*
X012976Y054629D01*
X012976Y054128D01*
X013106Y053645D01*
X013357Y053211D01*
X013711Y052857D01*
X014145Y052606D01*
X014628Y052476D01*
X014332Y052556D02*
X013976Y052556D01*
X014061Y052654D02*
X013781Y052654D01*
X013890Y052753D02*
X013658Y052753D01*
X013720Y052851D02*
X013535Y052851D01*
X013617Y052950D02*
X013421Y052950D01*
X013343Y053048D02*
X013519Y053048D01*
X013420Y053147D02*
X013264Y053147D01*
X013337Y053245D02*
X013186Y053245D01*
X013126Y053344D02*
X013280Y053344D01*
X013223Y053442D02*
X013078Y053442D01*
X013031Y053541D02*
X013166Y053541D01*
X013109Y053639D02*
X012984Y053639D01*
X012946Y053738D02*
X013081Y053738D01*
X013055Y053836D02*
X012924Y053836D01*
X012901Y053935D02*
X013028Y053935D01*
X013002Y054033D02*
X012879Y054033D01*
X012856Y054132D02*
X012976Y054132D01*
X012976Y054230D02*
X012853Y054230D01*
X012853Y054329D02*
X012976Y054329D01*
X012976Y054427D02*
X012854Y054427D01*
X012854Y054526D02*
X012976Y054526D01*
X012976Y054624D02*
X012859Y054624D01*
X012881Y054723D02*
X013002Y054723D01*
X013028Y054821D02*
X012904Y054821D01*
X012926Y054920D02*
X013054Y054920D01*
X013081Y055018D02*
X012949Y055018D01*
X012988Y055117D02*
X013108Y055117D01*
X013165Y055215D02*
X013036Y055215D01*
X013083Y055314D02*
X013222Y055314D01*
X013279Y055412D02*
X013131Y055412D01*
X013194Y055511D02*
X013336Y055511D01*
X013273Y055609D02*
X013419Y055609D01*
X013351Y055708D02*
X013518Y055708D01*
X013430Y055806D02*
X013616Y055806D01*
X013548Y055905D02*
X013717Y055905D01*
X013671Y056003D02*
X013888Y056003D01*
X013795Y056102D02*
X014059Y056102D01*
X013998Y056200D02*
X014327Y056200D01*
X014202Y056299D02*
X015566Y056299D01*
X015431Y056200D02*
X015772Y056200D01*
X015699Y056102D02*
X015974Y056102D01*
X015870Y056003D02*
X016098Y056003D01*
X016040Y055905D02*
X016222Y055905D01*
X016142Y055806D02*
X016339Y055806D01*
X016418Y055708D02*
X016240Y055708D01*
X016339Y055609D02*
X016497Y055609D01*
X016422Y055511D02*
X016576Y055511D01*
X016638Y055412D02*
X016479Y055412D01*
X016536Y055314D02*
X016686Y055314D01*
X016734Y055215D02*
X016592Y055215D01*
X016649Y055117D02*
X016781Y055117D01*
X016820Y055018D02*
X016677Y055018D01*
X016703Y054920D02*
X016843Y054920D01*
X016866Y054821D02*
X016730Y054821D01*
X016756Y054723D02*
X016889Y054723D01*
X016911Y054624D02*
X016781Y054624D01*
X016781Y054526D02*
X016920Y054526D01*
X016926Y054427D02*
X016781Y054427D01*
X016781Y054329D02*
X016929Y054329D01*
X016953Y054230D02*
X016781Y054230D01*
X016781Y054132D02*
X016994Y054132D01*
X017088Y054033D02*
X016756Y054033D01*
X016729Y053935D02*
X017186Y053935D01*
X017285Y053836D02*
X016703Y053836D01*
X016677Y053738D02*
X017383Y053738D01*
X017482Y053639D02*
X016649Y053639D01*
X016592Y053541D02*
X017580Y053541D01*
X017679Y053442D02*
X016535Y053442D01*
X016478Y053344D02*
X017777Y053344D01*
X017876Y053245D02*
X016421Y053245D01*
X016337Y053147D02*
X017974Y053147D01*
X018073Y053048D02*
X016239Y053048D01*
X016140Y052950D02*
X018171Y052950D01*
X018270Y052851D02*
X016038Y052851D01*
X015867Y052753D02*
X018368Y052753D01*
X018467Y052654D02*
X015697Y052654D01*
X015426Y052556D02*
X018565Y052556D01*
X018664Y052457D02*
X014180Y052457D01*
X014626Y056397D02*
X015142Y056397D01*
X046358Y048222D02*
X048174Y048222D01*
X048272Y048320D02*
X046457Y048320D01*
X048321Y048419D02*
X048371Y048419D01*
X048419Y048517D02*
X048615Y048517D01*
X048518Y048616D02*
X048714Y048616D01*
X048616Y048714D02*
X048812Y048714D01*
X048715Y048813D02*
X048911Y048813D01*
X048402Y047828D02*
X048376Y047828D01*
X048277Y047729D02*
X048495Y047729D01*
X047934Y049798D02*
X051661Y049798D01*
X051760Y049896D02*
X048033Y049896D01*
X048131Y049995D02*
X051858Y049995D01*
X051957Y050093D02*
X048230Y050093D01*
X048328Y050192D02*
X052055Y050192D01*
X052154Y050290D02*
X048427Y050290D01*
X048525Y050389D02*
X052252Y050389D01*
X052351Y050487D02*
X048624Y050487D01*
X048722Y050586D02*
X052449Y050586D01*
X052548Y050684D02*
X048821Y050684D01*
X048919Y050783D02*
X052646Y050783D01*
X052745Y050881D02*
X049018Y050881D01*
X049116Y050980D02*
X052843Y050980D01*
X052942Y051078D02*
X049215Y051078D01*
X049313Y051177D02*
X053040Y051177D01*
X053139Y051275D02*
X049412Y051275D01*
X049510Y051374D02*
X053237Y051374D01*
X053336Y051472D02*
X049609Y051472D01*
X049707Y051571D02*
X053434Y051571D01*
X053533Y051669D02*
X049806Y051669D01*
X049904Y051768D02*
X053631Y051768D01*
X053730Y051866D02*
X050003Y051866D01*
X050101Y051965D02*
X053828Y051965D01*
X053927Y052063D02*
X050200Y052063D01*
X050298Y052162D02*
X054025Y052162D01*
X054124Y052260D02*
X050397Y052260D01*
X050495Y052359D02*
X054679Y052359D01*
X054629Y052476D02*
X055113Y052606D01*
X055547Y052857D01*
X055901Y053211D01*
X056152Y053645D01*
X056281Y054128D01*
X056281Y054629D01*
X056152Y055113D01*
X055901Y055547D01*
X055547Y055901D01*
X055113Y056152D01*
X054629Y056281D01*
X054128Y056281D01*
X053645Y056152D01*
X053211Y055901D01*
X052857Y055547D01*
X052606Y055113D01*
X052476Y054629D01*
X052476Y054128D01*
X052606Y053645D01*
X052857Y053211D01*
X053211Y052857D01*
X053645Y052606D01*
X054128Y052476D01*
X054629Y052476D01*
X054926Y052556D02*
X055281Y052556D01*
X055197Y052654D02*
X055476Y052654D01*
X055367Y052753D02*
X055599Y052753D01*
X055538Y052851D02*
X055723Y052851D01*
X055640Y052950D02*
X055837Y052950D01*
X055915Y053048D02*
X055739Y053048D01*
X055837Y053147D02*
X055993Y053147D01*
X055921Y053245D02*
X056071Y053245D01*
X056132Y053344D02*
X055978Y053344D01*
X056035Y053442D02*
X056179Y053442D01*
X056227Y053541D02*
X056092Y053541D01*
X056149Y053639D02*
X056274Y053639D01*
X056312Y053738D02*
X056177Y053738D01*
X056203Y053836D02*
X056334Y053836D01*
X056356Y053935D02*
X056229Y053935D01*
X056256Y054033D02*
X056379Y054033D01*
X056401Y054132D02*
X056281Y054132D01*
X056281Y054230D02*
X056404Y054230D01*
X056404Y054329D02*
X056281Y054329D01*
X056281Y054427D02*
X056404Y054427D01*
X056404Y054526D02*
X056281Y054526D01*
X056281Y054624D02*
X056399Y054624D01*
X056377Y054723D02*
X056256Y054723D01*
X056230Y054821D02*
X056354Y054821D01*
X056331Y054920D02*
X056203Y054920D01*
X056177Y055018D02*
X056309Y055018D01*
X056269Y055117D02*
X056149Y055117D01*
X056092Y055215D02*
X056222Y055215D01*
X056174Y055314D02*
X056036Y055314D01*
X055979Y055412D02*
X056127Y055412D01*
X056063Y055511D02*
X055922Y055511D01*
X055985Y055609D02*
X055839Y055609D01*
X055906Y055708D02*
X055740Y055708D01*
X055828Y055806D02*
X055642Y055806D01*
X055710Y055905D02*
X055540Y055905D01*
X055586Y056003D02*
X055370Y056003D01*
X055463Y056102D02*
X055199Y056102D01*
X055260Y056200D02*
X054931Y056200D01*
X055055Y056299D02*
X053691Y056299D01*
X053827Y056200D02*
X053486Y056200D01*
X053559Y056102D02*
X053284Y056102D01*
X053388Y056003D02*
X053160Y056003D01*
X053217Y055905D02*
X053036Y055905D01*
X053116Y055806D02*
X052918Y055806D01*
X052840Y055708D02*
X053018Y055708D01*
X052919Y055609D02*
X052761Y055609D01*
X052836Y055511D02*
X052682Y055511D01*
X052619Y055412D02*
X052779Y055412D01*
X052722Y055314D02*
X052572Y055314D01*
X052524Y055215D02*
X052665Y055215D01*
X052608Y055117D02*
X052476Y055117D01*
X052437Y055018D02*
X052581Y055018D01*
X052554Y054920D02*
X052414Y054920D01*
X052392Y054821D02*
X052528Y054821D01*
X052502Y054723D02*
X052369Y054723D01*
X052346Y054624D02*
X052476Y054624D01*
X052476Y054526D02*
X052337Y054526D01*
X052332Y054427D02*
X052476Y054427D01*
X052476Y054329D02*
X052329Y054329D01*
X052304Y054230D02*
X052476Y054230D01*
X052476Y054132D02*
X052264Y054132D01*
X052170Y054033D02*
X052502Y054033D01*
X052528Y053935D02*
X052071Y053935D01*
X051973Y053836D02*
X052555Y053836D01*
X052581Y053738D02*
X051874Y053738D01*
X051776Y053639D02*
X052609Y053639D01*
X052666Y053541D02*
X051677Y053541D01*
X051579Y053442D02*
X052723Y053442D01*
X052780Y053344D02*
X051480Y053344D01*
X051382Y053245D02*
X052837Y053245D01*
X052920Y053147D02*
X051283Y053147D01*
X051185Y053048D02*
X053019Y053048D01*
X053117Y052950D02*
X051086Y052950D01*
X050988Y052851D02*
X053220Y052851D01*
X053390Y052753D02*
X050889Y052753D01*
X050791Y052654D02*
X053561Y052654D01*
X053832Y052556D02*
X050692Y052556D01*
X050594Y052457D02*
X055078Y052457D01*
X054632Y056397D02*
X054115Y056397D01*
D17*
X048982Y048275D02*
X048525Y048275D01*
X042441Y042191D01*
X042379Y042254D01*
X042441Y042191D02*
X042629Y042004D01*
X042629Y037129D01*
X041879Y036379D01*
X042879Y035379D01*
X042879Y026379D01*
X048275Y020982D01*
X048982Y020982D01*
X038379Y028129D02*
X036879Y026629D01*
X027129Y026629D01*
X026629Y026629D02*
X026629Y027129D01*
X028629Y029129D01*
X028629Y035629D01*
X028379Y035629D01*
X027629Y036379D01*
X027629Y041629D01*
X020982Y048275D01*
X020982Y048982D01*
X028004Y042254D02*
X027629Y041879D01*
X027629Y041629D01*
X028004Y042254D02*
X033129Y042254D01*
X033129Y040629D01*
X033129Y039629D02*
X034629Y041129D01*
X034629Y041629D01*
X035629Y041629D02*
X035629Y041129D01*
X033129Y038629D01*
X033129Y037629D02*
X033629Y037629D01*
X037629Y041629D01*
X038629Y041629D02*
X033629Y036629D01*
X033129Y036629D01*
X036379Y038379D02*
X036379Y033629D01*
X036879Y033379D02*
X036879Y035129D01*
X037379Y034629D02*
X037379Y033379D01*
X033629Y029629D01*
X033129Y029629D01*
X033129Y030629D02*
X034129Y030629D01*
X036879Y033379D01*
X038379Y033879D02*
X038379Y028129D01*
X040129Y032379D02*
X039754Y032879D01*
X039754Y035379D01*
X038379Y034754D02*
X038379Y039379D01*
X040504Y041504D01*
X040504Y042754D01*
X039629Y041629D02*
X036379Y038379D01*
X040629Y037504D02*
X040629Y040379D01*
X040129Y032379D02*
X041879Y032379D01*
X030129Y040629D02*
X028629Y040629D01*
X026629Y026629D02*
X020982Y020982D01*
X020982Y020275D01*
M02*
