G75*
%MOIN*%
%OFA0B0*%
%FSLAX24Y24*%
%IPPOS*%
%LPD*%
%AMOC8*
5,1,8,0,0,1.08239X$1,22.5*
%
%ADD10C,0.0000*%
%ADD11C,0.0060*%
%ADD12C,0.0030*%
%ADD13C,0.0040*%
%ADD14C,0.0080*%
%ADD15C,0.0050*%
%ADD16R,0.0098X0.0089*%
%ADD17R,0.0150X0.0400*%
D10*
X014879Y017379D02*
X014780Y017377D01*
X014680Y017371D01*
X014581Y017360D01*
X014483Y017346D01*
X014385Y017328D01*
X014288Y017306D01*
X014192Y017281D01*
X014097Y017251D01*
X014003Y017218D01*
X013911Y017181D01*
X013820Y017140D01*
X013731Y017096D01*
X013644Y017048D01*
X013558Y016997D01*
X013475Y016942D01*
X013394Y016884D01*
X013316Y016823D01*
X013240Y016759D01*
X013166Y016692D01*
X013095Y016622D01*
X013028Y016549D01*
X012963Y016474D01*
X012901Y016396D01*
X012842Y016316D01*
X012787Y016233D01*
X012735Y016148D01*
X012686Y016061D01*
X012641Y015973D01*
X012599Y015882D01*
X012561Y015791D01*
X012527Y015697D01*
X012496Y015602D01*
X012470Y015507D01*
X012447Y015410D01*
X012428Y015312D01*
X012413Y015214D01*
X012402Y015115D01*
X012394Y015016D01*
X012391Y014916D01*
X012392Y014817D01*
X012397Y014717D01*
X012405Y014618D01*
X012418Y014520D01*
X012434Y014421D01*
X012455Y014324D01*
X012479Y014228D01*
X012507Y014132D01*
X012539Y014038D01*
X012575Y013945D01*
X012614Y013854D01*
X012657Y013764D01*
X012704Y013676D01*
X012754Y013590D01*
X012807Y013506D01*
X012864Y013424D01*
X012924Y013345D01*
X012987Y013268D01*
X013053Y013193D01*
X013121Y013121D01*
X013193Y013053D01*
X013268Y012987D01*
X013345Y012924D01*
X013424Y012864D01*
X013506Y012807D01*
X013590Y012754D01*
X013676Y012704D01*
X013764Y012657D01*
X013854Y012614D01*
X013945Y012575D01*
X014038Y012539D01*
X014132Y012507D01*
X014228Y012479D01*
X014324Y012455D01*
X014421Y012434D01*
X014520Y012418D01*
X014618Y012405D01*
X014717Y012397D01*
X014817Y012392D01*
X014916Y012391D01*
X015016Y012394D01*
X015115Y012402D01*
X015214Y012413D01*
X015312Y012428D01*
X015410Y012447D01*
X015507Y012470D01*
X015602Y012496D01*
X015697Y012527D01*
X015791Y012561D01*
X015882Y012599D01*
X015973Y012641D01*
X016061Y012686D01*
X016148Y012735D01*
X016233Y012787D01*
X016316Y012842D01*
X016396Y012901D01*
X016474Y012963D01*
X016549Y013028D01*
X016622Y013095D01*
X016692Y013166D01*
X016759Y013240D01*
X016823Y013316D01*
X016884Y013394D01*
X016942Y013475D01*
X016997Y013558D01*
X017048Y013644D01*
X017096Y013731D01*
X017140Y013820D01*
X017181Y013911D01*
X017218Y014003D01*
X017251Y014097D01*
X017281Y014192D01*
X017306Y014288D01*
X017328Y014385D01*
X017346Y014483D01*
X017360Y014581D01*
X017371Y014680D01*
X017377Y014780D01*
X017379Y014879D01*
X028129Y025629D01*
X041129Y025629D01*
X051879Y014879D01*
X051881Y014780D01*
X051887Y014680D01*
X051898Y014581D01*
X051912Y014483D01*
X051930Y014385D01*
X051952Y014288D01*
X051977Y014192D01*
X052007Y014097D01*
X052040Y014003D01*
X052077Y013911D01*
X052118Y013820D01*
X052162Y013731D01*
X052210Y013644D01*
X052261Y013558D01*
X052316Y013475D01*
X052374Y013394D01*
X052435Y013316D01*
X052499Y013240D01*
X052566Y013166D01*
X052636Y013095D01*
X052709Y013028D01*
X052784Y012963D01*
X052862Y012901D01*
X052942Y012842D01*
X053025Y012787D01*
X053110Y012735D01*
X053197Y012686D01*
X053285Y012641D01*
X053376Y012599D01*
X053467Y012561D01*
X053561Y012527D01*
X053656Y012496D01*
X053751Y012470D01*
X053848Y012447D01*
X053946Y012428D01*
X054044Y012413D01*
X054143Y012402D01*
X054242Y012394D01*
X054342Y012391D01*
X054441Y012392D01*
X054541Y012397D01*
X054640Y012405D01*
X054738Y012418D01*
X054837Y012434D01*
X054934Y012455D01*
X055030Y012479D01*
X055126Y012507D01*
X055220Y012539D01*
X055313Y012575D01*
X055404Y012614D01*
X055494Y012657D01*
X055582Y012704D01*
X055668Y012754D01*
X055752Y012807D01*
X055834Y012864D01*
X055913Y012924D01*
X055990Y012987D01*
X056065Y013053D01*
X056137Y013121D01*
X056205Y013193D01*
X056271Y013268D01*
X056334Y013345D01*
X056394Y013424D01*
X056451Y013506D01*
X056504Y013590D01*
X056554Y013676D01*
X056601Y013764D01*
X056644Y013854D01*
X056683Y013945D01*
X056719Y014038D01*
X056751Y014132D01*
X056779Y014228D01*
X056803Y014324D01*
X056824Y014421D01*
X056840Y014520D01*
X056853Y014618D01*
X056861Y014717D01*
X056866Y014817D01*
X056867Y014916D01*
X056864Y015016D01*
X056856Y015115D01*
X056845Y015214D01*
X056830Y015312D01*
X056811Y015410D01*
X056788Y015507D01*
X056762Y015602D01*
X056731Y015697D01*
X056697Y015791D01*
X056659Y015882D01*
X056617Y015973D01*
X056572Y016061D01*
X056523Y016148D01*
X056471Y016233D01*
X056416Y016316D01*
X056357Y016396D01*
X056295Y016474D01*
X056230Y016549D01*
X056163Y016622D01*
X056092Y016692D01*
X056018Y016759D01*
X055942Y016823D01*
X055864Y016884D01*
X055783Y016942D01*
X055700Y016997D01*
X055614Y017048D01*
X055527Y017096D01*
X055438Y017140D01*
X055347Y017181D01*
X055255Y017218D01*
X055161Y017251D01*
X055066Y017281D01*
X054970Y017306D01*
X054873Y017328D01*
X054775Y017346D01*
X054677Y017360D01*
X054578Y017371D01*
X054478Y017377D01*
X054379Y017379D01*
X043629Y028129D01*
X043629Y041129D01*
X054379Y051879D01*
X054478Y051881D01*
X054578Y051887D01*
X054677Y051898D01*
X054775Y051912D01*
X054873Y051930D01*
X054970Y051952D01*
X055066Y051977D01*
X055161Y052007D01*
X055255Y052040D01*
X055347Y052077D01*
X055438Y052118D01*
X055527Y052162D01*
X055614Y052210D01*
X055700Y052261D01*
X055783Y052316D01*
X055864Y052374D01*
X055942Y052435D01*
X056018Y052499D01*
X056092Y052566D01*
X056163Y052636D01*
X056230Y052709D01*
X056295Y052784D01*
X056357Y052862D01*
X056416Y052942D01*
X056471Y053025D01*
X056523Y053110D01*
X056572Y053197D01*
X056617Y053285D01*
X056659Y053376D01*
X056697Y053467D01*
X056731Y053561D01*
X056762Y053656D01*
X056788Y053751D01*
X056811Y053848D01*
X056830Y053946D01*
X056845Y054044D01*
X056856Y054143D01*
X056864Y054242D01*
X056867Y054342D01*
X056866Y054441D01*
X056861Y054541D01*
X056853Y054640D01*
X056840Y054738D01*
X056824Y054837D01*
X056803Y054934D01*
X056779Y055030D01*
X056751Y055126D01*
X056719Y055220D01*
X056683Y055313D01*
X056644Y055404D01*
X056601Y055494D01*
X056554Y055582D01*
X056504Y055668D01*
X056451Y055752D01*
X056394Y055834D01*
X056334Y055913D01*
X056271Y055990D01*
X056205Y056065D01*
X056137Y056137D01*
X056065Y056205D01*
X055990Y056271D01*
X055913Y056334D01*
X055834Y056394D01*
X055752Y056451D01*
X055668Y056504D01*
X055582Y056554D01*
X055494Y056601D01*
X055404Y056644D01*
X055313Y056683D01*
X055220Y056719D01*
X055126Y056751D01*
X055030Y056779D01*
X054934Y056803D01*
X054837Y056824D01*
X054738Y056840D01*
X054640Y056853D01*
X054541Y056861D01*
X054441Y056866D01*
X054342Y056867D01*
X054242Y056864D01*
X054143Y056856D01*
X054044Y056845D01*
X053946Y056830D01*
X053848Y056811D01*
X053751Y056788D01*
X053656Y056762D01*
X053561Y056731D01*
X053467Y056697D01*
X053376Y056659D01*
X053285Y056617D01*
X053197Y056572D01*
X053110Y056523D01*
X053025Y056471D01*
X052942Y056416D01*
X052862Y056357D01*
X052784Y056295D01*
X052709Y056230D01*
X052636Y056163D01*
X052566Y056092D01*
X052499Y056018D01*
X052435Y055942D01*
X052374Y055864D01*
X052316Y055783D01*
X052261Y055700D01*
X052210Y055614D01*
X052162Y055527D01*
X052118Y055438D01*
X052077Y055347D01*
X052040Y055255D01*
X052007Y055161D01*
X051977Y055066D01*
X051952Y054970D01*
X051930Y054873D01*
X051912Y054775D01*
X051898Y054677D01*
X051887Y054578D01*
X051881Y054478D01*
X051879Y054379D01*
X041129Y043629D01*
X028129Y043629D01*
X017379Y054379D01*
X017377Y054478D01*
X017371Y054578D01*
X017360Y054677D01*
X017346Y054775D01*
X017328Y054873D01*
X017306Y054970D01*
X017281Y055066D01*
X017251Y055161D01*
X017218Y055255D01*
X017181Y055347D01*
X017140Y055438D01*
X017096Y055527D01*
X017048Y055614D01*
X016997Y055700D01*
X016942Y055783D01*
X016884Y055864D01*
X016823Y055942D01*
X016759Y056018D01*
X016692Y056092D01*
X016622Y056163D01*
X016549Y056230D01*
X016474Y056295D01*
X016396Y056357D01*
X016316Y056416D01*
X016233Y056471D01*
X016148Y056523D01*
X016061Y056572D01*
X015973Y056617D01*
X015882Y056659D01*
X015791Y056697D01*
X015697Y056731D01*
X015602Y056762D01*
X015507Y056788D01*
X015410Y056811D01*
X015312Y056830D01*
X015214Y056845D01*
X015115Y056856D01*
X015016Y056864D01*
X014916Y056867D01*
X014817Y056866D01*
X014717Y056861D01*
X014618Y056853D01*
X014520Y056840D01*
X014421Y056824D01*
X014324Y056803D01*
X014228Y056779D01*
X014132Y056751D01*
X014038Y056719D01*
X013945Y056683D01*
X013854Y056644D01*
X013764Y056601D01*
X013676Y056554D01*
X013590Y056504D01*
X013506Y056451D01*
X013424Y056394D01*
X013345Y056334D01*
X013268Y056271D01*
X013193Y056205D01*
X013121Y056137D01*
X013053Y056065D01*
X012987Y055990D01*
X012924Y055913D01*
X012864Y055834D01*
X012807Y055752D01*
X012754Y055668D01*
X012704Y055582D01*
X012657Y055494D01*
X012614Y055404D01*
X012575Y055313D01*
X012539Y055220D01*
X012507Y055126D01*
X012479Y055030D01*
X012455Y054934D01*
X012434Y054837D01*
X012418Y054738D01*
X012405Y054640D01*
X012397Y054541D01*
X012392Y054441D01*
X012391Y054342D01*
X012394Y054242D01*
X012402Y054143D01*
X012413Y054044D01*
X012428Y053946D01*
X012447Y053848D01*
X012470Y053751D01*
X012496Y053656D01*
X012527Y053561D01*
X012561Y053467D01*
X012599Y053376D01*
X012641Y053285D01*
X012686Y053197D01*
X012735Y053110D01*
X012787Y053025D01*
X012842Y052942D01*
X012901Y052862D01*
X012963Y052784D01*
X013028Y052709D01*
X013095Y052636D01*
X013166Y052566D01*
X013240Y052499D01*
X013316Y052435D01*
X013394Y052374D01*
X013475Y052316D01*
X013558Y052261D01*
X013644Y052210D01*
X013731Y052162D01*
X013820Y052118D01*
X013911Y052077D01*
X014003Y052040D01*
X014097Y052007D01*
X014192Y051977D01*
X014288Y051952D01*
X014385Y051930D01*
X014483Y051912D01*
X014581Y051898D01*
X014680Y051887D01*
X014780Y051881D01*
X014879Y051879D01*
X025629Y041129D01*
X025629Y028129D01*
X014879Y017379D01*
D11*
X019745Y020806D02*
X020098Y020452D01*
X020452Y020452D01*
X020452Y020098D01*
X020806Y019745D01*
X021159Y019745D01*
X021513Y020098D01*
X021513Y020452D01*
X021159Y020806D01*
X020806Y020806D01*
X020452Y020452D01*
X020806Y020806D02*
X020806Y021159D01*
X020452Y021513D01*
X020098Y021513D01*
X019745Y021159D01*
X019745Y020806D01*
X021127Y021919D02*
X021339Y022131D01*
X022145Y021325D01*
X021933Y021113D01*
X021127Y021919D01*
X028379Y035129D02*
X028129Y035379D01*
X028129Y035879D01*
X028379Y036129D01*
X028129Y036379D01*
X028129Y036879D01*
X028379Y037129D01*
X028879Y037129D01*
X029129Y036879D01*
X029129Y036379D01*
X028879Y036129D01*
X029129Y035879D01*
X029129Y035379D01*
X028879Y035129D01*
X028379Y035129D01*
X028379Y036129D02*
X028879Y036129D01*
X029679Y035829D02*
X030979Y035829D01*
X032279Y035829D01*
X033579Y035829D01*
X033579Y041429D01*
X032279Y041429D01*
X030979Y041429D01*
X029679Y041429D01*
X029679Y035829D01*
X030879Y036329D02*
X030879Y036929D01*
X032379Y036929D01*
X032379Y036329D01*
X030879Y036329D01*
X030979Y036029D02*
X030979Y035829D01*
X030979Y036029D02*
X032279Y036029D01*
X032279Y035829D01*
X032379Y037329D02*
X030879Y037329D01*
X030879Y037929D01*
X032379Y037929D01*
X032379Y037329D01*
X032379Y038329D02*
X030879Y038329D01*
X030879Y038929D01*
X032379Y038929D01*
X032379Y038329D01*
X032379Y039329D02*
X030879Y039329D01*
X030879Y039929D01*
X032379Y039929D01*
X032379Y039329D01*
X032379Y040329D02*
X030879Y040329D01*
X030879Y040929D01*
X032379Y040929D01*
X032379Y040329D01*
X032279Y041229D02*
X032279Y041429D01*
X032279Y041229D02*
X030979Y041229D01*
X030979Y041429D01*
X029129Y041379D02*
X028879Y041129D01*
X029129Y040879D01*
X029129Y040379D01*
X028879Y040129D01*
X028379Y040129D01*
X028129Y040379D01*
X028129Y040879D01*
X028379Y041129D01*
X028129Y041379D01*
X028129Y041879D01*
X028379Y042129D01*
X028879Y042129D01*
X029129Y041879D01*
X029129Y041379D01*
X028879Y041129D02*
X028379Y041129D01*
X028379Y039129D02*
X028879Y039129D01*
X029129Y038879D01*
X029129Y038379D01*
X028879Y038129D01*
X029129Y037879D01*
X029129Y037379D01*
X028879Y037129D01*
X028379Y037129D02*
X028129Y037379D01*
X028129Y037879D01*
X028379Y038129D01*
X028129Y038379D01*
X028129Y038879D01*
X028379Y039129D01*
X028379Y038129D02*
X028879Y038129D01*
X035999Y036009D02*
X035999Y033389D01*
X036139Y033249D01*
X038759Y033249D01*
X038759Y036009D01*
X035999Y036009D01*
X036158Y033549D02*
X036160Y033572D01*
X036166Y033595D01*
X036175Y033616D01*
X036188Y033636D01*
X036204Y033653D01*
X036222Y033667D01*
X036242Y033678D01*
X036264Y033686D01*
X036287Y033690D01*
X036311Y033690D01*
X036334Y033686D01*
X036356Y033678D01*
X036376Y033667D01*
X036394Y033653D01*
X036410Y033636D01*
X036423Y033616D01*
X036432Y033595D01*
X036438Y033572D01*
X036440Y033549D01*
X036438Y033526D01*
X036432Y033503D01*
X036423Y033482D01*
X036410Y033462D01*
X036394Y033445D01*
X036376Y033431D01*
X036356Y033420D01*
X036334Y033412D01*
X036311Y033408D01*
X036287Y033408D01*
X036264Y033412D01*
X036242Y033420D01*
X036222Y033431D01*
X036204Y033445D01*
X036188Y033462D01*
X036175Y033482D01*
X036166Y033503D01*
X036160Y033526D01*
X036158Y033549D01*
X041379Y033629D02*
X041379Y033129D01*
X041629Y032879D01*
X041379Y032629D01*
X041379Y032129D01*
X041629Y031879D01*
X041379Y031629D01*
X041379Y031129D01*
X041629Y030879D01*
X042129Y030879D01*
X042379Y031129D01*
X042379Y031629D01*
X042129Y031879D01*
X041629Y031879D01*
X042129Y031879D02*
X042379Y032129D01*
X042379Y032629D01*
X042129Y032879D01*
X041629Y032879D01*
X042129Y032879D02*
X042379Y033129D01*
X042379Y033629D01*
X042129Y033879D01*
X041629Y033879D01*
X041379Y033629D01*
X041629Y033879D02*
X041379Y034129D01*
X041379Y034629D01*
X041629Y034879D01*
X041379Y035129D01*
X041379Y035629D01*
X041629Y035879D01*
X041379Y036129D01*
X041379Y036629D01*
X041629Y036879D01*
X042129Y036879D01*
X042379Y036629D01*
X042379Y036129D01*
X042129Y035879D01*
X042379Y035629D01*
X042379Y035129D01*
X042129Y034879D01*
X041629Y034879D01*
X042129Y034879D02*
X042379Y034629D01*
X042379Y034129D01*
X042129Y033879D01*
X042129Y035879D02*
X041629Y035879D01*
X047919Y047127D02*
X048131Y047339D01*
X047325Y048145D01*
X047113Y047933D01*
X047919Y047127D01*
X048806Y047745D02*
X048452Y048098D01*
X048452Y048452D01*
X048098Y048452D01*
X047745Y048806D01*
X047745Y049159D01*
X048098Y049513D01*
X048452Y049513D01*
X048806Y049159D01*
X048806Y048806D01*
X049159Y048806D01*
X049513Y048452D01*
X049513Y048098D01*
X049159Y047745D01*
X048806Y047745D01*
X048452Y048452D02*
X048806Y048806D01*
X047933Y022145D02*
X048145Y021933D01*
X047339Y021127D01*
X047127Y021339D01*
X047933Y022145D01*
X048806Y021513D02*
X048452Y021159D01*
X048452Y020806D01*
X048806Y020452D01*
X049159Y020452D01*
X049513Y020806D01*
X049513Y021159D01*
X049159Y021513D01*
X048806Y021513D01*
X048452Y020806D02*
X048098Y020806D01*
X047745Y020452D01*
X047745Y020098D01*
X048098Y019745D01*
X048452Y019745D01*
X048806Y020098D01*
X048806Y020452D01*
X022131Y047919D02*
X021919Y048131D01*
X021113Y047325D01*
X021325Y047113D01*
X022131Y047919D01*
X021513Y048806D02*
X021159Y048452D01*
X020806Y048452D01*
X020806Y048098D01*
X020452Y047745D01*
X020098Y047745D01*
X019745Y048098D01*
X019745Y048452D01*
X020098Y048806D01*
X020452Y048806D01*
X020452Y049159D01*
X020806Y049513D01*
X021159Y049513D01*
X021513Y049159D01*
X021513Y048806D01*
X020806Y048452D02*
X020452Y048806D01*
D12*
X036151Y032434D02*
X036247Y032337D01*
X036247Y032144D01*
X036247Y032289D02*
X036054Y032289D01*
X036054Y032337D02*
X036151Y032434D01*
X036054Y032337D02*
X036054Y032144D01*
X036445Y032144D02*
X036445Y032434D01*
X036348Y032434D02*
X036542Y032434D01*
X036643Y032434D02*
X036740Y032337D01*
X036837Y032434D01*
X036837Y032144D01*
X036938Y032144D02*
X037131Y032144D01*
X037232Y032192D02*
X037281Y032144D01*
X037378Y032144D01*
X037426Y032192D01*
X037426Y032289D01*
X037329Y032289D01*
X037232Y032386D02*
X037232Y032192D01*
X037232Y032386D02*
X037281Y032434D01*
X037378Y032434D01*
X037426Y032386D01*
X037527Y032337D02*
X037624Y032434D01*
X037721Y032337D01*
X037721Y032144D01*
X037822Y032192D02*
X037870Y032144D01*
X037967Y032144D01*
X038015Y032192D01*
X038015Y032241D01*
X037967Y032289D01*
X037918Y032289D01*
X037967Y032289D02*
X038015Y032337D01*
X038015Y032386D01*
X037967Y032434D01*
X037870Y032434D01*
X037822Y032386D01*
X037721Y032289D02*
X037527Y032289D01*
X037527Y032337D02*
X037527Y032144D01*
X037131Y032434D02*
X036938Y032434D01*
X036938Y032144D01*
X036938Y032289D02*
X037035Y032289D01*
X036643Y032144D02*
X036643Y032434D01*
X038116Y032386D02*
X038165Y032434D01*
X038262Y032434D01*
X038310Y032386D01*
X038310Y032337D01*
X038116Y032144D01*
X038310Y032144D01*
X038411Y032192D02*
X038411Y032241D01*
X038459Y032289D01*
X038556Y032289D01*
X038605Y032241D01*
X038605Y032192D01*
X038556Y032144D01*
X038459Y032144D01*
X038411Y032192D01*
X038459Y032289D02*
X038411Y032337D01*
X038411Y032386D01*
X038459Y032434D01*
X038556Y032434D01*
X038605Y032386D01*
X038605Y032337D01*
X038556Y032289D01*
X038706Y032241D02*
X038851Y032241D01*
X038899Y032289D01*
X038899Y032386D01*
X038851Y032434D01*
X038706Y032434D01*
X038706Y032144D01*
D13*
X038745Y031253D02*
X038745Y030505D01*
X038138Y030209D02*
X037984Y030056D01*
X037831Y030209D02*
X037524Y029749D01*
X037831Y029749D02*
X037524Y030209D01*
X037013Y030505D02*
X037013Y031253D01*
X038138Y030209D02*
X038138Y029749D01*
X038291Y029749D02*
X037984Y029749D01*
X038028Y034149D02*
X038181Y034149D01*
X038258Y034226D01*
X038411Y034226D02*
X038718Y034532D01*
X038718Y034226D01*
X038641Y034149D01*
X038488Y034149D01*
X038411Y034226D01*
X038411Y034532D01*
X038488Y034609D01*
X038641Y034609D01*
X038718Y034532D01*
X038872Y034609D02*
X038872Y034379D01*
X039025Y034456D01*
X039102Y034456D01*
X039178Y034379D01*
X039178Y034226D01*
X039102Y034149D01*
X038948Y034149D01*
X038872Y034226D01*
X038872Y034609D02*
X039178Y034609D01*
X038258Y034532D02*
X038181Y034609D01*
X038028Y034609D01*
X037951Y034532D01*
X037951Y034226D01*
X038028Y034149D01*
X037797Y034149D02*
X037797Y034609D01*
X037797Y034379D02*
X037490Y034379D01*
X037337Y034379D02*
X037030Y034379D01*
X036877Y034609D02*
X036570Y034609D01*
X036723Y034609D02*
X036723Y034149D01*
X036416Y034149D02*
X036109Y034149D01*
X036109Y034609D01*
X035956Y034532D02*
X035956Y034456D01*
X035879Y034379D01*
X035649Y034379D01*
X035879Y034379D02*
X035956Y034302D01*
X035956Y034226D01*
X035879Y034149D01*
X035649Y034149D01*
X035649Y034609D01*
X035879Y034609D01*
X035956Y034532D01*
X037490Y034609D02*
X037490Y034149D01*
X039398Y037353D02*
X039398Y037583D01*
X039475Y037660D01*
X039629Y037660D01*
X039705Y037583D01*
X039705Y037353D01*
X039705Y037506D02*
X039859Y037660D01*
X039859Y037813D02*
X039552Y038120D01*
X039475Y038120D01*
X039398Y038044D01*
X039398Y037890D01*
X039475Y037813D01*
X039859Y037813D02*
X039859Y038120D01*
X039859Y037353D02*
X039398Y037353D01*
X037791Y037976D02*
X037714Y037899D01*
X037561Y037899D01*
X037484Y037976D01*
X037331Y037976D02*
X037254Y037899D01*
X037101Y037899D01*
X037024Y037976D01*
X037024Y038282D01*
X037101Y038359D01*
X037254Y038359D01*
X037331Y038282D01*
X037484Y038282D02*
X037561Y038359D01*
X037714Y038359D01*
X037791Y038282D01*
X037791Y038206D01*
X037714Y038129D01*
X037791Y038052D01*
X037791Y037976D01*
X037714Y038129D02*
X037638Y038129D01*
X038975Y039603D02*
X039282Y039603D01*
X039359Y039680D01*
X039359Y039833D01*
X039282Y039910D01*
X039282Y040063D02*
X039205Y040063D01*
X039129Y040140D01*
X039129Y040294D01*
X039205Y040370D01*
X039282Y040370D01*
X039359Y040294D01*
X039359Y040140D01*
X039282Y040063D01*
X039129Y040140D02*
X039052Y040063D01*
X038975Y040063D01*
X038898Y040140D01*
X038898Y040294D01*
X038975Y040370D01*
X039052Y040370D01*
X039129Y040294D01*
X038975Y039910D02*
X038898Y039833D01*
X038898Y039680D01*
X038975Y039603D01*
X040023Y039680D02*
X040100Y039603D01*
X040407Y039603D01*
X040484Y039680D01*
X040484Y039833D01*
X040407Y039910D01*
X040254Y040063D02*
X040254Y040370D01*
X040484Y040294D02*
X040023Y040294D01*
X040254Y040063D01*
X040100Y039910D02*
X040023Y039833D01*
X040023Y039680D01*
X041005Y040043D02*
X041005Y040503D01*
X041235Y040503D01*
X041312Y040426D01*
X041312Y040273D01*
X041235Y040196D01*
X041005Y040196D01*
X041466Y040119D02*
X041466Y040426D01*
X041542Y040503D01*
X041696Y040503D01*
X041772Y040426D01*
X041772Y040119D01*
X041696Y040043D01*
X041542Y040043D01*
X041466Y040119D01*
X041926Y040043D02*
X042079Y040196D01*
X042233Y040043D01*
X042233Y040503D01*
X041926Y040503D02*
X041926Y040043D01*
X041708Y040741D02*
X041550Y040741D01*
X041550Y041017D02*
X041708Y041017D01*
X041765Y042024D02*
X041688Y042101D01*
X041765Y042024D02*
X041919Y042024D01*
X041995Y042101D01*
X041995Y042177D01*
X041919Y042254D01*
X041842Y042254D01*
X041919Y042254D02*
X041995Y042331D01*
X041995Y042407D01*
X041919Y042484D01*
X041765Y042484D01*
X041688Y042407D01*
X041535Y042407D02*
X041535Y042254D01*
X041458Y042177D01*
X041228Y042177D01*
X041228Y042024D02*
X041228Y042484D01*
X041458Y042484D01*
X041535Y042407D01*
X041381Y042177D02*
X041535Y042024D01*
X035859Y040541D02*
X035859Y040234D01*
X035859Y040081D02*
X035705Y039927D01*
X035705Y040004D02*
X035705Y039774D01*
X035859Y039774D02*
X035398Y039774D01*
X035398Y040004D01*
X035475Y040081D01*
X035629Y040081D01*
X035705Y040004D01*
X035552Y040234D02*
X035398Y040388D01*
X035859Y040388D01*
X034859Y040188D02*
X034782Y040188D01*
X034475Y040495D01*
X034398Y040495D01*
X034398Y040188D01*
X034475Y040035D02*
X034398Y039958D01*
X034398Y039805D01*
X034475Y039728D01*
X034782Y039728D01*
X034859Y039805D01*
X034859Y039958D01*
X034782Y040035D01*
X031669Y031359D02*
X031745Y031282D01*
X031438Y030976D01*
X031515Y030899D01*
X031669Y030899D01*
X031745Y030976D01*
X031745Y031282D01*
X031669Y031359D02*
X031515Y031359D01*
X031438Y031282D01*
X031438Y030976D01*
X031285Y030976D02*
X031208Y030899D01*
X031055Y030899D01*
X030978Y030976D01*
X030978Y031129D02*
X031131Y031206D01*
X031208Y031206D01*
X031285Y031129D01*
X031285Y030976D01*
X030978Y031129D02*
X030978Y031359D01*
X031285Y031359D01*
X030825Y031282D02*
X030518Y030976D01*
X030594Y030899D01*
X030748Y030899D01*
X030825Y030976D01*
X030825Y031282D01*
X030748Y031359D01*
X030594Y031359D01*
X030518Y031282D01*
X030518Y030976D01*
X030364Y030976D02*
X030364Y031052D01*
X030287Y031129D01*
X030057Y031129D01*
X030057Y030976D01*
X030134Y030899D01*
X030287Y030899D01*
X030364Y030976D01*
X030211Y031282D02*
X030057Y031129D01*
X029904Y031129D02*
X029597Y031129D01*
X029443Y030976D02*
X029443Y031359D01*
X029136Y031359D02*
X029136Y030976D01*
X029213Y030899D01*
X029367Y030899D01*
X029443Y030976D01*
X028983Y031129D02*
X028983Y031282D01*
X028906Y031359D01*
X028676Y031359D01*
X028676Y030899D01*
X028676Y031052D02*
X028906Y031052D01*
X028983Y031129D01*
X028523Y031359D02*
X028523Y030899D01*
X028216Y030899D02*
X028216Y031359D01*
X028369Y031206D01*
X028523Y031359D01*
X030211Y031282D02*
X030364Y031359D01*
X019787Y020004D02*
X019678Y020004D01*
X019461Y019787D01*
X019461Y019678D01*
X019570Y019570D01*
X019678Y019570D01*
X019787Y019461D02*
X019787Y019353D01*
X019895Y019244D01*
X020004Y019244D01*
X020112Y019353D01*
X020112Y019461D01*
X020058Y019515D01*
X019895Y019570D01*
X020058Y019732D01*
X020275Y019515D01*
X019895Y019787D02*
X019895Y019895D01*
X019787Y020004D01*
X019037Y019254D02*
X018928Y019254D01*
X018711Y019037D01*
X018711Y018928D01*
X018820Y018820D01*
X018928Y018820D01*
X018983Y018657D02*
X019200Y018440D01*
X019091Y018548D02*
X019417Y018874D01*
X019200Y018874D01*
X019145Y019037D02*
X019145Y019145D01*
X019037Y019254D01*
X019579Y018603D02*
X019525Y018548D01*
X019525Y018440D01*
X019634Y018331D01*
X019634Y018223D01*
X019579Y018169D01*
X019471Y018169D01*
X019362Y018277D01*
X019362Y018386D01*
X019417Y018440D01*
X019525Y018440D01*
X019634Y018331D02*
X019742Y018331D01*
X019797Y018386D01*
X019797Y018494D01*
X019688Y018603D01*
X019579Y018603D01*
X018992Y017798D02*
X018667Y017473D01*
X018558Y017581D02*
X018775Y017364D01*
X018775Y017798D02*
X018992Y017798D01*
X018667Y018124D02*
X018341Y017798D01*
X018233Y017907D02*
X018450Y017690D01*
X018450Y018124D02*
X018667Y018124D01*
X018395Y018287D02*
X018395Y018395D01*
X018287Y018504D01*
X018178Y018504D01*
X017961Y018287D01*
X017961Y018178D01*
X018070Y018070D01*
X018178Y018070D01*
X049004Y019428D02*
X049221Y019211D01*
X049330Y019211D01*
X049438Y019320D01*
X049438Y019428D01*
X049601Y019483D02*
X049818Y019700D01*
X049709Y019591D02*
X049384Y019917D01*
X049384Y019700D01*
X049221Y019645D02*
X049112Y019645D01*
X049004Y019537D01*
X049004Y019428D01*
X049655Y020079D02*
X049655Y020188D01*
X049764Y020297D01*
X049872Y020297D01*
X049872Y019862D01*
X049981Y019862D01*
X050089Y019971D01*
X050089Y020079D01*
X049872Y020297D01*
X049655Y020079D02*
X049872Y019862D01*
X050134Y019167D02*
X050459Y018841D01*
X050351Y018733D02*
X050568Y018950D01*
X050622Y019112D02*
X050731Y019112D01*
X050839Y019221D01*
X050839Y019329D01*
X050785Y019384D01*
X050676Y019384D01*
X050514Y019221D01*
X050622Y019112D01*
X050514Y019221D02*
X050514Y019438D01*
X050568Y019601D01*
X050134Y019167D02*
X050134Y018950D01*
X049971Y018895D02*
X049862Y018895D01*
X049754Y018787D01*
X049754Y018678D01*
X049971Y018461D01*
X050080Y018461D01*
X050188Y018570D01*
X050188Y018678D01*
X050612Y018145D02*
X050504Y018037D01*
X050504Y017928D01*
X050721Y017711D01*
X050830Y017711D01*
X050938Y017820D01*
X050938Y017928D01*
X051101Y017983D02*
X051318Y018200D01*
X051209Y018091D02*
X050884Y018417D01*
X050884Y018200D01*
X050721Y018145D02*
X050612Y018145D01*
X051155Y018579D02*
X051155Y018688D01*
X051264Y018797D01*
X051372Y018797D01*
X051426Y018742D01*
X051426Y018634D01*
X051535Y018634D01*
X051589Y018579D01*
X051589Y018471D01*
X051481Y018362D01*
X051372Y018362D01*
X051372Y018579D02*
X051426Y018634D01*
X049629Y049119D02*
X049846Y049336D01*
X049846Y049445D01*
X049737Y049553D01*
X049629Y049553D01*
X049575Y049499D01*
X049575Y049390D01*
X049737Y049228D01*
X049629Y049119D02*
X049520Y049119D01*
X049412Y049228D01*
X049412Y049336D01*
X049303Y049445D02*
X049195Y049445D01*
X049086Y049553D01*
X049086Y049662D01*
X049303Y049879D01*
X049412Y049879D01*
X049520Y049770D01*
X049520Y049662D01*
X049983Y050157D02*
X050200Y049940D01*
X050091Y050048D02*
X050417Y050374D01*
X050200Y050374D01*
X050145Y050537D02*
X050145Y050645D01*
X050037Y050754D01*
X049928Y050754D01*
X049711Y050537D01*
X049711Y050428D01*
X049820Y050320D01*
X049928Y050320D01*
X050362Y049886D02*
X050362Y049777D01*
X050471Y049669D01*
X050579Y049669D01*
X050688Y049777D01*
X050688Y049886D01*
X050634Y049940D01*
X050471Y049994D01*
X050634Y050157D01*
X050851Y049940D01*
X051141Y050584D02*
X051466Y050910D01*
X051141Y050910D01*
X051358Y050693D01*
X050869Y050856D02*
X050652Y051073D01*
X050761Y050964D02*
X051087Y051290D01*
X050869Y051290D01*
X050815Y051453D02*
X050815Y051561D01*
X050707Y051670D01*
X050598Y051670D01*
X050381Y051453D01*
X050381Y051344D01*
X050490Y051236D01*
X050598Y051236D01*
X020139Y049629D02*
X020084Y049683D01*
X019976Y049683D01*
X019813Y049520D01*
X019922Y049412D01*
X020030Y049412D01*
X020139Y049520D01*
X020139Y049629D01*
X019813Y049737D02*
X019867Y049900D01*
X019813Y049737D02*
X019813Y049520D01*
X019813Y049303D02*
X019813Y049195D01*
X019705Y049086D01*
X019596Y049086D01*
X019379Y049303D01*
X019379Y049412D01*
X019487Y049520D01*
X019596Y049520D01*
X019084Y050091D02*
X018759Y050417D01*
X018759Y050200D01*
X018596Y050145D02*
X018487Y050145D01*
X018379Y050037D01*
X018379Y049928D01*
X018596Y049711D01*
X018705Y049711D01*
X018813Y049820D01*
X018813Y049928D01*
X018976Y049983D02*
X019193Y050200D01*
X019301Y050308D02*
X019247Y050362D01*
X019247Y050797D01*
X019193Y050851D01*
X018976Y050634D01*
X018510Y050978D02*
X018727Y051195D01*
X018510Y050978D02*
X018510Y051412D01*
X018456Y051466D01*
X018348Y051466D01*
X018239Y051358D01*
X018239Y051249D01*
X017968Y051087D02*
X018293Y050761D01*
X018185Y050652D02*
X018402Y050869D01*
X017968Y050869D02*
X017968Y051087D01*
X017805Y050815D02*
X017697Y050815D01*
X017588Y050707D01*
X017588Y050598D01*
X017805Y050381D01*
X017914Y050381D01*
X018022Y050490D01*
X018022Y050598D01*
D14*
X040940Y039810D02*
X040940Y037448D01*
X041137Y037448D01*
X041334Y038156D02*
X041334Y039121D01*
X041924Y039121D02*
X041924Y038137D01*
X042121Y037448D02*
X042318Y037448D01*
X042318Y039810D01*
X042121Y039810D01*
X041137Y039810D02*
X040940Y039810D01*
D15*
X040129Y042129D02*
X040129Y026929D01*
X034129Y026929D01*
X034129Y042129D01*
X040129Y042129D01*
X046235Y046762D02*
X046554Y047081D01*
X046448Y047187D02*
X046660Y046974D01*
X046720Y046808D02*
X046826Y046808D01*
X046932Y046702D01*
X046932Y046596D01*
X046879Y046543D01*
X046773Y046543D01*
X046773Y046437D01*
X046720Y046383D01*
X046614Y046383D01*
X046508Y046490D01*
X046508Y046596D01*
X046720Y046596D02*
X046773Y046543D01*
X033629Y035129D02*
X033629Y027129D01*
X027529Y027129D01*
X027529Y035129D01*
X033629Y035129D01*
X031804Y037948D02*
X031879Y038023D01*
X031879Y038173D01*
X031804Y038248D01*
X031729Y038248D01*
X031654Y038173D01*
X031654Y038023D01*
X031579Y037948D01*
X031503Y037948D01*
X031428Y038023D01*
X031428Y038173D01*
X031503Y038248D01*
X031428Y038408D02*
X031879Y038408D01*
X031729Y038558D01*
X031879Y038708D01*
X031428Y038708D01*
X031579Y038868D02*
X031428Y039019D01*
X031879Y039019D01*
X031879Y039169D02*
X031879Y038868D01*
X022927Y046667D02*
X022715Y046455D01*
X022715Y046879D01*
X022662Y046932D01*
X022556Y046932D01*
X022450Y046826D01*
X022450Y046720D01*
X022283Y046660D02*
X022071Y046448D01*
X022177Y046554D02*
X022496Y046235D01*
X022513Y023005D02*
X022725Y022793D01*
X022619Y022899D02*
X022301Y022581D01*
X022520Y022361D02*
X022732Y022149D01*
X022626Y022255D02*
X022945Y022574D01*
X022732Y022574D01*
X046252Y022513D02*
X046465Y022725D01*
X046358Y022619D02*
X046677Y022301D01*
X046737Y022679D02*
X046949Y022892D01*
X046737Y022998D02*
X046737Y022679D01*
X047055Y022679D02*
X046737Y022998D01*
D16*
X041580Y040992D03*
D17*
X031554Y040629D03*
X031304Y040629D03*
X031054Y040629D03*
X031054Y039629D03*
X031304Y039629D03*
X031554Y039629D03*
X031554Y038629D03*
X031304Y038629D03*
X031054Y038629D03*
X031054Y037629D03*
X031304Y037629D03*
X031554Y037629D03*
X031554Y036629D03*
X031304Y036629D03*
X031054Y036629D03*
M02*
