G75*
%MOIN*%
%OFA0B0*%
%FSLAX24Y24*%
%IPPOS*%
%LPD*%
%AMOC8*
5,1,8,0,0,1.08239X$1,22.5*
%
%ADD10C,0.0680*%
%ADD11R,0.0595X0.0595*%
%ADD12C,0.0595*%
%ADD13C,0.3623*%
%ADD14C,0.0600*%
%ADD15C,0.0476*%
D10*
X020063Y020770D02*
X020487Y021195D01*
X021195Y020487D02*
X020770Y020063D01*
X028329Y035629D02*
X028929Y035629D01*
X028929Y036629D02*
X028329Y036629D01*
X028329Y037629D02*
X028929Y037629D01*
X028929Y038629D02*
X028329Y038629D01*
X028329Y040629D02*
X028929Y040629D01*
X028929Y041629D02*
X028329Y041629D01*
X021195Y048770D02*
X020770Y049195D01*
X020063Y048487D02*
X020487Y048063D01*
X041579Y036379D02*
X042179Y036379D01*
X042179Y035379D02*
X041579Y035379D01*
X041579Y034379D02*
X042179Y034379D01*
X042179Y033379D02*
X041579Y033379D01*
X041579Y032379D02*
X042179Y032379D01*
X042179Y031379D02*
X041579Y031379D01*
X048770Y021195D02*
X049195Y020770D01*
X048487Y020063D02*
X048063Y020487D01*
X048770Y048063D02*
X049195Y048487D01*
X048487Y049195D02*
X048063Y048770D01*
D11*
X034629Y041629D03*
D12*
X035629Y041629D03*
X036629Y041629D03*
X037629Y041629D03*
X038629Y041629D03*
X039629Y041629D03*
X033129Y034629D03*
X033129Y033629D03*
X033129Y032629D03*
X033129Y031629D03*
X033129Y030629D03*
X033129Y029629D03*
X033129Y028629D03*
X033129Y027629D03*
D13*
X014879Y014879D03*
X014879Y054379D03*
X054379Y054379D03*
X054379Y014879D03*
D14*
X033389Y036629D02*
X032869Y036629D01*
X032869Y037629D02*
X033389Y037629D01*
X033389Y038629D02*
X032869Y038629D01*
X032869Y039629D02*
X033389Y039629D01*
X033389Y040629D02*
X032869Y040629D01*
X030389Y040629D02*
X029869Y040629D01*
X029869Y039629D02*
X030389Y039629D01*
X030389Y038629D02*
X029869Y038629D01*
X029869Y037629D02*
X030389Y037629D01*
X030389Y036629D02*
X029869Y036629D01*
D15*
X035379Y036629D03*
X036879Y035129D03*
X037379Y034629D03*
X038379Y034754D03*
X038379Y033879D03*
X036379Y033629D03*
X039754Y035379D03*
X040629Y037504D03*
X040629Y040379D03*
X040504Y042754D03*
X042379Y042254D03*
X033129Y042254D03*
X027129Y026629D03*
M02*
