G75*
%MOIN*%
%OFA0B0*%
%FSLAX24Y24*%
%IPPOS*%
%LPD*%
%AMOC8*
5,1,8,0,0,1.08239X$1,22.5*
%
%ADD10R,0.0220X0.0500*%
%ADD11R,0.0500X0.0220*%
%ADD12R,0.0433X0.0394*%
%ADD13R,0.0394X0.0433*%
%ADD14C,0.0600*%
%ADD15R,0.0630X0.0787*%
%ADD16R,0.0310X0.0350*%
%ADD17R,0.0420X0.0250*%
%ADD18R,0.0315X0.1024*%
%ADD19R,0.0315X0.0315*%
%ADD20R,0.0515X0.0515*%
%ADD21C,0.0515*%
%ADD22C,0.3543*%
%ADD23C,0.0520*%
%ADD24C,0.0396*%
%ADD25C,0.0160*%
%ADD26C,0.0100*%
%ADD27C,0.0120*%
D10*
X036276Y032939D03*
X036591Y032939D03*
X036906Y032939D03*
X037221Y032939D03*
X037536Y032939D03*
X037851Y032939D03*
X038166Y032939D03*
X038481Y032939D03*
X038481Y036319D03*
X038166Y036319D03*
X037851Y036319D03*
X037536Y036319D03*
X037221Y036319D03*
X036906Y036319D03*
X036591Y036319D03*
X036276Y036319D03*
D11*
X035689Y035731D03*
X035689Y035416D03*
X035689Y035101D03*
X035689Y034786D03*
X035689Y034471D03*
X035689Y034156D03*
X035689Y033841D03*
X035689Y033526D03*
X039069Y033526D03*
X039069Y033841D03*
X039069Y034156D03*
X039069Y034471D03*
X039069Y034786D03*
X039069Y035101D03*
X039069Y035416D03*
X039069Y035731D03*
D12*
X039129Y037669D03*
X039129Y038338D03*
X037588Y037629D03*
X036919Y037629D03*
X036129Y039794D03*
X036129Y040463D03*
G36*
X049655Y049823D02*
X049350Y050128D01*
X049629Y050407D01*
X049934Y050102D01*
X049655Y049823D01*
G37*
G36*
X050128Y049350D02*
X049823Y049655D01*
X050102Y049934D01*
X050407Y049629D01*
X050128Y049350D01*
G37*
G36*
X050878Y050100D02*
X050573Y050405D01*
X050852Y050684D01*
X051157Y050379D01*
X050878Y050100D01*
G37*
G36*
X050405Y050573D02*
X050100Y050878D01*
X050379Y051157D01*
X050684Y050852D01*
X050405Y050573D01*
G37*
G36*
X051129Y051907D02*
X051434Y051602D01*
X051155Y051323D01*
X050850Y051628D01*
X051129Y051907D01*
G37*
G36*
X051602Y051434D02*
X051907Y051129D01*
X051628Y050850D01*
X051323Y051155D01*
X051602Y051434D01*
G37*
G36*
X050407Y019628D02*
X050102Y019323D01*
X049823Y019602D01*
X050128Y019907D01*
X050407Y019628D01*
G37*
G36*
X051157Y018878D02*
X050852Y018573D01*
X050573Y018852D01*
X050878Y019157D01*
X051157Y018878D01*
G37*
G36*
X051907Y018128D02*
X051602Y017823D01*
X051323Y018102D01*
X051628Y018407D01*
X051907Y018128D01*
G37*
G36*
X051434Y017655D02*
X051129Y017350D01*
X050850Y017629D01*
X051155Y017934D01*
X051434Y017655D01*
G37*
G36*
X050684Y018405D02*
X050379Y018100D01*
X050100Y018379D01*
X050405Y018684D01*
X050684Y018405D01*
G37*
G36*
X049934Y019155D02*
X049629Y018850D01*
X049350Y019129D01*
X049655Y019434D01*
X049934Y019155D01*
G37*
G36*
X019628Y018850D02*
X019323Y019155D01*
X019602Y019434D01*
X019907Y019129D01*
X019628Y018850D01*
G37*
G36*
X018878Y018100D02*
X018573Y018405D01*
X018852Y018684D01*
X019157Y018379D01*
X018878Y018100D01*
G37*
G36*
X018128Y017350D02*
X017823Y017655D01*
X018102Y017934D01*
X018407Y017629D01*
X018128Y017350D01*
G37*
G36*
X017655Y017823D02*
X017350Y018128D01*
X017629Y018407D01*
X017934Y018102D01*
X017655Y017823D01*
G37*
G36*
X018405Y018573D02*
X018100Y018878D01*
X018379Y019157D01*
X018684Y018852D01*
X018405Y018573D01*
G37*
G36*
X019155Y019323D02*
X018850Y019628D01*
X019129Y019907D01*
X019434Y019602D01*
X019155Y019323D01*
G37*
G36*
X019434Y049655D02*
X019129Y049350D01*
X018850Y049629D01*
X019155Y049934D01*
X019434Y049655D01*
G37*
G36*
X019907Y050128D02*
X019602Y049823D01*
X019323Y050102D01*
X019628Y050407D01*
X019907Y050128D01*
G37*
G36*
X019157Y050878D02*
X018852Y050573D01*
X018573Y050852D01*
X018878Y051157D01*
X019157Y050878D01*
G37*
G36*
X018684Y050405D02*
X018379Y050100D01*
X018100Y050379D01*
X018405Y050684D01*
X018684Y050405D01*
G37*
G36*
X017350Y051129D02*
X017655Y051434D01*
X017934Y051155D01*
X017629Y050850D01*
X017350Y051129D01*
G37*
G36*
X017823Y051602D02*
X018128Y051907D01*
X018407Y051628D01*
X018102Y051323D01*
X017823Y051602D01*
G37*
D13*
X035129Y040463D03*
X035129Y039794D03*
X038629Y039794D03*
X038629Y040463D03*
X039629Y040463D03*
X039629Y039794D03*
X041294Y041629D03*
X041963Y041629D03*
D14*
X042179Y036379D02*
X041579Y036379D01*
X041579Y035379D02*
X042179Y035379D01*
X042179Y034379D02*
X041579Y034379D01*
X041579Y033379D02*
X042179Y033379D01*
X042179Y032379D02*
X041579Y032379D01*
X041579Y031379D02*
X042179Y031379D01*
X048770Y021195D02*
X049195Y020770D01*
X048487Y020063D02*
X048063Y020487D01*
X028929Y035629D02*
X028329Y035629D01*
X028329Y036629D02*
X028929Y036629D01*
X028929Y037629D02*
X028329Y037629D01*
X028329Y038629D02*
X028929Y038629D01*
X028929Y040629D02*
X028329Y040629D01*
X028329Y041629D02*
X028929Y041629D01*
X021195Y048770D02*
X020770Y049195D01*
X020063Y048487D02*
X020487Y048063D01*
X020487Y021195D02*
X020063Y020770D01*
X020770Y020063D02*
X021195Y020487D01*
X048770Y048063D02*
X049195Y048487D01*
X048487Y049195D02*
X048063Y048770D01*
D15*
X041629Y039692D03*
X041629Y037566D03*
D16*
G36*
X047622Y047317D02*
X047841Y047098D01*
X047594Y046851D01*
X047375Y047070D01*
X047622Y047317D01*
G37*
G36*
X047084Y047855D02*
X047303Y047636D01*
X047056Y047389D01*
X046837Y047608D01*
X047084Y047855D01*
G37*
G36*
X047919Y048152D02*
X048138Y047933D01*
X047891Y047686D01*
X047672Y047905D01*
X047919Y048152D01*
G37*
G36*
X021940Y047622D02*
X022159Y047841D01*
X022406Y047594D01*
X022187Y047375D01*
X021940Y047622D01*
G37*
G36*
X021403Y047084D02*
X021622Y047303D01*
X021869Y047056D01*
X021650Y046837D01*
X021403Y047084D01*
G37*
G36*
X021106Y047919D02*
X021325Y048138D01*
X021572Y047891D01*
X021353Y047672D01*
X021106Y047919D01*
G37*
G36*
X021636Y021940D02*
X021417Y022159D01*
X021664Y022406D01*
X021883Y022187D01*
X021636Y021940D01*
G37*
G36*
X022173Y021403D02*
X021954Y021622D01*
X022201Y021869D01*
X022420Y021650D01*
X022173Y021403D01*
G37*
G36*
X021339Y021106D02*
X021120Y021325D01*
X021367Y021572D01*
X021586Y021353D01*
X021339Y021106D01*
G37*
G36*
X047317Y021636D02*
X047098Y021417D01*
X046851Y021664D01*
X047070Y021883D01*
X047317Y021636D01*
G37*
G36*
X047855Y022173D02*
X047636Y021954D01*
X047389Y022201D01*
X047608Y022420D01*
X047855Y022173D01*
G37*
G36*
X048152Y021339D02*
X047933Y021120D01*
X047686Y021367D01*
X047905Y021586D01*
X048152Y021339D01*
G37*
D17*
X037749Y039879D03*
X037749Y040629D03*
X036879Y040629D03*
X036879Y040254D03*
X036879Y039879D03*
D18*
X037288Y030879D03*
X037879Y030879D03*
X038469Y030879D03*
D19*
X041334Y040879D03*
X041924Y040879D03*
D20*
X034629Y041629D03*
D21*
X035629Y041629D03*
X036629Y041629D03*
X037629Y041629D03*
X038629Y041629D03*
X039629Y041629D03*
X033129Y034629D03*
X033129Y033629D03*
X033129Y032629D03*
X033129Y031629D03*
X033129Y030629D03*
X033129Y029629D03*
X033129Y028629D03*
X033129Y027629D03*
D22*
X014879Y014879D03*
X014879Y054379D03*
X054379Y054379D03*
X054379Y014879D03*
D23*
X033389Y036629D02*
X032869Y036629D01*
X032869Y037629D02*
X033389Y037629D01*
X033389Y038629D02*
X032869Y038629D01*
X032869Y039629D02*
X033389Y039629D01*
X033389Y040629D02*
X032869Y040629D01*
X030389Y040629D02*
X029869Y040629D01*
X029869Y039629D02*
X030389Y039629D01*
X030389Y038629D02*
X029869Y038629D01*
X029869Y037629D02*
X030389Y037629D01*
X030389Y036629D02*
X029869Y036629D01*
D24*
X035379Y036629D03*
X036879Y035129D03*
X037379Y034629D03*
X038379Y034754D03*
X038379Y033879D03*
X036379Y033629D03*
X039754Y035379D03*
X040629Y037504D03*
X040629Y040379D03*
X040504Y042754D03*
X042379Y042254D03*
X033129Y042254D03*
X027129Y026629D03*
D25*
X027129Y026577D01*
X022187Y021636D01*
X021353Y021339D02*
X020632Y021339D01*
X020275Y020982D01*
X019629Y020336D01*
X019629Y020129D01*
X019142Y019642D01*
X019142Y019615D01*
X019615Y019142D02*
X019642Y019142D01*
X020129Y019629D01*
X020336Y019629D01*
X020982Y020275D01*
X018392Y018865D02*
X018392Y017919D01*
X018115Y017642D01*
X017642Y017642D01*
X014879Y014879D01*
X026879Y028379D02*
X026879Y041827D01*
X021636Y047070D01*
X022173Y047608D02*
X022275Y047608D01*
X027629Y042254D01*
X028129Y039629D02*
X027629Y039129D01*
X027629Y033129D01*
X033129Y027629D01*
X036379Y030879D01*
X036379Y031504D01*
X037254Y032379D01*
X037254Y032906D01*
X037221Y032939D01*
X037254Y032379D02*
X037629Y032379D01*
X037879Y032629D01*
X037879Y032911D01*
X037851Y032939D01*
X037851Y035351D01*
X038129Y035629D01*
X038129Y036281D01*
X038166Y036319D01*
X038166Y036707D01*
X039129Y037669D01*
X040419Y037669D01*
X040629Y037504D01*
X040856Y038338D02*
X041629Y037566D01*
X041691Y037504D01*
X042379Y037504D01*
X042879Y037004D01*
X042879Y035879D01*
X042379Y035379D01*
X041879Y035379D01*
X040879Y035879D02*
X040879Y034629D01*
X041129Y034379D01*
X041879Y034379D01*
X041879Y033379D02*
X040879Y033379D01*
X040379Y033879D01*
X040379Y035629D01*
X040004Y036004D01*
X039379Y036004D01*
X039106Y035731D01*
X039069Y035731D01*
X039091Y035754D01*
X039069Y035416D02*
X039106Y035379D01*
X039754Y035379D01*
X039379Y035129D02*
X039096Y035129D01*
X039069Y035101D01*
X039379Y035129D02*
X039879Y034629D01*
X039879Y029879D01*
X046070Y023687D01*
X047622Y022187D01*
X047919Y021353D02*
X047919Y020632D01*
X048275Y020275D01*
X048922Y019629D01*
X049156Y019629D01*
X049642Y019142D01*
X050115Y019615D02*
X050115Y019642D01*
X049629Y020129D01*
X049629Y020336D01*
X048982Y020982D01*
X051615Y018115D02*
X051615Y017642D01*
X054379Y014879D01*
X039069Y027569D02*
X038379Y026879D01*
X028379Y026879D01*
X026879Y028379D01*
X033129Y034629D02*
X034819Y032939D01*
X036276Y032939D01*
X036276Y033526D02*
X035689Y033526D01*
X035689Y033841D02*
X034666Y033841D01*
X033129Y035379D01*
X031379Y035379D01*
X030129Y036629D01*
X028629Y036629D01*
X028629Y037629D02*
X030129Y037629D01*
X031879Y035879D01*
X033379Y035879D01*
X035129Y034129D01*
X035661Y034129D01*
X035689Y034156D01*
X035689Y034471D02*
X035411Y034471D01*
X034379Y035504D01*
X034379Y036629D01*
X036129Y038379D01*
X039169Y038379D01*
X039129Y038338D02*
X040856Y038338D01*
X040629Y040379D02*
X040629Y041379D01*
X040879Y041629D01*
X041294Y041629D01*
X041924Y041589D02*
X041924Y040879D01*
X041924Y041589D02*
X041963Y041629D01*
X042379Y042254D02*
X033129Y042254D01*
X033129Y040629D02*
X034129Y040629D01*
X034379Y040379D01*
X034963Y040379D01*
X035088Y040504D01*
X035129Y040463D01*
X036129Y040463D01*
X036463Y040463D01*
X036629Y040629D01*
X036879Y040629D01*
X037749Y040629D02*
X038129Y040629D01*
X038254Y040504D01*
X038588Y040504D01*
X038629Y040463D01*
X039629Y040463D01*
X039713Y040463D01*
X040629Y041379D01*
X040504Y042754D02*
X042202Y042754D01*
X047070Y047622D01*
X047608Y047084D02*
X045584Y045084D01*
X042754Y042254D01*
X037588Y037629D02*
X037588Y037088D01*
X037504Y037004D01*
X037504Y036351D01*
X037536Y036319D01*
X038481Y036319D02*
X040439Y036319D01*
X040879Y035879D01*
X039069Y034786D02*
X038411Y034786D01*
X038379Y034754D01*
X038379Y033879D02*
X038416Y033841D01*
X039069Y033841D01*
X039069Y033526D02*
X039069Y027569D01*
X038469Y030879D02*
X038481Y030891D01*
X038481Y032939D01*
X038166Y032939D02*
X038129Y032901D01*
X038129Y032379D01*
X037288Y031538D01*
X037288Y030879D01*
X036276Y033526D02*
X036379Y033629D01*
X036504Y034629D02*
X036379Y034754D01*
X035721Y034754D01*
X035689Y034786D01*
X035689Y035101D02*
X035716Y035129D01*
X036879Y035129D01*
X036504Y034629D02*
X037379Y034629D01*
X030129Y038629D02*
X030129Y039629D01*
X028129Y039629D01*
X021339Y047905D02*
X020646Y047905D01*
X020275Y048275D01*
X019629Y048922D01*
X019629Y049129D01*
X019142Y049615D01*
X019142Y049642D01*
X019615Y050115D02*
X020102Y049629D01*
X020336Y049629D01*
X020982Y048982D01*
X019615Y050115D02*
X018865Y050865D01*
X018392Y050392D02*
X017642Y051142D01*
X017642Y051615D01*
X014879Y054379D01*
X047905Y048612D02*
X047905Y047919D01*
X047905Y048612D02*
X048275Y048982D01*
X048922Y049629D01*
X049129Y049629D01*
X049615Y050115D01*
X049642Y050115D01*
X050115Y049642D02*
X050115Y049615D01*
X049629Y049129D01*
X049629Y048922D01*
X048982Y048275D01*
X051142Y051615D02*
X051615Y051615D01*
X054379Y054379D01*
D26*
X013154Y013797D02*
X013439Y013439D01*
X013797Y013154D01*
X014209Y012956D01*
X014654Y012854D01*
X015112Y012853D01*
X015558Y012955D01*
X015970Y013152D01*
X016328Y013437D01*
X016614Y013794D01*
X016813Y014206D01*
X016915Y014651D01*
X016929Y014880D01*
X016929Y014968D01*
X016929Y014969D01*
X016929Y014969D01*
X016963Y015051D01*
X016997Y015134D01*
X016998Y015134D01*
X016998Y015135D01*
X017061Y015197D01*
X027874Y026010D01*
X028039Y026079D01*
X041218Y026079D01*
X041384Y026010D01*
X052197Y015197D01*
X052260Y015135D01*
X052260Y015134D01*
X052260Y015134D01*
X052294Y015051D01*
X052329Y014969D01*
X052329Y014969D01*
X052329Y014968D01*
X052329Y014880D01*
X052342Y014651D01*
X052445Y014206D01*
X052644Y013794D01*
X052930Y013437D01*
X053288Y013152D01*
X053700Y012955D01*
X054146Y012853D01*
X054603Y012854D01*
X055049Y012956D01*
X055461Y013154D01*
X055818Y013439D01*
X056103Y013797D01*
X056302Y014209D01*
X056404Y014654D01*
X056404Y015112D01*
X056303Y015558D01*
X056105Y015970D01*
X055821Y016328D01*
X055464Y016614D01*
X055052Y016813D01*
X055052Y016813D01*
X054606Y016915D01*
X054378Y016929D01*
X054289Y016929D01*
X054289Y016929D01*
X054288Y016929D01*
X054206Y016963D01*
X054124Y016997D01*
X052558Y016997D01*
X052460Y017096D02*
X054025Y017096D01*
X054061Y017061D02*
X054123Y016998D01*
X054124Y016998D01*
X054124Y016997D01*
X054061Y017061D02*
X043247Y027874D01*
X043179Y028039D01*
X043179Y041218D01*
X043247Y041384D01*
X054061Y052197D01*
X054123Y052260D01*
X054124Y052260D01*
X054124Y052260D01*
X054206Y052294D01*
X054288Y052329D01*
X054289Y052329D01*
X054289Y052329D01*
X054378Y052329D01*
X054606Y052342D01*
X055052Y052445D01*
X055464Y052644D01*
X055821Y052930D01*
X056105Y053288D01*
X056303Y053700D01*
X056404Y054146D01*
X056404Y054603D01*
X056302Y055049D01*
X056103Y055461D01*
X055818Y055818D01*
X055461Y056103D01*
X055049Y056302D01*
X054603Y056404D01*
X054146Y056404D01*
X053700Y056303D01*
X053288Y056105D01*
X052930Y055821D01*
X052644Y055464D01*
X052445Y055052D01*
X052342Y054606D01*
X052329Y054378D01*
X052329Y054289D01*
X052329Y054289D01*
X052329Y054288D01*
X052294Y054206D01*
X052260Y054124D01*
X052260Y054124D01*
X052260Y054123D01*
X052197Y054061D01*
X041384Y043247D01*
X041218Y043179D01*
X028039Y043179D01*
X027874Y043247D01*
X017061Y054061D01*
X016998Y054123D01*
X016998Y054124D01*
X016997Y054124D01*
X016963Y054206D01*
X016929Y054288D01*
X016929Y054289D01*
X016929Y054289D01*
X016929Y054378D01*
X016915Y054606D01*
X016813Y055052D01*
X016614Y055464D01*
X016328Y055821D01*
X015970Y056105D01*
X015558Y056303D01*
X015112Y056404D01*
X014654Y056404D01*
X014209Y056302D01*
X013797Y056103D01*
X013439Y055818D01*
X013154Y055461D01*
X012956Y055049D01*
X012854Y054603D01*
X012853Y054146D01*
X012955Y053700D01*
X013152Y053288D01*
X013437Y052930D01*
X013794Y052644D01*
X014206Y052445D01*
X014651Y052342D01*
X014880Y052329D01*
X014968Y052329D01*
X014969Y052329D01*
X014969Y052329D01*
X015051Y052294D01*
X015134Y052260D01*
X015134Y052260D01*
X015135Y052260D01*
X015197Y052197D01*
X026010Y041384D01*
X026079Y041218D01*
X026079Y028039D01*
X026010Y027874D01*
X015197Y017061D01*
X015135Y016998D01*
X015134Y016998D01*
X015134Y016997D01*
X015051Y016963D01*
X014969Y016929D01*
X014969Y016929D01*
X014968Y016929D01*
X014880Y016929D01*
X014651Y016915D01*
X014206Y016813D01*
X013794Y016614D01*
X013437Y016328D01*
X013152Y015970D01*
X012955Y015558D01*
X012853Y015112D01*
X012854Y014654D01*
X012956Y014209D01*
X013154Y013797D01*
X013131Y013845D02*
X013279Y013845D01*
X013336Y013747D02*
X013194Y013747D01*
X013273Y013648D02*
X013419Y013648D01*
X013357Y013711D02*
X013711Y013357D01*
X014145Y013106D01*
X014628Y012976D01*
X015129Y012976D01*
X015613Y013106D01*
X016047Y013357D01*
X016401Y013711D01*
X016652Y014145D01*
X016781Y014628D01*
X016781Y015129D01*
X016652Y015613D01*
X016401Y016047D01*
X016373Y016075D01*
X017729Y017431D01*
X017863Y017431D01*
X018075Y017219D01*
X018184Y017219D01*
X018538Y017574D01*
X018538Y017682D01*
X018496Y017725D01*
X018603Y017832D01*
X018603Y018192D01*
X018825Y017969D01*
X018934Y017969D01*
X019288Y018324D01*
X019288Y018432D01*
X019225Y018496D01*
X019512Y018783D01*
X019575Y018719D01*
X019684Y018719D01*
X020038Y019074D01*
X020038Y019182D01*
X020009Y019211D01*
X020216Y019418D01*
X020423Y019418D01*
X020547Y019542D01*
X020651Y019646D01*
X020685Y019632D01*
X020856Y019632D01*
X021014Y019698D01*
X021560Y020243D01*
X021625Y020402D01*
X021625Y020573D01*
X021560Y020731D01*
X021438Y020853D01*
X021280Y020918D01*
X021109Y020918D01*
X020951Y020853D01*
X020405Y020307D01*
X020340Y020149D01*
X019840Y020149D01*
X019840Y020051D02*
X020340Y020051D01*
X020340Y019977D02*
X020353Y019944D01*
X020249Y019840D01*
X020042Y019840D01*
X019711Y019509D01*
X019656Y019565D01*
X019565Y019565D01*
X019565Y019656D01*
X019509Y019711D01*
X019716Y019918D01*
X019840Y020042D01*
X019840Y020249D01*
X019944Y020353D01*
X019977Y020340D01*
X020149Y020340D01*
X020307Y020405D01*
X020853Y020951D01*
X020918Y021109D01*
X020918Y021128D01*
X021131Y021128D01*
X021285Y020975D01*
X021393Y020975D01*
X021717Y021299D01*
X021717Y021407D01*
X021421Y021703D01*
X021313Y021703D01*
X021160Y021550D01*
X020741Y021550D01*
X020731Y021560D01*
X020573Y021625D01*
X020402Y021625D01*
X020243Y021560D01*
X019698Y021014D01*
X019632Y020856D01*
X019632Y020685D01*
X019646Y020651D01*
X019418Y020423D01*
X019418Y020216D01*
X019211Y020009D01*
X019182Y020038D01*
X019074Y020038D01*
X018719Y019684D01*
X018719Y019575D01*
X019102Y019192D01*
X019192Y019192D01*
X019192Y019102D01*
X019256Y019038D01*
X018969Y018752D01*
X018906Y018815D01*
X018815Y018815D01*
X018815Y018906D01*
X018432Y019288D01*
X018324Y019288D01*
X017969Y018934D01*
X017969Y018825D01*
X018181Y018613D01*
X018181Y018039D01*
X018156Y018065D01*
X018080Y018065D01*
X018084Y018082D01*
X018084Y018121D01*
X018074Y018159D01*
X018055Y018194D01*
X017922Y018326D01*
X017711Y018115D01*
X017642Y018184D01*
X017574Y018115D01*
X017642Y018047D01*
X017431Y017836D01*
X017485Y017783D01*
X016075Y016373D01*
X016047Y016401D01*
X015613Y016652D01*
X015129Y016781D01*
X014628Y016781D01*
X014145Y016652D01*
X013711Y016401D01*
X013357Y016047D01*
X013106Y015613D01*
X012976Y015129D01*
X012976Y014628D01*
X013106Y014145D01*
X013357Y013711D01*
X013351Y013550D02*
X013518Y013550D01*
X013430Y013451D02*
X013616Y013451D01*
X013548Y013353D02*
X013717Y013353D01*
X013671Y013254D02*
X013888Y013254D01*
X013795Y013156D02*
X014059Y013156D01*
X013998Y013057D02*
X014327Y013057D01*
X014202Y012959D02*
X015566Y012959D01*
X015431Y013057D02*
X015772Y013057D01*
X015699Y013156D02*
X015974Y013156D01*
X015870Y013254D02*
X016098Y013254D01*
X016040Y013353D02*
X016222Y013353D01*
X016142Y013451D02*
X016339Y013451D01*
X016418Y013550D02*
X016240Y013550D01*
X016339Y013648D02*
X016497Y013648D01*
X016422Y013747D02*
X016576Y013747D01*
X016638Y013845D02*
X016479Y013845D01*
X016536Y013944D02*
X016686Y013944D01*
X016734Y014042D02*
X016592Y014042D01*
X016649Y014141D02*
X016781Y014141D01*
X016820Y014239D02*
X016677Y014239D01*
X016703Y014338D02*
X016843Y014338D01*
X016866Y014436D02*
X016730Y014436D01*
X016756Y014535D02*
X016889Y014535D01*
X016911Y014633D02*
X016781Y014633D01*
X016781Y014732D02*
X016920Y014732D01*
X016926Y014830D02*
X016781Y014830D01*
X016781Y014929D02*
X016929Y014929D01*
X016953Y015027D02*
X016781Y015027D01*
X016781Y015126D02*
X016994Y015126D01*
X017088Y015224D02*
X016756Y015224D01*
X016729Y015323D02*
X017186Y015323D01*
X017285Y015421D02*
X016703Y015421D01*
X016677Y015520D02*
X017383Y015520D01*
X017482Y015618D02*
X016649Y015618D01*
X016592Y015717D02*
X017580Y015717D01*
X017679Y015815D02*
X016535Y015815D01*
X016478Y015914D02*
X017777Y015914D01*
X017876Y016012D02*
X016421Y016012D01*
X016409Y016111D02*
X017974Y016111D01*
X018073Y016209D02*
X016507Y016209D01*
X016606Y016308D02*
X018171Y016308D01*
X018270Y016406D02*
X016704Y016406D01*
X016803Y016505D02*
X018368Y016505D01*
X018467Y016603D02*
X016901Y016603D01*
X017000Y016702D02*
X018565Y016702D01*
X018664Y016800D02*
X017098Y016800D01*
X017197Y016899D02*
X018762Y016899D01*
X018861Y016997D02*
X017295Y016997D01*
X017394Y017096D02*
X018959Y017096D01*
X019058Y017194D02*
X017492Y017194D01*
X017591Y017293D02*
X018002Y017293D01*
X017903Y017391D02*
X017689Y017391D01*
X017389Y017687D02*
X015823Y017687D01*
X015922Y017785D02*
X017482Y017785D01*
X017479Y017884D02*
X016020Y017884D01*
X016119Y017982D02*
X017285Y017982D01*
X017230Y018037D02*
X017363Y017904D01*
X017574Y018115D01*
X017349Y018340D01*
X017230Y018221D01*
X017210Y018187D01*
X017200Y018149D01*
X017200Y018110D01*
X017210Y018071D01*
X017230Y018037D01*
X017208Y018081D02*
X016217Y018081D01*
X016316Y018179D02*
X017208Y018179D01*
X017286Y018278D02*
X016414Y018278D01*
X016513Y018376D02*
X017450Y018376D01*
X017417Y018409D02*
X017642Y018184D01*
X017853Y018395D01*
X017720Y018528D01*
X017686Y018548D01*
X017648Y018558D01*
X017609Y018558D01*
X017570Y018548D01*
X017536Y018528D01*
X017417Y018409D01*
X017483Y018475D02*
X016611Y018475D01*
X016710Y018573D02*
X018181Y018573D01*
X018181Y018475D02*
X017773Y018475D01*
X017835Y018376D02*
X018181Y018376D01*
X018181Y018278D02*
X017970Y018278D01*
X017873Y018278D02*
X017736Y018278D01*
X017775Y018179D02*
X017647Y018179D01*
X017638Y018179D02*
X017510Y018179D01*
X017539Y018081D02*
X017608Y018081D01*
X017578Y017982D02*
X017441Y017982D01*
X017411Y018278D02*
X017548Y018278D01*
X018063Y018179D02*
X018181Y018179D01*
X018181Y018081D02*
X018084Y018081D01*
X018603Y018081D02*
X018714Y018081D01*
X018812Y017982D02*
X018603Y017982D01*
X018603Y017884D02*
X019747Y017884D01*
X019649Y017785D02*
X018557Y017785D01*
X018534Y017687D02*
X019550Y017687D01*
X019452Y017588D02*
X018538Y017588D01*
X018454Y017490D02*
X019353Y017490D01*
X019255Y017391D02*
X018356Y017391D01*
X018257Y017293D02*
X019156Y017293D01*
X018947Y017982D02*
X019846Y017982D01*
X019944Y018081D02*
X019045Y018081D01*
X019144Y018179D02*
X020043Y018179D01*
X020141Y018278D02*
X019242Y018278D01*
X019288Y018376D02*
X020240Y018376D01*
X020338Y018475D02*
X019246Y018475D01*
X019302Y018573D02*
X020437Y018573D01*
X020535Y018672D02*
X019401Y018672D01*
X019499Y018770D02*
X019524Y018770D01*
X019735Y018770D02*
X020634Y018770D01*
X020732Y018869D02*
X019833Y018869D01*
X019932Y018967D02*
X020831Y018967D01*
X020929Y019066D02*
X020030Y019066D01*
X020038Y019164D02*
X021028Y019164D01*
X021126Y019263D02*
X020061Y019263D01*
X020159Y019361D02*
X021225Y019361D01*
X021323Y019460D02*
X020465Y019460D01*
X020563Y019558D02*
X021422Y019558D01*
X021520Y019657D02*
X020915Y019657D01*
X021072Y019755D02*
X021619Y019755D01*
X021717Y019854D02*
X021170Y019854D01*
X021269Y019952D02*
X021816Y019952D01*
X021914Y020051D02*
X021367Y020051D01*
X021466Y020149D02*
X022013Y020149D01*
X022111Y020248D02*
X021561Y020248D01*
X021602Y020346D02*
X022210Y020346D01*
X022308Y020445D02*
X021625Y020445D01*
X021625Y020543D02*
X022407Y020543D01*
X022505Y020642D02*
X021597Y020642D01*
X021551Y020740D02*
X022604Y020740D01*
X022702Y020839D02*
X021452Y020839D01*
X021454Y021036D02*
X022899Y021036D01*
X022801Y020937D02*
X020839Y020937D01*
X020888Y021036D02*
X021224Y021036D01*
X021552Y021134D02*
X022998Y021134D01*
X023096Y021233D02*
X021651Y021233D01*
X021717Y021331D02*
X022060Y021331D01*
X022119Y021272D02*
X022227Y021272D01*
X022551Y021596D01*
X022551Y021702D01*
X027150Y026300D01*
X027194Y026300D01*
X027315Y026350D01*
X027408Y026443D01*
X027458Y026563D01*
X027458Y026694D01*
X027408Y026815D01*
X027315Y026908D01*
X027194Y026958D01*
X027063Y026958D01*
X026943Y026908D01*
X026850Y026815D01*
X026800Y026694D01*
X026800Y026563D01*
X026805Y026551D01*
X022254Y022000D01*
X022147Y022000D01*
X021823Y021676D01*
X021823Y021568D01*
X022119Y021272D01*
X022287Y021331D02*
X023195Y021331D01*
X023293Y021430D02*
X022385Y021430D01*
X022484Y021528D02*
X023392Y021528D01*
X023490Y021627D02*
X022551Y021627D01*
X022575Y021725D02*
X023589Y021725D01*
X023687Y021824D02*
X022673Y021824D01*
X022772Y021922D02*
X023786Y021922D01*
X023884Y022021D02*
X022870Y022021D01*
X022969Y022119D02*
X023983Y022119D01*
X024081Y022218D02*
X023067Y022218D01*
X023166Y022316D02*
X024180Y022316D01*
X024278Y022415D02*
X023264Y022415D01*
X023363Y022513D02*
X024377Y022513D01*
X024475Y022612D02*
X023461Y022612D01*
X023560Y022710D02*
X024574Y022710D01*
X024672Y022809D02*
X023658Y022809D01*
X023757Y022907D02*
X024771Y022907D01*
X024869Y023006D02*
X023855Y023006D01*
X023954Y023104D02*
X024968Y023104D01*
X025066Y023203D02*
X024052Y023203D01*
X024151Y023301D02*
X025165Y023301D01*
X025263Y023400D02*
X024249Y023400D01*
X024348Y023498D02*
X025362Y023498D01*
X025460Y023597D02*
X024446Y023597D01*
X024545Y023695D02*
X025559Y023695D01*
X025657Y023794D02*
X024643Y023794D01*
X024742Y023892D02*
X025756Y023892D01*
X025854Y023991D02*
X024840Y023991D01*
X024939Y024089D02*
X025953Y024089D01*
X026051Y024188D02*
X025037Y024188D01*
X025136Y024286D02*
X026150Y024286D01*
X026248Y024385D02*
X025234Y024385D01*
X025333Y024483D02*
X026347Y024483D01*
X026445Y024582D02*
X025431Y024582D01*
X025530Y024680D02*
X026544Y024680D01*
X026642Y024779D02*
X025628Y024779D01*
X025727Y024877D02*
X026741Y024877D01*
X026839Y024976D02*
X025825Y024976D01*
X025924Y025074D02*
X026938Y025074D01*
X027036Y025173D02*
X026022Y025173D01*
X026121Y025271D02*
X027135Y025271D01*
X027233Y025370D02*
X026219Y025370D01*
X026318Y025468D02*
X027332Y025468D01*
X027430Y025567D02*
X026416Y025567D01*
X026515Y025665D02*
X027529Y025665D01*
X027627Y025764D02*
X026613Y025764D01*
X026712Y025862D02*
X027726Y025862D01*
X027824Y025961D02*
X026810Y025961D01*
X026909Y026059D02*
X027992Y026059D01*
X028292Y026668D02*
X038466Y026668D01*
X038590Y026792D01*
X039280Y027482D01*
X039280Y033286D01*
X039373Y033286D01*
X039450Y033362D01*
X039450Y034760D01*
X039668Y034542D01*
X039668Y029792D01*
X039792Y029668D01*
X045861Y023599D01*
X045861Y023597D01*
X043797Y023597D01*
X043699Y023695D02*
X045764Y023695D01*
X045861Y023597D02*
X045923Y023537D01*
X045983Y023477D01*
X045985Y023477D01*
X047258Y022246D01*
X047258Y022147D01*
X047582Y021823D01*
X047690Y021823D01*
X047986Y022119D01*
X047986Y022227D01*
X047662Y022551D01*
X047553Y022551D01*
X047551Y022549D01*
X046218Y023838D01*
X040090Y029966D01*
X040090Y034716D01*
X039966Y034840D01*
X039756Y035050D01*
X039819Y035050D01*
X039940Y035100D01*
X040033Y035193D01*
X040083Y035313D01*
X040083Y035444D01*
X040033Y035565D01*
X039940Y035658D01*
X039819Y035708D01*
X039688Y035708D01*
X039568Y035658D01*
X039500Y035590D01*
X039450Y035590D01*
X039450Y035777D01*
X039466Y035793D01*
X039917Y035793D01*
X040168Y035542D01*
X040168Y033792D01*
X040292Y033668D01*
X040792Y033168D01*
X041200Y033168D01*
X041214Y033135D01*
X041335Y033014D01*
X041493Y032948D01*
X042264Y032948D01*
X042423Y033014D01*
X042544Y033135D01*
X042610Y033293D01*
X042610Y033464D01*
X042544Y033623D01*
X042423Y033744D01*
X042264Y033810D01*
X041493Y033810D01*
X041335Y033744D01*
X041214Y033623D01*
X041200Y033590D01*
X040966Y033590D01*
X040590Y033966D01*
X040590Y035716D01*
X040215Y036091D01*
X040198Y036108D01*
X040352Y036108D01*
X040668Y035792D01*
X040668Y034542D01*
X040792Y034418D01*
X041042Y034168D01*
X041200Y034168D01*
X041214Y034135D01*
X041335Y034014D01*
X041493Y033948D01*
X042264Y033948D01*
X042423Y034014D01*
X042544Y034135D01*
X042610Y034293D01*
X042610Y034464D01*
X042544Y034623D01*
X042423Y034744D01*
X042264Y034810D01*
X041493Y034810D01*
X041335Y034744D01*
X041214Y034623D01*
X041205Y034601D01*
X041090Y034716D01*
X041090Y035966D01*
X040650Y036406D01*
X040526Y036530D01*
X038722Y036530D01*
X038722Y036623D01*
X038645Y036700D01*
X038457Y036700D01*
X039099Y037342D01*
X039399Y037342D01*
X039476Y037418D01*
X039476Y037458D01*
X040300Y037458D01*
X040300Y037438D01*
X040350Y037318D01*
X040443Y037225D01*
X040563Y037175D01*
X040694Y037175D01*
X040815Y037225D01*
X040908Y037318D01*
X040958Y037438D01*
X040958Y037569D01*
X040908Y037690D01*
X040815Y037783D01*
X040694Y037833D01*
X040563Y037833D01*
X040557Y037830D01*
X040506Y037880D01*
X040492Y037880D01*
X040481Y037889D01*
X040407Y037880D01*
X039476Y037880D01*
X039476Y037920D01*
X039399Y037997D01*
X038858Y037997D01*
X038782Y037920D01*
X038782Y037620D01*
X037956Y036794D01*
X037956Y036700D01*
X037715Y036700D01*
X037715Y036917D01*
X037799Y037001D01*
X037799Y037301D01*
X037859Y037301D01*
X037936Y037378D01*
X037936Y037880D01*
X037859Y037956D01*
X037318Y037956D01*
X037264Y037903D01*
X037256Y037918D01*
X037228Y037946D01*
X037194Y037965D01*
X037155Y037976D01*
X036968Y037976D01*
X036968Y037677D01*
X036871Y037677D01*
X036871Y037580D01*
X036968Y037580D01*
X036968Y037282D01*
X037155Y037282D01*
X037194Y037292D01*
X037228Y037312D01*
X037256Y037340D01*
X037264Y037355D01*
X037318Y037301D01*
X037378Y037301D01*
X037378Y037176D01*
X037293Y037091D01*
X037293Y036719D01*
X037226Y036719D01*
X037226Y036324D01*
X037216Y036324D01*
X037216Y036719D01*
X037092Y036719D01*
X037053Y036709D01*
X037038Y036700D01*
X036112Y036700D01*
X036036Y036623D01*
X036036Y036015D01*
X036112Y035938D01*
X037038Y035938D01*
X037053Y035929D01*
X037092Y035919D01*
X037216Y035919D01*
X037216Y036314D01*
X037226Y036314D01*
X037226Y035919D01*
X037351Y035919D01*
X037389Y035929D01*
X037405Y035938D01*
X037918Y035938D01*
X037918Y035716D01*
X037641Y035439D01*
X037641Y034832D01*
X037565Y034908D01*
X037444Y034958D01*
X037313Y034958D01*
X037193Y034908D01*
X037125Y034840D01*
X037040Y034840D01*
X037065Y034850D01*
X037158Y034943D01*
X037208Y035063D01*
X037208Y035194D01*
X037158Y035315D01*
X037065Y035408D01*
X036944Y035458D01*
X036813Y035458D01*
X036693Y035408D01*
X036625Y035340D01*
X036070Y035340D01*
X036070Y035895D01*
X035993Y035972D01*
X035385Y035972D01*
X035308Y035895D01*
X035308Y034873D01*
X034590Y035591D01*
X034590Y036542D01*
X036216Y038168D01*
X038782Y038168D01*
X038782Y038087D01*
X038858Y038011D01*
X039399Y038011D01*
X039476Y038087D01*
X039476Y038128D01*
X040769Y038128D01*
X041183Y037714D01*
X041183Y037118D01*
X041260Y037041D01*
X041998Y037041D01*
X042074Y037118D01*
X042074Y037293D01*
X042292Y037293D01*
X042668Y036917D01*
X042668Y035966D01*
X042434Y035732D01*
X042423Y035744D01*
X042264Y035810D01*
X041493Y035810D01*
X041335Y035744D01*
X041214Y035623D01*
X041148Y035464D01*
X041148Y035293D01*
X041214Y035135D01*
X041335Y035014D01*
X041493Y034948D01*
X042264Y034948D01*
X042423Y035014D01*
X042544Y035135D01*
X042610Y035293D01*
X042610Y035312D01*
X042966Y035668D01*
X043090Y035792D01*
X043090Y037091D01*
X042590Y037591D01*
X042466Y037715D01*
X042074Y037715D01*
X042074Y038014D01*
X041998Y038090D01*
X041402Y038090D01*
X040943Y038549D01*
X039476Y038549D01*
X039476Y038589D01*
X039399Y038666D01*
X038858Y038666D01*
X038782Y038590D01*
X036042Y038590D01*
X035918Y038466D01*
X034168Y036716D01*
X034168Y035417D01*
X034139Y035417D01*
X034168Y035417D02*
X034292Y035293D01*
X035245Y034340D01*
X035216Y034340D01*
X033590Y035966D01*
X033466Y036090D01*
X031966Y036090D01*
X030684Y037372D01*
X030720Y037408D01*
X030780Y037551D01*
X030780Y037707D01*
X030720Y037850D01*
X030610Y037960D01*
X030467Y038020D01*
X029791Y038020D01*
X029648Y037960D01*
X029538Y037850D01*
X029533Y037840D01*
X029308Y037840D01*
X029294Y037873D01*
X029173Y037994D01*
X029014Y038060D01*
X028243Y038060D01*
X028085Y037994D01*
X027964Y037873D01*
X027898Y037714D01*
X027898Y037543D01*
X027964Y037385D01*
X028085Y037264D01*
X028243Y037198D01*
X029014Y037198D01*
X029173Y037264D01*
X029294Y037385D01*
X029308Y037418D01*
X029533Y037418D01*
X029538Y037408D01*
X029648Y037298D01*
X029791Y037238D01*
X030222Y037238D01*
X030440Y037020D01*
X029791Y037020D01*
X029648Y036960D01*
X029538Y036850D01*
X029533Y036840D01*
X029308Y036840D01*
X029294Y036873D01*
X029173Y036994D01*
X029014Y037060D01*
X028243Y037060D01*
X028085Y036994D01*
X027964Y036873D01*
X027898Y036714D01*
X027898Y036543D01*
X027964Y036385D01*
X028085Y036264D01*
X028243Y036198D01*
X029014Y036198D01*
X029173Y036264D01*
X029294Y036385D01*
X029308Y036418D01*
X029533Y036418D01*
X029538Y036408D01*
X029648Y036298D01*
X029791Y036238D01*
X030222Y036238D01*
X031168Y035292D01*
X031292Y035168D01*
X033042Y035168D01*
X033193Y035017D01*
X033052Y035017D01*
X032909Y034958D01*
X032800Y034849D01*
X032741Y034706D01*
X032741Y034552D01*
X032800Y034409D01*
X032909Y034300D01*
X033052Y034241D01*
X033206Y034241D01*
X033215Y034244D01*
X034608Y032852D01*
X034732Y032728D01*
X036036Y032728D01*
X036036Y032635D01*
X036112Y032558D01*
X036723Y032558D01*
X036738Y032549D01*
X036777Y032539D01*
X036901Y032539D01*
X036901Y032934D01*
X036911Y032934D01*
X036911Y032539D01*
X037036Y032539D01*
X037043Y032541D01*
X037043Y032466D01*
X036292Y031715D01*
X036168Y031591D01*
X036168Y030966D01*
X033215Y028013D01*
X033206Y028017D01*
X033052Y028017D01*
X033042Y028013D01*
X027840Y033216D01*
X027840Y039042D01*
X028216Y039418D01*
X029533Y039418D01*
X029538Y039408D01*
X029648Y039298D01*
X029791Y039238D01*
X029918Y039238D01*
X029918Y039020D01*
X029791Y039020D01*
X029648Y038960D01*
X029538Y038850D01*
X029478Y038707D01*
X029478Y038551D01*
X029538Y038408D01*
X029648Y038298D01*
X029791Y038238D01*
X030467Y038238D01*
X030610Y038298D01*
X030720Y038408D01*
X030780Y038551D01*
X030780Y038707D01*
X030720Y038850D01*
X030610Y038960D01*
X030467Y039020D01*
X030340Y039020D01*
X030340Y039238D01*
X030467Y039238D01*
X030610Y039298D01*
X030720Y039408D01*
X030780Y039551D01*
X030780Y039707D01*
X030720Y039850D01*
X030610Y039960D01*
X030467Y040020D01*
X029791Y040020D01*
X029648Y039960D01*
X029538Y039850D01*
X029533Y039840D01*
X028042Y039840D01*
X027542Y039340D01*
X027418Y039216D01*
X027418Y033042D01*
X032744Y027715D01*
X032741Y027706D01*
X032741Y027552D01*
X032800Y027409D01*
X032909Y027300D01*
X033052Y027241D01*
X033206Y027241D01*
X033349Y027300D01*
X033458Y027409D01*
X033517Y027552D01*
X033517Y027706D01*
X033513Y027715D01*
X036466Y030668D01*
X036590Y030792D01*
X036590Y031417D01*
X037341Y032168D01*
X037620Y032168D01*
X037201Y031749D01*
X037078Y031626D01*
X037078Y031521D01*
X037077Y031521D01*
X037000Y031445D01*
X037000Y030313D01*
X037077Y030236D01*
X037500Y030236D01*
X037576Y030313D01*
X037576Y030328D01*
X037582Y030309D01*
X037601Y030275D01*
X037629Y030247D01*
X037663Y030227D01*
X037702Y030217D01*
X037850Y030217D01*
X037850Y030850D01*
X037908Y030850D01*
X037908Y030217D01*
X038056Y030217D01*
X038094Y030227D01*
X038128Y030247D01*
X038156Y030275D01*
X038176Y030309D01*
X038181Y030328D01*
X038181Y030313D01*
X038258Y030236D01*
X038681Y030236D01*
X038758Y030313D01*
X038758Y031445D01*
X038692Y031510D01*
X038692Y032605D01*
X038722Y032635D01*
X038722Y033243D01*
X038645Y033320D01*
X038062Y033320D01*
X038062Y033785D01*
X038100Y033693D01*
X038193Y033600D01*
X038313Y033550D01*
X038444Y033550D01*
X038565Y033600D01*
X038596Y033631D01*
X038688Y033631D01*
X038688Y033362D01*
X038765Y033286D01*
X038858Y033286D01*
X038858Y027656D01*
X038292Y027090D01*
X028466Y027090D01*
X027090Y028466D01*
X027090Y041915D01*
X022000Y047004D01*
X022000Y047110D01*
X021676Y047434D01*
X021568Y047434D01*
X021272Y047138D01*
X020256Y047138D01*
X020354Y047040D02*
X021272Y047040D01*
X021272Y047030D02*
X021596Y046706D01*
X021702Y046706D01*
X026668Y041740D01*
X026668Y028292D01*
X026792Y028168D01*
X028292Y026668D01*
X028211Y026749D02*
X027435Y026749D01*
X027458Y026650D02*
X042809Y026650D01*
X042711Y026749D02*
X038547Y026749D01*
X038645Y026847D02*
X042612Y026847D01*
X042514Y026946D02*
X038744Y026946D01*
X038842Y027044D02*
X042415Y027044D01*
X042317Y027143D02*
X038941Y027143D01*
X039039Y027241D02*
X042218Y027241D01*
X042120Y027340D02*
X039138Y027340D01*
X039236Y027438D02*
X042021Y027438D01*
X041923Y027537D02*
X039280Y027537D01*
X039280Y027635D02*
X041824Y027635D01*
X041726Y027734D02*
X039280Y027734D01*
X039280Y027832D02*
X041627Y027832D01*
X041529Y027931D02*
X039280Y027931D01*
X039280Y028029D02*
X041430Y028029D01*
X041332Y028128D02*
X039280Y028128D01*
X039280Y028226D02*
X041233Y028226D01*
X041135Y028325D02*
X039280Y028325D01*
X039280Y028423D02*
X041036Y028423D01*
X040938Y028522D02*
X039280Y028522D01*
X039280Y028620D02*
X040839Y028620D01*
X040741Y028719D02*
X039280Y028719D01*
X039280Y028817D02*
X040642Y028817D01*
X040544Y028916D02*
X039280Y028916D01*
X039280Y029014D02*
X040445Y029014D01*
X040347Y029113D02*
X039280Y029113D01*
X039280Y029211D02*
X040248Y029211D01*
X040150Y029310D02*
X039280Y029310D01*
X039280Y029408D02*
X040051Y029408D01*
X039953Y029507D02*
X039280Y029507D01*
X039280Y029605D02*
X039854Y029605D01*
X039756Y029704D02*
X039280Y029704D01*
X039280Y029802D02*
X039668Y029802D01*
X039668Y029901D02*
X039280Y029901D01*
X039280Y029999D02*
X039668Y029999D01*
X039668Y030098D02*
X039280Y030098D01*
X039280Y030196D02*
X039668Y030196D01*
X039668Y030295D02*
X039280Y030295D01*
X039280Y030393D02*
X039668Y030393D01*
X039668Y030492D02*
X039280Y030492D01*
X039280Y030590D02*
X039668Y030590D01*
X039668Y030689D02*
X039280Y030689D01*
X039280Y030787D02*
X039668Y030787D01*
X039668Y030886D02*
X039280Y030886D01*
X039280Y030984D02*
X039668Y030984D01*
X039668Y031083D02*
X039280Y031083D01*
X039280Y031181D02*
X039668Y031181D01*
X039668Y031280D02*
X039280Y031280D01*
X039280Y031378D02*
X039668Y031378D01*
X039668Y031477D02*
X039280Y031477D01*
X039280Y031575D02*
X039668Y031575D01*
X039668Y031674D02*
X039280Y031674D01*
X039280Y031772D02*
X039668Y031772D01*
X039668Y031871D02*
X039280Y031871D01*
X039280Y031969D02*
X039668Y031969D01*
X039668Y032068D02*
X039280Y032068D01*
X039280Y032166D02*
X039668Y032166D01*
X039668Y032265D02*
X039280Y032265D01*
X039280Y032363D02*
X039668Y032363D01*
X039668Y032462D02*
X039280Y032462D01*
X039280Y032560D02*
X039668Y032560D01*
X039668Y032659D02*
X039280Y032659D01*
X039280Y032757D02*
X039668Y032757D01*
X039668Y032856D02*
X039280Y032856D01*
X039280Y032954D02*
X039668Y032954D01*
X039668Y033053D02*
X039280Y033053D01*
X039280Y033151D02*
X039668Y033151D01*
X039668Y033250D02*
X039280Y033250D01*
X039436Y033348D02*
X039668Y033348D01*
X039668Y033447D02*
X039450Y033447D01*
X039450Y033545D02*
X039668Y033545D01*
X039668Y033644D02*
X039450Y033644D01*
X039450Y033742D02*
X039668Y033742D01*
X039668Y033841D02*
X039450Y033841D01*
X039450Y033939D02*
X039668Y033939D01*
X039668Y034038D02*
X039450Y034038D01*
X039450Y034136D02*
X039668Y034136D01*
X039668Y034235D02*
X039450Y034235D01*
X039450Y034333D02*
X039668Y034333D01*
X039668Y034432D02*
X039450Y034432D01*
X039450Y034530D02*
X039668Y034530D01*
X039581Y034629D02*
X039450Y034629D01*
X039450Y034727D02*
X039482Y034727D01*
X039783Y035023D02*
X040168Y035023D01*
X040168Y035121D02*
X039961Y035121D01*
X040044Y035220D02*
X040168Y035220D01*
X040168Y035318D02*
X040083Y035318D01*
X040083Y035417D02*
X040168Y035417D01*
X040168Y035515D02*
X040053Y035515D01*
X040096Y035614D02*
X039984Y035614D01*
X039997Y035712D02*
X039450Y035712D01*
X039450Y035614D02*
X039524Y035614D01*
X039881Y034924D02*
X040168Y034924D01*
X040168Y034826D02*
X039980Y034826D01*
X039966Y034840D02*
X039966Y034840D01*
X040078Y034727D02*
X040168Y034727D01*
X040168Y034629D02*
X040090Y034629D01*
X040090Y034530D02*
X040168Y034530D01*
X040168Y034432D02*
X040090Y034432D01*
X040090Y034333D02*
X040168Y034333D01*
X040168Y034235D02*
X040090Y034235D01*
X040090Y034136D02*
X040168Y034136D01*
X040168Y034038D02*
X040090Y034038D01*
X040090Y033939D02*
X040168Y033939D01*
X040168Y033841D02*
X040090Y033841D01*
X040090Y033742D02*
X040217Y033742D01*
X040316Y033644D02*
X040090Y033644D01*
X040090Y033545D02*
X040414Y033545D01*
X040513Y033447D02*
X040090Y033447D01*
X040090Y033348D02*
X040611Y033348D01*
X040710Y033250D02*
X040090Y033250D01*
X040090Y033151D02*
X041207Y033151D01*
X041296Y033053D02*
X040090Y033053D01*
X040090Y032954D02*
X041478Y032954D01*
X041493Y032810D02*
X041335Y032744D01*
X041214Y032623D01*
X041148Y032464D01*
X041148Y032293D01*
X041214Y032135D01*
X041335Y032014D01*
X041493Y031948D01*
X042264Y031948D01*
X042423Y032014D01*
X042544Y032135D01*
X042610Y032293D01*
X042610Y032464D01*
X042544Y032623D01*
X042423Y032744D01*
X042264Y032810D01*
X041493Y032810D01*
X041367Y032757D02*
X040090Y032757D01*
X040090Y032659D02*
X041250Y032659D01*
X041188Y032560D02*
X040090Y032560D01*
X040090Y032462D02*
X041148Y032462D01*
X041148Y032363D02*
X040090Y032363D01*
X040090Y032265D02*
X041160Y032265D01*
X041201Y032166D02*
X040090Y032166D01*
X040090Y032068D02*
X041281Y032068D01*
X041442Y031969D02*
X040090Y031969D01*
X040090Y031871D02*
X043179Y031871D01*
X043179Y031969D02*
X042316Y031969D01*
X042284Y031818D02*
X042214Y031829D01*
X041929Y031829D01*
X041929Y031429D01*
X041829Y031429D01*
X041829Y031829D01*
X041543Y031829D01*
X041473Y031818D01*
X041406Y031796D01*
X041343Y031764D01*
X041286Y031722D01*
X041236Y031672D01*
X041194Y031615D01*
X041162Y031552D01*
X041140Y031484D01*
X041131Y031429D01*
X041829Y031429D01*
X041829Y031329D01*
X041929Y031329D01*
X041929Y031429D01*
X042627Y031429D01*
X042618Y031484D01*
X042596Y031552D01*
X042564Y031615D01*
X042522Y031672D01*
X042472Y031722D01*
X042415Y031764D01*
X042352Y031796D01*
X042284Y031818D01*
X042398Y031772D02*
X043179Y031772D01*
X043179Y031674D02*
X042520Y031674D01*
X042584Y031575D02*
X043179Y031575D01*
X043179Y031477D02*
X042619Y031477D01*
X042627Y031329D02*
X041929Y031329D01*
X041929Y030929D01*
X042214Y030929D01*
X042284Y030940D01*
X042352Y030962D01*
X042415Y030994D01*
X042472Y031036D01*
X042522Y031086D01*
X042564Y031143D01*
X042596Y031206D01*
X042618Y031273D01*
X042627Y031329D01*
X042619Y031280D02*
X043179Y031280D01*
X043179Y031378D02*
X041929Y031378D01*
X041929Y031280D02*
X041829Y031280D01*
X041829Y031329D02*
X041829Y030929D01*
X041543Y030929D01*
X041473Y030940D01*
X041406Y030962D01*
X041343Y030994D01*
X041286Y031036D01*
X041236Y031086D01*
X041194Y031143D01*
X041162Y031206D01*
X041140Y031273D01*
X041131Y031329D01*
X041829Y031329D01*
X041829Y031378D02*
X040090Y031378D01*
X040090Y031280D02*
X041139Y031280D01*
X041174Y031181D02*
X040090Y031181D01*
X040090Y031083D02*
X041238Y031083D01*
X041362Y030984D02*
X040090Y030984D01*
X040090Y030886D02*
X043179Y030886D01*
X043179Y030984D02*
X042396Y030984D01*
X042519Y031083D02*
X043179Y031083D01*
X043179Y031181D02*
X042583Y031181D01*
X041929Y031181D02*
X041829Y031181D01*
X041829Y031083D02*
X041929Y031083D01*
X041929Y030984D02*
X041829Y030984D01*
X041829Y031477D02*
X041929Y031477D01*
X041929Y031575D02*
X041829Y031575D01*
X041829Y031674D02*
X041929Y031674D01*
X041929Y031772D02*
X041829Y031772D01*
X041360Y031772D02*
X040090Y031772D01*
X040090Y031674D02*
X041237Y031674D01*
X041174Y031575D02*
X040090Y031575D01*
X040090Y031477D02*
X041139Y031477D01*
X040090Y030787D02*
X043179Y030787D01*
X043179Y030689D02*
X040090Y030689D01*
X040090Y030590D02*
X043179Y030590D01*
X043179Y030492D02*
X040090Y030492D01*
X040090Y030393D02*
X043179Y030393D01*
X043179Y030295D02*
X040090Y030295D01*
X040090Y030196D02*
X043179Y030196D01*
X043179Y030098D02*
X040090Y030098D01*
X040090Y029999D02*
X043179Y029999D01*
X043179Y029901D02*
X040155Y029901D01*
X040253Y029802D02*
X043179Y029802D01*
X043179Y029704D02*
X040352Y029704D01*
X040450Y029605D02*
X043179Y029605D01*
X043179Y029507D02*
X040549Y029507D01*
X040647Y029408D02*
X043179Y029408D01*
X043179Y029310D02*
X040746Y029310D01*
X040844Y029211D02*
X043179Y029211D01*
X043179Y029113D02*
X040943Y029113D01*
X041041Y029014D02*
X043179Y029014D01*
X043179Y028916D02*
X041140Y028916D01*
X041238Y028817D02*
X043179Y028817D01*
X043179Y028719D02*
X041337Y028719D01*
X041435Y028620D02*
X043179Y028620D01*
X043179Y028522D02*
X041534Y028522D01*
X041632Y028423D02*
X043179Y028423D01*
X043179Y028325D02*
X041731Y028325D01*
X041829Y028226D02*
X043179Y028226D01*
X043179Y028128D02*
X041928Y028128D01*
X042026Y028029D02*
X043183Y028029D01*
X043224Y027931D02*
X042125Y027931D01*
X042223Y027832D02*
X043289Y027832D01*
X043387Y027734D02*
X042322Y027734D01*
X042420Y027635D02*
X043486Y027635D01*
X043584Y027537D02*
X042519Y027537D01*
X042617Y027438D02*
X043683Y027438D01*
X043781Y027340D02*
X042716Y027340D01*
X042814Y027241D02*
X043880Y027241D01*
X043978Y027143D02*
X042913Y027143D01*
X043011Y027044D02*
X044077Y027044D01*
X044175Y026946D02*
X043110Y026946D01*
X043208Y026847D02*
X044274Y026847D01*
X044372Y026749D02*
X043307Y026749D01*
X043405Y026650D02*
X044471Y026650D01*
X044569Y026552D02*
X043504Y026552D01*
X043602Y026453D02*
X044668Y026453D01*
X044766Y026355D02*
X043701Y026355D01*
X043799Y026256D02*
X044865Y026256D01*
X044963Y026158D02*
X043898Y026158D01*
X043996Y026059D02*
X045062Y026059D01*
X045160Y025961D02*
X044095Y025961D01*
X044193Y025862D02*
X045259Y025862D01*
X045357Y025764D02*
X044292Y025764D01*
X044390Y025665D02*
X045456Y025665D01*
X045554Y025567D02*
X044489Y025567D01*
X044587Y025468D02*
X045653Y025468D01*
X045751Y025370D02*
X044686Y025370D01*
X044784Y025271D02*
X045850Y025271D01*
X045948Y025173D02*
X044883Y025173D01*
X044981Y025074D02*
X046047Y025074D01*
X046145Y024976D02*
X045080Y024976D01*
X045178Y024877D02*
X046244Y024877D01*
X046342Y024779D02*
X045277Y024779D01*
X045375Y024680D02*
X046441Y024680D01*
X046539Y024582D02*
X045474Y024582D01*
X045572Y024483D02*
X046638Y024483D01*
X046736Y024385D02*
X045671Y024385D01*
X045769Y024286D02*
X046835Y024286D01*
X046933Y024188D02*
X045868Y024188D01*
X045966Y024089D02*
X047032Y024089D01*
X047130Y023991D02*
X046065Y023991D01*
X046163Y023892D02*
X047229Y023892D01*
X047327Y023794D02*
X046263Y023794D01*
X046365Y023695D02*
X047426Y023695D01*
X047524Y023597D02*
X046467Y023597D01*
X046569Y023498D02*
X047623Y023498D01*
X047721Y023400D02*
X046671Y023400D01*
X046773Y023301D02*
X047820Y023301D01*
X047918Y023203D02*
X046875Y023203D01*
X046977Y023104D02*
X048017Y023104D01*
X048115Y023006D02*
X047078Y023006D01*
X047180Y022907D02*
X048214Y022907D01*
X048312Y022809D02*
X047282Y022809D01*
X047384Y022710D02*
X048411Y022710D01*
X048509Y022612D02*
X047486Y022612D01*
X047700Y022513D02*
X048608Y022513D01*
X048706Y022415D02*
X047798Y022415D01*
X047897Y022316D02*
X048805Y022316D01*
X048903Y022218D02*
X047986Y022218D01*
X047986Y022119D02*
X049002Y022119D01*
X049100Y022021D02*
X047887Y022021D01*
X047789Y021922D02*
X049199Y021922D01*
X049297Y021824D02*
X047690Y021824D01*
X047581Y021824D02*
X047342Y021824D01*
X047319Y021846D02*
X047123Y021650D01*
X047334Y021440D01*
X047438Y021544D01*
X047457Y021578D01*
X047468Y021616D01*
X047468Y021656D01*
X047457Y021694D01*
X047438Y021728D01*
X047319Y021846D01*
X047297Y021824D02*
X047219Y021824D01*
X047281Y021885D02*
X047162Y022003D01*
X047128Y022023D01*
X047090Y022033D01*
X047050Y022033D01*
X047012Y022023D01*
X046978Y022003D01*
X046874Y021899D01*
X047084Y021689D01*
X047045Y021650D01*
X047084Y021611D01*
X046888Y021415D01*
X047006Y021297D01*
X047041Y021277D01*
X047079Y021267D01*
X047118Y021267D01*
X047156Y021277D01*
X047191Y021297D01*
X047295Y021401D01*
X047084Y021611D01*
X047123Y021650D01*
X047084Y021689D01*
X047281Y021885D01*
X047243Y021922D02*
X047483Y021922D01*
X047384Y022021D02*
X047132Y022021D01*
X047008Y022021D02*
X045373Y022021D01*
X045275Y022119D02*
X047286Y022119D01*
X047258Y022218D02*
X045176Y022218D01*
X045078Y022316D02*
X047185Y022316D01*
X047083Y022415D02*
X044979Y022415D01*
X044881Y022513D02*
X046982Y022513D01*
X046880Y022612D02*
X044782Y022612D01*
X044684Y022710D02*
X046778Y022710D01*
X046676Y022809D02*
X044585Y022809D01*
X044487Y022907D02*
X046574Y022907D01*
X046472Y023006D02*
X044388Y023006D01*
X044290Y023104D02*
X046370Y023104D01*
X046268Y023203D02*
X044191Y023203D01*
X044093Y023301D02*
X046166Y023301D01*
X046065Y023400D02*
X043994Y023400D01*
X043896Y023498D02*
X045961Y023498D01*
X045666Y023794D02*
X043600Y023794D01*
X043502Y023892D02*
X045567Y023892D01*
X045469Y023991D02*
X043403Y023991D01*
X043305Y024089D02*
X045370Y024089D01*
X045272Y024188D02*
X043206Y024188D01*
X043108Y024286D02*
X045173Y024286D01*
X045075Y024385D02*
X043009Y024385D01*
X042911Y024483D02*
X044976Y024483D01*
X044878Y024582D02*
X042812Y024582D01*
X042714Y024680D02*
X044779Y024680D01*
X044681Y024779D02*
X042615Y024779D01*
X042517Y024877D02*
X044582Y024877D01*
X044484Y024976D02*
X042418Y024976D01*
X042320Y025074D02*
X044385Y025074D01*
X044287Y025173D02*
X042221Y025173D01*
X042123Y025271D02*
X044188Y025271D01*
X044090Y025370D02*
X042024Y025370D01*
X041926Y025468D02*
X043991Y025468D01*
X043893Y025567D02*
X041827Y025567D01*
X041729Y025665D02*
X043794Y025665D01*
X043696Y025764D02*
X041630Y025764D01*
X041532Y025862D02*
X043597Y025862D01*
X043499Y025961D02*
X041433Y025961D01*
X041265Y026059D02*
X043400Y026059D01*
X043302Y026158D02*
X027007Y026158D01*
X027106Y026256D02*
X043203Y026256D01*
X043105Y026355D02*
X027320Y026355D01*
X027412Y026453D02*
X043006Y026453D01*
X042908Y026552D02*
X027453Y026552D01*
X027375Y026847D02*
X028112Y026847D01*
X028014Y026946D02*
X027223Y026946D01*
X027035Y026946D02*
X025082Y026946D01*
X025181Y027044D02*
X027915Y027044D01*
X027817Y027143D02*
X025279Y027143D01*
X025378Y027241D02*
X027718Y027241D01*
X027620Y027340D02*
X025476Y027340D01*
X025575Y027438D02*
X027521Y027438D01*
X027423Y027537D02*
X025673Y027537D01*
X025772Y027635D02*
X027324Y027635D01*
X027226Y027734D02*
X025870Y027734D01*
X025969Y027832D02*
X027127Y027832D01*
X027029Y027931D02*
X026034Y027931D01*
X026075Y028029D02*
X026930Y028029D01*
X026832Y028128D02*
X026079Y028128D01*
X026079Y028226D02*
X026733Y028226D01*
X026668Y028325D02*
X026079Y028325D01*
X026079Y028423D02*
X026668Y028423D01*
X026668Y028522D02*
X026079Y028522D01*
X026079Y028620D02*
X026668Y028620D01*
X026668Y028719D02*
X026079Y028719D01*
X026079Y028817D02*
X026668Y028817D01*
X026668Y028916D02*
X026079Y028916D01*
X026079Y029014D02*
X026668Y029014D01*
X026668Y029113D02*
X026079Y029113D01*
X026079Y029211D02*
X026668Y029211D01*
X026668Y029310D02*
X026079Y029310D01*
X026079Y029408D02*
X026668Y029408D01*
X026668Y029507D02*
X026079Y029507D01*
X026079Y029605D02*
X026668Y029605D01*
X026668Y029704D02*
X026079Y029704D01*
X026079Y029802D02*
X026668Y029802D01*
X026668Y029901D02*
X026079Y029901D01*
X026079Y029999D02*
X026668Y029999D01*
X026668Y030098D02*
X026079Y030098D01*
X026079Y030196D02*
X026668Y030196D01*
X026668Y030295D02*
X026079Y030295D01*
X026079Y030393D02*
X026668Y030393D01*
X026668Y030492D02*
X026079Y030492D01*
X026079Y030590D02*
X026668Y030590D01*
X026668Y030689D02*
X026079Y030689D01*
X026079Y030787D02*
X026668Y030787D01*
X026668Y030886D02*
X026079Y030886D01*
X026079Y030984D02*
X026668Y030984D01*
X026668Y031083D02*
X026079Y031083D01*
X026079Y031181D02*
X026668Y031181D01*
X026668Y031280D02*
X026079Y031280D01*
X026079Y031378D02*
X026668Y031378D01*
X026668Y031477D02*
X026079Y031477D01*
X026079Y031575D02*
X026668Y031575D01*
X026668Y031674D02*
X026079Y031674D01*
X026079Y031772D02*
X026668Y031772D01*
X026668Y031871D02*
X026079Y031871D01*
X026079Y031969D02*
X026668Y031969D01*
X026668Y032068D02*
X026079Y032068D01*
X026079Y032166D02*
X026668Y032166D01*
X026668Y032265D02*
X026079Y032265D01*
X026079Y032363D02*
X026668Y032363D01*
X026668Y032462D02*
X026079Y032462D01*
X026079Y032560D02*
X026668Y032560D01*
X026668Y032659D02*
X026079Y032659D01*
X026079Y032757D02*
X026668Y032757D01*
X026668Y032856D02*
X026079Y032856D01*
X026079Y032954D02*
X026668Y032954D01*
X026668Y033053D02*
X026079Y033053D01*
X026079Y033151D02*
X026668Y033151D01*
X026668Y033250D02*
X026079Y033250D01*
X026079Y033348D02*
X026668Y033348D01*
X026668Y033447D02*
X026079Y033447D01*
X026079Y033545D02*
X026668Y033545D01*
X026668Y033644D02*
X026079Y033644D01*
X026079Y033742D02*
X026668Y033742D01*
X026668Y033841D02*
X026079Y033841D01*
X026079Y033939D02*
X026668Y033939D01*
X026668Y034038D02*
X026079Y034038D01*
X026079Y034136D02*
X026668Y034136D01*
X026668Y034235D02*
X026079Y034235D01*
X026079Y034333D02*
X026668Y034333D01*
X026668Y034432D02*
X026079Y034432D01*
X026079Y034530D02*
X026668Y034530D01*
X026668Y034629D02*
X026079Y034629D01*
X026079Y034727D02*
X026668Y034727D01*
X026668Y034826D02*
X026079Y034826D01*
X026079Y034924D02*
X026668Y034924D01*
X026668Y035023D02*
X026079Y035023D01*
X026079Y035121D02*
X026668Y035121D01*
X026668Y035220D02*
X026079Y035220D01*
X026079Y035318D02*
X026668Y035318D01*
X026668Y035417D02*
X026079Y035417D01*
X026079Y035515D02*
X026668Y035515D01*
X026668Y035614D02*
X026079Y035614D01*
X026079Y035712D02*
X026668Y035712D01*
X026668Y035811D02*
X026079Y035811D01*
X026079Y035909D02*
X026668Y035909D01*
X026668Y036008D02*
X026079Y036008D01*
X026079Y036106D02*
X026668Y036106D01*
X026668Y036205D02*
X026079Y036205D01*
X026079Y036303D02*
X026668Y036303D01*
X026668Y036402D02*
X026079Y036402D01*
X026079Y036500D02*
X026668Y036500D01*
X026668Y036599D02*
X026079Y036599D01*
X026079Y036697D02*
X026668Y036697D01*
X026668Y036796D02*
X026079Y036796D01*
X026079Y036894D02*
X026668Y036894D01*
X026668Y036993D02*
X026079Y036993D01*
X026079Y037091D02*
X026668Y037091D01*
X026668Y037190D02*
X026079Y037190D01*
X026079Y037288D02*
X026668Y037288D01*
X026668Y037387D02*
X026079Y037387D01*
X026079Y037485D02*
X026668Y037485D01*
X026668Y037584D02*
X026079Y037584D01*
X026079Y037682D02*
X026668Y037682D01*
X026668Y037781D02*
X026079Y037781D01*
X026079Y037879D02*
X026668Y037879D01*
X026668Y037978D02*
X026079Y037978D01*
X026079Y038076D02*
X026668Y038076D01*
X026668Y038175D02*
X026079Y038175D01*
X026079Y038273D02*
X026668Y038273D01*
X026668Y038372D02*
X026079Y038372D01*
X026079Y038470D02*
X026668Y038470D01*
X026668Y038569D02*
X026079Y038569D01*
X026079Y038667D02*
X026668Y038667D01*
X026668Y038766D02*
X026079Y038766D01*
X026079Y038864D02*
X026668Y038864D01*
X026668Y038963D02*
X026079Y038963D01*
X026079Y039061D02*
X026668Y039061D01*
X026668Y039160D02*
X026079Y039160D01*
X026079Y039258D02*
X026668Y039258D01*
X026668Y039357D02*
X026079Y039357D01*
X026079Y039455D02*
X026668Y039455D01*
X026668Y039554D02*
X026079Y039554D01*
X026079Y039652D02*
X026668Y039652D01*
X026668Y039751D02*
X026079Y039751D01*
X026079Y039849D02*
X026668Y039849D01*
X026668Y039948D02*
X026079Y039948D01*
X026079Y040046D02*
X026668Y040046D01*
X026668Y040145D02*
X026079Y040145D01*
X026079Y040243D02*
X026668Y040243D01*
X026668Y040342D02*
X026079Y040342D01*
X026079Y040440D02*
X026668Y040440D01*
X026668Y040539D02*
X026079Y040539D01*
X026079Y040637D02*
X026668Y040637D01*
X026668Y040736D02*
X026079Y040736D01*
X026079Y040834D02*
X026668Y040834D01*
X026668Y040933D02*
X026079Y040933D01*
X026079Y041031D02*
X026668Y041031D01*
X026668Y041130D02*
X026079Y041130D01*
X026075Y041228D02*
X026668Y041228D01*
X026668Y041327D02*
X026034Y041327D01*
X025969Y041425D02*
X026668Y041425D01*
X026668Y041524D02*
X025870Y041524D01*
X025772Y041622D02*
X026668Y041622D01*
X026668Y041721D02*
X025673Y041721D01*
X025575Y041819D02*
X026589Y041819D01*
X026490Y041918D02*
X025476Y041918D01*
X025378Y042016D02*
X026392Y042016D01*
X026293Y042115D02*
X025279Y042115D01*
X025181Y042213D02*
X026195Y042213D01*
X026096Y042312D02*
X025082Y042312D01*
X024984Y042410D02*
X025998Y042410D01*
X025899Y042509D02*
X024885Y042509D01*
X024787Y042607D02*
X025801Y042607D01*
X025702Y042706D02*
X024688Y042706D01*
X024590Y042804D02*
X025604Y042804D01*
X025505Y042903D02*
X024491Y042903D01*
X024393Y043001D02*
X025407Y043001D01*
X025308Y043100D02*
X024294Y043100D01*
X024196Y043198D02*
X025210Y043198D01*
X025111Y043297D02*
X024097Y043297D01*
X023999Y043395D02*
X025013Y043395D01*
X024914Y043494D02*
X023900Y043494D01*
X023802Y043592D02*
X024816Y043592D01*
X024717Y043691D02*
X023703Y043691D01*
X023605Y043789D02*
X024619Y043789D01*
X024520Y043888D02*
X023506Y043888D01*
X023408Y043986D02*
X024422Y043986D01*
X024323Y044085D02*
X023309Y044085D01*
X023211Y044183D02*
X024225Y044183D01*
X024126Y044282D02*
X023112Y044282D01*
X023014Y044380D02*
X024028Y044380D01*
X023929Y044479D02*
X022915Y044479D01*
X022817Y044577D02*
X023831Y044577D01*
X023732Y044676D02*
X022718Y044676D01*
X022620Y044774D02*
X023634Y044774D01*
X023535Y044873D02*
X022521Y044873D01*
X022423Y044971D02*
X023437Y044971D01*
X023338Y045070D02*
X022324Y045070D01*
X022226Y045168D02*
X023240Y045168D01*
X023141Y045267D02*
X022127Y045267D01*
X022029Y045365D02*
X023043Y045365D01*
X022944Y045464D02*
X021930Y045464D01*
X021832Y045562D02*
X022846Y045562D01*
X022747Y045661D02*
X021733Y045661D01*
X021635Y045759D02*
X022649Y045759D01*
X022550Y045858D02*
X021536Y045858D01*
X021438Y045956D02*
X022452Y045956D01*
X022353Y046055D02*
X021339Y046055D01*
X021241Y046153D02*
X022255Y046153D01*
X022156Y046252D02*
X021142Y046252D01*
X021044Y046350D02*
X022058Y046350D01*
X021959Y046449D02*
X020945Y046449D01*
X020847Y046547D02*
X021861Y046547D01*
X021762Y046646D02*
X020748Y046646D01*
X020650Y046744D02*
X021558Y046744D01*
X021459Y046843D02*
X020551Y046843D01*
X020453Y046941D02*
X021361Y046941D01*
X021272Y047030D02*
X021272Y047138D01*
X021370Y047237D02*
X020157Y047237D01*
X020059Y047335D02*
X021469Y047335D01*
X021567Y047434D02*
X019960Y047434D01*
X019862Y047532D02*
X021818Y047532D01*
X021820Y047530D02*
X021938Y047411D01*
X022134Y047608D01*
X021924Y047818D01*
X021820Y047714D01*
X021800Y047680D01*
X021790Y047641D01*
X021790Y047602D01*
X021800Y047564D01*
X021820Y047530D01*
X021790Y047631D02*
X021498Y047631D01*
X021407Y047541D02*
X021703Y047836D01*
X021703Y047945D01*
X021379Y048269D01*
X021271Y048269D01*
X021117Y048115D01*
X020918Y048115D01*
X020918Y048149D01*
X020853Y048307D01*
X020307Y048853D01*
X020149Y048918D01*
X019977Y048918D01*
X019944Y048904D01*
X019840Y049009D01*
X019840Y049216D01*
X019509Y049546D01*
X019565Y049602D01*
X019565Y049692D01*
X019656Y049692D01*
X019698Y049735D01*
X019891Y049542D01*
X020015Y049418D01*
X020249Y049418D01*
X020353Y049313D01*
X020340Y049280D01*
X020340Y049109D01*
X020405Y048951D01*
X020951Y048405D01*
X021109Y048340D01*
X021280Y048340D01*
X021438Y048405D01*
X021560Y048526D01*
X021625Y048685D01*
X021625Y048856D01*
X021560Y049014D01*
X021014Y049560D01*
X020856Y049625D01*
X020685Y049625D01*
X020651Y049611D01*
X020423Y049840D01*
X020189Y049840D01*
X019996Y050033D01*
X020038Y050075D01*
X020038Y050184D01*
X019684Y050538D01*
X019575Y050538D01*
X019533Y050496D01*
X019246Y050783D01*
X020338Y050783D01*
X020240Y050881D02*
X019288Y050881D01*
X019288Y050934D02*
X018934Y051288D01*
X018825Y051288D01*
X018442Y050906D01*
X018442Y050815D01*
X018352Y050815D01*
X018310Y050773D01*
X018023Y051060D01*
X018065Y051102D01*
X018065Y051178D01*
X018082Y051173D01*
X018121Y051173D01*
X018159Y051183D01*
X018194Y051203D01*
X018326Y051336D01*
X018115Y051547D01*
X018184Y051615D01*
X018395Y051404D01*
X018528Y051537D01*
X018548Y051571D01*
X018558Y051610D01*
X018558Y051649D01*
X018548Y051687D01*
X018528Y051721D01*
X018409Y051840D01*
X018184Y051615D01*
X018115Y051684D01*
X018047Y051615D01*
X017836Y051826D01*
X017783Y051773D01*
X016373Y053183D01*
X016401Y053211D01*
X016652Y053645D01*
X016781Y054128D01*
X016781Y054629D01*
X016652Y055113D01*
X016401Y055547D01*
X016047Y055901D01*
X015613Y056152D01*
X015129Y056281D01*
X014628Y056281D01*
X014145Y056152D01*
X013711Y055901D01*
X013357Y055547D01*
X013106Y055113D01*
X012976Y054629D01*
X012976Y054128D01*
X013106Y053645D01*
X013357Y053211D01*
X013711Y052857D01*
X014145Y052606D01*
X014628Y052476D01*
X015129Y052476D01*
X015613Y052606D01*
X016047Y052857D01*
X016075Y052885D01*
X017431Y051528D01*
X017431Y051395D01*
X017219Y051182D01*
X017219Y051074D01*
X017574Y050719D01*
X017682Y050719D01*
X017725Y050762D01*
X018012Y050475D01*
X017969Y050432D01*
X017969Y050324D01*
X018324Y049969D01*
X018432Y049969D01*
X018815Y050352D01*
X018815Y050442D01*
X018906Y050442D01*
X018948Y050485D01*
X019235Y050198D01*
X019192Y050156D01*
X019192Y050065D01*
X019102Y050065D01*
X018719Y049682D01*
X018719Y049574D01*
X019074Y049219D01*
X019182Y049219D01*
X019211Y049248D01*
X019418Y049042D01*
X019418Y048834D01*
X019542Y048711D01*
X019646Y048606D01*
X019632Y048573D01*
X019632Y048402D01*
X019698Y048243D01*
X020243Y047698D01*
X020402Y047632D01*
X020573Y047632D01*
X020721Y047694D01*
X021146Y047694D01*
X021299Y047541D01*
X021407Y047541D01*
X021209Y047631D02*
X019763Y047631D01*
X019665Y047729D02*
X020212Y047729D01*
X020114Y047828D02*
X019566Y047828D01*
X019468Y047926D02*
X020015Y047926D01*
X019917Y048025D02*
X019369Y048025D01*
X019271Y048123D02*
X019818Y048123D01*
X019720Y048222D02*
X019172Y048222D01*
X019074Y048320D02*
X019666Y048320D01*
X019632Y048419D02*
X018975Y048419D01*
X018877Y048517D02*
X019632Y048517D01*
X019637Y048616D02*
X018778Y048616D01*
X018680Y048714D02*
X019538Y048714D01*
X019440Y048813D02*
X018581Y048813D01*
X018483Y048911D02*
X019418Y048911D01*
X019418Y049010D02*
X018384Y049010D01*
X018286Y049108D02*
X019351Y049108D01*
X019253Y049207D02*
X018187Y049207D01*
X018089Y049305D02*
X018988Y049305D01*
X018889Y049404D02*
X017990Y049404D01*
X017892Y049502D02*
X018791Y049502D01*
X018719Y049601D02*
X017793Y049601D01*
X017695Y049699D02*
X018736Y049699D01*
X018835Y049798D02*
X017596Y049798D01*
X017498Y049896D02*
X018933Y049896D01*
X019032Y049995D02*
X018458Y049995D01*
X018557Y050093D02*
X019192Y050093D01*
X019229Y050192D02*
X018655Y050192D01*
X018754Y050290D02*
X019143Y050290D01*
X019044Y050389D02*
X018815Y050389D01*
X019246Y050783D02*
X019288Y050825D01*
X019288Y050934D01*
X019242Y050980D02*
X020141Y050980D01*
X020043Y051078D02*
X019144Y051078D01*
X019045Y051177D02*
X019944Y051177D01*
X019846Y051275D02*
X018947Y051275D01*
X018812Y051275D02*
X018266Y051275D01*
X018289Y051374D02*
X019747Y051374D01*
X019649Y051472D02*
X018463Y051472D01*
X018547Y051571D02*
X019550Y051571D01*
X019452Y051669D02*
X018552Y051669D01*
X018481Y051768D02*
X019353Y051768D01*
X019255Y051866D02*
X018298Y051866D01*
X018340Y051909D02*
X018221Y052028D01*
X018187Y052048D01*
X018149Y052058D01*
X018110Y052058D01*
X018071Y052048D01*
X018037Y052028D01*
X017904Y051895D01*
X018115Y051684D01*
X018340Y051909D01*
X018284Y051965D02*
X019156Y051965D01*
X019058Y052063D02*
X017492Y052063D01*
X017591Y051965D02*
X017974Y051965D01*
X017933Y051866D02*
X017689Y051866D01*
X017895Y051768D02*
X018032Y051768D01*
X017993Y051669D02*
X018101Y051669D01*
X018130Y051669D02*
X018238Y051669D01*
X018229Y051571D02*
X018139Y051571D01*
X018190Y051472D02*
X018327Y051472D01*
X018336Y051768D02*
X018199Y051768D01*
X018135Y051177D02*
X018714Y051177D01*
X018615Y051078D02*
X018042Y051078D01*
X018065Y051177D02*
X018068Y051177D01*
X018103Y050980D02*
X018517Y050980D01*
X018442Y050881D02*
X018201Y050881D01*
X018300Y050783D02*
X018320Y050783D01*
X017999Y050487D02*
X016907Y050487D01*
X017005Y050389D02*
X017969Y050389D01*
X018003Y050290D02*
X017104Y050290D01*
X017202Y050192D02*
X018101Y050192D01*
X018200Y050093D02*
X017301Y050093D01*
X017399Y049995D02*
X018298Y049995D01*
X017901Y050586D02*
X016808Y050586D01*
X016710Y050684D02*
X017802Y050684D01*
X017510Y050783D02*
X016611Y050783D01*
X016513Y050881D02*
X017412Y050881D01*
X017313Y050980D02*
X016414Y050980D01*
X016316Y051078D02*
X017219Y051078D01*
X017219Y051177D02*
X016217Y051177D01*
X016119Y051275D02*
X017312Y051275D01*
X017411Y051374D02*
X016020Y051374D01*
X015922Y051472D02*
X017431Y051472D01*
X017389Y051571D02*
X015823Y051571D01*
X015725Y051669D02*
X017290Y051669D01*
X017192Y051768D02*
X015626Y051768D01*
X015528Y051866D02*
X017093Y051866D01*
X016995Y051965D02*
X015429Y051965D01*
X015331Y052063D02*
X016896Y052063D01*
X016798Y052162D02*
X015232Y052162D01*
X015134Y052260D02*
X016699Y052260D01*
X016601Y052359D02*
X014579Y052359D01*
X014332Y052556D02*
X013976Y052556D01*
X014061Y052654D02*
X013781Y052654D01*
X013890Y052753D02*
X013658Y052753D01*
X013720Y052851D02*
X013535Y052851D01*
X013617Y052950D02*
X013421Y052950D01*
X013343Y053048D02*
X013519Y053048D01*
X013420Y053147D02*
X013264Y053147D01*
X013337Y053245D02*
X013186Y053245D01*
X013126Y053344D02*
X013280Y053344D01*
X013223Y053442D02*
X013078Y053442D01*
X013031Y053541D02*
X013166Y053541D01*
X013109Y053639D02*
X012984Y053639D01*
X012946Y053738D02*
X013081Y053738D01*
X013055Y053836D02*
X012924Y053836D01*
X012901Y053935D02*
X013028Y053935D01*
X013002Y054033D02*
X012879Y054033D01*
X012856Y054132D02*
X012976Y054132D01*
X012976Y054230D02*
X012853Y054230D01*
X012853Y054329D02*
X012976Y054329D01*
X012976Y054427D02*
X012854Y054427D01*
X012854Y054526D02*
X012976Y054526D01*
X012976Y054624D02*
X012859Y054624D01*
X012881Y054723D02*
X013002Y054723D01*
X013028Y054821D02*
X012904Y054821D01*
X012926Y054920D02*
X013054Y054920D01*
X013081Y055018D02*
X012949Y055018D01*
X012988Y055117D02*
X013108Y055117D01*
X013165Y055215D02*
X013036Y055215D01*
X013083Y055314D02*
X013222Y055314D01*
X013279Y055412D02*
X013131Y055412D01*
X013194Y055511D02*
X013336Y055511D01*
X013273Y055609D02*
X013419Y055609D01*
X013351Y055708D02*
X013518Y055708D01*
X013430Y055806D02*
X013616Y055806D01*
X013548Y055905D02*
X013717Y055905D01*
X013671Y056003D02*
X013888Y056003D01*
X013795Y056102D02*
X014059Y056102D01*
X013998Y056200D02*
X014327Y056200D01*
X014202Y056299D02*
X015566Y056299D01*
X015431Y056200D02*
X015772Y056200D01*
X015699Y056102D02*
X015974Y056102D01*
X015870Y056003D02*
X016098Y056003D01*
X016040Y055905D02*
X016222Y055905D01*
X016142Y055806D02*
X016339Y055806D01*
X016418Y055708D02*
X016240Y055708D01*
X016339Y055609D02*
X016497Y055609D01*
X016422Y055511D02*
X016576Y055511D01*
X016638Y055412D02*
X016479Y055412D01*
X016536Y055314D02*
X016686Y055314D01*
X016734Y055215D02*
X016592Y055215D01*
X016649Y055117D02*
X016781Y055117D01*
X016820Y055018D02*
X016677Y055018D01*
X016703Y054920D02*
X016843Y054920D01*
X016866Y054821D02*
X016730Y054821D01*
X016756Y054723D02*
X016889Y054723D01*
X016911Y054624D02*
X016781Y054624D01*
X016781Y054526D02*
X016920Y054526D01*
X016926Y054427D02*
X016781Y054427D01*
X016781Y054329D02*
X016929Y054329D01*
X016953Y054230D02*
X016781Y054230D01*
X016781Y054132D02*
X016994Y054132D01*
X017088Y054033D02*
X016756Y054033D01*
X016729Y053935D02*
X017186Y053935D01*
X017285Y053836D02*
X016703Y053836D01*
X016677Y053738D02*
X017383Y053738D01*
X017482Y053639D02*
X016649Y053639D01*
X016592Y053541D02*
X017580Y053541D01*
X017679Y053442D02*
X016535Y053442D01*
X016478Y053344D02*
X017777Y053344D01*
X017876Y053245D02*
X016421Y053245D01*
X016409Y053147D02*
X017974Y053147D01*
X018073Y053048D02*
X016507Y053048D01*
X016606Y052950D02*
X018171Y052950D01*
X018270Y052851D02*
X016704Y052851D01*
X016803Y052753D02*
X018368Y052753D01*
X018467Y052654D02*
X016901Y052654D01*
X017000Y052556D02*
X018565Y052556D01*
X018664Y052457D02*
X017098Y052457D01*
X017197Y052359D02*
X018762Y052359D01*
X018861Y052260D02*
X017295Y052260D01*
X017394Y052162D02*
X018959Y052162D01*
X019345Y050684D02*
X020437Y050684D01*
X020535Y050586D02*
X019443Y050586D01*
X019735Y050487D02*
X020634Y050487D01*
X020732Y050389D02*
X019833Y050389D01*
X019932Y050290D02*
X020831Y050290D01*
X020929Y050192D02*
X020030Y050192D01*
X020038Y050093D02*
X021028Y050093D01*
X021126Y049995D02*
X020034Y049995D01*
X020133Y049896D02*
X021225Y049896D01*
X021323Y049798D02*
X020465Y049798D01*
X020563Y049699D02*
X021422Y049699D01*
X021520Y049601D02*
X020915Y049601D01*
X021072Y049502D02*
X021619Y049502D01*
X021717Y049404D02*
X021170Y049404D01*
X021269Y049305D02*
X021816Y049305D01*
X021914Y049207D02*
X021367Y049207D01*
X021466Y049108D02*
X022013Y049108D01*
X022111Y049010D02*
X021561Y049010D01*
X021602Y048911D02*
X022210Y048911D01*
X022308Y048813D02*
X021625Y048813D01*
X021625Y048714D02*
X022407Y048714D01*
X022505Y048616D02*
X021597Y048616D01*
X021551Y048517D02*
X022604Y048517D01*
X022702Y048419D02*
X021452Y048419D01*
X021426Y048222D02*
X022899Y048222D01*
X022801Y048320D02*
X020839Y048320D01*
X020888Y048222D02*
X021224Y048222D01*
X021125Y048123D02*
X020918Y048123D01*
X020937Y048419D02*
X020741Y048419D01*
X020838Y048517D02*
X020642Y048517D01*
X020544Y048616D02*
X020740Y048616D01*
X020641Y048714D02*
X020445Y048714D01*
X020347Y048813D02*
X020543Y048813D01*
X020444Y048911D02*
X020165Y048911D01*
X019961Y048911D02*
X019937Y048911D01*
X019840Y049010D02*
X020381Y049010D01*
X020340Y049108D02*
X019840Y049108D01*
X019840Y049207D02*
X020340Y049207D01*
X020350Y049305D02*
X019750Y049305D01*
X019652Y049404D02*
X020263Y049404D01*
X019931Y049502D02*
X019553Y049502D01*
X019564Y049601D02*
X019832Y049601D01*
X019734Y049699D02*
X019663Y049699D01*
X021524Y048123D02*
X022998Y048123D01*
X023096Y048025D02*
X021623Y048025D01*
X021703Y047926D02*
X022032Y047926D01*
X022067Y047961D02*
X021963Y047857D01*
X022173Y047646D01*
X022134Y047608D01*
X022173Y047569D01*
X021977Y047372D01*
X022095Y047254D01*
X022130Y047234D01*
X022168Y047224D01*
X022207Y047224D01*
X022245Y047234D01*
X022280Y047254D01*
X022384Y047358D01*
X022173Y047569D01*
X022212Y047608D01*
X022173Y047646D01*
X022370Y047843D01*
X022251Y047961D01*
X022217Y047981D01*
X022179Y047991D01*
X022139Y047991D01*
X022101Y047981D01*
X022067Y047961D01*
X021992Y047828D02*
X021695Y047828D01*
X021596Y047729D02*
X021835Y047729D01*
X022013Y047729D02*
X022090Y047729D01*
X022111Y047631D02*
X022158Y047631D01*
X022189Y047631D02*
X022235Y047631D01*
X022212Y047608D02*
X022408Y047804D01*
X022527Y047686D01*
X022546Y047651D01*
X022557Y047613D01*
X022557Y047574D01*
X022546Y047536D01*
X022527Y047501D01*
X022423Y047397D01*
X022212Y047608D01*
X022210Y047532D02*
X022287Y047532D01*
X022308Y047434D02*
X022386Y047434D01*
X022459Y047434D02*
X023687Y047434D01*
X023589Y047532D02*
X022545Y047532D01*
X022552Y047631D02*
X023490Y047631D01*
X023392Y047729D02*
X022483Y047729D01*
X022334Y047729D02*
X022256Y047729D01*
X022355Y047828D02*
X023293Y047828D01*
X023195Y047926D02*
X022286Y047926D01*
X022137Y047532D02*
X022059Y047532D01*
X022038Y047434D02*
X021961Y047434D01*
X021916Y047434D02*
X021676Y047434D01*
X021775Y047335D02*
X022014Y047335D01*
X022125Y047237D02*
X021873Y047237D01*
X021972Y047138D02*
X023983Y047138D01*
X024081Y047040D02*
X022000Y047040D01*
X022063Y046941D02*
X024180Y046941D01*
X024278Y046843D02*
X022161Y046843D01*
X022260Y046744D02*
X024377Y046744D01*
X024475Y046646D02*
X022358Y046646D01*
X022457Y046547D02*
X024574Y046547D01*
X024672Y046449D02*
X022555Y046449D01*
X022654Y046350D02*
X024771Y046350D01*
X024869Y046252D02*
X022752Y046252D01*
X022851Y046153D02*
X024968Y046153D01*
X025066Y046055D02*
X022949Y046055D01*
X023048Y045956D02*
X025165Y045956D01*
X025263Y045858D02*
X023146Y045858D01*
X023245Y045759D02*
X025362Y045759D01*
X025460Y045661D02*
X023343Y045661D01*
X023442Y045562D02*
X025559Y045562D01*
X025657Y045464D02*
X023540Y045464D01*
X023639Y045365D02*
X025756Y045365D01*
X025854Y045267D02*
X023737Y045267D01*
X023836Y045168D02*
X025953Y045168D01*
X026051Y045070D02*
X023934Y045070D01*
X024033Y044971D02*
X026150Y044971D01*
X026248Y044873D02*
X024131Y044873D01*
X024230Y044774D02*
X026347Y044774D01*
X026445Y044676D02*
X024328Y044676D01*
X024427Y044577D02*
X026544Y044577D01*
X026642Y044479D02*
X024525Y044479D01*
X024624Y044380D02*
X026741Y044380D01*
X026839Y044282D02*
X024722Y044282D01*
X024821Y044183D02*
X026938Y044183D01*
X027036Y044085D02*
X024919Y044085D01*
X025018Y043986D02*
X027135Y043986D01*
X027233Y043888D02*
X025116Y043888D01*
X025215Y043789D02*
X027332Y043789D01*
X027430Y043691D02*
X025313Y043691D01*
X025412Y043592D02*
X027529Y043592D01*
X027627Y043494D02*
X025510Y043494D01*
X025609Y043395D02*
X027726Y043395D01*
X027824Y043297D02*
X025707Y043297D01*
X025806Y043198D02*
X027992Y043198D01*
X028223Y042068D02*
X028156Y042046D01*
X028093Y042014D01*
X028036Y041972D01*
X027986Y041922D01*
X027944Y041865D01*
X027912Y041802D01*
X027890Y041734D01*
X027881Y041679D01*
X028579Y041679D01*
X028579Y042079D01*
X028293Y042079D01*
X028223Y042068D01*
X028098Y042016D02*
X026988Y042016D01*
X027086Y041918D02*
X027983Y041918D01*
X027921Y041819D02*
X027090Y041819D01*
X027090Y041721D02*
X027888Y041721D01*
X027881Y041579D02*
X027890Y041523D01*
X027912Y041456D01*
X027944Y041393D01*
X027986Y041336D01*
X028036Y041286D01*
X028093Y041244D01*
X028156Y041212D01*
X028223Y041190D01*
X028293Y041179D01*
X028579Y041179D01*
X028579Y041579D01*
X028679Y041579D01*
X028679Y041679D01*
X028579Y041679D01*
X028579Y041579D01*
X027881Y041579D01*
X027890Y041524D02*
X027090Y041524D01*
X027090Y041622D02*
X028579Y041622D01*
X028579Y041524D02*
X028679Y041524D01*
X028679Y041579D02*
X028679Y041179D01*
X028964Y041179D01*
X029034Y041190D01*
X029102Y041212D01*
X029165Y041244D01*
X029222Y041286D01*
X029272Y041336D01*
X029314Y041393D01*
X029346Y041456D01*
X029368Y041523D01*
X029377Y041579D01*
X028679Y041579D01*
X028679Y041622D02*
X034241Y041622D01*
X034241Y041524D02*
X029368Y041524D01*
X029330Y041425D02*
X034241Y041425D01*
X034241Y041327D02*
X029263Y041327D01*
X029134Y041228D02*
X036553Y041228D01*
X036533Y041231D02*
X036597Y041221D01*
X036600Y041221D01*
X036600Y041600D01*
X036658Y041600D01*
X036658Y041658D01*
X037036Y041658D01*
X037036Y041661D01*
X037026Y041724D01*
X037006Y041785D01*
X036977Y041842D01*
X036940Y041894D01*
X036894Y041940D01*
X036842Y041977D01*
X036785Y042006D01*
X036724Y042026D01*
X036661Y042036D01*
X036658Y042036D01*
X036658Y041658D01*
X036600Y041658D01*
X036600Y042036D01*
X036597Y042036D01*
X036533Y042026D01*
X036472Y042006D01*
X036415Y041977D01*
X036363Y041940D01*
X036318Y041894D01*
X036280Y041842D01*
X036251Y041785D01*
X036231Y041724D01*
X036221Y041661D01*
X036221Y041658D01*
X036600Y041658D01*
X036600Y041600D01*
X036221Y041600D01*
X036221Y041597D01*
X036231Y041533D01*
X036251Y041472D01*
X036280Y041415D01*
X036318Y041363D01*
X036363Y041318D01*
X036415Y041280D01*
X036472Y041251D01*
X036533Y041231D01*
X036600Y041228D02*
X036658Y041228D01*
X036658Y041221D02*
X036661Y041221D01*
X036724Y041231D01*
X036785Y041251D01*
X036842Y041280D01*
X036894Y041318D01*
X036940Y041363D01*
X036977Y041415D01*
X037006Y041472D01*
X037026Y041533D01*
X037036Y041597D01*
X037036Y041600D01*
X036658Y041600D01*
X036658Y041221D01*
X036705Y041228D02*
X040180Y041228D01*
X040082Y041130D02*
X027090Y041130D01*
X027090Y041228D02*
X028124Y041228D01*
X027994Y041327D02*
X027090Y041327D01*
X027090Y041425D02*
X027927Y041425D01*
X028085Y040994D02*
X027964Y040873D01*
X027898Y040714D01*
X027898Y040543D01*
X027964Y040385D01*
X028085Y040264D01*
X028243Y040198D01*
X029014Y040198D01*
X029173Y040264D01*
X029294Y040385D01*
X029360Y040543D01*
X029360Y040714D01*
X029294Y040873D01*
X029173Y040994D01*
X029014Y041060D01*
X028243Y041060D01*
X028085Y040994D01*
X028024Y040933D02*
X027090Y040933D01*
X027090Y041031D02*
X028175Y041031D01*
X027948Y040834D02*
X027090Y040834D01*
X027090Y040736D02*
X027907Y040736D01*
X027898Y040637D02*
X027090Y040637D01*
X027090Y040539D02*
X027900Y040539D01*
X027941Y040440D02*
X027090Y040440D01*
X027090Y040342D02*
X028007Y040342D01*
X028134Y040243D02*
X027090Y040243D01*
X027090Y040145D02*
X034849Y040145D01*
X034855Y040139D02*
X034840Y040131D01*
X034812Y040103D01*
X034792Y040069D01*
X034782Y040030D01*
X034782Y039843D01*
X035080Y039843D01*
X035080Y039746D01*
X034782Y039746D01*
X034782Y039558D01*
X034792Y039520D01*
X034812Y039486D01*
X034840Y039458D01*
X034874Y039438D01*
X034912Y039428D01*
X035080Y039428D01*
X035080Y039746D01*
X035177Y039746D01*
X035177Y039843D01*
X035476Y039843D01*
X035476Y040030D01*
X035465Y040069D01*
X035446Y040103D01*
X035418Y040131D01*
X035403Y040139D01*
X035456Y040193D01*
X035456Y040253D01*
X035782Y040253D01*
X035782Y040212D01*
X035858Y040136D01*
X035873Y040136D01*
X035854Y040131D01*
X035820Y040111D01*
X035792Y040083D01*
X035773Y040049D01*
X035762Y040011D01*
X035762Y039843D01*
X036080Y039843D01*
X036080Y039746D01*
X035762Y039746D01*
X035762Y039578D01*
X035773Y039539D01*
X035792Y039505D01*
X035820Y039477D01*
X035854Y039458D01*
X035893Y039447D01*
X036080Y039447D01*
X036080Y039746D01*
X036177Y039746D01*
X036177Y039843D01*
X036495Y039843D01*
X036495Y040011D01*
X036485Y040049D01*
X036465Y040083D01*
X036437Y040111D01*
X036403Y040131D01*
X036384Y040136D01*
X036399Y040136D01*
X036476Y040212D01*
X036476Y040253D01*
X036551Y040253D01*
X036564Y040266D01*
X036866Y040266D01*
X036866Y040241D01*
X036519Y040241D01*
X036519Y040109D01*
X036529Y040071D01*
X036538Y040055D01*
X036538Y039700D01*
X036615Y039623D01*
X037143Y039623D01*
X037208Y039688D01*
X037333Y039688D01*
X037408Y039763D01*
X037408Y039700D01*
X037485Y039623D01*
X038013Y039623D01*
X038090Y039700D01*
X038090Y040058D01*
X038013Y040135D01*
X037570Y040135D01*
X037570Y040373D01*
X038013Y040373D01*
X038050Y040410D01*
X038167Y040293D01*
X038301Y040293D01*
X038301Y040193D01*
X038355Y040139D01*
X038340Y040131D01*
X038312Y040103D01*
X038292Y040069D01*
X038282Y040030D01*
X038282Y039843D01*
X038580Y039843D01*
X038580Y039746D01*
X038282Y039746D01*
X038282Y039558D01*
X038292Y039520D01*
X038312Y039486D01*
X038340Y039458D01*
X038374Y039438D01*
X038412Y039428D01*
X038580Y039428D01*
X038580Y039746D01*
X038677Y039746D01*
X038677Y039843D01*
X038976Y039843D01*
X038976Y040030D01*
X038965Y040069D01*
X038946Y040103D01*
X038918Y040131D01*
X038903Y040139D01*
X038956Y040193D01*
X038956Y040253D01*
X039301Y040253D01*
X039301Y040193D01*
X039355Y040139D01*
X039340Y040131D01*
X039312Y040103D01*
X039292Y040069D01*
X039282Y040030D01*
X039282Y039843D01*
X039580Y039843D01*
X039580Y039746D01*
X039282Y039746D01*
X039282Y039558D01*
X039292Y039520D01*
X039312Y039486D01*
X039340Y039458D01*
X039374Y039438D01*
X039412Y039428D01*
X039580Y039428D01*
X039580Y039746D01*
X039677Y039746D01*
X039677Y039843D01*
X039976Y039843D01*
X039976Y040030D01*
X039965Y040069D01*
X039946Y040103D01*
X039918Y040131D01*
X039903Y040139D01*
X039956Y040193D01*
X039956Y040408D01*
X040418Y040870D01*
X040418Y040633D01*
X040350Y040565D01*
X040300Y040444D01*
X040300Y040313D01*
X040350Y040193D01*
X040443Y040100D01*
X040563Y040050D01*
X040694Y040050D01*
X040815Y040100D01*
X040908Y040193D01*
X040958Y040313D01*
X040958Y040444D01*
X040908Y040565D01*
X040840Y040633D01*
X040840Y041292D01*
X040966Y041418D01*
X040967Y041418D01*
X040967Y041358D01*
X041043Y041282D01*
X041545Y041282D01*
X041622Y041358D01*
X041622Y041899D01*
X041545Y041976D01*
X041043Y041976D01*
X040967Y041899D01*
X040967Y041840D01*
X040792Y041840D01*
X040668Y041716D01*
X040418Y041466D01*
X039763Y040811D01*
X039378Y040811D01*
X039301Y040734D01*
X039301Y040674D01*
X038956Y040674D01*
X038956Y040734D01*
X038880Y040811D01*
X038378Y040811D01*
X038311Y040744D01*
X038216Y040840D01*
X038058Y040840D01*
X038013Y040885D01*
X037485Y040885D01*
X037408Y040808D01*
X037408Y040744D01*
X037333Y040820D01*
X037208Y040820D01*
X037143Y040885D01*
X036615Y040885D01*
X036570Y040840D01*
X036542Y040840D01*
X036446Y040744D01*
X036399Y040791D01*
X035858Y040791D01*
X035782Y040714D01*
X035782Y040674D01*
X035456Y040674D01*
X035456Y040734D01*
X035380Y040811D01*
X034878Y040811D01*
X034801Y040734D01*
X034801Y040590D01*
X034466Y040590D01*
X034340Y040716D01*
X034216Y040840D01*
X033724Y040840D01*
X033720Y040850D01*
X033610Y040960D01*
X033467Y041020D01*
X032791Y041020D01*
X032648Y040960D01*
X032538Y040850D01*
X032478Y040707D01*
X032478Y040551D01*
X032538Y040408D01*
X032648Y040298D01*
X032791Y040238D01*
X033467Y040238D01*
X033610Y040298D01*
X033720Y040408D01*
X033724Y040418D01*
X034042Y040418D01*
X034292Y040168D01*
X034826Y040168D01*
X034855Y040139D01*
X034786Y040046D02*
X027090Y040046D01*
X027090Y039948D02*
X029635Y039948D01*
X029537Y039849D02*
X027090Y039849D01*
X027090Y039751D02*
X027953Y039751D01*
X027854Y039652D02*
X027090Y039652D01*
X027090Y039554D02*
X027756Y039554D01*
X027657Y039455D02*
X027090Y039455D01*
X027090Y039357D02*
X027559Y039357D01*
X027460Y039258D02*
X027090Y039258D01*
X027090Y039160D02*
X027418Y039160D01*
X027418Y039061D02*
X027090Y039061D01*
X027090Y038963D02*
X027418Y038963D01*
X027418Y038864D02*
X027090Y038864D01*
X027090Y038766D02*
X027418Y038766D01*
X027418Y038667D02*
X027090Y038667D01*
X027090Y038569D02*
X027418Y038569D01*
X027418Y038470D02*
X027090Y038470D01*
X027090Y038372D02*
X027418Y038372D01*
X027418Y038273D02*
X027090Y038273D01*
X027090Y038175D02*
X027418Y038175D01*
X027418Y038076D02*
X027090Y038076D01*
X027090Y037978D02*
X027418Y037978D01*
X027418Y037879D02*
X027090Y037879D01*
X027090Y037781D02*
X027418Y037781D01*
X027418Y037682D02*
X027090Y037682D01*
X027090Y037584D02*
X027418Y037584D01*
X027418Y037485D02*
X027090Y037485D01*
X027090Y037387D02*
X027418Y037387D01*
X027418Y037288D02*
X027090Y037288D01*
X027090Y037190D02*
X027418Y037190D01*
X027418Y037091D02*
X027090Y037091D01*
X027090Y036993D02*
X027418Y036993D01*
X027418Y036894D02*
X027090Y036894D01*
X027090Y036796D02*
X027418Y036796D01*
X027418Y036697D02*
X027090Y036697D01*
X027090Y036599D02*
X027418Y036599D01*
X027418Y036500D02*
X027090Y036500D01*
X027090Y036402D02*
X027418Y036402D01*
X027418Y036303D02*
X027090Y036303D01*
X027090Y036205D02*
X027418Y036205D01*
X027418Y036106D02*
X027090Y036106D01*
X027090Y036008D02*
X027418Y036008D01*
X027418Y035909D02*
X027090Y035909D01*
X027090Y035811D02*
X027418Y035811D01*
X027418Y035712D02*
X027090Y035712D01*
X027090Y035614D02*
X027418Y035614D01*
X027418Y035515D02*
X027090Y035515D01*
X027090Y035417D02*
X027418Y035417D01*
X027418Y035318D02*
X027090Y035318D01*
X027090Y035220D02*
X027418Y035220D01*
X027418Y035121D02*
X027090Y035121D01*
X027090Y035023D02*
X027418Y035023D01*
X027418Y034924D02*
X027090Y034924D01*
X027090Y034826D02*
X027418Y034826D01*
X027418Y034727D02*
X027090Y034727D01*
X027090Y034629D02*
X027418Y034629D01*
X027418Y034530D02*
X027090Y034530D01*
X027090Y034432D02*
X027418Y034432D01*
X027418Y034333D02*
X027090Y034333D01*
X027090Y034235D02*
X027418Y034235D01*
X027418Y034136D02*
X027090Y034136D01*
X027090Y034038D02*
X027418Y034038D01*
X027418Y033939D02*
X027090Y033939D01*
X027090Y033841D02*
X027418Y033841D01*
X027418Y033742D02*
X027090Y033742D01*
X027090Y033644D02*
X027418Y033644D01*
X027418Y033545D02*
X027090Y033545D01*
X027090Y033447D02*
X027418Y033447D01*
X027418Y033348D02*
X027090Y033348D01*
X027090Y033250D02*
X027418Y033250D01*
X027418Y033151D02*
X027090Y033151D01*
X027090Y033053D02*
X027418Y033053D01*
X027505Y032954D02*
X027090Y032954D01*
X027090Y032856D02*
X027604Y032856D01*
X027702Y032757D02*
X027090Y032757D01*
X027090Y032659D02*
X027801Y032659D01*
X027899Y032560D02*
X027090Y032560D01*
X027090Y032462D02*
X027998Y032462D01*
X028096Y032363D02*
X027090Y032363D01*
X027090Y032265D02*
X028195Y032265D01*
X028293Y032166D02*
X027090Y032166D01*
X027090Y032068D02*
X028392Y032068D01*
X028490Y031969D02*
X027090Y031969D01*
X027090Y031871D02*
X028589Y031871D01*
X028687Y031772D02*
X027090Y031772D01*
X027090Y031674D02*
X028786Y031674D01*
X028884Y031575D02*
X027090Y031575D01*
X027090Y031477D02*
X028983Y031477D01*
X029081Y031378D02*
X027090Y031378D01*
X027090Y031280D02*
X029180Y031280D01*
X029278Y031181D02*
X027090Y031181D01*
X027090Y031083D02*
X029377Y031083D01*
X029475Y030984D02*
X027090Y030984D01*
X027090Y030886D02*
X029574Y030886D01*
X029672Y030787D02*
X027090Y030787D01*
X027090Y030689D02*
X029771Y030689D01*
X029869Y030590D02*
X027090Y030590D01*
X027090Y030492D02*
X029968Y030492D01*
X030066Y030393D02*
X027090Y030393D01*
X027090Y030295D02*
X030165Y030295D01*
X030263Y030196D02*
X027090Y030196D01*
X027090Y030098D02*
X030362Y030098D01*
X030460Y029999D02*
X027090Y029999D01*
X027090Y029901D02*
X030559Y029901D01*
X030657Y029802D02*
X027090Y029802D01*
X027090Y029704D02*
X030756Y029704D01*
X030854Y029605D02*
X027090Y029605D01*
X027090Y029507D02*
X030953Y029507D01*
X031051Y029408D02*
X027090Y029408D01*
X027090Y029310D02*
X031150Y029310D01*
X031248Y029211D02*
X027090Y029211D01*
X027090Y029113D02*
X031347Y029113D01*
X031445Y029014D02*
X027090Y029014D01*
X027090Y028916D02*
X031544Y028916D01*
X031642Y028817D02*
X027090Y028817D01*
X027090Y028719D02*
X031741Y028719D01*
X031839Y028620D02*
X027090Y028620D01*
X027090Y028522D02*
X031938Y028522D01*
X032036Y028423D02*
X027132Y028423D01*
X027231Y028325D02*
X032135Y028325D01*
X032233Y028226D02*
X027329Y028226D01*
X027428Y028128D02*
X032332Y028128D01*
X032430Y028029D02*
X027526Y028029D01*
X027625Y027931D02*
X032529Y027931D01*
X032627Y027832D02*
X027723Y027832D01*
X027822Y027734D02*
X032726Y027734D01*
X032741Y027635D02*
X027920Y027635D01*
X028019Y027537D02*
X032747Y027537D01*
X032788Y027438D02*
X028117Y027438D01*
X028216Y027340D02*
X032869Y027340D01*
X033050Y027241D02*
X028314Y027241D01*
X028413Y027143D02*
X038345Y027143D01*
X038443Y027241D02*
X033208Y027241D01*
X033389Y027340D02*
X038542Y027340D01*
X038640Y027438D02*
X033470Y027438D01*
X033511Y027537D02*
X038739Y027537D01*
X038837Y027635D02*
X033517Y027635D01*
X033532Y027734D02*
X038858Y027734D01*
X038858Y027832D02*
X033630Y027832D01*
X033729Y027931D02*
X038858Y027931D01*
X038858Y028029D02*
X033827Y028029D01*
X033926Y028128D02*
X038858Y028128D01*
X038858Y028226D02*
X034024Y028226D01*
X034123Y028325D02*
X038858Y028325D01*
X038858Y028423D02*
X034221Y028423D01*
X034320Y028522D02*
X038858Y028522D01*
X038858Y028620D02*
X034418Y028620D01*
X034517Y028719D02*
X038858Y028719D01*
X038858Y028817D02*
X034615Y028817D01*
X034714Y028916D02*
X038858Y028916D01*
X038858Y029014D02*
X034812Y029014D01*
X034911Y029113D02*
X038858Y029113D01*
X038858Y029211D02*
X035009Y029211D01*
X035108Y029310D02*
X038858Y029310D01*
X038858Y029408D02*
X035206Y029408D01*
X035305Y029507D02*
X038858Y029507D01*
X038858Y029605D02*
X035403Y029605D01*
X035502Y029704D02*
X038858Y029704D01*
X038858Y029802D02*
X035600Y029802D01*
X035699Y029901D02*
X038858Y029901D01*
X038858Y029999D02*
X035797Y029999D01*
X035896Y030098D02*
X038858Y030098D01*
X038858Y030196D02*
X035994Y030196D01*
X036093Y030295D02*
X037018Y030295D01*
X037000Y030393D02*
X036191Y030393D01*
X036290Y030492D02*
X037000Y030492D01*
X037000Y030590D02*
X036388Y030590D01*
X036487Y030689D02*
X037000Y030689D01*
X037000Y030787D02*
X036585Y030787D01*
X036590Y030886D02*
X037000Y030886D01*
X037000Y030984D02*
X036590Y030984D01*
X036590Y031083D02*
X037000Y031083D01*
X037000Y031181D02*
X036590Y031181D01*
X036590Y031280D02*
X037000Y031280D01*
X037000Y031378D02*
X036590Y031378D01*
X036650Y031477D02*
X037032Y031477D01*
X037078Y031575D02*
X036748Y031575D01*
X036847Y031674D02*
X037126Y031674D01*
X037201Y031749D02*
X037201Y031749D01*
X037224Y031772D02*
X036945Y031772D01*
X037044Y031871D02*
X037323Y031871D01*
X037421Y031969D02*
X037142Y031969D01*
X037241Y032068D02*
X037520Y032068D01*
X037618Y032166D02*
X037339Y032166D01*
X037039Y032462D02*
X033480Y032462D01*
X033458Y032409D02*
X033517Y032552D01*
X033517Y032706D01*
X033458Y032849D01*
X033349Y032958D01*
X033206Y033017D01*
X033052Y033017D01*
X032909Y032958D01*
X032800Y032849D01*
X032741Y032706D01*
X032741Y032552D01*
X032800Y032409D01*
X032909Y032300D01*
X033052Y032241D01*
X033206Y032241D01*
X033349Y032300D01*
X033458Y032409D01*
X033412Y032363D02*
X036940Y032363D01*
X036842Y032265D02*
X033264Y032265D01*
X033206Y032017D02*
X033349Y031958D01*
X033458Y031849D01*
X033517Y031706D01*
X033517Y031552D01*
X033458Y031409D01*
X033349Y031300D01*
X033206Y031241D01*
X033052Y031241D01*
X032909Y031300D01*
X032800Y031409D01*
X032741Y031552D01*
X032741Y031706D01*
X032800Y031849D01*
X032909Y031958D01*
X033052Y032017D01*
X033206Y032017D01*
X033321Y031969D02*
X036546Y031969D01*
X036448Y031871D02*
X033436Y031871D01*
X033490Y031772D02*
X036349Y031772D01*
X036292Y031715D02*
X036292Y031715D01*
X036251Y031674D02*
X033517Y031674D01*
X033517Y031575D02*
X036168Y031575D01*
X036168Y031477D02*
X033486Y031477D01*
X033427Y031378D02*
X036168Y031378D01*
X036168Y031280D02*
X033301Y031280D01*
X033206Y031017D02*
X033052Y031017D01*
X032909Y030958D01*
X032800Y030849D01*
X032741Y030706D01*
X032741Y030552D01*
X032800Y030409D01*
X032909Y030300D01*
X033052Y030241D01*
X033206Y030241D01*
X033349Y030300D01*
X033458Y030409D01*
X033517Y030552D01*
X033517Y030706D01*
X033458Y030849D01*
X033349Y030958D01*
X033206Y031017D01*
X033285Y030984D02*
X036168Y030984D01*
X036168Y031083D02*
X029973Y031083D01*
X029874Y031181D02*
X036168Y031181D01*
X036088Y030886D02*
X033421Y030886D01*
X033483Y030787D02*
X035989Y030787D01*
X035891Y030689D02*
X033517Y030689D01*
X033517Y030590D02*
X035792Y030590D01*
X035694Y030492D02*
X033492Y030492D01*
X033442Y030393D02*
X035595Y030393D01*
X035497Y030295D02*
X033337Y030295D01*
X033206Y030017D02*
X033349Y029958D01*
X033458Y029849D01*
X033517Y029706D01*
X033517Y029552D01*
X033458Y029409D01*
X033349Y029300D01*
X033206Y029241D01*
X033052Y029241D01*
X032909Y029300D01*
X032800Y029409D01*
X032741Y029552D01*
X032741Y029706D01*
X032800Y029849D01*
X032909Y029958D01*
X033052Y030017D01*
X033206Y030017D01*
X033249Y029999D02*
X035201Y029999D01*
X035103Y029901D02*
X033406Y029901D01*
X033477Y029802D02*
X035004Y029802D01*
X034906Y029704D02*
X033517Y029704D01*
X033517Y029605D02*
X034807Y029605D01*
X034709Y029507D02*
X033498Y029507D01*
X033457Y029408D02*
X034610Y029408D01*
X034512Y029310D02*
X033359Y029310D01*
X033261Y029014D02*
X034216Y029014D01*
X034118Y028916D02*
X033418Y028916D01*
X033440Y028894D02*
X033394Y028940D01*
X033342Y028977D01*
X033285Y029006D01*
X033224Y029026D01*
X033161Y029036D01*
X033158Y029036D01*
X033158Y028658D01*
X033536Y028658D01*
X033536Y028661D01*
X033526Y028724D01*
X033506Y028785D01*
X033477Y028842D01*
X033440Y028894D01*
X033490Y028817D02*
X034019Y028817D01*
X033921Y028719D02*
X033527Y028719D01*
X033536Y028600D02*
X033158Y028600D01*
X033158Y028658D01*
X033100Y028658D01*
X033100Y029036D01*
X033097Y029036D01*
X033033Y029026D01*
X032972Y029006D01*
X032915Y028977D01*
X032863Y028940D01*
X032818Y028894D01*
X032780Y028842D01*
X032751Y028785D01*
X032731Y028724D01*
X032721Y028661D01*
X032721Y028658D01*
X033100Y028658D01*
X033100Y028600D01*
X033158Y028600D01*
X033158Y028221D01*
X033161Y028221D01*
X033224Y028231D01*
X033285Y028251D01*
X033342Y028280D01*
X033394Y028318D01*
X033440Y028363D01*
X033477Y028415D01*
X033506Y028472D01*
X033526Y028533D01*
X033536Y028597D01*
X033536Y028600D01*
X033522Y028522D02*
X033724Y028522D01*
X033822Y028620D02*
X033158Y028620D01*
X033100Y028620D02*
X032435Y028620D01*
X032337Y028719D02*
X032731Y028719D01*
X032768Y028817D02*
X032238Y028817D01*
X032140Y028916D02*
X032840Y028916D01*
X032997Y029014D02*
X032041Y029014D01*
X031943Y029113D02*
X034315Y029113D01*
X034413Y029211D02*
X031844Y029211D01*
X031746Y029310D02*
X032899Y029310D01*
X032800Y029408D02*
X031647Y029408D01*
X031549Y029507D02*
X032759Y029507D01*
X032741Y029605D02*
X031450Y029605D01*
X031352Y029704D02*
X032741Y029704D01*
X032781Y029802D02*
X031253Y029802D01*
X031155Y029901D02*
X032852Y029901D01*
X033009Y029999D02*
X031056Y029999D01*
X030958Y030098D02*
X035300Y030098D01*
X035398Y030196D02*
X030859Y030196D01*
X030761Y030295D02*
X032921Y030295D01*
X032815Y030393D02*
X030662Y030393D01*
X030564Y030492D02*
X032765Y030492D01*
X032741Y030590D02*
X030465Y030590D01*
X030367Y030689D02*
X032741Y030689D01*
X032774Y030787D02*
X030268Y030787D01*
X030170Y030886D02*
X032837Y030886D01*
X032973Y030984D02*
X030071Y030984D01*
X029776Y031280D02*
X032957Y031280D01*
X032830Y031378D02*
X029677Y031378D01*
X029579Y031477D02*
X032772Y031477D01*
X032741Y031575D02*
X029480Y031575D01*
X029382Y031674D02*
X032741Y031674D01*
X032768Y031772D02*
X029283Y031772D01*
X029185Y031871D02*
X032822Y031871D01*
X032936Y031969D02*
X029086Y031969D01*
X028988Y032068D02*
X036645Y032068D01*
X036743Y032166D02*
X028889Y032166D01*
X028791Y032265D02*
X032993Y032265D01*
X032845Y032363D02*
X028692Y032363D01*
X028594Y032462D02*
X032778Y032462D01*
X032741Y032560D02*
X028495Y032560D01*
X028397Y032659D02*
X032741Y032659D01*
X032762Y032757D02*
X028298Y032757D01*
X028200Y032856D02*
X032807Y032856D01*
X032905Y032954D02*
X028101Y032954D01*
X028003Y033053D02*
X034407Y033053D01*
X034308Y033151D02*
X027904Y033151D01*
X027840Y033250D02*
X033029Y033250D01*
X033052Y033241D02*
X032909Y033300D01*
X032800Y033409D01*
X032741Y033552D01*
X032741Y033706D01*
X032800Y033849D01*
X032909Y033958D01*
X033052Y034017D01*
X033206Y034017D01*
X033349Y033958D01*
X033458Y033849D01*
X033517Y033706D01*
X033517Y033552D01*
X033458Y033409D01*
X033349Y033300D01*
X033206Y033241D01*
X033052Y033241D01*
X033228Y033250D02*
X034210Y033250D01*
X034111Y033348D02*
X033397Y033348D01*
X033474Y033447D02*
X034013Y033447D01*
X033914Y033545D02*
X033514Y033545D01*
X033517Y033644D02*
X033816Y033644D01*
X033717Y033742D02*
X033502Y033742D01*
X033461Y033841D02*
X033619Y033841D01*
X033520Y033939D02*
X033367Y033939D01*
X033422Y034038D02*
X027840Y034038D01*
X027840Y034136D02*
X033323Y034136D01*
X033225Y034235D02*
X027840Y034235D01*
X027840Y034333D02*
X032875Y034333D01*
X032790Y034432D02*
X027840Y034432D01*
X027840Y034530D02*
X032749Y034530D01*
X032741Y034629D02*
X027840Y034629D01*
X027840Y034727D02*
X032749Y034727D01*
X032790Y034826D02*
X027840Y034826D01*
X027840Y034924D02*
X032875Y034924D01*
X033088Y035121D02*
X027840Y035121D01*
X027840Y035023D02*
X033187Y035023D01*
X033843Y035712D02*
X034168Y035712D01*
X034168Y035614D02*
X033942Y035614D01*
X034040Y035515D02*
X034168Y035515D01*
X034237Y035318D02*
X034266Y035318D01*
X034336Y035220D02*
X034365Y035220D01*
X034434Y035121D02*
X034463Y035121D01*
X034533Y035023D02*
X034562Y035023D01*
X034631Y034924D02*
X034660Y034924D01*
X034730Y034826D02*
X034759Y034826D01*
X034828Y034727D02*
X034857Y034727D01*
X034927Y034629D02*
X034956Y034629D01*
X035025Y034530D02*
X035054Y034530D01*
X035124Y034432D02*
X035153Y034432D01*
X035256Y034924D02*
X035308Y034924D01*
X035308Y035023D02*
X035158Y035023D01*
X035059Y035121D02*
X035308Y035121D01*
X035308Y035220D02*
X034961Y035220D01*
X034862Y035318D02*
X035308Y035318D01*
X035308Y035417D02*
X034764Y035417D01*
X034665Y035515D02*
X035308Y035515D01*
X035308Y035614D02*
X034590Y035614D01*
X034590Y035712D02*
X035308Y035712D01*
X035308Y035811D02*
X034590Y035811D01*
X034590Y035909D02*
X035322Y035909D01*
X036043Y036008D02*
X034590Y036008D01*
X034590Y036106D02*
X036036Y036106D01*
X036036Y036205D02*
X034590Y036205D01*
X034590Y036303D02*
X036036Y036303D01*
X036036Y036402D02*
X034590Y036402D01*
X034590Y036500D02*
X036036Y036500D01*
X036036Y036599D02*
X034647Y036599D01*
X034745Y036697D02*
X036110Y036697D01*
X036056Y035909D02*
X037918Y035909D01*
X037918Y035811D02*
X036070Y035811D01*
X036070Y035712D02*
X037914Y035712D01*
X037816Y035614D02*
X036070Y035614D01*
X036070Y035515D02*
X037717Y035515D01*
X037641Y035417D02*
X037043Y035417D01*
X037154Y035318D02*
X037641Y035318D01*
X037641Y035220D02*
X037197Y035220D01*
X037208Y035121D02*
X037641Y035121D01*
X037641Y035023D02*
X037191Y035023D01*
X037233Y034924D02*
X037139Y034924D01*
X037525Y034924D02*
X037641Y034924D01*
X037641Y034426D02*
X037641Y033339D01*
X037541Y033339D01*
X037541Y032944D01*
X037531Y032944D01*
X037531Y033339D01*
X037407Y033339D01*
X037368Y033329D01*
X037353Y033320D01*
X037090Y033320D01*
X037074Y033329D01*
X037036Y033339D01*
X036911Y033339D01*
X036911Y032944D01*
X036901Y032944D01*
X036901Y033339D01*
X036777Y033339D01*
X036738Y033329D01*
X036723Y033320D01*
X036491Y033320D01*
X036565Y033350D01*
X036658Y033443D01*
X036708Y033563D01*
X036708Y033694D01*
X036658Y033815D01*
X036565Y033908D01*
X036444Y033958D01*
X036313Y033958D01*
X036193Y033908D01*
X036100Y033815D01*
X036070Y033741D01*
X036070Y034006D01*
X036070Y034543D01*
X036292Y034543D01*
X036417Y034418D01*
X037125Y034418D01*
X037193Y034350D01*
X037313Y034300D01*
X037444Y034300D01*
X037565Y034350D01*
X037641Y034426D01*
X037641Y034333D02*
X037525Y034333D01*
X037641Y034235D02*
X036070Y034235D01*
X036070Y034333D02*
X037233Y034333D01*
X037641Y034136D02*
X036070Y034136D01*
X036070Y034038D02*
X037641Y034038D01*
X037641Y033939D02*
X036488Y033939D01*
X036632Y033841D02*
X037641Y033841D01*
X037641Y033742D02*
X036688Y033742D01*
X036708Y033644D02*
X037641Y033644D01*
X037641Y033545D02*
X036700Y033545D01*
X036659Y033447D02*
X037641Y033447D01*
X037641Y033348D02*
X036561Y033348D01*
X036901Y033250D02*
X036911Y033250D01*
X036901Y033151D02*
X036911Y033151D01*
X036901Y033053D02*
X036911Y033053D01*
X036901Y032954D02*
X036911Y032954D01*
X036901Y032856D02*
X036911Y032856D01*
X036901Y032757D02*
X036911Y032757D01*
X036901Y032659D02*
X036911Y032659D01*
X036901Y032560D02*
X036911Y032560D01*
X037531Y032954D02*
X037541Y032954D01*
X037531Y033053D02*
X037541Y033053D01*
X037531Y033151D02*
X037541Y033151D01*
X037531Y033250D02*
X037541Y033250D01*
X038062Y033348D02*
X038702Y033348D01*
X038715Y033250D02*
X038858Y033250D01*
X038858Y033151D02*
X038722Y033151D01*
X038722Y033053D02*
X038858Y033053D01*
X038858Y032954D02*
X038722Y032954D01*
X038722Y032856D02*
X038858Y032856D01*
X038858Y032757D02*
X038722Y032757D01*
X038722Y032659D02*
X038858Y032659D01*
X038858Y032560D02*
X038692Y032560D01*
X038692Y032462D02*
X038858Y032462D01*
X038858Y032363D02*
X038692Y032363D01*
X038692Y032265D02*
X038858Y032265D01*
X038858Y032166D02*
X038692Y032166D01*
X038692Y032068D02*
X038858Y032068D01*
X038858Y031969D02*
X038692Y031969D01*
X038692Y031871D02*
X038858Y031871D01*
X038858Y031772D02*
X038692Y031772D01*
X038692Y031674D02*
X038858Y031674D01*
X038858Y031575D02*
X038692Y031575D01*
X038726Y031477D02*
X038858Y031477D01*
X038858Y031378D02*
X038758Y031378D01*
X038758Y031280D02*
X038858Y031280D01*
X038858Y031181D02*
X038758Y031181D01*
X038758Y031083D02*
X038858Y031083D01*
X038858Y030984D02*
X038758Y030984D01*
X038758Y030886D02*
X038858Y030886D01*
X038858Y030787D02*
X038758Y030787D01*
X038758Y030689D02*
X038858Y030689D01*
X038858Y030590D02*
X038758Y030590D01*
X038758Y030492D02*
X038858Y030492D01*
X038858Y030393D02*
X038758Y030393D01*
X038740Y030295D02*
X038858Y030295D01*
X038199Y030295D02*
X038168Y030295D01*
X037908Y030295D02*
X037850Y030295D01*
X037850Y030393D02*
X037908Y030393D01*
X037908Y030492D02*
X037850Y030492D01*
X037850Y030590D02*
X037908Y030590D01*
X037908Y030689D02*
X037850Y030689D01*
X037850Y030787D02*
X037908Y030787D01*
X037908Y030908D02*
X037850Y030908D01*
X037850Y031541D01*
X037702Y031541D01*
X037663Y031530D01*
X037629Y031511D01*
X037601Y031483D01*
X037582Y031449D01*
X037576Y031429D01*
X037576Y031445D01*
X037535Y031487D01*
X038216Y032168D01*
X038216Y032168D01*
X038270Y032222D01*
X038270Y031521D01*
X038258Y031521D01*
X038181Y031445D01*
X038181Y031429D01*
X038176Y031449D01*
X038156Y031483D01*
X038128Y031511D01*
X038094Y031530D01*
X038056Y031541D01*
X037908Y031541D01*
X037908Y030908D01*
X037908Y030984D02*
X037850Y030984D01*
X037850Y031083D02*
X037908Y031083D01*
X037908Y031181D02*
X037850Y031181D01*
X037850Y031280D02*
X037908Y031280D01*
X037908Y031378D02*
X037850Y031378D01*
X037850Y031477D02*
X037908Y031477D01*
X038160Y031477D02*
X038213Y031477D01*
X038270Y031575D02*
X037623Y031575D01*
X037598Y031477D02*
X037544Y031477D01*
X037722Y031674D02*
X038270Y031674D01*
X038270Y031772D02*
X037820Y031772D01*
X037919Y031871D02*
X038270Y031871D01*
X038270Y031969D02*
X038017Y031969D01*
X038116Y032068D02*
X038270Y032068D01*
X038270Y032166D02*
X038214Y032166D01*
X038062Y033447D02*
X038688Y033447D01*
X038688Y033545D02*
X038062Y033545D01*
X038062Y033644D02*
X038149Y033644D01*
X038079Y033742D02*
X038062Y033742D01*
X036403Y034432D02*
X036070Y034432D01*
X036070Y034530D02*
X036304Y034530D01*
X036269Y033939D02*
X036070Y033939D01*
X036070Y033841D02*
X036126Y033841D01*
X036070Y033742D02*
X036070Y033742D01*
X036036Y032659D02*
X033517Y032659D01*
X033517Y032560D02*
X036110Y032560D01*
X034702Y032757D02*
X033496Y032757D01*
X033451Y032856D02*
X034604Y032856D01*
X034505Y032954D02*
X033352Y032954D01*
X032860Y033348D02*
X027840Y033348D01*
X027840Y033447D02*
X032784Y033447D01*
X032743Y033545D02*
X027840Y033545D01*
X027840Y033644D02*
X032741Y033644D01*
X032756Y033742D02*
X027840Y033742D01*
X027840Y033841D02*
X032796Y033841D01*
X032890Y033939D02*
X027840Y033939D01*
X027840Y035220D02*
X028191Y035220D01*
X028243Y035198D02*
X028085Y035264D01*
X027964Y035385D01*
X027898Y035543D01*
X027898Y035714D01*
X027964Y035873D01*
X028085Y035994D01*
X028243Y036060D01*
X029014Y036060D01*
X029173Y035994D01*
X029294Y035873D01*
X029360Y035714D01*
X029360Y035543D01*
X029294Y035385D01*
X029173Y035264D01*
X029014Y035198D01*
X028243Y035198D01*
X028030Y035318D02*
X027840Y035318D01*
X027840Y035417D02*
X027950Y035417D01*
X027910Y035515D02*
X027840Y035515D01*
X027840Y035614D02*
X027898Y035614D01*
X027898Y035712D02*
X027840Y035712D01*
X027840Y035811D02*
X027938Y035811D01*
X028000Y035909D02*
X027840Y035909D01*
X027840Y036008D02*
X028118Y036008D01*
X028227Y036205D02*
X027840Y036205D01*
X027840Y036303D02*
X028045Y036303D01*
X027957Y036402D02*
X027840Y036402D01*
X027840Y036500D02*
X027916Y036500D01*
X027898Y036599D02*
X027840Y036599D01*
X027840Y036697D02*
X027898Y036697D01*
X027932Y036796D02*
X027840Y036796D01*
X027840Y036894D02*
X027985Y036894D01*
X028084Y036993D02*
X027840Y036993D01*
X027840Y037091D02*
X030368Y037091D01*
X030270Y037190D02*
X027840Y037190D01*
X027840Y037288D02*
X028060Y037288D01*
X027963Y037387D02*
X027840Y037387D01*
X027840Y037485D02*
X027922Y037485D01*
X027898Y037584D02*
X027840Y037584D01*
X027840Y037682D02*
X027898Y037682D01*
X027926Y037781D02*
X027840Y037781D01*
X027840Y037879D02*
X027970Y037879D01*
X028069Y037978D02*
X027840Y037978D01*
X027840Y038076D02*
X035528Y038076D01*
X035430Y037978D02*
X033567Y037978D01*
X033610Y037960D02*
X033467Y038020D01*
X032791Y038020D01*
X032648Y037960D01*
X032538Y037850D01*
X032478Y037707D01*
X032478Y037551D01*
X032538Y037408D01*
X032648Y037298D01*
X032791Y037238D01*
X033467Y037238D01*
X033610Y037298D01*
X033720Y037408D01*
X033780Y037551D01*
X033780Y037707D01*
X033720Y037850D01*
X033610Y037960D01*
X033691Y037879D02*
X035331Y037879D01*
X035233Y037781D02*
X033749Y037781D01*
X033780Y037682D02*
X035134Y037682D01*
X035036Y037584D02*
X033780Y037584D01*
X033752Y037485D02*
X034937Y037485D01*
X034839Y037387D02*
X033699Y037387D01*
X033588Y037288D02*
X034740Y037288D01*
X034642Y037190D02*
X030866Y037190D01*
X030964Y037091D02*
X034543Y037091D01*
X034445Y036993D02*
X033531Y036993D01*
X033467Y037020D02*
X033610Y036960D01*
X033720Y036850D01*
X033780Y036707D01*
X033780Y036551D01*
X033720Y036408D01*
X033610Y036298D01*
X033467Y036238D01*
X032791Y036238D01*
X032648Y036298D01*
X032538Y036408D01*
X032478Y036551D01*
X032478Y036707D01*
X032538Y036850D01*
X032648Y036960D01*
X032791Y037020D01*
X033467Y037020D01*
X033676Y036894D02*
X034346Y036894D01*
X034248Y036796D02*
X033743Y036796D01*
X033780Y036697D02*
X034168Y036697D01*
X034168Y036599D02*
X033780Y036599D01*
X033758Y036500D02*
X034168Y036500D01*
X034168Y036402D02*
X033714Y036402D01*
X033616Y036303D02*
X034168Y036303D01*
X034168Y036205D02*
X031851Y036205D01*
X031949Y036106D02*
X034168Y036106D01*
X034168Y036008D02*
X033548Y036008D01*
X033646Y035909D02*
X034168Y035909D01*
X034168Y035811D02*
X033745Y035811D01*
X032642Y036303D02*
X031752Y036303D01*
X031654Y036402D02*
X032543Y036402D01*
X032499Y036500D02*
X031555Y036500D01*
X031457Y036599D02*
X032478Y036599D01*
X032478Y036697D02*
X031358Y036697D01*
X031260Y036796D02*
X032515Y036796D01*
X032582Y036894D02*
X031161Y036894D01*
X031063Y036993D02*
X032727Y036993D01*
X032670Y037288D02*
X030767Y037288D01*
X030699Y037387D02*
X032558Y037387D01*
X032505Y037485D02*
X030752Y037485D01*
X030780Y037584D02*
X032478Y037584D01*
X032478Y037682D02*
X030780Y037682D01*
X030749Y037781D02*
X032509Y037781D01*
X032567Y037879D02*
X030691Y037879D01*
X030567Y037978D02*
X032690Y037978D01*
X032791Y038238D02*
X033467Y038238D01*
X033610Y038298D01*
X033720Y038408D01*
X033780Y038551D01*
X033780Y038707D01*
X033720Y038850D01*
X033610Y038960D01*
X033467Y039020D01*
X032791Y039020D01*
X032648Y038960D01*
X032538Y038850D01*
X032478Y038707D01*
X032478Y038551D01*
X032538Y038408D01*
X032648Y038298D01*
X032791Y038238D01*
X032706Y038273D02*
X030552Y038273D01*
X030684Y038372D02*
X032573Y038372D01*
X032512Y038470D02*
X030746Y038470D01*
X030780Y038569D02*
X032478Y038569D01*
X032478Y038667D02*
X030780Y038667D01*
X030755Y038766D02*
X032503Y038766D01*
X032552Y038864D02*
X030706Y038864D01*
X030603Y038963D02*
X032654Y038963D01*
X032791Y039238D02*
X033467Y039238D01*
X033610Y039298D01*
X033720Y039408D01*
X033780Y039551D01*
X033780Y039707D01*
X033720Y039850D01*
X033610Y039960D01*
X033467Y040020D01*
X032791Y040020D01*
X032648Y039960D01*
X032538Y039850D01*
X032478Y039707D01*
X032478Y039551D01*
X032538Y039408D01*
X032648Y039298D01*
X032791Y039238D01*
X032742Y039258D02*
X030515Y039258D01*
X030669Y039357D02*
X032588Y039357D01*
X032518Y039455D02*
X030740Y039455D01*
X030780Y039554D02*
X032478Y039554D01*
X032478Y039652D02*
X030780Y039652D01*
X030761Y039751D02*
X032496Y039751D01*
X032537Y039849D02*
X030720Y039849D01*
X030622Y039948D02*
X032635Y039948D01*
X032778Y040243D02*
X030479Y040243D01*
X030467Y040238D02*
X030610Y040298D01*
X030720Y040408D01*
X030780Y040551D01*
X030780Y040707D01*
X030720Y040850D01*
X030610Y040960D01*
X030467Y041020D01*
X029791Y041020D01*
X029648Y040960D01*
X029538Y040850D01*
X029478Y040707D01*
X029478Y040551D01*
X029538Y040408D01*
X029648Y040298D01*
X029791Y040238D01*
X030467Y040238D01*
X030654Y040342D02*
X032603Y040342D01*
X032524Y040440D02*
X030734Y040440D01*
X030774Y040539D02*
X032483Y040539D01*
X032478Y040637D02*
X030780Y040637D01*
X030767Y040736D02*
X032490Y040736D01*
X032531Y040834D02*
X030727Y040834D01*
X030637Y040933D02*
X032620Y040933D01*
X033637Y040933D02*
X039885Y040933D01*
X039983Y041031D02*
X029083Y041031D01*
X029234Y040933D02*
X029620Y040933D01*
X029531Y040834D02*
X029310Y040834D01*
X029351Y040736D02*
X029490Y040736D01*
X029478Y040637D02*
X029360Y040637D01*
X029358Y040539D02*
X029483Y040539D01*
X029524Y040440D02*
X029317Y040440D01*
X029251Y040342D02*
X029603Y040342D01*
X029778Y040243D02*
X029124Y040243D01*
X028679Y041228D02*
X028579Y041228D01*
X028579Y041327D02*
X028679Y041327D01*
X028679Y041425D02*
X028579Y041425D01*
X028679Y041679D02*
X029377Y041679D01*
X029368Y041734D01*
X029346Y041802D01*
X029314Y041865D01*
X029272Y041922D01*
X029222Y041972D01*
X029165Y042014D01*
X029102Y042046D01*
X029034Y042068D01*
X028964Y042079D01*
X028679Y042079D01*
X028679Y041679D01*
X028679Y041721D02*
X028579Y041721D01*
X028579Y041819D02*
X028679Y041819D01*
X028679Y041918D02*
X028579Y041918D01*
X028579Y042016D02*
X028679Y042016D01*
X029159Y042016D02*
X032901Y042016D01*
X032943Y041975D02*
X033063Y041925D01*
X033194Y041925D01*
X033315Y041975D01*
X033383Y042043D01*
X042125Y042043D01*
X042192Y041976D01*
X041712Y041976D01*
X041636Y041899D01*
X041636Y041358D01*
X041712Y041282D01*
X041713Y041282D01*
X041713Y041167D01*
X041712Y041167D01*
X041636Y041090D01*
X041636Y041075D01*
X041631Y041094D01*
X041611Y041128D01*
X041583Y041156D01*
X041549Y041176D01*
X041511Y041186D01*
X041362Y041186D01*
X041362Y040908D01*
X041305Y040908D01*
X041305Y041186D01*
X041156Y041186D01*
X041118Y041176D01*
X041084Y041156D01*
X041056Y041128D01*
X041036Y041094D01*
X041026Y041056D01*
X041026Y040908D01*
X041305Y040908D01*
X041305Y040850D01*
X041362Y040850D01*
X041362Y040571D01*
X041511Y040571D01*
X041549Y040582D01*
X041583Y040601D01*
X041611Y040629D01*
X041631Y040663D01*
X041636Y040682D01*
X041636Y040667D01*
X041712Y040591D01*
X042136Y040591D01*
X042212Y040667D01*
X042212Y041090D01*
X042136Y041167D01*
X042135Y041167D01*
X042135Y041282D01*
X042214Y041282D01*
X042291Y041358D01*
X042291Y041899D01*
X042232Y041959D01*
X042313Y041925D01*
X042444Y041925D01*
X042565Y041975D01*
X042658Y042068D01*
X042708Y042188D01*
X042708Y042319D01*
X042658Y042440D01*
X042565Y042533D01*
X042444Y042583D01*
X042329Y042583D01*
X047004Y047258D01*
X047110Y047258D01*
X047434Y047582D01*
X047434Y047690D01*
X047138Y047986D01*
X047030Y047986D01*
X046706Y047662D01*
X046706Y047556D01*
X042115Y042965D01*
X040758Y042965D01*
X040690Y043033D01*
X040569Y043083D01*
X040438Y043083D01*
X040318Y043033D01*
X040225Y042940D01*
X040175Y042819D01*
X040175Y042688D01*
X040225Y042568D01*
X040318Y042475D01*
X040343Y042465D01*
X033383Y042465D01*
X033315Y042533D01*
X033194Y042583D01*
X033063Y042583D01*
X032943Y042533D01*
X032850Y042440D01*
X032800Y042319D01*
X032800Y042188D01*
X032850Y042068D01*
X032943Y041975D01*
X032830Y042115D02*
X026889Y042115D01*
X026791Y042213D02*
X032800Y042213D01*
X032800Y042312D02*
X026692Y042312D01*
X026594Y042410D02*
X032838Y042410D01*
X032919Y042509D02*
X026495Y042509D01*
X026397Y042607D02*
X040209Y042607D01*
X040175Y042706D02*
X026298Y042706D01*
X026200Y042804D02*
X040175Y042804D01*
X040210Y042903D02*
X026101Y042903D01*
X026003Y043001D02*
X040286Y043001D01*
X040721Y043001D02*
X042152Y043001D01*
X042250Y043100D02*
X025904Y043100D01*
X029275Y041918D02*
X034241Y041918D01*
X034241Y041940D02*
X034241Y041317D01*
X034317Y041241D01*
X034940Y041241D01*
X035017Y041317D01*
X035017Y041940D01*
X034940Y042017D01*
X034317Y042017D01*
X034241Y041940D01*
X034317Y042016D02*
X033356Y042016D01*
X033339Y042509D02*
X040284Y042509D01*
X039849Y041958D02*
X039706Y042017D01*
X039552Y042017D01*
X039409Y041958D01*
X039300Y041849D01*
X039241Y041706D01*
X039241Y041552D01*
X039300Y041409D01*
X039409Y041300D01*
X039552Y041241D01*
X039706Y041241D01*
X039849Y041300D01*
X039958Y041409D01*
X040017Y041552D01*
X040017Y041706D01*
X039958Y041849D01*
X039849Y041958D01*
X039889Y041918D02*
X040985Y041918D01*
X040771Y041819D02*
X039970Y041819D01*
X040011Y041721D02*
X040673Y041721D01*
X040574Y041622D02*
X040017Y041622D01*
X040006Y041524D02*
X040476Y041524D01*
X040377Y041425D02*
X039965Y041425D01*
X039876Y041327D02*
X040279Y041327D01*
X040382Y040834D02*
X040418Y040834D01*
X040418Y040736D02*
X040284Y040736D01*
X040185Y040637D02*
X040418Y040637D01*
X040339Y040539D02*
X040087Y040539D01*
X039988Y040440D02*
X040300Y040440D01*
X040300Y040342D02*
X039956Y040342D01*
X039956Y040243D02*
X040329Y040243D01*
X040398Y040145D02*
X039908Y040145D01*
X039971Y040046D02*
X041164Y040046D01*
X041164Y040105D02*
X041164Y039742D01*
X041579Y039742D01*
X041579Y040236D01*
X041294Y040236D01*
X041256Y040225D01*
X041222Y040206D01*
X041194Y040178D01*
X041174Y040143D01*
X041164Y040105D01*
X041175Y040145D02*
X040860Y040145D01*
X040929Y040243D02*
X043179Y040243D01*
X043179Y040145D02*
X042083Y040145D01*
X042084Y040143D02*
X042064Y040178D01*
X042036Y040206D01*
X042002Y040225D01*
X041964Y040236D01*
X041679Y040236D01*
X041679Y039742D01*
X041579Y039742D01*
X041579Y039642D01*
X041164Y039642D01*
X041164Y039278D01*
X041174Y039240D01*
X041194Y039206D01*
X041222Y039178D01*
X041256Y039158D01*
X041294Y039148D01*
X041579Y039148D01*
X041579Y039642D01*
X041679Y039642D01*
X041679Y039742D01*
X042094Y039742D01*
X042094Y040105D01*
X042084Y040143D01*
X042094Y040046D02*
X043179Y040046D01*
X043179Y039948D02*
X042094Y039948D01*
X042094Y039849D02*
X043179Y039849D01*
X043179Y039751D02*
X042094Y039751D01*
X042094Y039642D02*
X042094Y039278D01*
X042084Y039240D01*
X042064Y039206D01*
X042036Y039178D01*
X042002Y039158D01*
X041964Y039148D01*
X041679Y039148D01*
X041679Y039642D01*
X042094Y039642D01*
X042094Y039554D02*
X043179Y039554D01*
X043179Y039652D02*
X041679Y039652D01*
X041679Y039554D02*
X041579Y039554D01*
X041579Y039652D02*
X039976Y039652D01*
X039976Y039746D02*
X039677Y039746D01*
X039677Y039428D01*
X039845Y039428D01*
X039884Y039438D01*
X039918Y039458D01*
X039946Y039486D01*
X039965Y039520D01*
X039976Y039558D01*
X039976Y039746D01*
X039976Y039849D02*
X041164Y039849D01*
X041164Y039751D02*
X039677Y039751D01*
X039580Y039751D02*
X038677Y039751D01*
X038677Y039746D02*
X038976Y039746D01*
X038976Y039558D01*
X038965Y039520D01*
X038946Y039486D01*
X038918Y039458D01*
X038884Y039438D01*
X038845Y039428D01*
X038677Y039428D01*
X038677Y039746D01*
X038677Y039652D02*
X038580Y039652D01*
X038580Y039554D02*
X038677Y039554D01*
X038677Y039455D02*
X038580Y039455D01*
X038344Y039455D02*
X036395Y039455D01*
X036403Y039458D02*
X036437Y039477D01*
X036465Y039505D01*
X036485Y039539D01*
X036495Y039578D01*
X036495Y039746D01*
X036177Y039746D01*
X036177Y039447D01*
X036365Y039447D01*
X036403Y039458D01*
X036489Y039554D02*
X038283Y039554D01*
X038282Y039652D02*
X038042Y039652D01*
X038090Y039751D02*
X038580Y039751D01*
X038282Y039849D02*
X038090Y039849D01*
X038090Y039948D02*
X038282Y039948D01*
X038286Y040046D02*
X038090Y040046D01*
X038349Y040145D02*
X037570Y040145D01*
X037570Y040243D02*
X038301Y040243D01*
X038118Y040342D02*
X037570Y040342D01*
X037434Y040834D02*
X037193Y040834D01*
X037409Y041300D02*
X037300Y041409D01*
X037241Y041552D01*
X037241Y041706D01*
X037300Y041849D01*
X037409Y041958D01*
X037552Y042017D01*
X037706Y042017D01*
X037849Y041958D01*
X037958Y041849D01*
X038017Y041706D01*
X038017Y041552D01*
X037958Y041409D01*
X037849Y041300D01*
X037706Y041241D01*
X037552Y041241D01*
X037409Y041300D01*
X037382Y041327D02*
X036903Y041327D01*
X036982Y041425D02*
X037293Y041425D01*
X037252Y041524D02*
X037023Y041524D01*
X037027Y041721D02*
X037247Y041721D01*
X037241Y041622D02*
X036658Y041622D01*
X036600Y041622D02*
X036017Y041622D01*
X036017Y041552D02*
X036017Y041706D01*
X035958Y041849D01*
X035849Y041958D01*
X035706Y042017D01*
X035552Y042017D01*
X035409Y041958D01*
X035300Y041849D01*
X035241Y041706D01*
X035241Y041552D01*
X035300Y041409D01*
X035409Y041300D01*
X035552Y041241D01*
X035706Y041241D01*
X035849Y041300D01*
X035958Y041409D01*
X036017Y041552D01*
X036006Y041524D02*
X036234Y041524D01*
X036275Y041425D02*
X035965Y041425D01*
X035876Y041327D02*
X036355Y041327D01*
X036600Y041327D02*
X036658Y041327D01*
X036658Y041425D02*
X036600Y041425D01*
X036600Y041524D02*
X036658Y041524D01*
X036658Y041721D02*
X036600Y041721D01*
X036600Y041819D02*
X036658Y041819D01*
X036658Y041918D02*
X036600Y041918D01*
X036600Y042016D02*
X036658Y042016D01*
X036755Y042016D02*
X037550Y042016D01*
X037708Y042016D02*
X038550Y042016D01*
X038552Y042017D02*
X038409Y041958D01*
X038300Y041849D01*
X038241Y041706D01*
X038241Y041552D01*
X038300Y041409D01*
X038409Y041300D01*
X038552Y041241D01*
X038706Y041241D01*
X038849Y041300D01*
X038958Y041409D01*
X039017Y041552D01*
X039017Y041706D01*
X038958Y041849D01*
X038849Y041958D01*
X038706Y042017D01*
X038552Y042017D01*
X038708Y042016D02*
X039550Y042016D01*
X039708Y042016D02*
X042151Y042016D01*
X042273Y041918D02*
X043781Y041918D01*
X043683Y041819D02*
X042291Y041819D01*
X042291Y041721D02*
X043584Y041721D01*
X043486Y041622D02*
X042291Y041622D01*
X042291Y041524D02*
X043387Y041524D01*
X043289Y041425D02*
X042291Y041425D01*
X042260Y041327D02*
X043224Y041327D01*
X043183Y041228D02*
X042135Y041228D01*
X042173Y041130D02*
X043179Y041130D01*
X043179Y041031D02*
X042212Y041031D01*
X042212Y040933D02*
X043179Y040933D01*
X043179Y040834D02*
X042212Y040834D01*
X042212Y040736D02*
X043179Y040736D01*
X043179Y040637D02*
X042182Y040637D01*
X041666Y040637D02*
X041616Y040637D01*
X041362Y040637D02*
X041305Y040637D01*
X041305Y040571D02*
X041305Y040850D01*
X041026Y040850D01*
X041026Y040702D01*
X041036Y040663D01*
X041056Y040629D01*
X041084Y040601D01*
X041118Y040582D01*
X041156Y040571D01*
X041305Y040571D01*
X041305Y040736D02*
X041362Y040736D01*
X041362Y040834D02*
X041305Y040834D01*
X041305Y040933D02*
X041362Y040933D01*
X041362Y041031D02*
X041305Y041031D01*
X041305Y041130D02*
X041362Y041130D01*
X041610Y041130D02*
X041675Y041130D01*
X041713Y041228D02*
X040840Y041228D01*
X040840Y041130D02*
X041057Y041130D01*
X041026Y041031D02*
X040840Y041031D01*
X040840Y040933D02*
X041026Y040933D01*
X041026Y040834D02*
X040840Y040834D01*
X040840Y040736D02*
X041026Y040736D01*
X041051Y040637D02*
X040840Y040637D01*
X040918Y040539D02*
X043179Y040539D01*
X043179Y040440D02*
X040958Y040440D01*
X040958Y040342D02*
X043179Y040342D01*
X043179Y039455D02*
X042094Y039455D01*
X042094Y039357D02*
X043179Y039357D01*
X043179Y039258D02*
X042088Y039258D01*
X042004Y039160D02*
X043179Y039160D01*
X043179Y039061D02*
X030340Y039061D01*
X030340Y039160D02*
X041253Y039160D01*
X041169Y039258D02*
X033515Y039258D01*
X033669Y039357D02*
X041164Y039357D01*
X041164Y039455D02*
X039914Y039455D01*
X039975Y039554D02*
X041164Y039554D01*
X041164Y039948D02*
X039976Y039948D01*
X039677Y039652D02*
X039580Y039652D01*
X039580Y039554D02*
X039677Y039554D01*
X039677Y039455D02*
X039580Y039455D01*
X039344Y039455D02*
X038914Y039455D01*
X038975Y039554D02*
X039283Y039554D01*
X039282Y039652D02*
X038976Y039652D01*
X038976Y039849D02*
X039282Y039849D01*
X039282Y039948D02*
X038976Y039948D01*
X038971Y040046D02*
X039286Y040046D01*
X039349Y040145D02*
X038908Y040145D01*
X038956Y040243D02*
X039301Y040243D01*
X039303Y040736D02*
X038955Y040736D01*
X038876Y041327D02*
X039382Y041327D01*
X039293Y041425D02*
X038965Y041425D01*
X039006Y041524D02*
X039252Y041524D01*
X039241Y041622D02*
X039017Y041622D01*
X039011Y041721D02*
X039247Y041721D01*
X039288Y041819D02*
X038970Y041819D01*
X038889Y041918D02*
X039369Y041918D01*
X038369Y041918D02*
X037889Y041918D01*
X037970Y041819D02*
X038288Y041819D01*
X038247Y041721D02*
X038011Y041721D01*
X038017Y041622D02*
X038241Y041622D01*
X038252Y041524D02*
X038006Y041524D01*
X037965Y041425D02*
X038293Y041425D01*
X038382Y041327D02*
X037876Y041327D01*
X038221Y040834D02*
X039786Y040834D01*
X040875Y041327D02*
X040998Y041327D01*
X041590Y041327D02*
X041667Y041327D01*
X041636Y041425D02*
X041622Y041425D01*
X041622Y041524D02*
X041636Y041524D01*
X041622Y041622D02*
X041636Y041622D01*
X041622Y041721D02*
X041636Y041721D01*
X041622Y041819D02*
X041636Y041819D01*
X041654Y041918D02*
X041603Y041918D01*
X042606Y042016D02*
X043880Y042016D01*
X043978Y042115D02*
X042677Y042115D01*
X042708Y042213D02*
X044077Y042213D01*
X044175Y042312D02*
X042708Y042312D01*
X042670Y042410D02*
X044274Y042410D01*
X044372Y042509D02*
X042589Y042509D01*
X042452Y042706D02*
X044569Y042706D01*
X044471Y042607D02*
X042354Y042607D01*
X042551Y042804D02*
X044668Y042804D01*
X044766Y042903D02*
X042649Y042903D01*
X042748Y043001D02*
X044865Y043001D01*
X044963Y043100D02*
X042846Y043100D01*
X042945Y043198D02*
X045062Y043198D01*
X045160Y043297D02*
X043043Y043297D01*
X043142Y043395D02*
X045259Y043395D01*
X045357Y043494D02*
X043240Y043494D01*
X043339Y043592D02*
X045456Y043592D01*
X045554Y043691D02*
X043437Y043691D01*
X043536Y043789D02*
X045653Y043789D01*
X045751Y043888D02*
X043634Y043888D01*
X043733Y043986D02*
X045850Y043986D01*
X045948Y044085D02*
X043831Y044085D01*
X043930Y044183D02*
X046047Y044183D01*
X046145Y044282D02*
X044028Y044282D01*
X044127Y044380D02*
X046244Y044380D01*
X046342Y044479D02*
X044225Y044479D01*
X044324Y044577D02*
X046441Y044577D01*
X046539Y044676D02*
X044422Y044676D01*
X044521Y044774D02*
X046638Y044774D01*
X046736Y044873D02*
X044619Y044873D01*
X044718Y044971D02*
X046835Y044971D01*
X046933Y045070D02*
X044816Y045070D01*
X044915Y045168D02*
X047032Y045168D01*
X047130Y045267D02*
X045013Y045267D01*
X045112Y045365D02*
X047229Y045365D01*
X047327Y045464D02*
X045210Y045464D01*
X045309Y045562D02*
X047426Y045562D01*
X047524Y045661D02*
X045407Y045661D01*
X045506Y045759D02*
X047623Y045759D01*
X047721Y045858D02*
X045604Y045858D01*
X045703Y045956D02*
X047820Y045956D01*
X047918Y046055D02*
X045801Y046055D01*
X045900Y046153D02*
X048017Y046153D01*
X048115Y046252D02*
X045998Y046252D01*
X046097Y046350D02*
X048214Y046350D01*
X048312Y046449D02*
X046195Y046449D01*
X046294Y046547D02*
X048411Y046547D01*
X048509Y046646D02*
X046392Y046646D01*
X046491Y046744D02*
X047488Y046744D01*
X047501Y046731D02*
X047536Y046711D01*
X047574Y046701D01*
X047613Y046701D01*
X047651Y046711D01*
X047686Y046731D01*
X047804Y046849D01*
X047608Y047045D01*
X047646Y047084D01*
X047843Y046888D01*
X047961Y047006D01*
X047981Y047041D01*
X047991Y047079D01*
X047991Y047118D01*
X047981Y047156D01*
X047961Y047191D01*
X047857Y047295D01*
X047646Y047084D01*
X047608Y047123D01*
X047818Y047334D01*
X047714Y047438D01*
X047680Y047457D01*
X047641Y047468D01*
X047602Y047468D01*
X047564Y047457D01*
X047530Y047438D01*
X047411Y047319D01*
X047608Y047123D01*
X047569Y047084D01*
X047608Y047045D01*
X047397Y046835D01*
X047501Y046731D01*
X047405Y046843D02*
X046589Y046843D01*
X046688Y046941D02*
X047291Y046941D01*
X047254Y046978D02*
X047358Y046874D01*
X047569Y047084D01*
X047372Y047281D01*
X047254Y047162D01*
X047234Y047128D01*
X047224Y047090D01*
X047224Y047050D01*
X047234Y047012D01*
X047254Y046978D01*
X047227Y047040D02*
X046786Y047040D01*
X046885Y047138D02*
X047240Y047138D01*
X047329Y047237D02*
X046983Y047237D01*
X047188Y047335D02*
X047427Y047335D01*
X047416Y047237D02*
X047494Y047237D01*
X047515Y047138D02*
X047592Y047138D01*
X047623Y047138D02*
X047701Y047138D01*
X047691Y047040D02*
X047613Y047040D01*
X047602Y047040D02*
X047524Y047040D01*
X047504Y046941D02*
X047426Y046941D01*
X047712Y046941D02*
X047789Y046941D01*
X047797Y046843D02*
X048706Y046843D01*
X048608Y046744D02*
X047699Y046744D01*
X047896Y046941D02*
X048805Y046941D01*
X048903Y047040D02*
X047980Y047040D01*
X047986Y047138D02*
X049002Y047138D01*
X049100Y047237D02*
X047915Y047237D01*
X047799Y047237D02*
X047721Y047237D01*
X047816Y047335D02*
X049199Y047335D01*
X049297Y047434D02*
X047718Y047434D01*
X047836Y047555D02*
X047541Y047850D01*
X047541Y047959D01*
X047694Y048112D01*
X047694Y048536D01*
X047632Y048685D01*
X047632Y048856D01*
X047698Y049014D01*
X048243Y049560D01*
X048402Y049625D01*
X048573Y049625D01*
X048606Y049611D01*
X048711Y049716D01*
X048834Y049840D01*
X049042Y049840D01*
X049248Y050046D01*
X049219Y050075D01*
X049219Y050184D01*
X049574Y050538D01*
X049682Y050538D01*
X050065Y050156D01*
X050065Y050065D01*
X050156Y050065D01*
X050219Y050002D01*
X050506Y050288D01*
X050442Y050352D01*
X050442Y050442D01*
X050352Y050442D01*
X049969Y050825D01*
X049969Y050934D01*
X050324Y051288D01*
X050432Y051288D01*
X050496Y051225D01*
X050783Y051512D01*
X050719Y051575D01*
X050719Y051684D01*
X051074Y052038D01*
X051182Y052038D01*
X051395Y051826D01*
X051528Y051826D01*
X052885Y053183D01*
X052857Y053211D01*
X052606Y053645D01*
X052476Y054128D01*
X052476Y054629D01*
X052606Y055113D01*
X052857Y055547D01*
X053211Y055901D01*
X053645Y056152D01*
X054128Y056281D01*
X054629Y056281D01*
X055113Y056152D01*
X055547Y055901D01*
X055901Y055547D01*
X056152Y055113D01*
X056281Y054629D01*
X056281Y054128D01*
X056152Y053645D01*
X055901Y053211D01*
X055547Y052857D01*
X055113Y052606D01*
X054629Y052476D01*
X054128Y052476D01*
X053645Y052606D01*
X053211Y052857D01*
X053183Y052885D01*
X051773Y051475D01*
X051826Y051422D01*
X051615Y051211D01*
X051684Y051142D01*
X051909Y050917D01*
X052028Y051036D01*
X052048Y051070D01*
X052058Y051109D01*
X052058Y051148D01*
X052048Y051186D01*
X052028Y051220D01*
X051895Y051353D01*
X051684Y051142D01*
X051615Y051074D01*
X051404Y050863D01*
X051537Y050730D01*
X051571Y050710D01*
X051610Y050700D01*
X051649Y050700D01*
X051687Y050710D01*
X051721Y050730D01*
X051840Y050849D01*
X051615Y051074D01*
X051547Y051142D01*
X051336Y050931D01*
X051203Y051064D01*
X051183Y051098D01*
X051173Y051136D01*
X051173Y051176D01*
X051178Y051192D01*
X051102Y051192D01*
X051038Y051256D01*
X050752Y050969D01*
X050815Y050906D01*
X050815Y050815D01*
X050906Y050815D01*
X051288Y050432D01*
X051288Y050324D01*
X050934Y049969D01*
X050825Y049969D01*
X050762Y050033D01*
X050475Y049746D01*
X050538Y049682D01*
X050538Y049574D01*
X050184Y049219D01*
X050075Y049219D01*
X050046Y049248D01*
X049840Y049042D01*
X049840Y048834D01*
X049716Y048711D01*
X049611Y048606D01*
X049625Y048573D01*
X049625Y048402D01*
X049560Y048243D01*
X049014Y047698D01*
X048856Y047632D01*
X048685Y047632D01*
X048526Y047698D01*
X048405Y047819D01*
X048340Y047977D01*
X048340Y048149D01*
X048405Y048307D01*
X048951Y048853D01*
X049109Y048918D01*
X049280Y048918D01*
X049313Y048904D01*
X049418Y049009D01*
X049418Y049216D01*
X049748Y049546D01*
X049692Y049602D01*
X049692Y049692D01*
X049602Y049692D01*
X049546Y049748D01*
X049216Y049418D01*
X049009Y049418D01*
X048904Y049313D01*
X048918Y049280D01*
X048918Y049109D01*
X048853Y048951D01*
X048307Y048405D01*
X048149Y048340D01*
X048115Y048340D01*
X048115Y048140D01*
X048269Y047987D01*
X048269Y047879D01*
X047945Y047555D01*
X047836Y047555D01*
X047760Y047631D02*
X047434Y047631D01*
X047395Y047729D02*
X047662Y047729D01*
X047563Y047828D02*
X047296Y047828D01*
X047198Y047926D02*
X047541Y047926D01*
X047607Y048025D02*
X046161Y048025D01*
X046063Y047926D02*
X046971Y047926D01*
X046872Y047828D02*
X045964Y047828D01*
X045866Y047729D02*
X046774Y047729D01*
X046706Y047631D02*
X045767Y047631D01*
X045669Y047532D02*
X046683Y047532D01*
X046584Y047434D02*
X045570Y047434D01*
X045472Y047335D02*
X046486Y047335D01*
X046387Y047237D02*
X045373Y047237D01*
X045275Y047138D02*
X046289Y047138D01*
X046190Y047040D02*
X045176Y047040D01*
X045078Y046941D02*
X046092Y046941D01*
X045993Y046843D02*
X044979Y046843D01*
X044881Y046744D02*
X045895Y046744D01*
X045796Y046646D02*
X044782Y046646D01*
X044684Y046547D02*
X045698Y046547D01*
X045599Y046449D02*
X044585Y046449D01*
X044487Y046350D02*
X045501Y046350D01*
X045402Y046252D02*
X044388Y046252D01*
X044290Y046153D02*
X045304Y046153D01*
X045205Y046055D02*
X044191Y046055D01*
X044093Y045956D02*
X045107Y045956D01*
X045008Y045858D02*
X043994Y045858D01*
X043896Y045759D02*
X044910Y045759D01*
X044811Y045661D02*
X043797Y045661D01*
X043699Y045562D02*
X044713Y045562D01*
X044614Y045464D02*
X043600Y045464D01*
X043502Y045365D02*
X044516Y045365D01*
X044417Y045267D02*
X043403Y045267D01*
X043305Y045168D02*
X044319Y045168D01*
X044220Y045070D02*
X043206Y045070D01*
X043108Y044971D02*
X044122Y044971D01*
X044023Y044873D02*
X043009Y044873D01*
X042911Y044774D02*
X043925Y044774D01*
X043826Y044676D02*
X042812Y044676D01*
X042714Y044577D02*
X043728Y044577D01*
X043629Y044479D02*
X042615Y044479D01*
X042517Y044380D02*
X043531Y044380D01*
X043432Y044282D02*
X042418Y044282D01*
X042320Y044183D02*
X043334Y044183D01*
X043235Y044085D02*
X042221Y044085D01*
X042123Y043986D02*
X043137Y043986D01*
X043038Y043888D02*
X042024Y043888D01*
X041926Y043789D02*
X042940Y043789D01*
X042841Y043691D02*
X041827Y043691D01*
X041729Y043592D02*
X042743Y043592D01*
X042644Y043494D02*
X041630Y043494D01*
X041532Y043395D02*
X042546Y043395D01*
X042447Y043297D02*
X041433Y043297D01*
X041265Y043198D02*
X042349Y043198D01*
X041679Y040145D02*
X041579Y040145D01*
X041579Y040046D02*
X041679Y040046D01*
X041679Y039948D02*
X041579Y039948D01*
X041579Y039849D02*
X041679Y039849D01*
X041679Y039751D02*
X041579Y039751D01*
X041579Y039455D02*
X041679Y039455D01*
X041679Y039357D02*
X041579Y039357D01*
X041579Y039258D02*
X041679Y039258D01*
X041679Y039160D02*
X041579Y039160D01*
X041022Y038470D02*
X043179Y038470D01*
X043179Y038372D02*
X041121Y038372D01*
X041219Y038273D02*
X043179Y038273D01*
X043179Y038175D02*
X041318Y038175D01*
X041017Y037879D02*
X040507Y037879D01*
X040817Y037781D02*
X041116Y037781D01*
X041183Y037682D02*
X040911Y037682D01*
X040952Y037584D02*
X041183Y037584D01*
X041183Y037485D02*
X040958Y037485D01*
X040936Y037387D02*
X041183Y037387D01*
X041183Y037288D02*
X040878Y037288D01*
X040730Y037190D02*
X041183Y037190D01*
X041210Y037091D02*
X038849Y037091D01*
X038750Y036993D02*
X042592Y036993D01*
X042668Y036894D02*
X038652Y036894D01*
X038553Y036796D02*
X041460Y036796D01*
X041493Y036810D02*
X041335Y036744D01*
X041214Y036623D01*
X041148Y036464D01*
X041148Y036293D01*
X041214Y036135D01*
X041335Y036014D01*
X041493Y035948D01*
X042264Y035948D01*
X042423Y036014D01*
X042544Y036135D01*
X042610Y036293D01*
X042610Y036464D01*
X042544Y036623D01*
X042423Y036744D01*
X042264Y036810D01*
X041493Y036810D01*
X041288Y036697D02*
X038648Y036697D01*
X038722Y036599D02*
X041204Y036599D01*
X041163Y036500D02*
X040555Y036500D01*
X040654Y036402D02*
X041148Y036402D01*
X041148Y036303D02*
X040752Y036303D01*
X040851Y036205D02*
X041185Y036205D01*
X041242Y036106D02*
X040949Y036106D01*
X041048Y036008D02*
X041349Y036008D01*
X041090Y035909D02*
X042611Y035909D01*
X042668Y036008D02*
X042409Y036008D01*
X042515Y036106D02*
X042668Y036106D01*
X042668Y036205D02*
X042573Y036205D01*
X042610Y036303D02*
X042668Y036303D01*
X042668Y036402D02*
X042610Y036402D01*
X042595Y036500D02*
X042668Y036500D01*
X042668Y036599D02*
X042554Y036599D01*
X042469Y036697D02*
X042668Y036697D01*
X042668Y036796D02*
X042298Y036796D01*
X042493Y037091D02*
X042048Y037091D01*
X042074Y037190D02*
X042395Y037190D01*
X042296Y037288D02*
X042074Y037288D01*
X042074Y037781D02*
X043179Y037781D01*
X043179Y037879D02*
X042074Y037879D01*
X042074Y037978D02*
X043179Y037978D01*
X043179Y038076D02*
X042012Y038076D01*
X042498Y037682D02*
X043179Y037682D01*
X043179Y037584D02*
X042597Y037584D01*
X042695Y037485D02*
X043179Y037485D01*
X043179Y037387D02*
X042794Y037387D01*
X042892Y037288D02*
X043179Y037288D01*
X043179Y037190D02*
X042991Y037190D01*
X043089Y037091D02*
X043179Y037091D01*
X043179Y036993D02*
X043090Y036993D01*
X043090Y036894D02*
X043179Y036894D01*
X043179Y036796D02*
X043090Y036796D01*
X043090Y036697D02*
X043179Y036697D01*
X043179Y036599D02*
X043090Y036599D01*
X043090Y036500D02*
X043179Y036500D01*
X043179Y036402D02*
X043090Y036402D01*
X043090Y036303D02*
X043179Y036303D01*
X043179Y036205D02*
X043090Y036205D01*
X043090Y036106D02*
X043179Y036106D01*
X043179Y036008D02*
X043090Y036008D01*
X043090Y035909D02*
X043179Y035909D01*
X043179Y035811D02*
X043090Y035811D01*
X043010Y035712D02*
X043179Y035712D01*
X043179Y035614D02*
X042912Y035614D01*
X042813Y035515D02*
X043179Y035515D01*
X043179Y035417D02*
X042715Y035417D01*
X042616Y035318D02*
X043179Y035318D01*
X043179Y035220D02*
X042579Y035220D01*
X042530Y035121D02*
X043179Y035121D01*
X043179Y035023D02*
X042432Y035023D01*
X042439Y034727D02*
X043179Y034727D01*
X043179Y034629D02*
X042538Y034629D01*
X042582Y034530D02*
X043179Y034530D01*
X043179Y034432D02*
X042610Y034432D01*
X042610Y034333D02*
X043179Y034333D01*
X043179Y034235D02*
X042585Y034235D01*
X042545Y034136D02*
X043179Y034136D01*
X043179Y034038D02*
X042447Y034038D01*
X042424Y033742D02*
X043179Y033742D01*
X043179Y033644D02*
X042523Y033644D01*
X042576Y033545D02*
X043179Y033545D01*
X043179Y033447D02*
X042610Y033447D01*
X042610Y033348D02*
X043179Y033348D01*
X043179Y033250D02*
X042592Y033250D01*
X042551Y033151D02*
X043179Y033151D01*
X043179Y033053D02*
X042462Y033053D01*
X042279Y032954D02*
X043179Y032954D01*
X043179Y032856D02*
X040090Y032856D01*
X040813Y033742D02*
X041333Y033742D01*
X041235Y033644D02*
X040912Y033644D01*
X040715Y033841D02*
X043179Y033841D01*
X043179Y033939D02*
X040616Y033939D01*
X040590Y034038D02*
X041311Y034038D01*
X041213Y034136D02*
X040590Y034136D01*
X040590Y034235D02*
X040975Y034235D01*
X040876Y034333D02*
X040590Y034333D01*
X040590Y034432D02*
X040778Y034432D01*
X040679Y034530D02*
X040590Y034530D01*
X040590Y034629D02*
X040668Y034629D01*
X040668Y034727D02*
X040590Y034727D01*
X040590Y034826D02*
X040668Y034826D01*
X040668Y034924D02*
X040590Y034924D01*
X040590Y035023D02*
X040668Y035023D01*
X040668Y035121D02*
X040590Y035121D01*
X040590Y035220D02*
X040668Y035220D01*
X040668Y035318D02*
X040590Y035318D01*
X040590Y035417D02*
X040668Y035417D01*
X040668Y035515D02*
X040590Y035515D01*
X040590Y035614D02*
X040668Y035614D01*
X040668Y035712D02*
X040590Y035712D01*
X040649Y035811D02*
X040495Y035811D01*
X040550Y035909D02*
X040396Y035909D01*
X040452Y036008D02*
X040298Y036008D01*
X040353Y036106D02*
X040199Y036106D01*
X041090Y035811D02*
X042513Y035811D01*
X043179Y034924D02*
X041090Y034924D01*
X041090Y034826D02*
X043179Y034826D01*
X041318Y034727D02*
X041090Y034727D01*
X041177Y034629D02*
X041220Y034629D01*
X041326Y035023D02*
X041090Y035023D01*
X041090Y035121D02*
X041227Y035121D01*
X041178Y035220D02*
X041090Y035220D01*
X041090Y035318D02*
X041148Y035318D01*
X041148Y035417D02*
X041090Y035417D01*
X041090Y035515D02*
X041169Y035515D01*
X041210Y035614D02*
X041090Y035614D01*
X041090Y035712D02*
X041303Y035712D01*
X040528Y037190D02*
X038947Y037190D01*
X039046Y037288D02*
X040379Y037288D01*
X040321Y037387D02*
X039445Y037387D01*
X039418Y037978D02*
X040919Y037978D01*
X040820Y038076D02*
X039465Y038076D01*
X039476Y038569D02*
X043179Y038569D01*
X043179Y038667D02*
X033780Y038667D01*
X033780Y038569D02*
X036021Y038569D01*
X035922Y038470D02*
X033746Y038470D01*
X033684Y038372D02*
X035824Y038372D01*
X035725Y038273D02*
X033552Y038273D01*
X033755Y038766D02*
X043179Y038766D01*
X043179Y038864D02*
X033706Y038864D01*
X033603Y038963D02*
X043179Y038963D01*
X038839Y037978D02*
X036026Y037978D01*
X036124Y038076D02*
X038793Y038076D01*
X038782Y037879D02*
X037936Y037879D01*
X037936Y037781D02*
X038782Y037781D01*
X038782Y037682D02*
X037936Y037682D01*
X037936Y037584D02*
X038745Y037584D01*
X038647Y037485D02*
X037936Y037485D01*
X037936Y037387D02*
X038548Y037387D01*
X038450Y037288D02*
X037799Y037288D01*
X037799Y037190D02*
X038351Y037190D01*
X038253Y037091D02*
X037799Y037091D01*
X037791Y036993D02*
X038154Y036993D01*
X038056Y036894D02*
X037715Y036894D01*
X037715Y036796D02*
X037957Y036796D01*
X037293Y036796D02*
X034844Y036796D01*
X034942Y036894D02*
X037293Y036894D01*
X037293Y036993D02*
X035041Y036993D01*
X035139Y037091D02*
X037293Y037091D01*
X037378Y037190D02*
X035238Y037190D01*
X035336Y037288D02*
X036659Y037288D01*
X036645Y037292D02*
X036683Y037282D01*
X036871Y037282D01*
X036871Y037580D01*
X036553Y037580D01*
X036553Y037412D01*
X036563Y037374D01*
X036583Y037340D01*
X036611Y037312D01*
X036645Y037292D01*
X036559Y037387D02*
X035435Y037387D01*
X035533Y037485D02*
X036553Y037485D01*
X036553Y037677D02*
X036871Y037677D01*
X036871Y037976D01*
X036683Y037976D01*
X036645Y037965D01*
X036611Y037946D01*
X036583Y037918D01*
X036563Y037884D01*
X036553Y037845D01*
X036553Y037677D01*
X036553Y037682D02*
X035730Y037682D01*
X035632Y037584D02*
X036871Y037584D01*
X036871Y037682D02*
X036968Y037682D01*
X036968Y037781D02*
X036871Y037781D01*
X036871Y037879D02*
X036968Y037879D01*
X036968Y037485D02*
X036871Y037485D01*
X036871Y037387D02*
X036968Y037387D01*
X036968Y037288D02*
X036871Y037288D01*
X037179Y037288D02*
X037378Y037288D01*
X037226Y036697D02*
X037216Y036697D01*
X037216Y036599D02*
X037226Y036599D01*
X037216Y036500D02*
X037226Y036500D01*
X037216Y036402D02*
X037226Y036402D01*
X037216Y036303D02*
X037226Y036303D01*
X037216Y036205D02*
X037226Y036205D01*
X037216Y036106D02*
X037226Y036106D01*
X037216Y036008D02*
X037226Y036008D01*
X036715Y035417D02*
X036070Y035417D01*
X035829Y037781D02*
X036553Y037781D01*
X036562Y037879D02*
X035927Y037879D01*
X035627Y038175D02*
X027840Y038175D01*
X027840Y038273D02*
X028053Y038273D01*
X028036Y038286D02*
X028093Y038244D01*
X028156Y038212D01*
X028223Y038190D01*
X028293Y038179D01*
X028579Y038179D01*
X028579Y038579D01*
X028679Y038579D01*
X028679Y038679D01*
X028579Y038679D01*
X028579Y039079D01*
X028293Y039079D01*
X028223Y039068D01*
X028156Y039046D01*
X028093Y039014D01*
X028036Y038972D01*
X027986Y038922D01*
X027944Y038865D01*
X027912Y038802D01*
X027890Y038734D01*
X027881Y038679D01*
X028579Y038679D01*
X028579Y038579D01*
X027881Y038579D01*
X027890Y038523D01*
X027912Y038456D01*
X027944Y038393D01*
X027986Y038336D01*
X028036Y038286D01*
X027959Y038372D02*
X027840Y038372D01*
X027840Y038470D02*
X027907Y038470D01*
X027883Y038569D02*
X027840Y038569D01*
X027840Y038667D02*
X028579Y038667D01*
X028579Y038569D02*
X028679Y038569D01*
X028679Y038579D02*
X028679Y038179D01*
X028964Y038179D01*
X029034Y038190D01*
X029102Y038212D01*
X029165Y038244D01*
X029222Y038286D01*
X029272Y038336D01*
X029314Y038393D01*
X029346Y038456D01*
X029368Y038523D01*
X029377Y038579D01*
X028679Y038579D01*
X028679Y038667D02*
X029478Y038667D01*
X029478Y038569D02*
X029375Y038569D01*
X029350Y038470D02*
X029512Y038470D01*
X029573Y038372D02*
X029298Y038372D01*
X029205Y038273D02*
X029706Y038273D01*
X029690Y037978D02*
X029189Y037978D01*
X029287Y037879D02*
X029567Y037879D01*
X029558Y037387D02*
X029295Y037387D01*
X029197Y037288D02*
X029670Y037288D01*
X029727Y036993D02*
X029174Y036993D01*
X029272Y036894D02*
X029582Y036894D01*
X029543Y036402D02*
X029301Y036402D01*
X029212Y036303D02*
X029642Y036303D01*
X029257Y035909D02*
X030550Y035909D01*
X030452Y036008D02*
X029139Y036008D01*
X029031Y036205D02*
X030255Y036205D01*
X030353Y036106D02*
X027840Y036106D01*
X029320Y035811D02*
X030649Y035811D01*
X030747Y035712D02*
X029360Y035712D01*
X029360Y035614D02*
X030846Y035614D01*
X030944Y035515D02*
X029348Y035515D01*
X029307Y035417D02*
X031043Y035417D01*
X031141Y035318D02*
X029227Y035318D01*
X029067Y035220D02*
X031240Y035220D01*
X029377Y038679D02*
X028679Y038679D01*
X028679Y039079D01*
X028964Y039079D01*
X029034Y039068D01*
X029102Y039046D01*
X029165Y039014D01*
X029222Y038972D01*
X029272Y038922D01*
X029314Y038865D01*
X029346Y038802D01*
X029368Y038734D01*
X029377Y038679D01*
X029357Y038766D02*
X029503Y038766D01*
X029552Y038864D02*
X029314Y038864D01*
X029231Y038963D02*
X029654Y038963D01*
X029918Y039061D02*
X029054Y039061D01*
X028679Y039061D02*
X028579Y039061D01*
X028579Y038963D02*
X028679Y038963D01*
X028679Y038864D02*
X028579Y038864D01*
X028579Y038766D02*
X028679Y038766D01*
X028679Y038470D02*
X028579Y038470D01*
X028579Y038372D02*
X028679Y038372D01*
X028679Y038273D02*
X028579Y038273D01*
X027900Y038766D02*
X027840Y038766D01*
X027840Y038864D02*
X027944Y038864D01*
X028026Y038963D02*
X027840Y038963D01*
X027859Y039061D02*
X028204Y039061D01*
X028056Y039258D02*
X029742Y039258D01*
X029588Y039357D02*
X028155Y039357D01*
X027958Y039160D02*
X029918Y039160D01*
X029370Y041721D02*
X034241Y041721D01*
X034241Y041819D02*
X029337Y041819D01*
X033479Y040243D02*
X034216Y040243D01*
X034118Y040342D02*
X033654Y040342D01*
X033622Y039948D02*
X034782Y039948D01*
X034782Y039849D02*
X033720Y039849D01*
X033761Y039751D02*
X035080Y039751D01*
X035177Y039751D02*
X036080Y039751D01*
X036177Y039751D02*
X036538Y039751D01*
X036538Y039849D02*
X036495Y039849D01*
X036495Y039948D02*
X036538Y039948D01*
X036538Y040046D02*
X036486Y040046D01*
X036519Y040145D02*
X036408Y040145D01*
X036476Y040243D02*
X036866Y040243D01*
X036585Y039652D02*
X036495Y039652D01*
X036177Y039652D02*
X036080Y039652D01*
X036080Y039554D02*
X036177Y039554D01*
X036177Y039455D02*
X036080Y039455D01*
X035863Y039455D02*
X035414Y039455D01*
X035418Y039458D02*
X035446Y039486D01*
X035465Y039520D01*
X035476Y039558D01*
X035476Y039746D01*
X035177Y039746D01*
X035177Y039428D01*
X035345Y039428D01*
X035384Y039438D01*
X035418Y039458D01*
X035475Y039554D02*
X035769Y039554D01*
X035762Y039652D02*
X035476Y039652D01*
X035476Y039849D02*
X035762Y039849D01*
X035762Y039948D02*
X035476Y039948D01*
X035471Y040046D02*
X035772Y040046D01*
X035849Y040145D02*
X035408Y040145D01*
X035456Y040243D02*
X035782Y040243D01*
X035803Y040736D02*
X035455Y040736D01*
X035382Y041327D02*
X035017Y041327D01*
X035017Y041425D02*
X035293Y041425D01*
X035252Y041524D02*
X035017Y041524D01*
X035017Y041622D02*
X035241Y041622D01*
X035247Y041721D02*
X035017Y041721D01*
X035017Y041819D02*
X035288Y041819D01*
X035369Y041918D02*
X035017Y041918D01*
X034941Y042016D02*
X035550Y042016D01*
X035708Y042016D02*
X036503Y042016D01*
X036342Y041918D02*
X035889Y041918D01*
X035970Y041819D02*
X036269Y041819D01*
X036231Y041721D02*
X036011Y041721D01*
X036916Y041918D02*
X037369Y041918D01*
X037288Y041819D02*
X036989Y041819D01*
X036536Y040834D02*
X034221Y040834D01*
X034320Y040736D02*
X034803Y040736D01*
X034801Y040637D02*
X034418Y040637D01*
X034782Y039652D02*
X033780Y039652D01*
X033780Y039554D02*
X034783Y039554D01*
X034844Y039455D02*
X033740Y039455D01*
X035080Y039455D02*
X035177Y039455D01*
X035177Y039554D02*
X035080Y039554D01*
X035080Y039652D02*
X035177Y039652D01*
X037172Y039652D02*
X037455Y039652D01*
X037408Y039751D02*
X037396Y039751D01*
X042391Y032757D02*
X043179Y032757D01*
X043179Y032659D02*
X042508Y032659D01*
X042570Y032560D02*
X043179Y032560D01*
X043179Y032462D02*
X042610Y032462D01*
X042610Y032363D02*
X043179Y032363D01*
X043179Y032265D02*
X042598Y032265D01*
X042557Y032166D02*
X043179Y032166D01*
X043179Y032068D02*
X042477Y032068D01*
X037590Y030295D02*
X037558Y030295D01*
X033625Y028423D02*
X033481Y028423D01*
X033527Y028325D02*
X033401Y028325D01*
X033428Y028226D02*
X033192Y028226D01*
X033158Y028226D02*
X033100Y028226D01*
X033100Y028221D02*
X033100Y028600D01*
X032721Y028600D01*
X032721Y028597D01*
X032731Y028533D01*
X032751Y028472D01*
X032780Y028415D01*
X032818Y028363D01*
X032863Y028318D01*
X032915Y028280D01*
X032972Y028251D01*
X033033Y028231D01*
X033097Y028221D01*
X033100Y028221D01*
X033065Y028226D02*
X032829Y028226D01*
X032857Y028325D02*
X032731Y028325D01*
X032776Y028423D02*
X032632Y028423D01*
X032534Y028522D02*
X032735Y028522D01*
X033100Y028522D02*
X033158Y028522D01*
X033158Y028423D02*
X033100Y028423D01*
X033100Y028325D02*
X033158Y028325D01*
X033330Y028128D02*
X032928Y028128D01*
X033026Y028029D02*
X033231Y028029D01*
X033158Y028719D02*
X033100Y028719D01*
X033100Y028817D02*
X033158Y028817D01*
X033158Y028916D02*
X033100Y028916D01*
X033100Y029014D02*
X033158Y029014D01*
X026882Y026847D02*
X024984Y026847D01*
X024885Y026749D02*
X026823Y026749D01*
X026800Y026650D02*
X024787Y026650D01*
X024688Y026552D02*
X026805Y026552D01*
X026707Y026453D02*
X024590Y026453D01*
X024491Y026355D02*
X026608Y026355D01*
X026510Y026256D02*
X024393Y026256D01*
X024294Y026158D02*
X026411Y026158D01*
X026313Y026059D02*
X024196Y026059D01*
X024097Y025961D02*
X026214Y025961D01*
X026116Y025862D02*
X023999Y025862D01*
X023900Y025764D02*
X026017Y025764D01*
X025919Y025665D02*
X023802Y025665D01*
X023703Y025567D02*
X025820Y025567D01*
X025722Y025468D02*
X023605Y025468D01*
X023506Y025370D02*
X025623Y025370D01*
X025525Y025271D02*
X023408Y025271D01*
X023309Y025173D02*
X025426Y025173D01*
X025328Y025074D02*
X023211Y025074D01*
X023112Y024976D02*
X025229Y024976D01*
X025131Y024877D02*
X023014Y024877D01*
X022915Y024779D02*
X025032Y024779D01*
X024934Y024680D02*
X022817Y024680D01*
X022718Y024582D02*
X024835Y024582D01*
X024737Y024483D02*
X022620Y024483D01*
X022521Y024385D02*
X024638Y024385D01*
X024540Y024286D02*
X022423Y024286D01*
X022324Y024188D02*
X024441Y024188D01*
X024343Y024089D02*
X022226Y024089D01*
X022127Y023991D02*
X024244Y023991D01*
X024146Y023892D02*
X022029Y023892D01*
X021930Y023794D02*
X024047Y023794D01*
X023949Y023695D02*
X021832Y023695D01*
X021733Y023597D02*
X023850Y023597D01*
X023752Y023498D02*
X021635Y023498D01*
X021536Y023400D02*
X023653Y023400D01*
X023555Y023301D02*
X021438Y023301D01*
X021339Y023203D02*
X023456Y023203D01*
X023358Y023104D02*
X021241Y023104D01*
X021142Y023006D02*
X023259Y023006D01*
X023161Y022907D02*
X021044Y022907D01*
X020945Y022809D02*
X023062Y022809D01*
X022964Y022710D02*
X020847Y022710D01*
X020748Y022612D02*
X022865Y022612D01*
X022767Y022513D02*
X021770Y022513D01*
X021756Y022527D02*
X021722Y022546D01*
X021684Y022557D01*
X021644Y022557D01*
X021606Y022546D01*
X021572Y022527D01*
X021454Y022408D01*
X021650Y022212D01*
X021611Y022173D01*
X021650Y022134D01*
X021689Y022173D01*
X021885Y021977D01*
X022003Y022095D01*
X022023Y022130D01*
X022033Y022168D01*
X022033Y022207D01*
X022023Y022245D01*
X022003Y022280D01*
X021899Y022384D01*
X021689Y022173D01*
X021650Y022212D01*
X021860Y022423D01*
X021756Y022527D01*
X021853Y022415D02*
X022668Y022415D01*
X022570Y022316D02*
X021967Y022316D01*
X022031Y022218D02*
X022471Y022218D01*
X022373Y022119D02*
X022017Y022119D01*
X021929Y022021D02*
X022274Y022021D01*
X022070Y021922D02*
X021830Y021922D01*
X021846Y021938D02*
X021650Y022134D01*
X021440Y021924D01*
X021544Y021820D01*
X021578Y021800D01*
X021616Y021790D01*
X021656Y021790D01*
X021694Y021800D01*
X021728Y021820D01*
X021846Y021938D01*
X021841Y022021D02*
X021764Y022021D01*
X021743Y022119D02*
X021665Y022119D01*
X021635Y022119D02*
X021557Y022119D01*
X021611Y022173D02*
X021401Y021963D01*
X021297Y022067D01*
X021277Y022101D01*
X021267Y022139D01*
X021267Y022179D01*
X021277Y022217D01*
X021297Y022251D01*
X021415Y022370D01*
X021611Y022173D01*
X021644Y022218D02*
X021567Y022218D01*
X021656Y022218D02*
X021733Y022218D01*
X021754Y022316D02*
X021832Y022316D01*
X021546Y022316D02*
X021468Y022316D01*
X021460Y022415D02*
X020551Y022415D01*
X020650Y022513D02*
X021559Y022513D01*
X021362Y022316D02*
X020453Y022316D01*
X020354Y022218D02*
X021277Y022218D01*
X021272Y022119D02*
X020256Y022119D01*
X020157Y022021D02*
X021343Y022021D01*
X021459Y022021D02*
X021536Y022021D01*
X021441Y021922D02*
X020059Y021922D01*
X019960Y021824D02*
X021540Y021824D01*
X021732Y021824D02*
X021971Y021824D01*
X021873Y021725D02*
X019862Y021725D01*
X019763Y021627D02*
X021237Y021627D01*
X021498Y021627D02*
X021823Y021627D01*
X021863Y021528D02*
X021596Y021528D01*
X021695Y021430D02*
X021961Y021430D01*
X020937Y020839D02*
X020741Y020839D01*
X020838Y020740D02*
X020642Y020740D01*
X020544Y020642D02*
X020740Y020642D01*
X020641Y020543D02*
X020445Y020543D01*
X020347Y020445D02*
X020543Y020445D01*
X020444Y020346D02*
X020165Y020346D01*
X019961Y020346D02*
X019937Y020346D01*
X019840Y020248D02*
X020381Y020248D01*
X020340Y020149D02*
X020340Y019977D01*
X020350Y019952D02*
X019750Y019952D01*
X019652Y019854D02*
X020263Y019854D01*
X019957Y019755D02*
X019553Y019755D01*
X019564Y019657D02*
X019859Y019657D01*
X019760Y019558D02*
X019663Y019558D01*
X019615Y019142D02*
X018865Y018392D01*
X018615Y018179D02*
X018603Y018179D01*
X018951Y018770D02*
X018988Y018770D01*
X019086Y018869D02*
X018815Y018869D01*
X018754Y018967D02*
X019185Y018967D01*
X019229Y019066D02*
X018655Y019066D01*
X018557Y019164D02*
X019192Y019164D01*
X019032Y019263D02*
X018458Y019263D01*
X018298Y019263D02*
X017399Y019263D01*
X017498Y019361D02*
X018933Y019361D01*
X018835Y019460D02*
X017596Y019460D01*
X017695Y019558D02*
X018736Y019558D01*
X018719Y019657D02*
X017793Y019657D01*
X017892Y019755D02*
X018791Y019755D01*
X018889Y019854D02*
X017990Y019854D01*
X018089Y019952D02*
X018988Y019952D01*
X019253Y020051D02*
X018187Y020051D01*
X018286Y020149D02*
X019351Y020149D01*
X019418Y020248D02*
X018384Y020248D01*
X018483Y020346D02*
X019418Y020346D01*
X019440Y020445D02*
X018581Y020445D01*
X018680Y020543D02*
X019538Y020543D01*
X019637Y020642D02*
X018778Y020642D01*
X018877Y020740D02*
X019632Y020740D01*
X019632Y020839D02*
X018975Y020839D01*
X019074Y020937D02*
X019666Y020937D01*
X019720Y021036D02*
X019172Y021036D01*
X019271Y021134D02*
X019818Y021134D01*
X019917Y021233D02*
X019369Y021233D01*
X019468Y021331D02*
X020015Y021331D01*
X020114Y021430D02*
X019566Y021430D01*
X019665Y021528D02*
X020212Y021528D01*
X018200Y019164D02*
X017301Y019164D01*
X017202Y019066D02*
X018101Y019066D01*
X018003Y018967D02*
X017104Y018967D01*
X017005Y018869D02*
X017969Y018869D01*
X018024Y018770D02*
X016907Y018770D01*
X016808Y018672D02*
X018123Y018672D01*
X017290Y017588D02*
X015725Y017588D01*
X015626Y017490D02*
X017192Y017490D01*
X017093Y017391D02*
X015528Y017391D01*
X015429Y017293D02*
X016995Y017293D01*
X016896Y017194D02*
X015331Y017194D01*
X015232Y017096D02*
X016798Y017096D01*
X016699Y016997D02*
X015134Y016997D01*
X015426Y016702D02*
X016404Y016702D01*
X016502Y016800D02*
X014180Y016800D01*
X014332Y016702D02*
X013976Y016702D01*
X014061Y016603D02*
X013781Y016603D01*
X013890Y016505D02*
X013658Y016505D01*
X013720Y016406D02*
X013535Y016406D01*
X013617Y016308D02*
X013421Y016308D01*
X013343Y016209D02*
X013519Y016209D01*
X013420Y016111D02*
X013264Y016111D01*
X013337Y016012D02*
X013186Y016012D01*
X013126Y015914D02*
X013280Y015914D01*
X013223Y015815D02*
X013078Y015815D01*
X013031Y015717D02*
X013166Y015717D01*
X013109Y015618D02*
X012984Y015618D01*
X012946Y015520D02*
X013081Y015520D01*
X013055Y015421D02*
X012924Y015421D01*
X012901Y015323D02*
X013028Y015323D01*
X013002Y015224D02*
X012879Y015224D01*
X012856Y015126D02*
X012976Y015126D01*
X012976Y015027D02*
X012853Y015027D01*
X012853Y014929D02*
X012976Y014929D01*
X012976Y014830D02*
X012854Y014830D01*
X012854Y014732D02*
X012976Y014732D01*
X012976Y014633D02*
X012859Y014633D01*
X012881Y014535D02*
X013002Y014535D01*
X013028Y014436D02*
X012904Y014436D01*
X012926Y014338D02*
X013054Y014338D01*
X013081Y014239D02*
X012949Y014239D01*
X012988Y014141D02*
X013108Y014141D01*
X013165Y014042D02*
X013036Y014042D01*
X013083Y013944D02*
X013222Y013944D01*
X014626Y012860D02*
X015142Y012860D01*
X016038Y016406D02*
X016108Y016406D01*
X016207Y016505D02*
X015867Y016505D01*
X015697Y016603D02*
X016305Y016603D01*
X016601Y016899D02*
X014579Y016899D01*
X022249Y047237D02*
X023884Y047237D01*
X023786Y047335D02*
X022361Y047335D01*
X016502Y052457D02*
X014180Y052457D01*
X015426Y052556D02*
X016404Y052556D01*
X016305Y052654D02*
X015697Y052654D01*
X015867Y052753D02*
X016207Y052753D01*
X016108Y052851D02*
X016038Y052851D01*
X015142Y056397D02*
X014626Y056397D01*
X046260Y048123D02*
X047694Y048123D01*
X047694Y048222D02*
X046358Y048222D01*
X046457Y048320D02*
X047694Y048320D01*
X047694Y048419D02*
X046555Y048419D01*
X046654Y048517D02*
X047694Y048517D01*
X047661Y048616D02*
X046752Y048616D01*
X046851Y048714D02*
X047632Y048714D01*
X047632Y048813D02*
X046949Y048813D01*
X047048Y048911D02*
X047655Y048911D01*
X047696Y049010D02*
X047146Y049010D01*
X047245Y049108D02*
X047792Y049108D01*
X047891Y049207D02*
X047343Y049207D01*
X047442Y049305D02*
X047989Y049305D01*
X048088Y049404D02*
X047540Y049404D01*
X047639Y049502D02*
X048186Y049502D01*
X048343Y049601D02*
X047737Y049601D01*
X047836Y049699D02*
X048694Y049699D01*
X048793Y049798D02*
X047934Y049798D01*
X048033Y049896D02*
X049098Y049896D01*
X049197Y049995D02*
X048131Y049995D01*
X048230Y050093D02*
X049219Y050093D01*
X049228Y050192D02*
X048328Y050192D01*
X048427Y050290D02*
X049326Y050290D01*
X049425Y050389D02*
X048525Y050389D01*
X048624Y050487D02*
X049523Y050487D01*
X049734Y050487D02*
X050307Y050487D01*
X050209Y050586D02*
X048722Y050586D01*
X048821Y050684D02*
X050110Y050684D01*
X050012Y050783D02*
X048919Y050783D01*
X049018Y050881D02*
X049969Y050881D01*
X050016Y050980D02*
X049116Y050980D01*
X049215Y051078D02*
X050114Y051078D01*
X050213Y051177D02*
X049313Y051177D01*
X049412Y051275D02*
X050311Y051275D01*
X050446Y051275D02*
X050547Y051275D01*
X050645Y051374D02*
X049510Y051374D01*
X049609Y051472D02*
X050744Y051472D01*
X050724Y051571D02*
X049707Y051571D01*
X049806Y051669D02*
X050719Y051669D01*
X050804Y051768D02*
X049904Y051768D01*
X050003Y051866D02*
X050902Y051866D01*
X051001Y051965D02*
X050101Y051965D01*
X050200Y052063D02*
X051765Y052063D01*
X051667Y051965D02*
X051256Y051965D01*
X051355Y051866D02*
X051568Y051866D01*
X051864Y052162D02*
X050298Y052162D01*
X050397Y052260D02*
X051962Y052260D01*
X052061Y052359D02*
X050495Y052359D01*
X050594Y052457D02*
X052159Y052457D01*
X052258Y052556D02*
X050692Y052556D01*
X050791Y052654D02*
X052356Y052654D01*
X052455Y052753D02*
X050889Y052753D01*
X050988Y052851D02*
X052553Y052851D01*
X052652Y052950D02*
X051086Y052950D01*
X051185Y053048D02*
X052750Y053048D01*
X052849Y053147D02*
X051283Y053147D01*
X051382Y053245D02*
X052837Y053245D01*
X052780Y053344D02*
X051480Y053344D01*
X051579Y053442D02*
X052723Y053442D01*
X052666Y053541D02*
X051677Y053541D01*
X051776Y053639D02*
X052609Y053639D01*
X052581Y053738D02*
X051874Y053738D01*
X051973Y053836D02*
X052555Y053836D01*
X052528Y053935D02*
X052071Y053935D01*
X052170Y054033D02*
X052502Y054033D01*
X052476Y054132D02*
X052264Y054132D01*
X052304Y054230D02*
X052476Y054230D01*
X052476Y054329D02*
X052329Y054329D01*
X052332Y054427D02*
X052476Y054427D01*
X052476Y054526D02*
X052337Y054526D01*
X052346Y054624D02*
X052476Y054624D01*
X052502Y054723D02*
X052369Y054723D01*
X052392Y054821D02*
X052528Y054821D01*
X052554Y054920D02*
X052414Y054920D01*
X052437Y055018D02*
X052581Y055018D01*
X052608Y055117D02*
X052476Y055117D01*
X052524Y055215D02*
X052665Y055215D01*
X052722Y055314D02*
X052572Y055314D01*
X052619Y055412D02*
X052779Y055412D01*
X052836Y055511D02*
X052682Y055511D01*
X052761Y055609D02*
X052919Y055609D01*
X052840Y055708D02*
X053018Y055708D01*
X053116Y055806D02*
X052918Y055806D01*
X053036Y055905D02*
X053217Y055905D01*
X053160Y056003D02*
X053388Y056003D01*
X053284Y056102D02*
X053559Y056102D01*
X053486Y056200D02*
X053827Y056200D01*
X053691Y056299D02*
X055055Y056299D01*
X054931Y056200D02*
X055260Y056200D01*
X055199Y056102D02*
X055463Y056102D01*
X055370Y056003D02*
X055586Y056003D01*
X055540Y055905D02*
X055710Y055905D01*
X055642Y055806D02*
X055828Y055806D01*
X055906Y055708D02*
X055740Y055708D01*
X055839Y055609D02*
X055985Y055609D01*
X055922Y055511D02*
X056063Y055511D01*
X056127Y055412D02*
X055979Y055412D01*
X056036Y055314D02*
X056174Y055314D01*
X056222Y055215D02*
X056092Y055215D01*
X056149Y055117D02*
X056269Y055117D01*
X056309Y055018D02*
X056177Y055018D01*
X056203Y054920D02*
X056331Y054920D01*
X056354Y054821D02*
X056230Y054821D01*
X056256Y054723D02*
X056377Y054723D01*
X056399Y054624D02*
X056281Y054624D01*
X056281Y054526D02*
X056404Y054526D01*
X056404Y054427D02*
X056281Y054427D01*
X056281Y054329D02*
X056404Y054329D01*
X056404Y054230D02*
X056281Y054230D01*
X056281Y054132D02*
X056401Y054132D01*
X056379Y054033D02*
X056256Y054033D01*
X056229Y053935D02*
X056356Y053935D01*
X056334Y053836D02*
X056203Y053836D01*
X056177Y053738D02*
X056312Y053738D01*
X056274Y053639D02*
X056149Y053639D01*
X056092Y053541D02*
X056227Y053541D01*
X056179Y053442D02*
X056035Y053442D01*
X055978Y053344D02*
X056132Y053344D01*
X056071Y053245D02*
X055921Y053245D01*
X055993Y053147D02*
X055837Y053147D01*
X055915Y053048D02*
X055739Y053048D01*
X055837Y052950D02*
X055640Y052950D01*
X055723Y052851D02*
X055538Y052851D01*
X055599Y052753D02*
X055367Y052753D01*
X055476Y052654D02*
X055197Y052654D01*
X055281Y052556D02*
X054926Y052556D01*
X055078Y052457D02*
X052755Y052457D01*
X052657Y052359D02*
X054679Y052359D01*
X054124Y052260D02*
X052558Y052260D01*
X052460Y052162D02*
X054025Y052162D01*
X053927Y052063D02*
X052361Y052063D01*
X052263Y051965D02*
X053828Y051965D01*
X053730Y051866D02*
X052164Y051866D01*
X052066Y051768D02*
X053631Y051768D01*
X053533Y051669D02*
X051967Y051669D01*
X051869Y051571D02*
X053434Y051571D01*
X053336Y051472D02*
X051776Y051472D01*
X051779Y051374D02*
X053237Y051374D01*
X053139Y051275D02*
X051973Y051275D01*
X052050Y051177D02*
X053040Y051177D01*
X052942Y051078D02*
X052050Y051078D01*
X051971Y050980D02*
X052843Y050980D01*
X052745Y050881D02*
X051808Y050881D01*
X051774Y050783D02*
X052646Y050783D01*
X052548Y050684D02*
X051037Y050684D01*
X051135Y050586D02*
X052449Y050586D01*
X052351Y050487D02*
X051234Y050487D01*
X051288Y050389D02*
X052252Y050389D01*
X052154Y050290D02*
X051255Y050290D01*
X051156Y050192D02*
X052055Y050192D01*
X051957Y050093D02*
X051058Y050093D01*
X050959Y049995D02*
X051858Y049995D01*
X051760Y049896D02*
X050625Y049896D01*
X050527Y049798D02*
X051661Y049798D01*
X051563Y049699D02*
X050522Y049699D01*
X050538Y049601D02*
X051464Y049601D01*
X051366Y049502D02*
X050467Y049502D01*
X050368Y049404D02*
X051267Y049404D01*
X051169Y049305D02*
X050270Y049305D01*
X050005Y049207D02*
X051070Y049207D01*
X050972Y049108D02*
X049906Y049108D01*
X049840Y049010D02*
X050873Y049010D01*
X050775Y048911D02*
X049840Y048911D01*
X049818Y048813D02*
X050676Y048813D01*
X050578Y048714D02*
X049719Y048714D01*
X049621Y048616D02*
X050479Y048616D01*
X050381Y048517D02*
X049625Y048517D01*
X049625Y048419D02*
X050282Y048419D01*
X050184Y048320D02*
X049592Y048320D01*
X049538Y048222D02*
X050085Y048222D01*
X049987Y048123D02*
X049440Y048123D01*
X049341Y048025D02*
X049888Y048025D01*
X049790Y047926D02*
X049243Y047926D01*
X049144Y047828D02*
X049691Y047828D01*
X049593Y047729D02*
X049046Y047729D01*
X049396Y047532D02*
X047385Y047532D01*
X047286Y047434D02*
X047526Y047434D01*
X048021Y047631D02*
X049494Y047631D01*
X048495Y047729D02*
X048119Y047729D01*
X048218Y047828D02*
X048402Y047828D01*
X048361Y047926D02*
X048269Y047926D01*
X048231Y048025D02*
X048340Y048025D01*
X048340Y048123D02*
X048132Y048123D01*
X048115Y048222D02*
X048370Y048222D01*
X048418Y048320D02*
X048115Y048320D01*
X048321Y048419D02*
X048517Y048419D01*
X048419Y048517D02*
X048615Y048517D01*
X048518Y048616D02*
X048714Y048616D01*
X048616Y048714D02*
X048812Y048714D01*
X048715Y048813D02*
X048911Y048813D01*
X048813Y048911D02*
X049093Y048911D01*
X049296Y048911D02*
X049320Y048911D01*
X049418Y049010D02*
X048877Y049010D01*
X048918Y049108D02*
X049418Y049108D01*
X049418Y049207D02*
X048918Y049207D01*
X048908Y049305D02*
X049507Y049305D01*
X049606Y049404D02*
X048995Y049404D01*
X049300Y049502D02*
X049704Y049502D01*
X049694Y049601D02*
X049399Y049601D01*
X049497Y049699D02*
X049595Y049699D01*
X050115Y049642D02*
X050865Y050392D01*
X050504Y050290D02*
X049931Y050290D01*
X050029Y050192D02*
X050410Y050192D01*
X050311Y050093D02*
X050065Y050093D01*
X049832Y050389D02*
X050442Y050389D01*
X050392Y050865D02*
X051142Y051615D01*
X051173Y051177D02*
X050959Y051177D01*
X050861Y051078D02*
X051195Y051078D01*
X051287Y050980D02*
X050762Y050980D01*
X050815Y050881D02*
X051423Y050881D01*
X051385Y050980D02*
X051522Y050980D01*
X051483Y051078D02*
X051611Y051078D01*
X051620Y051078D02*
X051748Y051078D01*
X051719Y051177D02*
X051649Y051177D01*
X051680Y051275D02*
X051817Y051275D01*
X051846Y050980D02*
X051709Y050980D01*
X051484Y050783D02*
X050938Y050783D01*
X050800Y049995D02*
X050724Y049995D01*
X052854Y052556D02*
X053832Y052556D01*
X053561Y052654D02*
X052952Y052654D01*
X053051Y052753D02*
X053390Y052753D01*
X053220Y052851D02*
X053149Y052851D01*
X054115Y056397D02*
X054632Y056397D01*
X049396Y021725D02*
X047439Y021725D01*
X047468Y021627D02*
X047760Y021627D01*
X047850Y021717D02*
X047555Y021421D01*
X047555Y021313D01*
X047708Y021160D01*
X047708Y020741D01*
X047698Y020731D01*
X047632Y020573D01*
X047632Y020402D01*
X047698Y020243D01*
X048243Y019698D01*
X048402Y019632D01*
X048573Y019632D01*
X048606Y019646D01*
X048834Y019418D01*
X049068Y019418D01*
X049262Y019225D01*
X049219Y019182D01*
X049219Y019074D01*
X049574Y018719D01*
X049682Y018719D01*
X050065Y019102D01*
X050065Y019192D01*
X050156Y019192D01*
X050219Y019256D01*
X050506Y018969D01*
X050442Y018906D01*
X050442Y018815D01*
X050352Y018815D01*
X049969Y018432D01*
X049969Y018324D01*
X050324Y017969D01*
X050432Y017969D01*
X050675Y018211D01*
X051248Y018211D01*
X051192Y018156D01*
X051192Y018080D01*
X051176Y018084D01*
X051136Y018084D01*
X051098Y018074D01*
X051064Y018055D01*
X050931Y017922D01*
X051142Y017711D01*
X051074Y017642D01*
X051142Y017574D01*
X050917Y017349D01*
X051036Y017230D01*
X051070Y017210D01*
X051109Y017200D01*
X051148Y017200D01*
X051186Y017210D01*
X051220Y017230D01*
X051353Y017363D01*
X051142Y017574D01*
X051211Y017642D01*
X051422Y017431D01*
X051475Y017485D01*
X052885Y016075D01*
X052857Y016047D01*
X052606Y015613D01*
X052476Y015129D01*
X052476Y014628D01*
X052606Y014145D01*
X052857Y013711D01*
X053211Y013357D01*
X053645Y013106D01*
X054128Y012976D01*
X054629Y012976D01*
X055113Y013106D01*
X055547Y013357D01*
X055901Y013711D01*
X056152Y014145D01*
X056281Y014628D01*
X056281Y015129D01*
X056152Y015613D01*
X055901Y016047D01*
X055547Y016401D01*
X055113Y016652D01*
X054629Y016781D01*
X054128Y016781D01*
X053645Y016652D01*
X053211Y016401D01*
X053183Y016373D01*
X051826Y017729D01*
X051826Y017863D01*
X052038Y018075D01*
X052038Y018184D01*
X051684Y018538D01*
X051575Y018538D01*
X051512Y018475D01*
X051414Y018573D01*
X051036Y018573D01*
X051288Y018825D01*
X051288Y018934D01*
X050934Y019288D01*
X050825Y019288D01*
X050762Y019225D01*
X050475Y019512D01*
X050538Y019575D01*
X050538Y019684D01*
X050184Y020038D01*
X050075Y020038D01*
X050046Y020009D01*
X049840Y020216D01*
X049840Y020423D01*
X049716Y020547D01*
X049611Y020651D01*
X049625Y020685D01*
X049625Y020856D01*
X049560Y021014D01*
X049014Y021560D01*
X048856Y021625D01*
X048685Y021625D01*
X048526Y021560D01*
X048405Y021438D01*
X048340Y021280D01*
X048340Y021109D01*
X048405Y020951D01*
X048951Y020405D01*
X049109Y020340D01*
X049280Y020340D01*
X049313Y020353D01*
X049418Y020249D01*
X049418Y020042D01*
X049748Y019711D01*
X049692Y019656D01*
X049692Y019565D01*
X049602Y019565D01*
X049560Y019523D01*
X049366Y019716D01*
X049243Y019840D01*
X049009Y019840D01*
X048904Y019944D01*
X048918Y019977D01*
X048918Y020149D01*
X048853Y020307D01*
X048307Y020853D01*
X048149Y020918D01*
X048129Y020918D01*
X048129Y021131D01*
X048283Y021285D01*
X048283Y021393D01*
X047959Y021717D01*
X047850Y021717D01*
X048049Y021627D02*
X049494Y021627D01*
X049593Y021528D02*
X049046Y021528D01*
X049144Y021430D02*
X049691Y021430D01*
X049790Y021331D02*
X049243Y021331D01*
X049341Y021233D02*
X049888Y021233D01*
X049987Y021134D02*
X049440Y021134D01*
X049538Y021036D02*
X050085Y021036D01*
X050184Y020937D02*
X049592Y020937D01*
X049625Y020839D02*
X050282Y020839D01*
X050381Y020740D02*
X049625Y020740D01*
X049621Y020642D02*
X050479Y020642D01*
X050578Y020543D02*
X049719Y020543D01*
X049818Y020445D02*
X050676Y020445D01*
X050775Y020346D02*
X049840Y020346D01*
X049840Y020248D02*
X050873Y020248D01*
X050972Y020149D02*
X049906Y020149D01*
X050005Y020051D02*
X051070Y020051D01*
X051169Y019952D02*
X050270Y019952D01*
X050368Y019854D02*
X051267Y019854D01*
X051366Y019755D02*
X050467Y019755D01*
X050538Y019657D02*
X051464Y019657D01*
X051563Y019558D02*
X050522Y019558D01*
X050527Y019460D02*
X051661Y019460D01*
X051760Y019361D02*
X050625Y019361D01*
X050724Y019263D02*
X050800Y019263D01*
X050959Y019263D02*
X051858Y019263D01*
X051957Y019164D02*
X051058Y019164D01*
X051156Y019066D02*
X052055Y019066D01*
X052154Y018967D02*
X051255Y018967D01*
X051288Y018869D02*
X052252Y018869D01*
X052351Y018770D02*
X051234Y018770D01*
X051135Y018672D02*
X052449Y018672D01*
X052548Y018573D02*
X051037Y018573D01*
X050865Y018865D02*
X050115Y019615D01*
X049694Y019657D02*
X049426Y019657D01*
X049524Y019558D02*
X049595Y019558D01*
X049704Y019755D02*
X049327Y019755D01*
X049507Y019952D02*
X048908Y019952D01*
X048918Y020051D02*
X049418Y020051D01*
X049418Y020149D02*
X048918Y020149D01*
X048877Y020248D02*
X049418Y020248D01*
X049320Y020346D02*
X049296Y020346D01*
X049093Y020346D02*
X048813Y020346D01*
X048715Y020445D02*
X048911Y020445D01*
X048812Y020543D02*
X048616Y020543D01*
X048518Y020642D02*
X048714Y020642D01*
X048615Y020740D02*
X048419Y020740D01*
X048321Y020839D02*
X048517Y020839D01*
X048418Y020937D02*
X048129Y020937D01*
X048129Y021036D02*
X048370Y021036D01*
X048340Y021134D02*
X048132Y021134D01*
X048231Y021233D02*
X048340Y021233D01*
X048361Y021331D02*
X048283Y021331D01*
X048246Y021430D02*
X048402Y021430D01*
X048495Y021528D02*
X048148Y021528D01*
X047662Y021528D02*
X047422Y021528D01*
X047563Y021430D02*
X047266Y021430D01*
X047245Y021528D02*
X047167Y021528D01*
X047146Y021627D02*
X047100Y021627D01*
X047069Y021627D02*
X047022Y021627D01*
X047045Y021650D02*
X046849Y021454D01*
X046731Y021572D01*
X046711Y021606D01*
X046701Y021644D01*
X046701Y021684D01*
X046711Y021722D01*
X046731Y021756D01*
X046835Y021860D01*
X047045Y021650D01*
X047048Y021725D02*
X046970Y021725D01*
X046949Y021824D02*
X046872Y021824D01*
X046798Y021824D02*
X045570Y021824D01*
X045472Y021922D02*
X046897Y021922D01*
X046713Y021725D02*
X045669Y021725D01*
X045767Y021627D02*
X046706Y021627D01*
X046775Y021528D02*
X045866Y021528D01*
X045964Y021430D02*
X046903Y021430D01*
X046924Y021528D02*
X047001Y021528D01*
X046972Y021331D02*
X046063Y021331D01*
X046161Y021233D02*
X047635Y021233D01*
X047708Y021134D02*
X046260Y021134D01*
X046358Y021036D02*
X047708Y021036D01*
X047708Y020937D02*
X046457Y020937D01*
X046555Y020839D02*
X047708Y020839D01*
X047707Y020740D02*
X046654Y020740D01*
X046752Y020642D02*
X047661Y020642D01*
X047632Y020543D02*
X046851Y020543D01*
X046949Y020445D02*
X047632Y020445D01*
X047655Y020346D02*
X047048Y020346D01*
X047146Y020248D02*
X047696Y020248D01*
X047792Y020149D02*
X047245Y020149D01*
X047343Y020051D02*
X047891Y020051D01*
X047989Y019952D02*
X047442Y019952D01*
X047540Y019854D02*
X048088Y019854D01*
X048186Y019755D02*
X047639Y019755D01*
X047737Y019657D02*
X048343Y019657D01*
X048694Y019558D02*
X047836Y019558D01*
X047934Y019460D02*
X048793Y019460D01*
X049125Y019361D02*
X048033Y019361D01*
X048131Y019263D02*
X049224Y019263D01*
X049219Y019164D02*
X048230Y019164D01*
X048328Y019066D02*
X049228Y019066D01*
X049326Y018967D02*
X048427Y018967D01*
X048525Y018869D02*
X049425Y018869D01*
X049523Y018770D02*
X048624Y018770D01*
X048722Y018672D02*
X050209Y018672D01*
X050307Y018770D02*
X049734Y018770D01*
X049832Y018869D02*
X050442Y018869D01*
X050504Y018967D02*
X049931Y018967D01*
X050029Y019066D02*
X050410Y019066D01*
X050311Y019164D02*
X050065Y019164D01*
X050110Y018573D02*
X048821Y018573D01*
X048919Y018475D02*
X050012Y018475D01*
X049969Y018376D02*
X049018Y018376D01*
X049116Y018278D02*
X050016Y018278D01*
X050114Y018179D02*
X049215Y018179D01*
X049313Y018081D02*
X050213Y018081D01*
X050311Y017982D02*
X049412Y017982D01*
X049510Y017884D02*
X050969Y017884D01*
X050992Y017982D02*
X050446Y017982D01*
X050544Y018081D02*
X051122Y018081D01*
X051190Y018081D02*
X051192Y018081D01*
X051216Y018179D02*
X050643Y018179D01*
X050392Y018392D02*
X051339Y018392D01*
X051615Y018115D01*
X051847Y017884D02*
X053237Y017884D01*
X053139Y017982D02*
X051946Y017982D01*
X052038Y018081D02*
X053040Y018081D01*
X052942Y018179D02*
X052038Y018179D01*
X051944Y018278D02*
X052843Y018278D01*
X052745Y018376D02*
X051846Y018376D01*
X051747Y018475D02*
X052646Y018475D01*
X053336Y017785D02*
X051826Y017785D01*
X051869Y017687D02*
X053434Y017687D01*
X053533Y017588D02*
X051967Y017588D01*
X052066Y017490D02*
X053631Y017490D01*
X053730Y017391D02*
X052164Y017391D01*
X052263Y017293D02*
X053828Y017293D01*
X053927Y017194D02*
X052361Y017194D01*
X052657Y016899D02*
X054679Y016899D01*
X054926Y016702D02*
X055281Y016702D01*
X055197Y016603D02*
X055476Y016603D01*
X055367Y016505D02*
X055599Y016505D01*
X055538Y016406D02*
X055723Y016406D01*
X055640Y016308D02*
X055837Y016308D01*
X055915Y016209D02*
X055739Y016209D01*
X055837Y016111D02*
X055993Y016111D01*
X055921Y016012D02*
X056071Y016012D01*
X056132Y015914D02*
X055978Y015914D01*
X056035Y015815D02*
X056179Y015815D01*
X056227Y015717D02*
X056092Y015717D01*
X056149Y015618D02*
X056274Y015618D01*
X056312Y015520D02*
X056177Y015520D01*
X056203Y015421D02*
X056334Y015421D01*
X056356Y015323D02*
X056229Y015323D01*
X056256Y015224D02*
X056379Y015224D01*
X056401Y015126D02*
X056281Y015126D01*
X056281Y015027D02*
X056404Y015027D01*
X056404Y014929D02*
X056281Y014929D01*
X056281Y014830D02*
X056404Y014830D01*
X056404Y014732D02*
X056281Y014732D01*
X056281Y014633D02*
X056399Y014633D01*
X056377Y014535D02*
X056256Y014535D01*
X056230Y014436D02*
X056354Y014436D01*
X056331Y014338D02*
X056203Y014338D01*
X056177Y014239D02*
X056309Y014239D01*
X056269Y014141D02*
X056149Y014141D01*
X056092Y014042D02*
X056222Y014042D01*
X056174Y013944D02*
X056036Y013944D01*
X055979Y013845D02*
X056127Y013845D01*
X056064Y013747D02*
X055922Y013747D01*
X055985Y013648D02*
X055839Y013648D01*
X055906Y013550D02*
X055740Y013550D01*
X055828Y013451D02*
X055642Y013451D01*
X055710Y013353D02*
X055540Y013353D01*
X055586Y013254D02*
X055370Y013254D01*
X055463Y013156D02*
X055199Y013156D01*
X055260Y013057D02*
X054931Y013057D01*
X055055Y012959D02*
X053691Y012959D01*
X053827Y013057D02*
X053486Y013057D01*
X053559Y013156D02*
X053284Y013156D01*
X053388Y013254D02*
X053160Y013254D01*
X053217Y013353D02*
X053036Y013353D01*
X053116Y013451D02*
X052918Y013451D01*
X052840Y013550D02*
X053018Y013550D01*
X052919Y013648D02*
X052761Y013648D01*
X052836Y013747D02*
X052682Y013747D01*
X052619Y013845D02*
X052779Y013845D01*
X052722Y013944D02*
X052572Y013944D01*
X052524Y014042D02*
X052665Y014042D01*
X052608Y014141D02*
X052476Y014141D01*
X052437Y014239D02*
X052581Y014239D01*
X052554Y014338D02*
X052414Y014338D01*
X052392Y014436D02*
X052528Y014436D01*
X052502Y014535D02*
X052369Y014535D01*
X052346Y014633D02*
X052476Y014633D01*
X052476Y014732D02*
X052337Y014732D01*
X052332Y014830D02*
X052476Y014830D01*
X052476Y014929D02*
X052329Y014929D01*
X052304Y015027D02*
X052476Y015027D01*
X052476Y015126D02*
X052264Y015126D01*
X052170Y015224D02*
X052502Y015224D01*
X052528Y015323D02*
X052071Y015323D01*
X051973Y015421D02*
X052555Y015421D01*
X052581Y015520D02*
X051874Y015520D01*
X051776Y015618D02*
X052609Y015618D01*
X052666Y015717D02*
X051677Y015717D01*
X051579Y015815D02*
X052723Y015815D01*
X052780Y015914D02*
X051480Y015914D01*
X051382Y016012D02*
X052837Y016012D01*
X052849Y016111D02*
X051283Y016111D01*
X051185Y016209D02*
X052750Y016209D01*
X052652Y016308D02*
X051086Y016308D01*
X050988Y016406D02*
X052553Y016406D01*
X052455Y016505D02*
X050889Y016505D01*
X050791Y016603D02*
X052356Y016603D01*
X052258Y016702D02*
X050692Y016702D01*
X050594Y016800D02*
X052159Y016800D01*
X052061Y016899D02*
X050495Y016899D01*
X050397Y016997D02*
X051962Y016997D01*
X051864Y017096D02*
X050298Y017096D01*
X050200Y017194D02*
X051765Y017194D01*
X051667Y017293D02*
X051283Y017293D01*
X051325Y017391D02*
X051568Y017391D01*
X051363Y017490D02*
X051226Y017490D01*
X051265Y017588D02*
X051157Y017588D01*
X051128Y017588D02*
X051020Y017588D01*
X051074Y017642D02*
X050849Y017417D01*
X050730Y017536D01*
X050710Y017570D01*
X050700Y017609D01*
X050700Y017648D01*
X050710Y017686D01*
X050730Y017720D01*
X050863Y017853D01*
X051074Y017642D01*
X051118Y017687D02*
X051029Y017687D01*
X051068Y017785D02*
X050931Y017785D01*
X050795Y017785D02*
X049609Y017785D01*
X049707Y017687D02*
X050710Y017687D01*
X050705Y017588D02*
X049806Y017588D01*
X049904Y017490D02*
X050776Y017490D01*
X050921Y017490D02*
X051058Y017490D01*
X050960Y017391D02*
X050003Y017391D01*
X050101Y017293D02*
X050973Y017293D01*
X052755Y016800D02*
X055078Y016800D01*
X053832Y016702D02*
X052854Y016702D01*
X052952Y016603D02*
X053561Y016603D01*
X053390Y016505D02*
X053051Y016505D01*
X053149Y016406D02*
X053220Y016406D01*
X054115Y012860D02*
X054632Y012860D01*
X049606Y019854D02*
X048995Y019854D01*
X047555Y021331D02*
X047225Y021331D01*
X047198Y021725D02*
X047121Y021725D01*
D27*
X037254Y039879D02*
X037379Y040004D01*
X037379Y040504D01*
X037254Y040629D01*
X036879Y040629D01*
X036879Y039879D02*
X037254Y039879D01*
M02*
