%
M48
M72
T01C0.0236
T02C0.0315
T03C0.0320
T04C0.0400
T05C0.2756
%
T01
X27129Y26629
X36379Y33629
X37379Y34629
X36879Y35129
X38379Y34754
X38379Y33879
X39754Y35379
X40629Y37504
X40629Y40379
X40504Y42754
X42379Y42254
X35379Y36629
X33129Y42254
T02
X34629Y41629
X35629Y41629
X36629Y41629
X37629Y41629
X38629Y41629
X39629Y41629
X33129Y34629
X33129Y33629
X33129Y32629
X33129Y31629
X33129Y30629
X33129Y29629
X33129Y28629
X33129Y27629
T03
X33129Y36629
X33129Y37629
X33129Y38629
X33129Y39629
X33129Y40629
X30129Y40629
X30129Y39629
X30129Y38629
X30129Y37629
X30129Y36629
T04
X28629Y36629
X28629Y35629
X28629Y37629
X28629Y38629
X28629Y40629
X28629Y41629
X20982Y48982
X20275Y48275
X41879Y36379
X41879Y35379
X41879Y34379
X41879Y33379
X41879Y32379
X41879Y31379
X48982Y20982
X48275Y20275
X20982Y20275
X20275Y20982
X48275Y48982
X48982Y48275
T05
X14879Y14879
X14879Y54379
X54379Y54379
X54379Y14879
M30
